<svg width="24" height="24" viewBox="0 0 24 24" fill="none" xmlns="http://www.w3.org/2000/svg">
<path d="M8.55 22C8.08333 22 7.675 21.8583 7.325 21.575C6.975 21.2917 6.74167 20.925 6.625 20.475L5.5 16H18.5L17.375 20.475C17.2583 20.925 17.025 21.2917 16.675 21.575C16.325 21.8583 15.9167 22 15.45 22H8.55ZM12 8C12 6.33333 12.5833 4.91667 13.75 3.75C14.9167 2.58333 16.3333 2 18 2C18 3.5 17.525 4.8 16.575 5.9C15.625 7 14.4333 7.66667 13 7.9V10H21V13C21 13.55 20.8043 14.0207 20.413 14.412C20.021 14.804 19.55 15 19 15H5C4.45 15 3.979 14.804 3.587 14.412C3.19567 14.0207 3 13.55 3 13V10H11V7.9C9.56667 7.66667 8.375 7 7.425 5.9C6.475 4.8 6 3.5 6 2C7.66667 2 9.08333 2.58333 10.25 3.75C11.4167 4.91667 12 6.33333 12 8Z" fill="#6CA23E"/>
</svg>
