<svg width="277" height="277" viewBox="0 0 277 277" fill="none" xmlns="http://www.w3.org/2000/svg">
<path d="M252.766 147.374C252.854 146.113 253.143 144.962 253.632 143.922C254.137 142.882 254.8 141.998 255.621 141.269C256.441 140.541 257.386 139.989 258.455 139.614C259.522 139.255 260.67 139.119 261.899 139.204C263.128 139.29 264.247 139.584 265.254 140.087C266.261 140.606 267.12 141.283 267.831 142.119C268.542 142.97 269.068 143.945 269.408 145.043C269.765 146.143 269.899 147.323 269.812 148.584C269.727 149.797 269.44 150.924 268.951 151.964C268.478 153.006 267.808 153.865 266.943 154.543L265.896 153.34C266.646 152.702 267.202 151.979 267.563 151.17C267.94 150.362 268.162 149.479 268.228 148.522C268.298 147.516 268.187 146.57 267.896 145.684C267.621 144.799 267.186 144.015 266.592 143.332C266.014 142.65 265.315 142.096 264.495 141.67C263.689 141.261 262.783 141.022 261.778 140.952C260.772 140.882 259.834 140.993 258.964 141.285C258.108 141.595 257.339 142.047 256.656 142.641C255.989 143.236 255.45 143.952 255.039 144.79C254.644 145.628 254.412 146.55 254.342 147.556C254.275 148.514 254.373 149.419 254.634 150.271C254.896 151.123 255.354 151.917 256.008 152.652L254.805 153.699C254.042 152.908 253.49 151.963 253.149 150.865C252.809 149.767 252.681 148.603 252.766 147.374Z" fill="black"/>
<path d="M251.936 156.851L268.348 160.438L267.005 166.581C266.701 167.972 266.213 169.119 265.541 170.02C264.885 170.925 264.077 171.551 263.116 171.897C262.168 172.263 261.1 172.317 259.912 172.057C258.756 171.804 257.815 171.312 257.091 170.58C256.378 169.868 255.905 168.962 255.67 167.862C255.451 166.766 255.494 165.523 255.798 164.132L256.931 158.95L257.559 159.898L251.556 158.586L251.936 156.851ZM249.486 168.058L256.364 165.14L255.954 167.015L249.071 169.957L249.486 168.058ZM257.418 159.867L258.408 159.273L257.285 164.408C256.927 166.049 257.014 167.37 257.549 168.371C258.08 169.388 258.994 170.038 260.292 170.322C261.605 170.609 262.715 170.401 263.622 169.699C264.525 169.012 265.156 167.848 265.515 166.206L266.637 161.072L267.289 162.025L257.418 159.867Z" fill="black"/>
<path d="M256.114 178.032L252.994 186.346L251.579 185.815L254.698 177.501L256.114 178.032ZM248.789 175.488L245.239 184.948L243.801 184.409L247.975 173.286L263.704 179.188L259.657 189.973L258.219 189.434L261.642 180.311L248.789 175.488Z" fill="black"/>
<path d="M243.463 185.59L254.518 200.388L253.678 201.926L235.253 200.604L236.151 198.961L253.371 200.335L253.026 200.967L242.576 187.211L243.463 185.59ZM245.95 190.396L246.96 191.55L242.274 200.121L240.757 199.893L245.95 190.396Z" fill="black"/>
<path d="M231.771 205.192L244.115 214.171L247.588 209.397L248.83 210.3L240.839 221.285L239.597 220.382L243.07 215.607L230.727 206.628L231.771 205.192Z" fill="black"/>
<path d="M231.502 220.517L225.408 226.976L224.308 225.938L230.402 219.479L231.502 220.517ZM225.732 215.337L218.798 222.686L217.68 221.632L225.833 212.991L238.053 224.52L230.147 232.899L229.03 231.845L235.717 224.758L225.732 215.337Z" fill="black"/>
<path d="M199.877 235.187C200.935 234.496 202.027 234.033 203.153 233.796C204.287 233.573 205.392 233.568 206.468 233.784C207.544 233.999 208.554 234.42 209.497 235.046C210.427 235.682 211.228 236.516 211.901 237.548C212.574 238.58 213.013 239.649 213.219 240.757C213.412 241.872 213.389 242.966 213.152 244.038C212.901 245.118 212.44 246.125 211.769 247.059C211.107 248.006 210.247 248.825 209.188 249.515C208.169 250.179 207.097 250.63 205.972 250.866C204.855 251.117 203.766 251.101 202.704 250.819L203.033 249.258C203.994 249.472 204.905 249.48 205.768 249.28C206.64 249.094 207.478 248.739 208.282 248.214C209.127 247.664 209.815 247.005 210.346 246.239C210.887 245.485 211.25 244.666 211.437 243.78C211.632 242.908 211.653 242.016 211.498 241.105C211.338 240.216 210.984 239.349 210.433 238.504C209.883 237.66 209.228 236.979 208.471 236.46C207.708 235.964 206.884 235.623 205.998 235.436C205.121 235.263 204.225 235.265 203.309 235.442C202.401 235.632 201.526 236.003 200.681 236.553C199.877 237.077 199.214 237.701 198.691 238.423C198.169 239.145 197.812 239.989 197.62 240.955L196.059 240.626C196.23 239.54 196.651 238.531 197.322 237.597C197.993 236.663 198.844 235.859 199.877 235.187Z" fill="black"/>
<path d="M191.827 240.214L198.829 255.485L193.114 258.106C191.819 258.7 190.61 258.999 189.486 259.004C188.368 259.024 187.382 258.755 186.528 258.196C185.665 257.659 184.98 256.837 184.474 255.732C183.98 254.656 183.808 253.608 183.957 252.589C184.098 251.592 184.537 250.669 185.274 249.82C186.018 248.986 187.037 248.272 188.332 247.679L193.153 245.468L192.773 246.54L190.212 240.955L191.827 240.214ZM181.399 244.996L187.867 248.737L186.121 249.537L179.632 245.807L181.399 244.996ZM192.713 246.409L193.783 246.842L189.006 249.033C187.479 249.733 186.476 250.598 185.997 251.627C185.504 252.663 185.534 253.784 186.088 254.992C186.648 256.213 187.482 256.975 188.588 257.277C189.68 257.586 190.99 257.39 192.517 256.69L197.295 254.499L196.925 255.593L192.713 246.409Z" fill="black"/>
<path d="M177.534 256.259L169.018 258.776L168.59 257.326L177.106 254.809L177.534 256.259ZM175.153 248.879L165.463 251.743L165.028 250.27L176.421 246.903L181.182 263.014L170.135 266.279L169.699 264.806L179.044 262.044L175.153 248.879Z" fill="black"/>
<path d="M163.841 250.718L158.693 268.458L156.959 268.714L146.912 253.213L148.764 252.94L158.044 267.511L157.331 267.616L162.012 250.987L163.841 250.718ZM161.503 255.599L161.191 257.1L151.527 258.525L150.795 257.177L161.503 255.599Z" fill="black"/>
<path d="M141.12 253.195L141.415 268.456L147.318 268.342L147.347 269.878L133.766 270.14L133.736 268.604L139.639 268.49L139.345 253.229L141.12 253.195Z" fill="black"/>
<path d="M128.392 262.201L119.568 261.21L119.736 259.708L128.561 260.698L128.392 262.201ZM129.066 254.476L119.025 253.349L119.197 251.822L131.003 253.147L129.128 269.843L117.68 268.557L117.852 267.031L127.535 268.118L129.066 254.476Z" fill="black"/>
<path d="M102.957 247.564C104.164 247.941 105.217 248.487 106.116 249.204C107.011 249.936 107.718 250.785 108.238 251.751C108.757 252.718 109.076 253.765 109.194 254.891C109.296 256.012 109.164 257.161 108.797 258.337C108.43 259.513 107.886 260.533 107.163 261.397C106.426 262.257 105.569 262.936 104.591 263.436C103.599 263.93 102.529 264.217 101.382 264.295C100.23 264.388 99.0504 264.246 97.8438 263.869C96.683 263.507 95.6529 262.968 94.7535 262.251C93.8494 261.55 93.1675 260.7 92.708 259.702L94.1208 258.961C94.5679 259.838 95.1432 260.546 95.8469 261.084C96.5458 261.637 97.3534 262.057 98.2699 262.343C99.2321 262.643 100.178 262.754 101.108 262.675C102.033 262.612 102.896 262.37 103.697 261.95C104.494 261.545 105.195 260.992 105.798 260.293C106.382 259.603 106.824 258.777 107.125 257.815C107.425 256.853 107.533 255.915 107.45 255C107.347 254.096 107.085 253.244 106.664 252.442C106.239 251.656 105.667 250.966 104.947 250.373C104.222 249.794 103.379 249.355 102.417 249.055C101.5 248.769 100.597 248.655 99.7077 248.712C98.8181 248.77 97.9401 249.032 97.0736 249.499L96.3329 248.087C97.2785 247.527 98.325 247.208 99.4722 247.13C100.62 247.053 101.781 247.197 102.957 247.564Z" fill="black"/>
<path d="M93.9836 244.575L86.698 259.713L81.0321 256.986C79.7489 256.368 78.7466 255.628 78.0251 254.766C77.2967 253.918 76.8748 252.987 76.7593 251.973C76.6224 250.966 76.8177 249.915 77.345 248.819C77.8585 247.752 78.5548 246.951 79.4341 246.415C80.2921 245.887 81.283 245.636 82.4069 245.662C83.5239 245.702 84.7239 246.031 86.0071 246.649L90.7864 248.949L89.7188 249.341L92.3833 243.804L93.9836 244.575ZM83.6465 239.6L84.8955 246.966L83.1654 246.133L81.8948 238.757L83.6465 239.6ZM89.7813 249.211L90.1307 250.311L85.3946 248.032C83.8808 247.303 82.5751 247.083 81.4774 247.372C80.3652 247.653 79.5212 248.392 78.9453 249.589C78.3625 250.8 78.3079 251.928 78.7817 252.973C79.241 254.011 80.2276 254.894 81.7414 255.623L86.4775 257.902L85.3995 258.315L89.7813 249.211Z" fill="black"/>
<path d="M72.5626 243.822L65.1773 238.891L66.0168 237.634L73.4022 242.564L72.5626 243.822ZM76.7072 237.268L68.3039 231.658L69.1567 230.38L79.0372 236.977L69.709 250.949L60.128 244.552L60.9809 243.275L69.0848 248.685L76.7072 237.268Z" fill="black"/>
<path d="M68.066 229.746L51.1331 237.128L49.8286 235.959L55.3247 218.323L56.7186 219.573L51.4467 236.023L50.9106 235.543L66.69 228.512L68.066 229.746ZM62.8185 231.069L61.4641 231.789L54.1911 225.268L54.7592 223.844L62.8185 231.069Z" fill="black"/>
<path d="M51.6913 213.932L40.1426 223.913L44.0031 228.38L42.841 229.384L33.9587 219.106L35.1208 218.102L38.9813 222.569L50.53 212.588L51.6913 213.932Z" fill="black"/>
<path d="M36.8491 210.215L31.9456 202.812L33.2062 201.977L38.1097 209.38L36.8491 210.215ZM43.2061 205.775L37.6267 197.351L38.9073 196.503L45.4674 206.407L31.461 215.684L25.0997 206.08L26.3802 205.231L31.7608 213.355L43.2061 205.775Z" fill="black"/>
<path d="M29.8505 176.275C30.2812 177.463 30.4836 178.632 30.4578 179.782C30.4169 180.937 30.169 182.013 29.7141 183.012C29.2592 184.011 28.6192 184.898 27.7941 185.674C26.9635 186.434 25.9691 187.024 24.8108 187.444C23.6526 187.864 22.5109 188.048 21.386 187.996C20.2556 187.929 19.1958 187.658 18.2066 187.183C17.212 186.692 16.3365 186.014 15.5801 185.148C14.8087 184.287 14.2076 183.263 13.7769 182.075C13.3626 180.931 13.1683 179.785 13.1942 178.635C13.2049 177.491 13.4685 176.434 13.9849 175.464L15.4298 176.14C15.0023 177.027 14.7875 177.913 14.7851 178.799C14.7678 179.69 14.9227 180.587 15.2498 181.49C15.5932 182.437 16.0776 183.257 16.703 183.95C17.3132 184.648 18.0283 185.188 18.8481 185.572C19.6528 185.961 20.5165 186.184 21.4391 186.241C22.3413 186.289 23.2662 186.141 24.2139 185.797C25.1615 185.454 25.974 184.972 26.6514 184.352C27.3082 183.723 27.8284 182.998 28.212 182.178C28.5806 181.364 28.7832 180.491 28.8197 179.558C28.8412 178.632 28.6802 177.694 28.3368 176.747C28.0097 175.844 27.5539 175.056 26.9696 174.383C26.3852 173.71 25.6449 173.17 24.7486 172.763L25.4248 171.318C26.4427 171.732 27.3299 172.372 28.0863 173.238C28.8426 174.104 29.4307 175.116 29.8505 176.275Z" fill="black"/>
<path d="M26.7904 167.287L10.3251 170.624L9.07628 164.461C8.79346 163.065 8.77775 161.82 9.02914 160.724C9.26484 159.631 9.75207 158.733 10.4908 158.028C11.2107 157.311 12.1665 156.831 13.3583 156.59C14.5187 156.355 15.5779 156.426 16.5359 156.803C17.4751 157.168 18.2737 157.806 18.9319 158.717C19.5743 159.632 20.0369 160.787 20.3197 162.183L21.3731 167.381L20.4161 166.767L26.4377 165.547L26.7904 167.287ZM24.512 156.044L19.3955 161.488L19.0141 159.607L24.126 154.138L24.512 156.044ZM20.5572 166.738L19.8913 167.681L18.8474 162.53C18.5137 160.883 17.9005 159.71 17.0075 159.009C16.1114 158.293 15.0126 158.067 13.711 158.33C12.3938 158.597 11.4619 159.235 10.9153 160.244C10.3656 161.237 10.2576 162.556 10.5912 164.203L11.6351 169.354L10.6545 168.745L20.5572 166.738Z" fill="black"/>
<path d="M14.4279 149.692L13.9143 140.827L15.4237 140.74L15.9374 149.605L14.4279 149.692ZM22.1558 149.052L21.5714 138.965L23.1048 138.876L23.792 150.737L7.02013 151.708L6.35376 140.208L7.88719 140.119L8.45082 149.846L22.1558 149.052Z" fill="black"/>
<path d="M22.9213 137.29L6.83262 128.214L6.9811 126.468L24.3715 120.24L24.2129 122.105L7.90362 127.799L7.96464 127.082L23.0779 135.449L22.9213 137.29ZM18.7057 133.897L17.3157 133.248L18.1435 123.516L19.6231 123.112L18.7057 133.897Z" fill="black"/>
<path d="M25.6921 114.577L10.7802 111.317L9.51947 117.085L8.0189 116.757L10.9196 103.486L12.4202 103.814L11.1595 109.582L26.0714 112.842L25.6921 114.577Z" fill="black"/>
<path d="M19.6254 100.82L22.5883 92.4485L24.0137 92.953L21.0508 101.324L19.6254 100.82ZM26.9973 103.225L30.3686 93.7001L31.8165 94.2126L27.8527 105.412L12.0154 99.8064L15.8592 88.9465L17.3071 89.459L14.056 98.6446L26.9973 103.225Z" fill="black"/>
<path d="M39.7866 79.0741C39.1437 80.1623 38.3705 81.0622 37.4671 81.7736C36.5499 82.4768 35.5613 82.9707 34.5013 83.2551C33.4413 83.5394 32.3497 83.61 31.2264 83.4668C30.1112 83.3098 29.0233 82.9179 27.9625 82.2913C26.9018 81.6647 26.0336 80.9009 25.3579 80C24.6903 79.0853 24.2253 78.0952 23.9628 77.0295C23.7085 75.9501 23.6748 74.8431 23.8619 73.7085C24.0352 72.5658 24.4433 71.4503 25.0862 70.362C25.7047 69.3151 26.4656 68.4359 27.369 67.7245C28.2587 67.005 29.242 66.5359 30.3189 66.3172L30.7163 67.8622C29.7603 68.0964 28.9398 68.4945 28.2549 69.0562C27.5562 69.6098 26.9627 70.2998 26.4744 71.1264C25.9617 71.9943 25.6372 72.8897 25.5008 73.8126C25.3506 74.7274 25.3883 75.6231 25.6138 76.4996C25.8256 77.368 26.2029 78.1763 26.7459 78.9245C27.2832 79.6507 27.9858 80.2702 28.8536 80.7829C29.7215 81.2956 30.61 81.616 31.5192 81.7443C32.4227 81.8506 33.3127 81.791 34.1893 81.5655C35.0521 81.3318 35.8547 80.9326 36.5972 80.3677C37.326 79.7947 37.9467 79.0743 38.4594 78.2064C38.9477 77.3799 39.2656 76.527 39.4133 75.6479C39.5609 74.7688 39.5067 73.8541 39.2505 72.9036L40.7954 72.5062C41.1236 73.5549 41.1942 74.6465 41.0071 75.7811C40.82 76.9157 40.4132 78.0133 39.7866 79.0741Z" fill="black"/>
<path d="M44.8415 70.8597L31.7777 60.2966L35.7313 55.407C36.6267 54.2997 37.5767 53.4938 38.5813 52.9893C39.5736 52.4747 40.5766 52.2775 41.5905 52.3978C42.602 52.4955 43.5805 52.9266 44.5261 53.6912C45.4468 54.4356 46.067 55.2972 46.3868 56.2759C46.7041 57.2321 46.7213 58.2542 46.4383 59.3422C46.1428 60.4202 45.5474 61.5128 44.652 62.6201L41.3171 66.7445L41.1806 65.6156L45.9582 69.4787L44.8415 70.8597ZM52.0546 61.939L44.5981 61.4654L45.8053 59.9724L53.2769 60.4273L52.0546 61.939ZM41.2925 65.7061L40.1414 65.7938L43.4461 61.7068C44.5024 60.4004 45.016 59.1799 44.987 58.0453C44.9679 56.8982 44.4421 55.9072 43.4094 55.0722C42.3643 54.2272 41.279 53.9154 40.1534 54.1369C39.0378 54.346 37.9519 55.1038 36.8956 56.4101L33.5908 60.4972L33.4356 59.3532L41.2925 65.7061Z" fill="black"/>
<path d="M50.0754 50.5364L56.5565 44.466L57.5901 45.5695L51.109 51.6399L50.0754 50.5364ZM55.5149 56.0629L62.8893 49.1558L63.9393 50.2768L55.2687 58.3981L43.7841 46.1366L52.1919 38.2615L53.2419 39.3825L46.1303 46.0436L55.5149 56.0629Z" fill="black"/>
<path d="M64.9198 49.18L61.5793 31.0123L63.0147 30.0078L78.9396 39.3684L77.4058 40.4418L62.5839 31.5689L63.1738 31.156L66.4339 48.1204L64.9198 49.18ZM64.8241 43.7691L64.431 42.2866L72.4338 36.6859L73.6921 37.5629L64.8241 43.7691Z" fill="black"/>
<path d="M83.8937 36.8574L76.8191 23.3318L71.5875 26.0682L70.8756 24.7072L82.9125 18.4112L83.6244 19.7723L78.3928 22.5087L85.4674 36.0342L83.8937 36.8574Z" fill="black"/>
<path d="M90.8817 23.2056L99.2074 20.1172L99.7332 21.5348L91.4076 24.6232L90.8817 23.2056ZM93.7578 30.4069L103.231 26.8928L103.765 28.3329L92.6269 32.4647L86.784 16.7134L97.5848 12.7069L98.119 14.147L88.9833 17.5359L93.7578 30.4069Z" fill="black"/>
<path d="M125.541 24.0664C124.285 24.2122 123.101 24.1404 121.988 23.8508C120.874 23.5454 119.883 23.0565 119.015 22.3841C118.148 21.7116 117.432 20.8847 116.867 19.9034C116.318 18.9202 115.972 17.8167 115.83 16.5929C115.688 15.3691 115.771 14.2158 116.08 13.1329C116.405 12.0481 116.913 11.0791 117.603 10.2258C118.309 9.37062 119.171 8.67459 120.187 8.13768C121.202 7.58489 122.338 7.23558 123.593 7.08974C124.801 6.94945 125.962 7.02408 127.074 7.31362C128.185 7.58727 129.153 8.08691 129.979 8.81255L128.988 10.0632C128.224 9.44323 127.411 9.03028 126.549 8.8243C125.686 8.60243 124.777 8.54687 123.824 8.65763C122.822 8.77392 121.913 9.05674 121.095 9.50607C120.276 9.93951 119.585 10.511 119.023 11.2206C118.46 11.9142 118.044 12.7035 117.776 13.5883C117.523 14.4553 117.454 15.3895 117.57 16.3908C117.686 17.392 117.968 18.2935 118.416 19.0953C118.877 19.8792 119.463 20.5522 120.172 21.1141C120.88 21.6601 121.683 22.058 122.582 22.308C123.479 22.5421 124.428 22.601 125.43 22.4847C126.383 22.3739 127.255 22.1116 128.044 21.6978C128.834 21.2839 129.53 20.6876 130.132 19.909L131.383 20.8993C130.746 21.7948 129.919 22.5109 128.902 23.0478C127.885 23.5847 126.765 23.9243 125.541 24.0664Z" fill="black"/>
<path d="M136.043 23.0811L136.626 6.29128L142.911 6.50965C144.334 6.5591 145.549 6.83347 146.556 7.33275C147.564 7.81604 148.325 8.49887 148.839 9.38124C149.369 10.2482 149.613 11.2893 149.57 12.5045C149.529 13.6878 149.214 14.7015 148.624 15.5455C148.051 16.3741 147.245 17.0025 146.205 17.4307C145.166 17.8428 143.935 18.0242 142.512 17.9747L137.211 17.7905L138.031 17.0025L137.818 23.1428L136.043 23.0811ZM147.508 23.4795L143.402 17.2372L145.321 17.3039L149.451 23.5471L147.508 23.4795ZM138.026 17.1464L137.264 16.2794L142.517 16.462C144.196 16.5203 145.48 16.1967 146.369 15.4912C147.274 14.7862 147.749 13.7701 147.796 12.4429C147.842 11.0997 147.439 10.045 146.585 9.27891C145.747 8.51335 144.488 8.1014 142.809 8.04305L137.557 7.86052L138.377 7.04853L138.026 17.1464Z" fill="black"/>
<path d="M155.354 15.0218L164.101 16.5519L163.841 18.0413L155.094 16.5112L155.354 15.0218ZM154.208 22.6909L164.16 24.4319L163.896 25.945L152.193 23.8979L155.088 7.34921L166.436 9.33421L166.171 10.8472L156.573 9.16826L154.208 22.6909Z" fill="black"/>
<path d="M165.566 26.1148L178.109 12.5532L179.773 13.1003L181.823 31.4585L180.044 30.8739L178.265 13.691L178.949 13.9158L167.322 26.6919L165.566 26.1148ZM169.841 22.7956L170.792 21.5924L180.071 24.6428L180.123 26.1756L169.841 22.7956Z" fill="black"/>
<path d="M187.102 34.0762L193.722 20.3222L188.402 17.7618L189.068 16.3778L201.308 22.2687L200.642 23.6528L195.322 21.0924L188.702 34.8464L187.102 34.0762Z" fill="black"/>
<path d="M202.072 31.4627L209.529 36.2845L208.708 37.5542L201.251 32.7324L202.072 31.4627ZM198.024 38.0766L206.508 43.563L205.674 44.8529L195.698 38.4021L204.821 24.2945L214.494 30.5498L213.66 31.8397L205.478 26.5487L198.024 38.0766Z" fill="black"/>
<path d="M218.372 55.9153C217.459 55.0412 216.759 54.0832 216.272 53.0414C215.797 51.988 215.541 50.9129 215.506 49.816C215.471 48.7191 215.651 47.6401 216.046 46.579C216.454 45.529 217.083 44.5591 217.935 43.6691C218.787 42.7792 219.729 42.108 220.76 41.6555C221.803 41.214 222.873 40.987 223.97 40.9744C225.079 40.9728 226.165 41.1925 227.227 41.6333C228.3 42.0625 229.293 42.7142 230.206 43.5883C231.084 44.4292 231.767 45.3706 232.254 46.4124C232.751 47.4426 232.984 48.507 232.951 49.6054L231.356 49.6401C231.346 48.6558 231.146 47.7662 230.755 46.9713C230.375 46.1648 229.839 45.4296 229.145 44.7657C228.417 44.0687 227.619 43.5485 226.752 43.2053C225.895 42.8505 225.015 42.683 224.11 42.7028C223.216 42.7109 222.343 42.894 221.491 43.2521C220.661 43.6097 219.898 44.1526 219.201 44.8807C218.504 45.6088 217.989 46.4009 217.657 47.2568C217.347 48.1123 217.202 48.9925 217.222 49.8974C217.253 50.7907 217.459 51.6632 217.839 52.515C218.231 53.3552 218.791 54.1238 219.519 54.8209C220.213 55.4847 220.971 55.9887 221.793 56.3329C222.615 56.6771 223.518 56.8329 224.502 56.8001L224.537 58.3949C223.441 58.4754 222.362 58.2953 221.3 57.8544C220.238 57.4136 219.262 56.7672 218.372 55.9153Z" fill="black"/>
<path d="M225.187 62.671L238.441 52.3477L242.305 57.3085C243.18 58.4319 243.749 59.5401 244.012 60.6331C244.288 61.7163 244.252 62.7379 243.905 63.698C243.58 64.6609 242.938 65.5159 241.979 66.2631C241.045 66.9907 240.065 67.399 239.039 67.4881C238.036 67.58 237.036 67.3646 236.041 66.8419C235.058 66.3093 234.13 65.4813 233.254 64.3578L229.995 60.1734L231.126 60.2968L226.279 64.0722L225.187 62.671ZM232.237 71.7216L234.391 64.5676L235.571 66.0823L233.431 73.2553L232.237 71.7216ZM231.012 60.3853L231.188 59.2443L234.418 63.3909C235.45 64.7163 236.522 65.4937 237.634 65.723C238.755 65.965 239.84 65.678 240.887 64.862C241.948 64.0361 242.498 63.0499 242.538 61.9034C242.587 60.7695 242.096 59.5399 241.064 58.2145L237.834 54.0679L238.983 54.1765L231.012 60.3853Z" fill="black"/>
<path d="M243.879 72.5332L248.311 80.2282L247.001 80.9828L242.569 73.2878L243.879 72.5332ZM237.258 76.5684L242.3 85.3241L240.969 86.0907L235.04 75.796L249.598 67.4115L255.348 77.3942L254.017 78.1608L249.154 69.7171L237.258 76.5684Z" fill="black"/>
<path d="M241.648 86.9754L260.099 87.8493L260.751 89.4753L248.018 102.857L247.321 101.12L259.329 88.7012L259.597 89.3695L242.336 88.6906L241.648 86.9754ZM246.939 88.1113L248.472 88.0653L252.108 97.1312L250.968 98.1573L246.939 88.1113Z" fill="black"/>
<path d="M249.447 108.709L264.239 104.941L262.781 99.2196L264.27 98.8404L267.623 112.004L266.135 112.383L264.677 106.662L249.885 110.43L249.447 108.709Z" fill="black"/>
<path d="M261.084 118.605L262.176 127.418L260.675 127.604L259.583 118.791L261.084 118.605ZM253.414 119.749L254.657 129.777L253.133 129.965L251.671 118.176L268.344 116.109L269.761 127.542L268.236 127.731L267.038 118.061L253.414 119.749Z" fill="black"/>
</svg>
