<svg width="409" height="560" viewBox="0 0 409 560" fill="none" xmlns="http://www.w3.org/2000/svg">
<path d="M295.194 156.886L283.341 149.588L283.339 149.592C277.873 145.823 275.785 138.678 278.403 132.543L284.184 119.933L276.895 131.759C273.157 137.421 265.85 139.605 259.613 136.899L247.085 131.15L258.523 138.195C264.473 141.826 266.835 149.286 264.119 155.661L258.314 168.31L265.404 156.795C269.123 150.749 276.805 148.43 283.25 151.417C283.252 151.413 283.248 151.42 283.25 151.417L295.194 156.886Z" fill="#2A4E2B"/>
<path d="M267.137 90.2822C256.999 71.4891 248.352 33.9646 283.01 8.98327C320.051 -17.7149 287.862 52.0583 267.137 90.2822Z" stroke="#2A4E2B"/>
<path d="M320 164.695C339.296 155.551 377.22 148.871 400.361 184.785C425.092 223.167 357.092 187.384 320 164.695Z" stroke="#2A4E2B"/>
<path d="M218.848 158.802C213.642 179.511 194.694 213.035 152.259 208.072C106.909 202.768 177.755 173.016 218.848 158.802Z" stroke="#2A4E2B"/>
<circle cx="270.5" cy="144.5" r="53" stroke="black"/>
<path d="M193.454 374.09L192.338 373.59C200.253 354.938 199.726 337.423 190.854 324.269C181.346 310.171 163.596 302.662 140.876 303.126L140.521 303.133L140.334 302.823C130.357 286.333 128.534 270.343 135.198 257.797C142.741 243.595 160.611 235.173 184.229 234.688L184.583 234.681L184.77 234.991C206.716 271.264 210.611 333.664 193.454 374.09ZM141.182 301.893C164.163 301.505 182.149 309.204 191.853 323.592C197.443 331.881 199.819 341.832 198.958 352.679C207.618 314.318 202.028 266.112 183.924 235.923C160.924 236.472 143.568 244.651 136.27 258.395C129.857 270.467 131.604 285.903 141.182 301.893Z" fill="#2A4E2B"/>
<path d="M197.719 336.904L196.686 337.526C195.222 335.108 194.966 332.736 195.967 330.852C197.088 328.746 199.687 327.496 203.102 327.424L203.152 328.652C200.183 328.714 197.953 329.732 197.039 331.45C196.249 332.937 196.49 334.872 197.719 336.904Z" fill="#2A4E2B"/>
<path d="M193.454 374.09L192.338 373.59C199.435 356.866 199.021 338.027 191.173 320.541C180.93 297.72 159.362 279.225 131.998 269.796L132.367 268.635C160.057 278.176 181.893 296.917 192.277 320.053C200.268 337.858 200.687 357.05 193.454 374.09Z" fill="#2A4E2B"/>
<path d="M264.589 366.922L263.551 366.944C244.639 367.329 224.16 362.692 205.069 354.574C200.716 359.664 196.798 366.212 193.454 374.091L192.338 373.59C195.605 365.888 197.434 358.382 197.832 351.297C173.465 339.583 152.11 322.287 140.334 302.823L139.788 301.92L140.826 301.898C163.978 301.426 182.098 309.13 191.853 323.592C197.079 331.341 199.494 340.54 199.085 350.569C200.942 351.45 202.819 352.3 204.708 353.115C211.486 345.444 219.289 341.148 227.644 340.676C240.778 339.932 253.706 348.933 264.043 366.019L264.589 366.922ZM205.902 353.624C224.365 361.419 244.12 365.927 262.453 365.733C252.465 349.651 240.165 341.197 227.737 341.9C219.822 342.352 212.396 346.392 205.902 353.624ZM199.017 351.86C198.755 355.891 198.046 360.049 196.88 364.295C199.055 360.437 201.4 357.019 203.888 354.065C202.253 353.355 200.629 352.62 199.017 351.86ZM141.925 303.108C153.623 321.897 174.306 338.581 197.889 349.996C198.188 340.426 195.838 331.658 190.854 324.27C181.492 310.388 164.143 302.894 141.925 303.108Z" fill="#2A4E2B"/>
<path d="M213.975 346.54C207.529 346.672 199.774 342.63 196.686 337.526L197.719 336.904C200.599 341.665 207.87 345.438 213.925 345.312L213.975 346.54Z" fill="#2A4E2B"/>
<path d="M193.454 374.091L192.338 373.59C201.63 351.692 203.435 335.439 197.165 330.11C192.617 326.247 183.86 328.275 172.535 335.861L171.852 334.833C183.86 326.839 192.863 324.868 197.934 329.179C204.746 334.966 203.112 351.335 193.454 374.091Z" fill="#2A4E2B"/>
<path d="M193.454 374.09L192.338 373.59C198.317 359.503 209.208 336.131 214.979 337.843C217.935 338.724 218.532 345.427 216.805 358.336L215.602 358.148C217.853 341.33 215.449 339.255 214.658 339.019C212.07 338.252 204.964 346.971 193.454 374.09Z" fill="#2A4E2B"/>
<path d="M298.738 358.045C289.708 363.536 277.654 366.655 263.551 366.944L263.196 366.951L263.009 366.641C252.923 349.97 240.397 341.185 227.737 341.9C217.841 342.463 208.71 348.644 201.204 359.643C198.156 364.325 195.548 369.158 193.454 374.09L192.338 373.59C194.706 368.009 197.364 363.081 200.261 358.848C222.216 325.253 266.628 299.33 306.904 298.506L307.258 298.499L307.445 298.809C317.422 315.299 319.247 331.288 312.582 343.835C309.543 349.555 304.828 354.341 298.738 358.045ZM263.855 365.71C286.852 365.157 304.207 356.975 311.511 343.239C317.922 331.166 316.176 315.73 306.599 299.741C271.474 300.584 233.25 320.622 209.844 348.11C215.328 343.582 221.329 341.033 227.645 340.675C240.7 339.937 253.549 348.825 263.855 365.71Z" fill="#2A4E2B"/>
<path d="M219.036 345.247C217.724 346.045 215.992 346.498 213.975 346.54L213.925 345.312C216.9 345.257 219.13 344.237 220.039 342.516C220.829 341.029 220.588 339.094 219.36 337.063L220.393 336.44C221.857 338.859 222.112 341.23 221.111 343.114C220.653 343.977 219.945 344.695 219.036 345.247Z" fill="#2A4E2B"/>
<path d="M299.676 357.022C277.463 340.767 252.524 334.71 231.256 340.4C214.167 344.979 200.735 356.941 193.454 374.091L192.338 373.59C199.763 356.093 213.47 343.888 230.924 339.215C252.545 333.428 277.859 339.558 300.374 356.034L299.676 357.022Z" fill="#2A4E2B"/>
<path d="M142.665 429.175C122.902 441.193 100.314 448.73 78.8897 449.17L78.5354 449.177L78.3485 448.867C68.3716 432.377 66.5479 416.385 73.2126 403.838C80.7507 389.638 98.6253 381.217 122.243 380.732L122.597 380.725L122.784 381.035C132.869 397.704 145.397 406.491 158.056 405.774C167.953 405.214 177.084 399.029 184.589 388.031C187.637 383.351 190.244 378.522 192.337 373.588L193.454 374.091C191.085 379.672 188.427 384.602 185.528 388.834C175.252 404.557 160.053 418.601 142.665 429.175ZM79.1948 447.935C114.317 447.086 152.545 427.046 175.951 399.563C170.474 404.104 164.465 406.641 158.148 406.999C145.094 407.739 132.245 398.851 121.939 381.966C98.9402 382.515 81.5874 390.692 74.2834 404.434C67.8717 416.508 69.6176 431.944 79.1948 447.935Z" fill="#2A4E2B"/>
<path d="M163.23 408.001C138.072 423.3 103.088 427.236 70.012 415.838L70.3812 414.677C120.658 432.001 175.366 413.571 192.338 373.59L193.455 374.093C187.438 388.267 176.753 399.778 163.23 408.001Z" fill="#2A4E2B"/>
<path d="M202.603 512.964L201.565 512.986C155.581 513.924 100.308 485.163 78.3485 448.867L77.8021 447.964L78.8404 447.942C124.422 447.014 175.331 413.654 192.338 373.59L193.454 374.091C176.433 414.194 180.292 476.086 202.056 512.06L202.603 512.964ZM79.9328 449.142C101.88 484.399 155.479 512.254 200.481 511.775C180.782 478.372 176.051 423.667 188.554 383.908C168.051 419.565 121.884 447.838 79.9328 449.142Z" fill="#2A4E2B"/>
<path d="M110.548 481.903L109.865 480.875C138.289 461.891 175.286 413.763 192.337 373.588L193.454 374.091C176.326 414.445 139.134 462.81 110.548 481.903Z" fill="#2A4E2B"/>
<path d="M154.818 504.378L153.615 504.19C157.859 472.479 175.23 413.893 192.337 373.588L193.454 374.091C176.383 414.312 159.051 472.759 154.818 504.378Z" fill="#2A4E2B"/>
<path d="M236.751 504.086C227.721 509.578 215.668 512.696 201.565 512.986L201.21 512.992L201.023 512.683C179.076 476.408 175.181 414.011 192.338 373.59L193.455 374.093C185.54 392.739 186.066 410.251 194.938 423.405C204.448 437.505 222.197 445.014 244.918 444.548L245.272 444.541L245.459 444.85C255.436 461.34 257.261 477.333 250.596 489.879C247.557 495.597 242.841 500.383 236.751 504.086ZM201.87 511.751C224.866 511.204 242.221 503.019 249.524 489.281C255.937 477.21 254.191 461.773 244.612 445.78C221.63 446.169 203.644 438.47 193.94 424.082C188.35 415.795 185.973 405.845 186.835 394.998C178.173 433.354 183.764 481.559 201.87 511.751Z" fill="#2A4E2B"/>
<path d="M237.692 503.066C195.488 472.184 175.143 414.101 192.337 373.588L193.454 374.091C176.471 414.103 196.629 471.519 238.389 502.078L237.692 503.066Z" fill="#2A4E2B"/>
<path d="M193.443 374.116L192.335 373.597C193.363 371.074 194.427 368.046 195.047 365.886C195.681 363.673 196.273 360.6 196.662 358.481C196.911 357.134 197.134 355.222 197.217 353.721C197.362 351.151 197.347 347.783 197.334 346.454C197.322 345.283 197.18 343.575 196.979 342.205C196.557 339.303 196.157 337.154 195.755 335.633C195.528 334.777 195.14 333.406 194.791 332.363C194.513 331.53 194.088 330.46 193.751 329.611L193.68 329.431C193.311 328.504 192.649 327.189 191.907 325.914C191.669 325.506 191.389 325.117 191.288 324.976L192.232 324.224C192.823 324.942 193.878 325.923 194.669 326.601C196.339 328.034 197.877 329.11 198.168 329.311C200.295 330.756 200.997 331.232 202.871 332.307C203.659 332.761 204.718 333.341 205.522 333.76C206.356 334.193 207.481 334.747 208.333 335.145C211.48 336.61 214.067 337.517 214.092 337.527L214.934 337.819C215.629 338.062 216.384 338.328 217.001 338.505C218.933 339.063 220.883 339.572 222.221 339.87C223.492 340.151 226.459 340.674 228.6 340.639L228.715 341.86C226.596 342.148 224.286 342.989 223.415 343.304C221.936 343.845 219.932 344.77 218.286 345.673C216.609 346.583 214.411 347.992 212.807 349.163C211.185 350.347 209.136 352.108 207.76 353.36C205.773 355.172 203.41 357.989 201.683 360.046C200.905 360.973 200.112 362.143 199.409 363.175L198.88 363.953C197.016 366.649 195.146 370.556 193.645 373.695L193.443 374.116ZM194.318 327.886C194.495 328.258 194.662 328.636 194.805 328.995L194.877 329.174C195.22 330.043 195.655 331.138 195.94 331.991C196.298 333.063 196.696 334.465 196.926 335.338C197.341 336.905 197.751 339.101 198.181 342.05C198.392 343.492 198.535 345.225 198.547 346.467C198.56 347.808 198.575 351.208 198.428 353.814C198.343 355.361 198.113 357.337 197.856 358.731C197.497 360.682 196.968 363.435 196.387 365.621C196.878 364.77 197.378 363.964 197.879 363.236L198.405 362.468C199.122 361.411 199.934 360.215 200.68 359.327C202.499 357.16 204.892 354.308 206.938 352.444C207.617 351.825 209.994 349.688 212.084 348.164C213.723 346.964 215.978 345.536 217.691 344.59C219.384 343.662 221.453 342.709 222.961 342.159C223.336 342.021 223.956 341.796 224.71 341.558C223.619 341.4 222.634 341.212 221.984 341.068C219.967 340.62 217.424 339.896 216.691 339.684C216.054 339.502 215.274 339.228 214.557 338.976L213.726 338.689C213.709 338.682 211.103 337.774 207.842 336.256C206.977 335.854 205.834 335.289 204.985 334.849C204.165 334.422 203.088 333.83 202.288 333.371C200.374 332.273 199.662 331.789 197.553 330.356C197.226 330.132 195.865 329.179 194.318 327.886Z" fill="#2A4E2B"/>
<path d="M193.454 374.09L192.338 373.59C200.253 354.938 199.726 337.423 190.854 324.269C181.346 310.171 163.596 302.662 140.876 303.126L140.521 303.133L140.334 302.823C130.357 286.333 128.534 270.343 135.198 257.797C142.741 243.595 160.611 235.173 184.229 234.688L184.583 234.681L184.77 234.991C206.716 271.264 210.611 333.664 193.454 374.09ZM141.182 301.893C164.163 301.505 182.149 309.204 191.853 323.592C197.443 331.881 199.819 341.832 198.958 352.679C207.618 314.318 202.028 266.112 183.924 235.923C160.924 236.472 143.568 244.651 136.27 258.395C129.857 270.467 131.604 285.903 141.182 301.893Z" fill="#2A4E2B"/>
<path d="M179.048 311.315L178.015 311.938C173.013 303.671 172.107 295.642 175.461 289.329C179.245 282.19 188.195 277.968 200.002 277.724L200.051 278.953C188.685 279.182 180.117 283.186 176.533 289.926C173.39 295.843 174.282 303.438 179.048 311.315Z" fill="#2A4E2B"/>
<path d="M197.719 336.904L196.686 337.526C195.222 335.108 194.966 332.736 195.967 330.852C197.088 328.746 199.687 327.496 203.102 327.424L203.152 328.652C200.183 328.714 197.953 329.732 197.039 331.45C196.249 332.937 196.49 334.872 197.719 336.904Z" fill="#2A4E2B"/>
<path d="M193.454 374.09L192.338 373.59C199.435 356.866 199.021 338.027 191.173 320.541C180.93 297.72 159.362 279.225 131.998 269.796L132.367 268.635C160.057 278.176 181.893 296.917 192.277 320.053C200.268 337.858 200.687 357.05 193.454 374.09Z" fill="#2A4E2B"/>
<path d="M264.589 366.922L263.551 366.944C244.639 367.329 224.16 362.692 205.069 354.574C200.716 359.664 196.798 366.212 193.454 374.091L192.338 373.59C195.605 365.888 197.434 358.382 197.832 351.297C173.465 339.583 152.11 322.287 140.334 302.823L139.788 301.92L140.826 301.898C163.978 301.426 182.098 309.13 191.853 323.592C197.079 331.341 199.494 340.54 199.085 350.569C200.942 351.45 202.819 352.3 204.708 353.115C211.486 345.444 219.289 341.148 227.644 340.676C240.778 339.932 253.706 348.933 264.043 366.019L264.589 366.922ZM205.902 353.624C224.365 361.419 244.12 365.927 262.453 365.733C252.465 349.651 240.165 341.197 227.737 341.9C219.822 342.352 212.396 346.392 205.902 353.624ZM199.017 351.86C198.755 355.891 198.046 360.049 196.88 364.295C199.055 360.437 201.4 357.019 203.888 354.065C202.253 353.355 200.629 352.62 199.017 351.86ZM141.925 303.108C153.623 321.897 174.306 338.581 197.889 349.996C198.188 340.426 195.838 331.658 190.854 324.27C181.492 310.388 164.143 302.894 141.925 303.108Z" fill="#2A4E2B"/>
<path d="M239.314 343.846C216.443 344.314 188.944 330.001 178.015 311.938L179.048 311.315C189.769 329.036 216.784 343.08 239.265 342.618L239.314 343.846Z" fill="#2A4E2B"/>
<path d="M213.975 346.54C207.529 346.672 199.774 342.63 196.686 337.526L197.719 336.904C200.599 341.665 207.87 345.438 213.925 345.312L213.975 346.54Z" fill="#2A4E2B"/>
<path d="M193.454 374.091L192.338 373.59C201.63 351.692 203.435 335.439 197.165 330.11C192.617 326.247 183.86 328.275 172.535 335.861L171.852 334.833C183.86 326.839 192.863 324.868 197.934 329.179C204.746 334.966 203.112 351.335 193.454 374.091Z" fill="#2A4E2B"/>
<path d="M193.454 374.09L192.338 373.59C198.317 359.503 209.208 336.131 214.979 337.843C217.935 338.724 218.532 345.427 216.805 358.336L215.602 358.148C217.853 341.33 215.449 339.255 214.658 339.019C212.07 338.252 204.964 346.971 193.454 374.09Z" fill="#2A4E2B"/>
<path d="M298.738 358.045C289.708 363.536 277.654 366.655 263.551 366.944L263.196 366.951L263.009 366.641C252.923 349.97 240.397 341.185 227.737 341.9C217.841 342.463 208.71 348.644 201.204 359.643C198.156 364.325 195.548 369.158 193.454 374.09L192.338 373.59C194.706 368.009 197.364 363.081 200.261 358.848C222.216 325.253 266.628 299.33 306.904 298.506L307.258 298.499L307.445 298.809C317.422 315.299 319.247 331.288 312.582 343.835C309.543 349.555 304.828 354.341 298.738 358.045ZM263.855 365.71C286.852 365.157 304.207 356.975 311.511 343.239C317.922 331.166 316.176 315.73 306.599 299.741C271.474 300.584 233.25 320.622 209.844 348.11C215.328 343.582 221.329 341.033 227.645 340.675C240.7 339.937 253.549 348.825 263.855 365.71Z" fill="#2A4E2B"/>
<path d="M256.892 339.393C252.373 342.141 246.352 343.702 239.314 343.846L239.265 342.618C250.632 342.387 259.203 338.386 262.783 331.644C265.926 325.728 265.034 318.133 260.268 310.256L261.301 309.633C266.301 317.898 267.209 325.929 263.855 332.242C262.326 335.124 259.953 337.532 256.892 339.393Z" fill="#2A4E2B"/>
<path d="M219.036 345.247C217.724 346.045 215.992 346.498 213.975 346.54L213.925 345.312C216.9 345.257 219.13 344.237 220.039 342.516C220.829 341.029 220.588 339.094 219.36 337.063L220.393 336.44C221.857 338.859 222.112 341.23 221.111 343.114C220.653 343.977 219.945 344.695 219.036 345.247Z" fill="#2A4E2B"/>
<path d="M299.676 357.022C277.463 340.767 252.524 334.71 231.256 340.4C214.167 344.979 200.735 356.941 193.454 374.091L192.338 373.59C199.763 356.093 213.47 343.888 230.924 339.215C252.545 333.428 277.859 339.558 300.374 356.034L299.676 357.022Z" fill="#2A4E2B"/>
<path d="M142.665 429.175C122.902 441.193 100.314 448.73 78.8897 449.17L78.5354 449.177L78.3485 448.867C68.3716 432.377 66.5479 416.385 73.2126 403.838C80.7507 389.638 98.6253 381.217 122.243 380.732L122.597 380.725L122.784 381.035C132.869 397.704 145.397 406.491 158.056 405.774C167.953 405.214 177.084 399.029 184.589 388.031C187.637 383.351 190.244 378.522 192.337 373.588L193.454 374.091C191.085 379.672 188.427 384.602 185.528 388.834C175.252 404.557 160.053 418.601 142.665 429.175ZM79.1948 447.935C114.317 447.086 152.545 427.046 175.951 399.563C170.474 404.104 164.465 406.641 158.148 406.999C145.094 407.739 132.245 398.851 121.939 381.966C98.9402 382.515 81.5874 390.692 74.2834 404.434C67.8717 416.508 69.6176 431.944 79.1948 447.935Z" fill="#2A4E2B"/>
<path d="M163.23 408.001C138.072 423.3 103.088 427.236 70.012 415.838L70.3812 414.677C120.658 432.001 175.366 413.571 192.338 373.59L193.455 374.093C187.438 388.267 176.753 399.778 163.23 408.001Z" fill="#2A4E2B"/>
<path d="M202.603 512.964L201.565 512.986C155.581 513.924 100.308 485.163 78.3485 448.867L77.8021 447.964L78.8404 447.942C124.422 447.014 175.331 413.654 192.338 373.59L193.454 374.091C176.433 414.194 180.292 476.086 202.056 512.06L202.603 512.964ZM79.9328 449.142C101.88 484.399 155.479 512.254 200.481 511.775C180.782 478.372 176.051 423.667 188.554 383.908C168.051 419.565 121.884 447.838 79.9328 449.142Z" fill="#2A4E2B"/>
<path d="M110.548 481.903L109.865 480.875C138.289 461.891 175.286 413.763 192.337 373.588L193.454 374.091C176.326 414.445 139.134 462.81 110.548 481.903Z" fill="#2A4E2B"/>
<path d="M154.818 504.378L153.615 504.19C157.859 472.479 175.23 413.893 192.337 373.588L193.454 374.091C176.383 414.312 159.051 472.759 154.818 504.378Z" fill="#2A4E2B"/>
<path d="M236.751 504.086C227.721 509.578 215.668 512.696 201.565 512.986L201.21 512.992L201.023 512.683C179.076 476.408 175.181 414.011 192.338 373.59L193.455 374.093C185.54 392.739 186.066 410.251 194.938 423.405C204.448 437.505 222.197 445.014 244.918 444.548L245.272 444.541L245.459 444.85C255.436 461.34 257.261 477.333 250.596 489.879C247.557 495.597 242.841 500.383 236.751 504.086ZM201.87 511.751C224.866 511.204 242.221 503.019 249.524 489.281C255.937 477.21 254.191 461.773 244.612 445.78C221.63 446.169 203.644 438.47 193.94 424.082C188.35 415.795 185.973 405.845 186.835 394.998C178.173 433.354 183.764 481.559 201.87 511.751Z" fill="#2A4E2B"/>
<path d="M237.692 503.066C195.488 472.184 175.143 414.101 192.337 373.588L193.454 374.091C176.471 414.103 196.629 471.519 238.389 502.078L237.692 503.066Z" fill="#2A4E2B"/>
<path d="M298.74 358.035C289.705 363.532 277.642 366.656 263.551 366.944C244.979 367.322 224.891 362.856 206.096 355.007C205.492 355.642 204.837 356.334 204.191 357.04C201.985 359.546 199.984 362.216 198.201 365.032C196.617 367.775 194.734 371.368 193.445 374.113L192.326 373.617C192.544 373.022 192.796 372.366 193.057 371.689C193.477 370.601 193.906 369.485 194.254 368.467C194.515 367.668 194.76 366.862 194.988 366.055C195.239 365.152 195.492 364.169 195.722 363.205C196.594 359.479 197.132 355.668 197.34 351.81C197.353 351.554 197.364 351.31 197.372 351.074C173.197 339.366 152.036 322.165 140.334 302.823C131.803 288.723 129.205 275.125 132.821 263.499L133.015 262.879L133.619 263.127C161.054 274.382 182.581 294.781 192.676 319.091C193.816 321.836 194.793 324.602 195.607 327.382C197.029 328.534 198.062 329.237 198.114 329.273C200.432 330.848 200.982 331.221 202.853 332.295C205.589 333.869 207.734 334.872 208.327 335.143C210.489 336.119 211.576 336.609 214.093 337.526C216.602 338.44 218.349 338.913 219.625 339.256C219.653 339.265 221.965 339.882 224.151 340.233C226.69 338.957 229.33 337.811 232.068 336.803C256.26 327.908 285.427 330.299 312.095 343.369L312.683 343.658L312.37 344.226C309.331 349.769 304.691 354.416 298.74 358.035ZM206.998 354.083C225.498 361.74 245.238 366.09 263.501 365.716C286.114 365.256 303.369 357.414 310.988 344.181C284.779 331.512 256.21 329.239 232.503 337.958C230.4 338.732 228.352 339.588 226.367 340.524C227.083 340.597 227.872 340.65 228.601 340.638L228.716 341.86C226.622 342.147 224.343 342.968 223.593 343.238C221.994 343.813 219.94 344.816 218.498 345.555C217.416 346.108 216.075 346.904 215.16 347.537L215.011 347.639C213.385 348.76 211.156 350.293 209.699 351.622L208.806 352.425C208.213 352.955 207.561 353.537 206.998 354.083ZM196.92 363.444C196.745 364.194 196.559 364.942 196.357 365.685C196.621 365.245 196.889 364.808 197.163 364.374C197.232 364.256 197.301 364.138 197.369 364.023C198.015 362.919 198.965 361.642 199.802 360.516C200.103 360.112 200.393 359.722 200.654 359.36C201.376 358.36 202.313 357.273 203.27 356.223C203.788 355.634 204.316 355.054 204.857 354.482C202.741 353.58 200.644 352.633 198.567 351.648C198.555 351.887 198.541 352.121 198.527 352.358C198.382 354.891 198.039 358.211 197.399 361.314C197.26 361.983 197.097 362.708 196.92 363.444ZM198.619 350.347C200.969 351.47 203.348 352.542 205.748 353.56C210.533 348.69 216.121 344.518 222.385 341.149C220.718 340.812 219.339 340.443 219.323 340.439C218.038 340.092 216.259 339.611 213.702 338.678C211.142 337.747 210.042 337.251 207.85 336.26C207.242 335.984 205.051 334.958 202.27 333.36C200.36 332.263 199.801 331.883 197.451 330.286C197.413 330.26 196.92 329.926 196.156 329.347C198.015 336.36 198.837 343.425 198.619 350.347ZM223.46 341.976C223.775 341.864 224.207 341.714 224.713 341.552C224.588 341.536 224.473 341.518 224.372 341.503C224.066 341.658 223.763 341.817 223.46 341.976ZM133.791 264.514C130.568 275.656 133.179 288.668 141.367 302.201C152.879 321.227 173.641 338.165 197.399 349.757C197.4 349.548 197.399 349.36 197.394 349.188C197.324 346.116 197.188 343.83 196.978 342.194C196.714 340.132 196.149 337.218 195.572 334.937C195.169 333.346 194.505 331.366 193.922 330.014L193.705 329.501C193.489 328.989 193.251 328.422 193.022 327.983L192.759 327.475C192.552 327.073 192.329 326.636 192.13 326.292C192.03 326.116 191.567 325.334 191.294 324.984L192.217 324.208C192.513 324.544 192.918 324.981 193.237 325.292C193.432 325.483 193.662 325.701 193.895 325.915C193.214 323.782 192.436 321.658 191.559 319.548C181.666 295.724 160.631 275.694 133.791 264.514ZM194.317 327.884C194.489 328.254 194.66 328.663 194.82 329.04L194.825 329.053C194.737 328.729 194.645 328.404 194.553 328.079C194.475 328.017 194.396 327.952 194.317 327.884Z" fill="#2A4E2B"/>
<path d="M193.454 374.091L192.338 373.59C209.358 333.481 205.5 271.586 183.737 235.613L183.191 234.71L184.229 234.688C230.212 233.75 285.486 262.513 307.445 298.809L307.992 299.712L306.953 299.734C261.375 300.661 210.458 334.02 193.454 374.091ZM243.129 318.498C262.568 306.677 284.75 299.19 305.861 298.534C283.914 263.277 230.313 235.42 185.313 235.899C205.011 269.302 209.741 324.007 197.239 363.772C207.424 346.058 223.943 330.166 243.129 318.498Z" fill="#2A4E2B"/>
<path d="M261.301 309.633L260.268 310.256C249.548 292.537 222.533 278.493 200.051 278.953L200.002 277.725C222.875 277.259 250.373 291.572 261.301 309.633Z" fill="#2A4E2B"/>
<path d="M220.393 336.44L219.36 337.063C216.479 332.301 209.208 328.529 203.152 328.652L203.102 327.424C209.55 327.294 217.306 331.339 220.393 336.44Z" fill="#2A4E2B"/>
<path d="M193.454 374.091L192.338 373.59C209.463 333.237 246.655 284.869 275.245 265.771L275.928 266.8C247.501 285.788 210.503 333.919 193.454 374.091Z" fill="#2A4E2B"/>
<path d="M193.454 374.091L192.338 373.59C209.412 333.358 226.743 274.909 230.974 243.297L232.178 243.484C227.935 275.188 210.564 333.777 193.454 374.091Z" fill="#2A4E2B"/>
<path d="M193.454 374.09L192.338 373.59C200.253 354.938 199.726 337.423 190.854 324.269C181.346 310.171 163.596 302.662 140.876 303.126L140.521 303.133L140.334 302.823C130.357 286.333 128.534 270.343 135.198 257.797C142.741 243.595 160.611 235.173 184.229 234.688L184.583 234.681L184.77 234.991C206.716 271.264 210.611 333.664 193.454 374.09ZM141.182 301.893C164.163 301.505 182.149 309.204 191.853 323.592C197.443 331.881 199.819 341.832 198.958 352.679C207.618 314.318 202.028 266.112 183.924 235.923C160.924 236.472 143.568 244.651 136.27 258.395C129.857 270.467 131.604 285.903 141.182 301.893Z" fill="#2A4E2B"/>
<path d="M179.048 311.315L178.015 311.938C173.013 303.671 172.107 295.642 175.461 289.329C179.245 282.19 188.195 277.968 200.002 277.724L200.051 278.953C188.685 279.182 180.117 283.186 176.533 289.926C173.39 295.843 174.282 303.438 179.048 311.315Z" fill="#2A4E2B"/>
<path d="M197.719 336.904L196.686 337.526C195.222 335.108 194.966 332.736 195.967 330.852C197.088 328.746 199.687 327.496 203.102 327.424L203.152 328.652C200.183 328.714 197.953 329.732 197.039 331.45C196.249 332.937 196.49 334.872 197.719 336.904Z" fill="#2A4E2B"/>
<path d="M193.454 374.09L192.338 373.59C209.321 333.571 189.165 276.155 147.406 245.598L148.103 244.61C190.305 275.489 210.65 333.576 193.454 374.09Z" fill="#2A4E2B"/>
<path d="M246.006 445.754L244.967 445.776C221.816 446.248 203.694 438.544 193.94 424.082C188.713 416.333 186.296 407.135 186.708 397.106C184.851 396.224 182.974 395.373 181.087 394.561C174.306 402.23 166.499 406.526 158.148 406.999C145.013 407.743 132.088 398.744 121.751 381.657L121.205 380.754L122.243 380.732C141.154 380.345 161.636 384.983 180.726 393.102C185.079 388.012 188.995 381.464 192.338 373.59L193.454 374.09C190.188 381.789 188.358 389.293 187.962 396.377C212.328 408.091 233.683 425.387 245.459 444.85L246.006 445.754ZM187.904 397.679C187.603 407.249 189.954 416.016 194.938 423.405C204.301 437.287 221.651 444.78 243.869 444.565C232.171 425.776 211.486 409.093 187.904 397.679ZM181.905 393.609C183.543 394.32 185.165 395.054 186.777 395.814C187.037 391.783 187.747 387.628 188.911 383.383C186.738 387.24 184.394 390.657 181.905 393.609ZM123.341 381.943C133.329 398.025 145.628 406.478 158.056 405.774C165.97 405.325 173.396 401.28 179.893 394.051C161.429 386.257 141.674 381.75 123.341 381.943Z" fill="#2A4E2B"/>
<path d="M210.954 414.748C200.447 421.138 192.501 422.441 187.857 418.496C181.047 412.708 182.681 396.342 192.338 373.59L193.454 374.09C184.162 395.985 182.357 412.236 188.628 417.564C193.174 421.428 201.911 419.399 213.257 411.813L213.941 412.842C212.923 413.519 211.927 414.157 210.954 414.748Z" fill="#2A4E2B"/>
<path d="M173.297 409.309C172.397 409.856 171.563 410.055 170.814 409.832C167.858 408.952 167.262 402.249 168.989 389.34L170.193 389.528C167.94 406.344 170.345 408.421 171.136 408.657C173.718 409.416 180.829 400.706 192.338 373.59L193.455 374.093C188.251 386.348 179.329 405.64 173.297 409.309Z" fill="#2A4E2B"/>
<path d="M142.665 429.175C122.902 441.193 100.314 448.73 78.8897 449.17L78.5354 449.177L78.3485 448.867C68.3716 432.377 66.5479 416.385 73.2126 403.838C80.7507 389.638 98.6253 381.217 122.243 380.732L122.597 380.725L122.784 381.035C132.869 397.704 145.397 406.491 158.056 405.774C167.953 405.214 177.084 399.029 184.589 388.031C187.637 383.351 190.244 378.522 192.337 373.588L193.454 374.091C191.085 379.672 188.427 384.602 185.528 388.834C175.252 404.557 160.053 418.601 142.665 429.175ZM79.1948 447.935C114.317 447.086 152.545 427.046 175.951 399.563C170.474 404.104 164.465 406.641 158.148 406.999C145.094 407.739 132.245 398.851 121.939 381.966C98.9402 382.515 81.5874 390.692 74.2834 404.434C67.8717 416.508 69.6176 431.944 79.1948 447.935Z" fill="#2A4E2B"/>
<path d="M169.775 402.117C165.206 404.895 160.215 407.031 154.869 408.462C133.246 414.247 107.933 408.116 85.4186 391.64L86.1161 390.652C108.33 406.907 133.267 412.965 154.536 407.275C171.636 402.703 185.059 390.738 192.338 373.59L193.454 374.09C188.304 386.229 180.128 395.821 169.775 402.117Z" fill="#2A4E2B"/>
<path d="M193.454 374.09L192.338 373.59C199.398 356.95 199.123 337.759 191.559 319.548C181.591 295.544 160.313 275.391 133.182 264.262L132.652 264.045L132.821 263.499C138.263 246.008 157.482 235.236 184.229 234.688C230.212 233.75 285.486 262.513 307.445 298.809L307.992 299.712L306.953 299.734C261.375 300.661 210.458 334.02 193.454 374.09ZM134.153 263.347C161.334 274.649 182.646 294.939 192.676 319.091C199.029 334.389 200.324 350.373 196.533 365.019C216.668 328.779 263.424 299.852 305.861 298.534C283.746 263.004 229.488 234.991 184.278 235.916C158.344 236.444 139.664 246.684 134.153 263.347Z" fill="#2A4E2B"/>
<path d="M298.738 358.045C289.708 363.536 277.654 366.655 263.551 366.944L263.196 366.951L263.009 366.641C252.923 349.97 240.397 341.185 227.737 341.9C217.841 342.463 208.71 348.644 201.204 359.643C198.156 364.325 195.548 369.158 193.454 374.09L192.338 373.59C194.706 368.009 197.364 363.081 200.261 358.848C222.216 325.253 266.628 299.33 306.904 298.506L307.258 298.499L307.445 298.809C317.422 315.299 319.247 331.288 312.582 343.835C309.543 349.555 304.828 354.341 298.738 358.045ZM263.855 365.71C286.852 365.157 304.207 356.975 311.511 343.239C317.922 331.166 316.176 315.73 306.599 299.741C271.474 300.584 233.25 320.622 209.844 348.11C215.328 343.582 221.329 341.033 227.645 340.675C240.7 339.937 253.549 348.825 263.855 365.71Z" fill="#2A4E2B"/>
<path d="M256.892 339.393C252.373 342.141 246.352 343.702 239.314 343.846L239.265 342.618C250.632 342.387 259.203 338.386 262.783 331.644C265.926 325.728 265.034 318.133 260.268 310.256L261.301 309.633C266.301 317.898 267.209 325.929 263.855 332.242C262.326 335.124 259.953 337.532 256.892 339.393Z" fill="#2A4E2B"/>
<path d="M219.036 345.247C217.724 346.045 215.992 346.498 213.975 346.54L213.925 345.312C216.9 345.257 219.13 344.237 220.039 342.516C220.829 341.029 220.588 339.094 219.36 337.063L220.393 336.44C221.857 338.859 222.112 341.23 221.111 343.114C220.653 343.977 219.945 344.695 219.036 345.247Z" fill="#2A4E2B"/>
<path d="M315.412 332.997C265.135 315.674 210.428 334.108 193.454 374.09L192.338 373.59C209.544 333.038 264.922 314.313 315.782 331.836L315.412 332.997Z" fill="#2A4E2B"/>
<path d="M236.751 504.086C227.721 509.578 215.668 512.696 201.565 512.986L201.21 512.992L201.023 512.683C179.076 476.408 175.181 414.011 192.338 373.59L193.455 374.092C185.54 392.739 186.066 410.251 194.938 423.405C204.448 437.505 222.197 445.014 244.918 444.548L245.272 444.541L245.459 444.85C255.436 461.34 257.261 477.333 250.596 489.879C247.557 495.597 242.841 500.383 236.751 504.086ZM201.87 511.751C224.866 511.204 242.221 503.019 249.524 489.281C255.937 477.21 254.191 461.773 244.612 445.78C221.63 446.169 203.644 438.47 193.94 424.082C188.35 415.795 185.973 405.845 186.835 394.997C178.173 433.354 183.764 481.559 201.87 511.751Z" fill="#2A4E2B"/>
<path d="M253.425 479.039C225.734 469.496 203.898 450.755 193.514 427.619C185.523 409.814 185.106 390.627 192.338 373.59L193.454 374.09C186.358 390.811 186.772 409.647 194.618 427.131C204.86 449.953 226.429 468.448 253.794 477.878L253.425 479.039Z" fill="#2A4E2B"/>
<path d="M312.098 344.724L311.582 344.471C285.212 331.547 256.389 329.172 232.503 337.958C214.391 344.625 200.516 357.455 193.454 374.09L192.338 373.59C209.508 333.125 260.903 299.447 306.904 298.506L307.258 298.499L307.445 298.809C317.537 315.488 319.288 331.619 312.37 344.226L312.098 344.724ZM219.026 343.07C223.073 340.609 227.433 338.508 232.068 336.803C256.102 327.964 285.047 330.268 311.574 343.116C317.913 331.059 316.155 315.695 306.599 299.741C268.674 300.651 227.131 323.942 204.533 354.829C208.731 350.324 213.596 346.373 219.026 343.07Z" fill="#2A4E2B"/>
<path d="M193.454 374.091L192.338 373.59C209.358 333.481 205.5 271.586 183.737 235.613L183.191 234.71L184.229 234.688C230.212 233.75 285.486 262.513 307.445 298.809L307.992 299.712L306.953 299.734C261.375 300.661 210.458 334.02 193.454 374.091ZM243.129 318.498C262.568 306.677 284.75 299.19 305.861 298.534C283.914 263.277 230.313 235.42 185.313 235.899C205.011 269.302 209.741 324.007 197.239 363.772C207.424 346.058 223.943 330.166 243.129 318.498Z" fill="#2A4E2B"/>
<path d="M193.454 374.091L192.338 373.59C209.463 333.237 246.655 284.869 275.245 265.771L275.928 266.8C247.501 285.788 210.503 333.919 193.454 374.091Z" fill="#2A4E2B"/>
<path d="M193.454 374.091L192.338 373.59C209.412 333.358 226.743 274.909 230.974 243.297L232.178 243.484C227.935 275.188 210.564 333.777 193.454 374.091Z" fill="#2A4E2B"/>
<path d="M193.454 374.09L192.338 373.59C200.253 354.938 199.726 337.423 190.854 324.269C181.346 310.171 163.596 302.662 140.876 303.126L140.521 303.133L140.334 302.823C130.357 286.333 128.534 270.343 135.198 257.797C142.741 243.595 160.611 235.173 184.229 234.688L184.583 234.681L184.77 234.991C206.716 271.264 210.611 333.664 193.454 374.09ZM141.182 301.893C164.163 301.505 182.149 309.204 191.853 323.592C197.443 331.881 199.819 341.832 198.958 352.679C207.618 314.318 202.028 266.112 183.924 235.923C160.924 236.472 143.568 244.651 136.27 258.395C129.857 270.467 131.604 285.903 141.182 301.893Z" fill="#2A4E2B"/>
<path d="M193.454 374.09L192.338 373.59C209.321 333.571 189.165 276.155 147.406 245.598L148.103 244.61C190.305 275.489 210.65 333.576 193.454 374.09Z" fill="#2A4E2B"/>
<path d="M246.006 445.754L244.967 445.776C221.816 446.248 203.694 438.544 193.94 424.082C188.713 416.333 186.296 407.135 186.708 397.106C184.851 396.224 182.974 395.373 181.087 394.561C174.306 402.23 166.499 406.526 158.148 406.999C145.013 407.743 132.088 398.744 121.751 381.657L121.205 380.754L122.243 380.732C141.154 380.345 161.636 384.983 180.726 393.102C185.079 388.012 188.995 381.464 192.338 373.59L193.454 374.09C190.188 381.789 188.358 389.293 187.962 396.377C212.328 408.091 233.683 425.387 245.459 444.85L246.006 445.754ZM187.904 397.679C187.603 407.249 189.954 416.016 194.938 423.405C204.301 437.287 221.651 444.78 243.869 444.565C232.171 425.776 211.486 409.093 187.904 397.679ZM181.905 393.609C183.543 394.32 185.165 395.054 186.777 395.814C187.037 391.783 187.747 387.628 188.911 383.383C186.738 387.24 184.394 390.657 181.905 393.609ZM123.341 381.943C133.329 398.025 145.628 406.478 158.056 405.774C165.97 405.325 173.396 401.28 179.893 394.051C161.429 386.257 141.674 381.75 123.341 381.943Z" fill="#2A4E2B"/>
<path d="M189.108 410.15L188.075 410.772C185.195 406.011 177.924 402.239 171.867 402.362L171.818 401.134C178.265 401.004 186.021 405.049 189.108 410.15Z" fill="#2A4E2B"/>
<path d="M210.954 414.748C200.447 421.138 192.501 422.441 187.857 418.496C181.047 412.708 182.681 396.342 192.338 373.59L193.454 374.09C184.162 395.985 182.357 412.236 188.628 417.564C193.174 421.428 201.911 419.399 213.257 411.813L213.941 412.842C212.923 413.519 211.927 414.157 210.954 414.748Z" fill="#2A4E2B"/>
<path d="M173.297 409.309C172.397 409.856 171.563 410.055 170.814 409.832C167.858 408.952 167.262 402.249 168.989 389.34L170.193 389.528C167.94 406.344 170.345 408.421 171.136 408.657C173.718 409.416 180.829 400.706 192.338 373.59L193.455 374.093C188.251 386.348 179.329 405.64 173.297 409.309Z" fill="#2A4E2B"/>
<path d="M142.665 429.175C122.902 441.193 100.314 448.73 78.8897 449.17L78.5354 449.177L78.3485 448.867C68.3716 432.377 66.5479 416.385 73.2126 403.838C80.7507 389.638 98.6253 381.217 122.243 380.732L122.597 380.725L122.784 381.035C132.869 397.704 145.397 406.491 158.056 405.774C167.953 405.214 177.084 399.029 184.589 388.031C187.637 383.351 190.244 378.522 192.337 373.588L193.454 374.091C191.085 379.672 188.427 384.602 185.528 388.834C175.252 404.557 160.053 418.601 142.665 429.175ZM79.1948 447.935C114.317 447.086 152.545 427.046 175.951 399.563C170.474 404.104 164.465 406.641 158.148 406.999C145.094 407.739 132.245 398.851 121.939 381.966C98.9402 382.515 81.5874 390.692 74.2834 404.434C67.8717 416.508 69.6176 431.944 79.1948 447.935Z" fill="#2A4E2B"/>
<path d="M166.434 410.614L165.401 411.236C163.937 408.818 163.682 406.446 164.683 404.562C165.803 402.456 168.403 401.205 171.818 401.134L171.867 402.362C168.896 402.423 166.667 403.44 165.755 405.16C164.965 406.647 165.206 408.582 166.434 410.614Z" fill="#2A4E2B"/>
<path d="M169.775 402.117C165.206 404.895 160.215 407.031 154.869 408.462C133.246 414.247 107.933 408.116 85.4186 391.64L86.1161 390.652C108.33 406.907 133.267 412.965 154.536 407.275C171.636 402.703 185.059 390.738 192.338 373.59L193.454 374.09C188.304 386.229 180.128 395.821 169.775 402.117Z" fill="#2A4E2B"/>
<path d="M193.575 423.466C193.279 423.13 192.875 422.693 192.556 422.382C192.166 421.999 191.632 421.511 191.219 421.156C189.288 419.498 187.744 418.446 187.678 418.401C185.36 416.827 184.81 416.453 182.94 415.379C179.909 413.637 177.567 412.579 177.469 412.535C176.604 412.144 175.452 411.626 174.578 411.263C173.722 410.909 172.569 410.465 171.7 410.148C169.174 409.23 167.437 408.76 166.167 408.418C163.089 407.584 159.359 407.001 157.296 407.035L157.004 407.009L153.997 406.24L157.046 405.807C157.936 405.68 158.641 405.517 158.813 405.478C159.668 405.265 160.615 404.991 161.254 404.771C162.652 404.291 164.841 403.431 166.407 402.583C168.687 401.354 170.339 400.378 171.461 399.591C173.524 398.139 176.006 396.167 177.635 394.682C179.557 392.933 181.778 390.395 183.89 387.914C184.641 387.037 185.481 385.816 186.221 384.739L186.7 384.045C187.513 382.879 188.56 381.168 189.305 379.789C190.194 378.138 191.386 375.7 192.342 373.576L193.454 374.09C185.902 391.884 186.051 408.807 193.876 421.743C194.356 422.504 194.356 422.506 194.498 422.69L193.575 423.466ZM161.081 406.123C162.809 406.373 164.715 406.76 166.459 407.233C167.748 407.581 169.515 408.058 172.092 408.995C172.978 409.319 174.148 409.77 175.02 410.131C175.905 410.498 177.07 411.02 177.945 411.416C178.195 411.528 180.493 412.574 183.522 414.314C185.433 415.412 185.992 415.791 188.342 417.388C188.401 417.429 189.679 418.299 191.358 419.692C185.97 409.068 185.236 396.181 189.169 382.484C188.666 383.312 188.147 384.118 187.697 384.764L187.223 385.453C186.466 386.554 185.606 387.802 184.818 388.727C182.68 391.237 180.43 393.807 178.458 395.601C176.769 397.139 174.299 399.1 172.166 400.601C171.009 401.417 169.316 402.418 166.997 403.668C165.368 404.549 163.174 405.414 161.665 405.932C161.48 405.996 161.283 406.06 161.081 406.123Z" fill="#2A4E2B"/>
<path d="M193.454 374.091L192.338 373.59C209.358 333.481 205.5 271.586 183.737 235.613L183.191 234.71L184.229 234.688C230.212 233.75 285.486 262.513 307.445 298.809L307.992 299.712L306.953 299.734C261.375 300.661 210.458 334.02 193.454 374.091ZM243.129 318.498C262.568 306.677 284.75 299.19 305.861 298.534C283.914 263.277 230.313 235.42 185.313 235.899C205.011 269.302 209.741 324.007 197.239 363.772C207.424 346.058 223.943 330.166 243.129 318.498Z" fill="#2A4E2B"/>
<path d="M193.454 374.091L192.338 373.59C209.463 333.237 246.655 284.869 275.245 265.771L275.928 266.8C247.501 285.788 210.503 333.919 193.454 374.091Z" fill="#2A4E2B"/>
<path d="M193.454 374.091L192.338 373.59C209.412 333.358 226.743 274.909 230.974 243.297L232.178 243.484C227.935 275.188 210.564 333.777 193.454 374.091Z" fill="#2A4E2B"/>
<path d="M193.454 374.09L192.338 373.59C200.253 354.938 199.726 337.423 190.854 324.269C181.346 310.171 163.596 302.662 140.876 303.126L140.521 303.133L140.334 302.823C130.357 286.333 128.534 270.343 135.198 257.797C142.741 243.595 160.611 235.173 184.229 234.688L184.583 234.681L184.77 234.991C206.716 271.264 210.611 333.664 193.454 374.09ZM141.182 301.893C164.163 301.505 182.149 309.204 191.853 323.592C197.443 331.881 199.819 341.832 198.958 352.679C207.618 314.318 202.028 266.112 183.924 235.923C160.924 236.472 143.568 244.651 136.27 258.395C129.857 270.467 131.604 285.903 141.182 301.893Z" fill="#2A4E2B"/>
<path d="M193.454 374.09L192.338 373.59C209.321 333.571 189.165 276.155 147.406 245.598L148.103 244.61C190.305 275.489 210.65 333.576 193.454 374.09Z" fill="#2A4E2B"/>
<path d="M246.006 445.754L244.967 445.776C221.816 446.248 203.694 438.544 193.94 424.082C188.713 416.333 186.296 407.135 186.708 397.106C184.851 396.224 182.974 395.373 181.087 394.561C174.306 402.23 166.499 406.526 158.148 406.999C145.013 407.743 132.088 398.744 121.751 381.657L121.205 380.754L122.243 380.732C141.154 380.345 161.636 384.983 180.726 393.102C185.079 388.012 188.995 381.464 192.338 373.59L193.454 374.09C190.188 381.789 188.358 389.293 187.962 396.377C212.328 408.091 233.683 425.387 245.459 444.85L246.006 445.754ZM187.904 397.679C187.603 407.249 189.954 416.016 194.938 423.405C204.301 437.287 221.651 444.78 243.869 444.565C232.171 425.776 211.486 409.093 187.904 397.679ZM181.905 393.609C183.543 394.32 185.165 395.054 186.777 395.814C187.037 391.783 187.747 387.628 188.911 383.383C186.738 387.24 184.394 390.657 181.905 393.609ZM123.341 381.943C133.329 398.025 145.628 406.478 158.056 405.774C165.97 405.325 173.396 401.28 179.893 394.051C161.429 386.257 141.674 381.75 123.341 381.943Z" fill="#2A4E2B"/>
<path d="M189.108 410.15L188.075 410.772C185.195 406.011 177.924 402.239 171.867 402.362L171.818 401.134C178.265 401.004 186.021 405.049 189.108 410.15Z" fill="#2A4E2B"/>
<path d="M207.778 435.736L206.745 436.359C196.025 418.64 169.011 404.595 146.529 405.055L146.48 403.827C169.352 403.361 196.85 417.675 207.778 435.736Z" fill="#2A4E2B"/>
<path d="M210.954 414.748C200.447 421.138 192.501 422.441 187.857 418.496C181.047 412.708 182.681 396.342 192.338 373.59L193.454 374.09C184.162 395.985 182.357 412.236 188.628 417.564C193.174 421.428 201.911 419.399 213.257 411.813L213.941 412.842C212.923 413.519 211.927 414.157 210.954 414.748Z" fill="#2A4E2B"/>
<path d="M173.297 409.309C172.397 409.856 171.563 410.055 170.814 409.832C167.858 408.952 167.262 402.249 168.989 389.34L170.193 389.528C167.94 406.344 170.345 408.421 171.136 408.657C173.718 409.416 180.829 400.706 192.338 373.59L193.455 374.093C188.251 386.348 179.329 405.64 173.297 409.309Z" fill="#2A4E2B"/>
<path d="M142.665 429.175C122.902 441.193 100.314 448.73 78.8897 449.17L78.5354 449.177L78.3485 448.867C68.3716 432.377 66.5479 416.385 73.2126 403.838C80.7507 389.638 98.6253 381.217 122.243 380.732L122.597 380.725L122.784 381.035C132.869 397.704 145.397 406.491 158.056 405.774C167.953 405.214 177.084 399.029 184.589 388.031C187.637 383.351 190.244 378.522 192.337 373.588L193.454 374.091C191.085 379.672 188.427 384.602 185.528 388.834C175.252 404.557 160.053 418.601 142.665 429.175ZM79.1948 447.935C114.317 447.086 152.545 427.046 175.951 399.563C170.474 404.104 164.465 406.641 158.148 406.999C145.094 407.739 132.245 398.851 121.939 381.966C98.9402 382.515 81.5874 390.692 74.2834 404.434C67.8717 416.508 69.6176 431.944 79.1948 447.935Z" fill="#2A4E2B"/>
<path d="M166.434 410.614L165.401 411.236C163.937 408.818 163.682 406.446 164.683 404.562C165.803 402.456 168.403 401.205 171.818 401.134L171.867 402.362C168.896 402.423 166.667 403.44 165.755 405.16C164.965 406.647 165.206 408.582 166.434 410.614Z" fill="#2A4E2B"/>
<path d="M125.525 437.418L124.492 438.041C119.491 429.776 118.583 421.745 121.937 415.432C125.726 408.299 134.67 404.07 146.48 403.827L146.529 405.055C135.161 405.284 126.587 409.288 123.009 416.03C119.866 421.947 120.76 429.541 125.525 437.418Z" fill="#2A4E2B"/>
<path d="M169.775 402.117C165.206 404.895 160.215 407.031 154.869 408.462C133.246 414.247 107.933 408.116 85.4186 391.64L86.1161 390.652C108.33 406.907 133.267 412.965 154.536 407.275C171.636 402.703 185.059 390.738 192.338 373.59L193.454 374.09C188.304 386.229 180.128 395.821 169.775 402.117Z" fill="#2A4E2B"/>
<path d="M246.006 445.754L244.967 445.776C221.598 446.253 202.877 438.059 193.398 423.258C192.787 422.563 191.845 421.692 191.123 421.073C189.453 419.64 187.915 418.564 187.625 418.363C185.514 416.93 184.807 416.449 182.922 415.367C180.113 413.756 178.036 412.79 177.466 412.533C175.281 411.546 174.189 411.054 171.688 410.143C169.2 409.239 167.572 408.799 166.136 408.409C165.785 408.315 164.339 407.939 162.636 407.617C137.749 421.556 103.513 423.562 71.1957 410.306L70.6667 410.089L70.8354 409.543C76.2742 392.048 95.4926 381.277 122.243 380.732C140.826 380.353 160.921 384.823 179.726 392.68C180.323 392.077 180.939 391.426 181.453 390.813C183.217 388.707 185.543 385.656 187.241 383.222C187.289 383.154 187.338 383.085 187.385 383.013C187.928 382.158 188.455 381.285 188.96 380.403C189.441 379.538 189.906 378.66 190.323 377.867L190.598 377.347C190.797 376.95 190.993 376.552 191.183 376.151C191.391 375.703 191.599 375.238 191.798 374.787C191.989 374.358 192.174 373.943 192.345 373.571L193.454 374.09C193.079 374.975 192.685 375.847 192.276 376.708C192.074 377.147 191.87 377.567 191.674 377.937L191.671 377.942C191.157 378.965 190.615 379.975 190.051 380.963C189.504 381.95 188.932 382.925 188.372 383.747C186.214 387.13 183.757 390.302 181.045 393.238C208.246 404.869 232.581 423.564 245.459 444.85L246.006 445.754ZM194.489 422.725C203.612 436.856 221.491 444.77 243.869 444.565C230.908 423.747 206.912 405.514 180.168 394.169C175.529 399.004 170.197 403.186 164.237 406.697C165.327 406.934 166.153 407.152 166.392 407.215C167.888 407.62 169.542 408.069 172.08 408.991C174.622 409.916 175.728 410.414 177.933 411.409C178.526 411.677 180.649 412.665 183.504 414.303C185.432 415.409 186.148 415.896 188.277 417.343C188.596 417.564 190.182 418.673 191.898 420.145C192.455 420.622 193.138 421.244 193.723 421.839L193.877 421.746C194.212 422.292 194.337 422.467 194.512 422.708L194.489 422.725ZM162.416 406.335C163.709 405.606 164.97 404.839 166.21 404.042C165.232 404.527 164.249 404.978 163.381 405.306C162.779 405.533 161.916 405.841 161.055 406.116C161.2 406.139 161.348 406.161 161.501 406.184C161.81 406.23 162.117 406.283 162.416 406.335ZM72.1688 409.39C103.387 422.022 136.358 420.303 160.671 407.298C159.322 407.111 158.326 407.037 157.183 407.035L157.182 407.036L157.179 406.925L156.984 405.825C157.104 405.797 157.26 405.776 157.4 405.755C158.078 405.653 158.875 405.479 159.507 405.301C160.448 405.036 161.794 404.587 162.936 404.155C164.566 403.541 166.657 402.448 168.296 401.564C170.177 400.561 172.43 398.886 174.247 397.547L174.526 397.341C175.469 396.646 176.625 395.605 177.636 394.685C177.903 394.441 178.318 394.056 178.799 393.594C160.298 385.935 140.556 381.586 122.292 381.96C96.3598 382.49 77.678 392.728 72.1688 409.39Z" fill="#2A4E2B"/>
<path d="M193.454 374.09L192.338 373.59C200.253 354.938 199.726 337.423 190.854 324.269C181.346 310.171 163.596 302.662 140.876 303.126L140.521 303.133L140.334 302.823C130.357 286.333 128.534 270.343 135.198 257.797C142.741 243.595 160.611 235.173 184.229 234.688L184.583 234.681L184.77 234.991C206.716 271.264 210.611 333.664 193.454 374.09ZM141.182 301.893C164.163 301.505 182.149 309.204 191.853 323.592C197.443 331.881 199.819 341.832 198.958 352.679C207.618 314.318 202.028 266.112 183.924 235.923C160.924 236.472 143.568 244.651 136.27 258.395C129.857 270.467 131.604 285.903 141.182 301.893Z" fill="#2A4E2B"/>
<path d="M193.454 374.09L192.338 373.59C199.435 356.866 199.021 338.027 191.173 320.541C180.93 297.72 159.362 279.225 131.998 269.796L132.367 268.635C160.057 278.176 181.893 296.917 192.277 320.053C200.268 337.858 200.687 357.05 193.454 374.09Z" fill="#2A4E2B"/>
<path d="M264.589 366.922L263.551 366.944C244.639 367.329 224.16 362.692 205.069 354.574C200.716 359.664 196.798 366.212 193.454 374.091L192.338 373.59C195.605 365.888 197.434 358.382 197.832 351.297C173.465 339.583 152.11 322.287 140.334 302.823L139.788 301.92L140.826 301.898C163.978 301.426 182.098 309.13 191.853 323.592C197.079 331.341 199.494 340.54 199.085 350.569C200.942 351.45 202.819 352.3 204.708 353.115C211.486 345.444 219.289 341.148 227.644 340.676C240.778 339.932 253.706 348.933 264.043 366.019L264.589 366.922ZM205.902 353.624C224.365 361.419 244.12 365.927 262.453 365.733C252.465 349.651 240.165 341.197 227.737 341.9C219.822 342.352 212.396 346.392 205.902 353.624ZM199.017 351.86C198.755 355.891 198.046 360.049 196.88 364.295C199.055 360.437 201.4 357.019 203.888 354.065C202.253 353.355 200.629 352.62 199.017 351.86ZM141.925 303.108C153.623 321.897 174.306 338.581 197.889 349.996C198.188 340.426 195.838 331.658 190.854 324.27C181.492 310.388 164.143 302.894 141.925 303.108Z" fill="#2A4E2B"/>
<path d="M193.454 374.091L192.338 373.59C201.63 351.692 203.435 335.439 197.165 330.11C192.617 326.247 183.86 328.275 172.535 335.861L171.852 334.833C183.86 326.839 192.863 324.868 197.934 329.179C204.746 334.966 203.112 351.335 193.454 374.091Z" fill="#2A4E2B"/>
<path d="M193.454 374.09L192.338 373.59C198.317 359.503 209.208 336.131 214.979 337.843C217.935 338.724 218.532 345.427 216.805 358.336L215.602 358.148C217.853 341.33 215.449 339.255 214.658 339.019C212.07 338.252 204.964 346.971 193.454 374.09Z" fill="#2A4E2B"/>
<path d="M298.738 358.045C289.708 363.536 277.654 366.655 263.551 366.944L263.196 366.951L263.009 366.641C252.923 349.97 240.397 341.185 227.737 341.9C217.841 342.463 208.71 348.644 201.204 359.643C198.156 364.325 195.548 369.158 193.454 374.09L192.338 373.59C194.706 368.009 197.364 363.081 200.261 358.848C222.216 325.253 266.628 299.33 306.904 298.506L307.258 298.499L307.445 298.809C317.422 315.299 319.247 331.288 312.582 343.835C309.543 349.555 304.828 354.341 298.738 358.045ZM263.855 365.71C286.852 365.157 304.207 356.975 311.511 343.239C317.922 331.166 316.176 315.73 306.599 299.741C271.474 300.584 233.25 320.622 209.844 348.11C215.328 343.582 221.329 341.033 227.645 340.675C240.7 339.937 253.549 348.825 263.855 365.71Z" fill="#2A4E2B"/>
<path d="M299.676 357.022C277.463 340.767 252.524 334.71 231.256 340.4C214.167 344.979 200.735 356.941 193.454 374.091L192.338 373.59C199.763 356.093 213.47 343.888 230.924 339.215C252.545 333.428 277.859 339.558 300.374 356.034L299.676 357.022Z" fill="#2A4E2B"/>
<path d="M142.665 429.175C122.902 441.193 100.314 448.73 78.8897 449.17L78.5354 449.177L78.3485 448.867C68.3716 432.377 66.5479 416.385 73.2126 403.838C80.7507 389.638 98.6253 381.217 122.243 380.732L122.597 380.725L122.784 381.035C132.869 397.704 145.397 406.491 158.056 405.774C167.953 405.214 177.084 399.029 184.589 388.031C187.637 383.351 190.244 378.522 192.337 373.588L193.454 374.091C191.085 379.672 188.427 384.602 185.528 388.834C175.252 404.557 160.053 418.601 142.665 429.175ZM79.1948 447.935C114.317 447.086 152.545 427.046 175.951 399.563C170.474 404.104 164.465 406.641 158.148 406.999C145.094 407.739 132.245 398.851 121.939 381.966C98.9402 382.515 81.5874 390.692 74.2834 404.434C67.8717 416.508 69.6176 431.944 79.1948 447.935Z" fill="#2A4E2B"/>
<path d="M166.434 410.614L165.401 411.236C163.937 408.818 163.682 406.446 164.683 404.562C165.803 402.456 168.403 401.205 171.818 401.134L171.867 402.362C168.896 402.423 166.667 403.44 165.755 405.16C164.965 406.647 165.206 408.582 166.434 410.614Z" fill="#2A4E2B"/>
<path d="M125.525 437.418L124.492 438.041C119.491 429.776 118.583 421.745 121.937 415.432C125.726 408.299 134.67 404.07 146.48 403.827L146.529 405.055C135.161 405.284 126.587 409.288 123.009 416.03C119.866 421.947 120.76 429.541 125.525 437.418Z" fill="#2A4E2B"/>
<path d="M163.23 408.001C138.072 423.3 103.088 427.236 70.012 415.838L70.3812 414.677C120.658 432.001 175.366 413.571 192.338 373.59L193.455 374.093C187.438 388.267 176.753 399.778 163.23 408.001Z" fill="#2A4E2B"/>
<path d="M202.603 512.964L201.565 512.986C155.581 513.924 100.308 485.163 78.3485 448.867L77.8021 447.964L78.8404 447.942C124.422 447.014 175.331 413.654 192.338 373.59L193.454 374.091C176.433 414.194 180.292 476.086 202.056 512.06L202.603 512.964ZM79.9328 449.142C101.88 484.399 155.479 512.254 200.481 511.775C180.782 478.372 176.051 423.667 188.554 383.908C168.051 419.565 121.884 447.838 79.9328 449.142Z" fill="#2A4E2B"/>
<path d="M182.689 420.251C176.244 420.382 168.489 416.34 165.401 411.236L166.434 410.614C169.314 415.375 176.585 419.148 182.64 419.023L182.689 420.251Z" fill="#2A4E2B"/>
<path d="M185.79 469.95C162.917 470.416 135.421 456.104 124.492 438.041L125.525 437.418C136.246 455.14 163.258 469.182 185.741 468.722L185.79 469.95Z" fill="#2A4E2B"/>
<path d="M110.548 481.903L109.865 480.875C138.289 461.891 175.286 413.763 192.337 373.588L193.454 374.091C176.326 414.445 139.134 462.81 110.548 481.903Z" fill="#2A4E2B"/>
<path d="M154.818 504.378L153.615 504.19C157.859 472.479 175.23 413.893 192.337 373.588L193.454 374.091C176.383 414.312 159.051 472.759 154.818 504.378Z" fill="#2A4E2B"/>
<path d="M236.751 504.086C227.721 509.578 215.668 512.696 201.565 512.986L201.21 512.992L201.023 512.683C179.076 476.408 175.181 414.011 192.338 373.59L193.455 374.093C185.54 392.739 186.066 410.251 194.938 423.405C204.448 437.505 222.197 445.014 244.918 444.548L245.272 444.541L245.459 444.85C255.436 461.34 257.261 477.333 250.596 489.879C247.557 495.597 242.841 500.383 236.751 504.086ZM201.87 511.751C224.866 511.204 242.221 503.019 249.524 489.281C255.937 477.21 254.191 461.773 244.612 445.78C221.63 446.169 203.644 438.47 193.94 424.082C188.35 415.795 185.973 405.845 186.835 394.998C178.173 433.354 183.764 481.559 201.87 511.751Z" fill="#2A4E2B"/>
<path d="M187.75 418.959C186.439 419.756 184.706 420.209 182.689 420.251L182.64 419.023C185.615 418.965 187.844 417.945 188.754 416.227C189.543 414.74 189.302 412.802 188.075 410.773L189.108 410.15C190.571 412.569 190.826 414.941 189.826 416.825C189.367 417.687 188.66 418.405 187.75 418.959Z" fill="#2A4E2B"/>
<path d="M203.368 465.497C198.849 468.245 192.828 469.805 185.79 469.95L185.741 468.722C197.108 468.491 205.677 464.49 209.26 457.748C212.403 451.831 211.51 444.236 206.745 436.359L207.778 435.736C212.779 444.003 213.686 452.032 210.332 458.345C208.802 461.228 206.43 463.635 203.368 465.497Z" fill="#2A4E2B"/>
<path d="M237.692 503.066C195.488 472.184 175.143 414.101 192.337 373.588L193.454 374.091C176.471 414.103 196.629 471.519 238.389 502.078L237.692 503.066Z" fill="#2A4E2B"/>
<path d="M236.757 504.077C227.721 509.572 215.656 512.698 201.564 512.986C155.581 513.924 100.308 485.163 78.3485 448.867C69.8169 434.768 67.2189 421.169 70.8354 409.543L71.0291 408.923L71.6332 409.171C121.227 429.516 175.37 413.554 192.338 373.59L193.454 374.09C176.492 414.054 201.907 465.787 250.109 489.413L250.697 489.702L250.384 490.27C247.345 495.81 242.708 500.458 236.757 504.077ZM71.8073 410.554C68.582 421.697 71.1933 434.712 79.3816 448.245C101.134 484.198 155.922 512.69 201.515 511.758C224.13 511.293 241.391 503.462 249.003 490.221C203.938 467.833 178.802 421.04 189.394 382.091C168.823 416.557 118.392 429.376 71.8073 410.554Z" fill="#2A4E2B"/>
<path d="M298.738 358.045C289.708 363.536 277.654 366.655 263.551 366.944L263.196 366.951L263.009 366.641C252.923 349.97 240.397 341.185 227.737 341.9C217.841 342.463 208.71 348.644 201.204 359.643C198.156 364.325 195.548 369.158 193.454 374.09L192.338 373.59C194.706 368.009 197.364 363.081 200.261 358.848C222.216 325.253 266.628 299.33 306.904 298.506L307.258 298.499L307.445 298.809C317.422 315.299 319.247 331.288 312.582 343.835C309.543 349.555 304.828 354.341 298.738 358.045ZM263.855 365.71C286.852 365.157 304.207 356.975 311.511 343.239C317.922 331.166 316.176 315.73 306.599 299.741C271.474 300.584 233.25 320.622 209.844 348.11C215.328 343.582 221.329 341.033 227.645 340.675C240.7 339.937 253.549 348.825 263.855 365.71Z" fill="#2A4E2B"/>
<path d="M315.412 332.997C265.135 315.674 210.428 334.108 193.454 374.09L192.338 373.59C209.544 333.038 264.922 314.313 315.782 331.836L315.412 332.997Z" fill="#2A4E2B"/>
<path d="M236.751 504.086C227.721 509.578 215.668 512.696 201.565 512.986L201.21 512.992L201.023 512.683C179.076 476.408 175.181 414.011 192.338 373.59L193.455 374.092C185.54 392.739 186.066 410.251 194.938 423.405C204.448 437.505 222.197 445.014 244.918 444.548L245.272 444.541L245.459 444.85C255.436 461.34 257.261 477.333 250.596 489.879C247.557 495.597 242.841 500.383 236.751 504.086ZM201.87 511.751C224.866 511.204 242.221 503.019 249.524 489.281C255.937 477.21 254.191 461.773 244.612 445.78C221.63 446.169 203.644 438.47 193.94 424.082C188.35 415.795 185.973 405.845 186.835 394.997C178.173 433.354 183.764 481.559 201.87 511.751Z" fill="#2A4E2B"/>
<path d="M187.75 418.958C186.439 419.756 184.706 420.208 182.689 420.251L182.64 419.022C185.615 418.965 187.844 417.945 188.754 416.227C189.543 414.74 189.302 412.802 188.075 410.772L189.108 410.15C190.571 412.569 190.826 414.941 189.826 416.825C189.367 417.687 188.66 418.405 187.75 418.958Z" fill="#2A4E2B"/>
<path d="M253.425 479.039C225.734 469.496 203.898 450.755 193.514 427.619C185.523 409.814 185.106 390.627 192.338 373.59L193.454 374.09C186.358 390.811 186.772 409.647 194.618 427.131C204.86 449.953 226.429 468.448 253.794 477.878L253.425 479.039Z" fill="#2A4E2B"/>
<path d="M193.888 421.764L192.846 422.372C184.806 409.082 184.626 391.757 192.337 373.588L193.462 374.074C192.188 377.365 191.27 379.974 190.733 381.829C190.217 383.624 189.74 386.055 189.355 388.007L189.166 388.965C188.859 390.5 188.678 392.584 188.597 393.689C188.465 395.473 188.389 397.773 188.405 399.411C188.443 403.37 188.98 407.74 189.879 411.402C190.333 413.247 191.065 415.591 191.703 417.237C191.903 417.756 192.181 418.444 192.421 418.944C192.879 419.892 193.455 421 193.888 421.764Z" fill="#2A4E2B"/>
<path d="M298.738 358.045C289.708 363.536 277.654 366.655 263.551 366.944L263.196 366.951L263.009 366.641C252.923 349.97 240.397 341.185 227.737 341.9C217.841 342.463 208.71 348.644 201.204 359.643C198.156 364.325 195.548 369.158 193.454 374.09L192.338 373.59C194.706 368.009 197.364 363.081 200.261 358.848C222.216 325.253 266.628 299.33 306.904 298.506L307.258 298.499L307.445 298.809C317.422 315.299 319.247 331.288 312.582 343.835C309.543 349.555 304.828 354.341 298.738 358.045ZM263.855 365.71C286.852 365.157 304.207 356.975 311.511 343.239C317.922 331.166 316.176 315.73 306.599 299.741C271.474 300.584 233.25 320.622 209.844 348.11C215.328 343.582 221.329 341.033 227.645 340.675C240.7 339.937 253.549 348.825 263.855 365.71Z" fill="#2A4E2B"/>
<path d="M315.412 332.997C265.135 315.674 210.428 334.108 193.454 374.09L192.338 373.59C209.544 333.038 264.922 314.313 315.782 331.836L315.412 332.997Z" fill="#2A4E2B"/>
<path d="M236.751 504.086C227.721 509.578 215.668 512.696 201.565 512.986L201.21 512.992L201.023 512.683C179.076 476.408 175.181 414.011 192.338 373.59L193.455 374.092C185.54 392.739 186.066 410.251 194.938 423.405C204.448 437.505 222.197 445.014 244.918 444.548L245.272 444.541L245.459 444.85C255.436 461.34 257.261 477.333 250.596 489.879C247.557 495.597 242.841 500.383 236.751 504.086ZM201.87 511.751C224.866 511.204 242.221 503.019 249.524 489.281C255.937 477.21 254.191 461.773 244.612 445.78C221.63 446.169 203.644 438.47 193.94 424.082C188.35 415.795 185.973 405.845 186.835 394.997C178.173 433.354 183.764 481.559 201.87 511.751Z" fill="#2A4E2B"/>
<path d="M187.75 418.958C186.439 419.756 184.706 420.208 182.689 420.251L182.64 419.022C185.615 418.965 187.844 417.945 188.754 416.227C189.543 414.74 189.302 412.802 188.075 410.772L189.108 410.15C190.571 412.569 190.826 414.941 189.826 416.825C189.367 417.687 188.66 418.405 187.75 418.958Z" fill="#2A4E2B"/>
<path d="M203.368 465.497C198.849 468.245 192.828 469.805 185.79 469.95L185.741 468.722C197.108 468.491 205.677 464.49 209.26 457.748C212.403 451.831 211.51 444.236 206.745 436.359L207.778 435.736C212.779 444.003 213.686 452.032 210.332 458.345C208.802 461.227 206.43 463.635 203.368 465.497Z" fill="#2A4E2B"/>
<path d="M253.425 479.039C225.734 469.496 203.898 450.755 193.514 427.619C185.523 409.814 185.106 390.627 192.338 373.59L193.454 374.09C186.358 390.811 186.772 409.647 194.618 427.131C204.86 449.953 226.429 468.448 253.794 477.878L253.425 479.039Z" fill="#2A4E2B"/>
<path d="M250.113 490.768L249.596 490.515C205.085 468.698 179.801 423.127 188.785 384.503C189.086 383.121 189.562 381.354 190.044 379.856C190.048 379.843 190.052 379.829 190.056 379.818C190.708 377.715 191.468 375.636 192.338 373.59L193.459 374.081C192.821 375.662 191.851 378.224 191.203 380.243C190.742 381.728 190.335 383.23 189.982 384.74C189.945 384.912 189.91 385.077 189.878 385.235L189.681 386.201C189.419 387.46 189.125 388.886 189.007 390.018C188.58 394.125 188.384 397.198 188.405 399.411C188.443 403.37 188.98 407.74 189.879 411.402C190.348 413.306 190.912 415.182 191.391 416.417C192.449 419.153 192.873 420.015 193.882 421.754C202.939 436.718 221.541 445.027 244.918 444.548L245.272 444.541L245.459 444.85C255.55 461.53 257.3 477.662 250.384 490.27L250.113 490.768ZM189.538 414.718C195.038 444.099 217.08 473.033 249.589 489.157C255.928 477.099 254.167 461.734 244.612 445.78C220.949 446.177 202.094 437.656 192.846 422.372L192.841 422.364C191.792 420.554 191.351 419.662 190.261 416.845C190.003 416.178 189.758 415.435 189.538 414.718Z" fill="#2A4E2B"/>
<path d="M78.9651 449.886L78.3486 448.867C68.3716 432.377 66.5479 416.384 73.2126 403.838C78.9428 393.054 90.6287 385.597 106.267 382.428L140.17 302.551C130.338 286.156 128.57 270.273 135.198 257.797C142.741 243.595 160.611 235.173 184.229 234.688L185.187 234.669L184.811 235.552L122.676 381.952L122.292 381.96C116.918 382.069 111.847 382.595 107.139 383.508L78.9651 449.886ZM87.6989 390.679C81.7894 394.273 77.2229 398.903 74.2834 404.434C67.9675 416.325 69.5665 431.481 78.7693 447.215L105.682 383.805C98.8226 385.277 92.7671 387.597 87.6989 390.679ZM107.715 382.148C112.143 381.337 116.871 380.862 121.859 380.743L183.318 235.939C160.62 236.617 143.504 244.775 136.27 258.395C129.816 270.542 131.626 286.1 141.367 302.201L141.532 302.473L141.41 302.764L107.715 382.148Z" fill="#2A4E2B"/>
<path d="M201.948 512.978L201.565 512.986C155.581 513.924 100.308 485.163 78.3485 448.867L78.1843 448.595L78.3075 448.305L140.751 301.182L141.367 302.201C163.119 338.152 217.908 366.646 263.501 365.716L264.459 365.698L264.084 366.581L201.948 512.978ZM79.5469 448.516C101.348 484.243 155.73 512.528 201.131 511.765L262.594 366.959C217.23 367.478 163.162 339.4 140.956 303.833L79.5469 448.516Z" fill="#2A4E2B"/>
<path d="M171.583 335.072L109.7 481.161L110.816 481.663L172.7 335.573L171.583 335.072Z" fill="#2A4E2B"/>
<path d="M215.677 358.004L153.629 504.02L154.744 504.522L216.792 358.507L215.677 358.004Z" fill="#2A4E2B"/>
<path d="M236.751 504.086C227.721 509.578 215.668 512.696 201.565 512.986L200.607 513.004L200.982 512.121L263.117 365.724L263.501 365.716C268.876 365.607 273.947 365.082 278.655 364.168L306.829 297.791L307.445 298.809C317.422 315.299 319.247 331.289 312.582 343.835C306.852 354.622 295.165 362.076 279.527 365.248L245.623 445.123C255.456 461.518 257.222 477.401 250.596 489.879C247.557 495.597 242.841 500.383 236.751 504.086ZM202.476 511.735C225.172 511.058 242.287 502.9 249.524 489.281C255.978 477.131 254.167 461.573 244.426 445.473L244.262 445.201L244.384 444.909L278.078 365.528C273.651 366.339 268.921 366.815 263.934 366.934L202.476 511.735ZM280.111 363.869C294.974 360.681 306.052 353.512 311.51 343.237C317.827 331.348 316.226 316.193 307.024 300.461L280.111 363.869Z" fill="#2A4E2B"/>
<path d="M299.417 356.255L237.533 502.344L238.649 502.845L300.532 356.756L299.417 356.255Z" fill="#2A4E2B"/>
<path d="M236.748 504.142C227.764 509.605 215.758 512.695 201.565 512.986C155.581 513.924 100.308 485.163 78.3486 448.867C69.1072 433.591 66.8443 418.52 71.9761 406.429L133.963 260.387L135.078 260.888C130.106 272.608 132.339 287.28 141.367 302.201C163.119 338.152 217.908 366.646 263.501 365.716C288.229 365.214 306.155 356.117 312.688 340.772L312.7 340.742L312.701 340.744C312.7 340.742 312.7 340.742 312.7 340.742L313.818 341.247L251.831 487.289C248.893 494.206 243.735 499.893 236.748 504.142ZM73.0938 406.934C68.1198 418.65 70.3533 433.322 79.3816 448.245C101.133 484.199 155.922 512.69 201.515 511.758C226.258 511.254 244.19 502.149 250.714 486.786L309.184 349.029C300.391 360.097 284.312 366.521 263.551 366.944C217.567 367.88 162.293 339.117 140.334 302.823C133.199 291.031 130.223 279.357 131.602 269.084L73.0938 406.934Z" fill="#2A4E2B"/>
<path d="M245.043 446.491L244.426 445.473C222.673 409.52 167.885 381.028 122.292 381.96L121.334 381.978L121.71 381.096L183.845 234.696L184.229 234.688C230.212 233.75 285.486 262.513 307.445 298.809L307.609 299.081L307.486 299.371L245.043 446.491ZM123.199 380.717C168.563 380.195 222.631 408.273 244.838 443.84L306.247 299.16C284.446 263.433 230.063 235.146 184.662 235.908L123.199 380.717Z" fill="#2A4E2B"/>
<path d="M275.059 266.048L213.011 412.063L214.127 412.566L276.175 266.55L275.059 266.048Z" fill="#2A4E2B"/>
<path d="M230.968 243.117L169.084 389.206L170.199 389.707L232.083 243.618L230.968 243.117Z" fill="#2A4E2B"/>
<path d="M78.9651 449.886L78.3486 448.867C68.3716 432.377 66.5479 416.384 73.2126 403.838C78.9428 393.054 90.6287 385.597 106.267 382.428L140.17 302.551C130.338 286.156 128.57 270.273 135.198 257.797C142.741 243.595 160.611 235.173 184.229 234.688L185.187 234.669L184.811 235.552L122.676 381.952L122.292 381.96C116.918 382.069 111.847 382.595 107.139 383.508L78.9651 449.886ZM87.6989 390.679C81.7894 394.273 77.2229 398.903 74.2834 404.434C67.9675 416.325 69.5665 431.481 78.7693 447.215L105.682 383.805C98.8226 385.277 92.7671 387.597 87.6989 390.679ZM107.715 382.148C112.143 381.337 116.871 380.862 121.859 380.743L183.318 235.939C160.62 236.617 143.504 244.775 136.27 258.395C129.816 270.542 131.626 286.1 141.367 302.201L141.532 302.473L141.41 302.764L107.715 382.148Z" fill="#2A4E2B"/>
<path d="M147.144 244.829L85.2606 390.918L86.3767 391.42L148.261 245.33L147.144 244.829Z" fill="#2A4E2B"/>
<path d="M245.043 446.491L244.426 445.473C222.673 409.519 167.885 381.028 122.292 381.96C97.5477 382.464 79.617 391.569 73.0925 406.932L71.9773 406.431L133.963 260.387C140.676 244.571 158.998 235.206 184.229 234.688C230.212 233.75 285.486 262.513 307.445 298.809L307.61 299.081L307.488 299.373L245.043 446.491ZM87.0596 389.576C96.0436 384.112 108.05 381.023 122.243 380.732C167.8 379.802 222.475 408.024 244.838 443.84L306.247 299.16C284.384 263.333 229.757 234.985 184.278 235.916C159.535 236.422 141.602 245.525 135.078 260.888L134.521 260.638L135.078 260.888L76.6115 398.646C79.3901 395.143 82.9022 392.104 87.0596 389.576Z" fill="#2A4E2B"/>
<path d="M201.276 353.635C221.776 322.301 263.376 247.235 265.776 197.635" stroke="black"/>
<path d="M236.751 504.086C227.721 509.578 215.668 512.696 201.565 512.986L200.607 513.004L200.982 512.121L263.117 365.724L263.501 365.716C268.876 365.607 273.947 365.082 278.655 364.168L306.829 297.791L307.445 298.809C317.422 315.299 319.247 331.289 312.582 343.835C306.852 354.622 295.165 362.076 279.527 365.248L245.623 445.123C255.456 461.517 257.222 477.401 250.596 489.879C247.557 495.597 242.841 500.383 236.751 504.086ZM202.476 511.735C225.172 511.057 242.287 502.9 249.524 489.281C255.978 477.131 254.167 461.573 244.426 445.473L244.262 445.201L244.384 444.909L278.078 365.528C273.651 366.339 268.921 366.815 263.934 366.934L202.476 511.735ZM280.111 363.869C294.974 360.681 306.052 353.512 311.51 343.237C317.827 331.348 316.226 316.193 307.024 300.461L280.111 363.869Z" fill="#2A4E2B"/>
</svg>
