<svg width="298" height="297" viewBox="0 0 298 297" fill="none" xmlns="http://www.w3.org/2000/svg">
<path d="M281.953 160.637C281.59 161.749 281.028 162.557 280.265 163.06C279.501 163.577 278.572 163.764 277.477 163.62C276.124 163.442 275.148 162.811 274.548 161.726C273.949 160.642 273.777 159.127 274.034 157.181L274.971 150.067L290.933 152.17L290.056 158.828C289.828 160.561 289.293 161.86 288.452 162.723C287.625 163.604 286.558 163.958 285.25 163.786C284.338 163.666 283.602 163.321 283.043 162.753C282.482 162.199 282.119 161.494 281.953 160.637ZM289.777 153.2L283.415 152.362L282.697 157.812C282.512 159.211 282.637 160.318 283.071 161.133C283.518 161.965 284.266 162.45 285.315 162.588C286.349 162.724 287.182 162.447 287.814 161.757C288.459 161.085 288.874 160.049 289.059 158.65L289.777 153.2ZM275.037 157.313C274.833 158.864 274.945 160.07 275.373 160.93C275.814 161.808 276.597 162.321 277.722 162.469C278.847 162.617 279.728 162.324 280.366 161.588C281.003 160.868 281.423 159.732 281.627 158.182L282.411 152.23L275.821 151.362L275.037 157.313Z" fill="black"/>
<path d="M288.82 171.173L288.543 172.313L273.925 168.766L271.739 177.773L270.711 177.524L273.174 167.376L288.82 171.173Z" fill="black"/>
<path d="M268.559 186.49C269.158 185.029 270.025 183.843 271.16 182.933C272.309 182.029 273.598 181.472 275.027 181.262C276.449 181.066 277.87 181.258 279.289 181.84C280.708 182.421 281.855 183.281 282.731 184.419C283.601 185.571 284.121 186.869 284.291 188.314C284.475 189.765 284.268 191.221 283.669 192.683C283.07 194.144 282.203 195.33 281.068 196.24C279.933 197.15 278.654 197.703 277.231 197.899C275.803 198.109 274.372 197.921 272.939 197.333C271.506 196.746 270.355 195.876 269.485 194.724C268.609 193.587 268.086 192.295 267.916 190.85C267.746 189.405 267.96 187.952 268.559 186.49ZM269.559 186.9C269.047 188.149 268.869 189.393 269.024 190.633C269.178 191.873 269.633 192.987 270.388 193.976C271.157 194.971 272.158 195.721 273.393 196.227C274.627 196.733 275.86 196.898 277.092 196.723C278.337 196.554 279.451 196.083 280.431 195.308C281.411 194.533 282.157 193.521 282.669 192.273C283.181 191.024 283.362 189.773 283.213 188.519C283.058 187.279 282.597 186.162 281.828 185.167C281.073 184.178 280.078 183.431 278.844 182.925C277.61 182.419 276.369 182.251 275.124 182.42C273.892 182.595 272.786 183.069 271.806 183.844C270.82 184.633 270.071 185.652 269.559 186.9Z" fill="black"/>
<path d="M266.109 212.006L265.539 212.978L260.34 209.932C260.114 208.983 260.105 207.982 260.312 206.931C260.512 205.893 260.894 204.891 261.46 203.925C262.266 202.549 263.299 201.483 264.558 200.728C265.81 199.987 267.158 199.612 268.602 199.605C270.038 199.611 271.424 200.005 272.76 200.788C274.096 201.571 275.118 202.587 275.826 203.837C276.525 205.1 276.858 206.458 276.823 207.913C276.781 209.381 276.353 210.809 275.539 212.199C274.942 213.217 274.23 214.053 273.403 214.706C272.582 215.38 271.682 215.839 270.704 216.084L270.401 215.053C271.324 214.812 272.125 214.401 272.802 213.821C273.486 213.262 274.083 212.545 274.594 211.672C275.292 210.481 275.659 209.248 275.695 207.972C275.724 206.71 275.428 205.532 274.806 204.439C274.198 203.354 273.318 202.475 272.167 201.8C271.029 201.134 269.832 200.797 268.575 200.789C267.323 200.802 266.147 201.126 265.047 201.761C263.959 202.403 263.067 203.32 262.369 204.511C261.439 206.098 261.092 207.663 261.326 209.204L266.109 212.006Z" fill="black"/>
<path d="M249.756 236.257C248.811 236.947 247.882 237.272 246.97 237.233C246.047 237.206 245.184 236.813 244.381 236.056C243.389 235.119 242.967 234.036 243.115 232.806C243.264 231.576 244.012 230.247 245.359 228.82L250.283 223.6L261.994 234.649L257.385 239.534C256.185 240.805 254.992 241.545 253.805 241.753C252.618 241.983 251.546 241.645 250.586 240.74C249.917 240.109 249.522 239.399 249.402 238.611C249.271 237.833 249.389 237.049 249.756 236.257ZM260.453 234.807L255.785 230.404L252.013 234.402C251.045 235.428 250.498 236.399 250.373 237.313C250.248 238.25 250.571 239.081 251.34 239.807C252.099 240.523 252.936 240.786 253.853 240.596C254.77 240.429 255.712 239.832 256.68 238.806L260.453 234.807ZM246.095 229.514C245.021 230.652 244.406 231.695 244.25 232.643C244.093 233.613 244.428 234.487 245.253 235.266C246.079 236.044 246.965 236.322 247.913 236.099C248.851 235.888 249.856 235.213 250.93 234.076L255.049 229.709L250.214 225.148L246.095 229.514Z" fill="black"/>
<path d="M249.378 248.562L248.49 249.329L238.655 237.948L231.642 244.009L230.95 243.208L238.85 236.381L249.378 248.562Z" fill="black"/>
<path d="M223.935 249.251C225.27 248.408 226.664 247.945 228.117 247.862C229.578 247.792 230.951 248.086 232.236 248.744C233.509 249.409 234.554 250.391 235.372 251.687C236.191 252.984 236.627 254.35 236.68 255.785C236.721 257.228 236.391 258.587 235.691 259.863C234.999 261.152 233.986 262.217 232.65 263.06C231.315 263.903 229.921 264.366 228.468 264.449C227.015 264.532 225.653 264.24 224.38 263.575C223.095 262.917 222.039 261.933 221.213 260.624C220.386 259.314 219.952 257.938 219.912 256.495C219.859 255.06 220.182 253.704 220.882 252.429C221.581 251.153 222.599 250.094 223.935 249.251ZM224.512 250.165C223.371 250.885 222.503 251.795 221.91 252.895C221.317 253.994 221.041 255.166 221.082 256.409C221.131 257.665 221.512 258.857 222.224 259.985C222.936 261.114 223.844 261.964 224.949 262.536C226.061 263.121 227.242 263.382 228.49 263.32C229.738 263.258 230.932 262.866 232.073 262.146C233.214 261.426 234.088 260.512 234.694 259.404C235.288 258.304 235.56 257.126 235.51 255.87C235.469 254.627 235.092 253.441 234.38 252.313C233.668 251.185 232.756 250.329 231.643 249.743C230.539 249.171 229.363 248.916 228.115 248.979C226.854 249.049 225.653 249.445 224.512 250.165Z" fill="black"/>
<path d="M206.995 268.663L205.965 269.122L203.515 263.617C203.885 262.713 204.46 261.895 205.241 261.161C206.009 260.434 206.903 259.842 207.926 259.387C209.383 258.739 210.843 258.475 212.307 258.595C213.756 258.722 215.07 259.203 216.247 260.039C217.41 260.88 218.307 262.008 218.937 263.423C219.567 264.838 219.805 266.259 219.652 267.687C219.484 269.121 218.963 270.419 218.087 271.581C217.197 272.749 216.017 273.66 214.546 274.315C213.467 274.795 212.402 275.06 211.349 275.109C210.289 275.178 209.29 275.027 208.353 274.655L208.707 273.641C209.598 273.983 210.488 274.116 211.377 274.039C212.258 273.983 213.161 273.749 214.085 273.337C215.346 272.776 216.363 271.987 217.136 270.972C217.895 269.963 218.341 268.833 218.472 267.583C218.61 266.346 218.408 265.119 217.865 263.9C217.329 262.696 216.552 261.724 215.535 260.985C214.51 260.266 213.366 259.844 212.102 259.719C210.844 259.607 209.584 259.832 208.324 260.393C206.643 261.142 205.448 262.21 204.741 263.599L206.995 268.663Z" fill="black"/>
<path d="M179.731 278.799C178.561 278.808 177.617 278.531 176.898 277.968C176.164 277.408 175.691 276.586 175.48 275.502C175.22 274.163 175.508 273.037 176.346 272.124C177.183 271.211 178.565 270.567 180.492 270.192L187.536 268.82L190.612 284.624L184.02 285.907C182.304 286.241 180.904 286.147 179.818 285.624C178.72 285.119 178.045 284.22 177.793 282.925C177.617 282.022 177.71 281.215 178.071 280.504C178.417 279.797 178.971 279.228 179.731 278.799ZM189.268 283.854L188.041 277.556L182.646 278.606C181.261 278.876 180.251 279.346 179.616 280.016C178.969 280.704 178.747 281.568 178.949 282.606C179.148 283.63 179.675 284.332 180.53 284.712C181.373 285.11 182.487 285.175 183.872 284.905L189.268 283.854ZM180.685 271.185C179.15 271.484 178.042 271.973 177.362 272.652C176.67 273.349 176.432 274.255 176.649 275.368C176.866 276.482 177.425 277.225 178.325 277.596C179.21 277.971 180.42 278.008 181.956 277.71L187.848 276.562L186.578 270.038L180.685 271.185Z" fill="black"/>
<path d="M172.159 288.593L170.991 288.697L169.658 273.714L160.426 274.535L160.332 273.481L170.733 272.556L172.159 288.593Z" fill="black"/>
<path d="M150.629 274.279C152.206 274.376 153.607 274.816 154.834 275.599C156.06 276.397 157.002 277.438 157.66 278.723C158.302 280.007 158.576 281.415 158.482 282.945C158.387 284.475 157.942 285.838 157.146 287.033C156.335 288.228 155.272 289.137 153.959 289.763C152.644 290.404 151.198 290.675 149.622 290.578C148.046 290.48 146.644 290.04 145.417 289.258C144.191 288.475 143.256 287.442 142.613 286.158C141.955 284.873 141.674 283.458 141.77 281.912C141.865 280.366 142.319 278.996 143.13 277.802C143.926 276.607 144.981 275.697 146.294 275.071C147.608 274.446 149.053 274.182 150.629 274.279ZM150.563 275.358C149.216 275.275 147.98 275.506 146.856 276.051C145.732 276.596 144.823 277.384 144.129 278.417C143.434 279.465 143.046 280.654 142.963 281.986C142.881 283.317 143.121 284.538 143.682 285.648C144.242 286.773 145.047 287.676 146.095 288.355C147.144 289.034 148.342 289.416 149.689 289.499C151.035 289.582 152.279 289.352 153.418 288.808C154.543 288.263 155.452 287.466 156.147 286.419C156.841 285.386 157.229 284.204 157.311 282.873C157.393 281.541 157.154 280.313 156.594 279.187C156.033 278.077 155.228 277.183 154.179 276.503C153.115 275.823 151.91 275.441 150.563 275.358Z" fill="black"/>
<path d="M125.586 280.101L124.482 279.873L125.701 273.972C126.529 273.454 127.474 273.124 128.536 272.984C129.583 272.84 130.655 272.881 131.751 273.108C133.313 273.431 134.653 274.068 135.772 275.019C136.875 275.967 137.662 277.124 138.131 278.489C138.586 279.851 138.656 281.291 138.343 282.807C138.03 284.324 137.394 285.618 136.437 286.688C135.465 287.755 134.285 288.506 132.896 288.939C131.492 289.369 130.001 289.421 128.424 289.095C127.268 288.857 126.248 288.45 125.365 287.876C124.463 287.314 123.74 286.609 123.195 285.76L124.074 285.143C124.598 285.941 125.244 286.567 126.011 287.023C126.76 287.491 127.63 287.827 128.621 288.032C129.972 288.311 131.258 288.264 132.478 287.89C133.684 287.513 134.704 286.854 135.54 285.915C136.373 284.992 136.924 283.876 137.194 282.57C137.461 281.279 137.397 280.036 137.001 278.843C136.588 277.661 135.904 276.651 134.95 275.812C133.993 274.988 132.839 274.436 131.488 274.157C129.686 273.785 128.092 273.957 126.707 274.673L125.586 280.101Z" fill="black"/>
<path d="M97.5891 272.379C96.6333 271.705 96.0274 270.929 95.7714 270.053C95.5015 269.17 95.5967 268.227 96.0569 267.223C96.6257 265.983 97.5165 265.236 98.7293 264.982C99.942 264.729 101.44 265.011 103.224 265.829L109.747 268.82L103.036 283.455L96.9314 280.655C95.3425 279.927 94.2592 279.034 93.6816 277.976C93.0836 276.926 93.0594 275.801 93.6091 274.603C93.9926 273.766 94.5383 273.165 95.2464 272.798C95.9405 272.425 96.7214 272.285 97.5891 272.379ZM102.392 282.046L105.067 276.213L100.07 273.922C98.7877 273.334 97.6932 273.127 96.7866 273.302C95.8596 273.484 95.1756 274.056 94.7346 275.017C94.2999 275.965 94.3192 276.843 94.7924 277.65C95.2452 278.465 96.1128 279.167 97.3951 279.755L102.392 282.046ZM102.803 266.749C101.381 266.097 100.196 265.849 99.2474 266.004C98.2786 266.167 97.5578 266.764 97.0848 267.796C96.6118 268.827 96.6328 269.756 97.1478 270.583C97.6488 271.403 98.6102 272.139 100.032 272.791L105.488 275.293L108.259 269.251L102.803 266.749Z" fill="black"/>
<path d="M85.6842 275.904L84.6765 275.304L92.3748 262.381L84.4117 257.637L84.9531 256.728L93.924 262.073L85.6842 275.904Z" fill="black"/>
<path d="M77.0306 252.018C78.2515 253.02 79.13 254.197 79.6663 255.55C80.1929 256.914 80.3467 258.31 80.1277 259.737C79.8969 261.154 79.2951 262.455 78.3223 263.641C77.3496 264.826 76.1907 265.67 74.8457 266.173C73.4889 266.666 72.0948 266.782 70.6636 266.519C69.2226 266.269 67.8917 265.643 66.6709 264.641C65.45 263.639 64.5715 262.462 64.0352 261.109C63.4988 259.757 63.3461 258.372 63.577 256.955C63.7959 255.528 64.3967 254.215 65.3792 253.018C66.3616 251.821 67.5313 250.976 68.8881 250.483C70.2332 249.98 71.6213 249.86 73.0525 250.122C74.4838 250.384 75.8098 251.016 77.0306 252.018ZM76.3448 252.854C75.3018 251.998 74.165 251.461 72.9343 251.245C71.7037 251.028 70.5049 251.135 69.338 251.566C68.1614 252.009 67.15 252.746 66.3037 253.777C65.4574 254.808 64.9368 255.938 64.7418 257.167C64.5371 258.407 64.661 259.61 65.1134 260.774C65.5659 261.939 66.3136 262.95 67.3567 263.806C68.3997 264.662 69.5425 265.203 70.785 265.429C72.0156 265.645 73.2192 265.532 74.3958 265.09C75.5627 264.659 76.5693 263.928 77.4156 262.897C78.2619 261.865 78.7874 260.73 78.9921 259.489C79.187 258.261 79.0583 257.064 78.6059 255.899C78.1416 254.725 77.3879 253.71 76.3448 252.854Z" fill="black"/>
<path d="M53.2775 242.103L52.5161 241.273L56.9588 237.201C57.9327 237.266 58.8916 237.552 59.8353 238.059C60.7687 238.556 61.6135 239.217 62.3697 240.042C63.4471 241.218 64.1608 242.519 64.511 243.945C64.8508 245.36 64.8115 246.758 64.3931 248.14C63.9643 249.51 63.179 250.718 62.0373 251.765C60.8955 252.811 59.6233 253.488 58.2208 253.796C56.8079 254.092 55.4115 254.01 54.0316 253.548C52.6414 253.075 51.4025 252.245 50.3147 251.058C49.5171 250.187 48.928 249.261 48.5476 248.278C48.1456 247.295 47.972 246.3 48.0268 245.293L49.1005 245.307C49.0589 246.26 49.2156 247.146 49.5706 247.965C49.9039 248.783 50.4124 249.564 51.0962 250.311C52.0285 251.328 53.0989 252.042 54.3073 252.453C55.5054 252.853 56.7181 252.916 57.9454 252.644C59.1615 252.383 60.2613 251.801 61.2448 250.9C62.217 250.009 62.892 248.964 63.2699 247.765C63.6262 246.565 63.6631 245.346 63.3807 244.107C63.087 242.879 62.474 241.756 61.5416 240.738C60.2985 239.382 58.906 238.589 57.3641 238.359L53.2775 242.103Z" fill="black"/>
<path d="M35.0359 219.569C34.652 218.464 34.6114 217.481 34.9141 216.619C35.2091 215.744 35.836 215.033 36.7947 214.486C37.9798 213.809 39.139 213.721 40.2723 214.222C41.4057 214.722 42.459 215.825 43.4323 217.529L46.9907 223.76L33.0096 231.744L29.6793 225.912C28.8125 224.394 28.4525 223.037 28.5993 221.841C28.7252 220.639 29.3607 219.711 30.5058 219.057C31.3047 218.601 32.0988 218.43 32.888 218.544C33.6697 218.645 34.3856 218.987 35.0359 219.569ZM33.3068 230.224L38.8792 227.042L36.1534 222.268C35.4539 221.043 34.6848 220.237 33.8462 219.851C32.9866 219.459 32.0975 219.525 31.1787 220.05C30.2733 220.567 29.7777 221.291 29.6918 222.223C29.585 223.15 29.8814 224.225 30.5809 225.45L33.3068 230.224ZM42.5535 218.031C41.7779 216.673 40.9594 215.78 40.098 215.354C39.2156 214.922 38.2818 214.987 37.2965 215.55C36.3111 216.113 35.787 216.88 35.7239 217.852C35.6533 218.81 36.0057 219.969 36.7813 221.327L39.7581 226.54L45.5302 223.244L42.5535 218.031Z" fill="black"/>
<path d="M23.3853 215.663L22.9123 214.59L36.677 208.524L32.9393 200.042L33.9074 199.615L38.1182 209.171L23.3853 215.663Z" fill="black"/>
<path d="M30.2213 191.288C30.6344 192.812 30.667 194.28 30.3191 195.693C29.9564 197.11 29.2719 198.336 28.2657 199.371C27.2554 200.392 26.0103 201.103 24.5303 201.504C23.0504 201.905 21.6168 201.92 20.2295 201.549C18.8382 201.164 17.6358 200.449 16.6221 199.405C15.5937 198.365 14.8729 197.083 14.4598 195.559C14.0467 194.034 14.0141 192.566 14.362 191.153C14.7099 189.74 15.389 188.523 16.3993 187.503C17.4055 186.468 18.656 185.748 20.1508 185.343C21.6455 184.938 23.0885 184.928 24.4798 185.313C25.8671 185.684 27.0675 186.391 28.0812 187.435C29.0949 188.479 29.8082 189.763 30.2213 191.288ZM29.1779 191.57C28.825 190.268 28.2102 189.172 27.3335 188.281C26.4567 187.391 25.4182 186.783 24.2177 186.457C23.0025 186.135 21.7512 186.148 20.4636 186.497C19.176 186.846 18.0965 187.464 17.225 188.352C16.3386 189.243 15.7419 190.295 15.4346 191.506C15.1274 192.717 15.1502 193.974 15.5032 195.276C15.8561 196.578 16.4729 197.682 17.3537 198.587C18.2304 199.478 19.2764 200.084 20.4916 200.406C21.692 200.732 22.936 200.72 24.2235 200.372C25.5111 200.023 26.598 199.402 27.4844 198.511C28.3559 197.623 28.9453 196.574 29.2525 195.363C29.5557 194.137 29.5309 192.873 29.1779 191.57Z" fill="black"/>
<path d="M16.6087 169.24L16.4744 168.121L22.4574 167.403C23.2114 168.023 23.8237 168.814 24.2945 169.777C24.7634 170.724 25.0646 171.754 25.198 172.865C25.3881 174.448 25.2097 175.922 24.6629 177.284C24.1143 178.632 23.2673 179.745 22.1219 180.624C20.9746 181.488 19.6322 182.012 18.0946 182.196C16.5569 182.381 15.1286 182.189 13.8096 181.622C12.4887 181.039 11.4022 180.158 10.5503 178.979C9.69643 177.784 9.17357 176.387 8.98168 174.789C8.84095 173.616 8.90241 172.52 9.16605 171.5C9.41263 170.467 9.85165 169.557 10.4831 168.771L11.3473 169.408C10.7578 170.159 10.3687 170.97 10.18 171.842C9.9742 172.7 9.93161 173.632 10.0522 174.637C10.2167 176.007 10.6701 177.211 11.4125 178.25C12.1531 179.273 13.1013 180.031 14.2571 180.526C15.3977 181.022 16.6303 181.191 17.9547 181.032C19.264 180.874 20.4216 180.419 21.4276 179.665C22.4165 178.898 23.1573 177.928 23.6499 176.757C24.1273 175.588 24.2837 174.318 24.1192 172.948C23.8999 171.121 23.2309 169.665 22.1122 168.579L16.6087 169.24Z" fill="black"/>
<path d="M14.9503 139.54C15.2877 138.42 15.8315 137.6 16.5819 137.08C17.334 136.544 18.2588 136.336 19.3564 136.455C20.7131 136.602 21.7036 137.21 22.328 138.281C22.9523 139.351 23.1588 140.862 22.9473 142.813L22.1743 149.947L6.16795 148.213L6.89147 141.536C7.07979 139.798 7.58421 138.487 8.40476 137.605C9.2117 136.705 10.2707 136.326 11.5817 136.468C12.4963 136.568 13.2397 136.895 13.8119 137.45C14.3857 137.991 14.7652 138.687 14.9503 139.54ZM7.30043 147.155L13.6801 147.847L14.2723 142.382C14.4243 140.979 14.2739 139.876 13.8213 139.071C13.3551 138.249 12.5961 137.781 11.5443 137.667C10.5077 137.555 9.68132 137.851 9.06518 138.555C8.43545 139.243 8.0446 140.288 7.89263 141.69L7.30043 147.155ZM21.9412 142.704C22.1097 141.149 21.9701 139.946 21.5225 139.096C21.0613 138.228 20.2666 137.733 19.1385 137.611C18.0105 137.489 17.1359 137.803 16.5148 138.553C15.8954 139.288 15.5014 140.433 15.3329 141.988L14.6862 147.956L21.2945 148.672L21.9412 142.704Z" fill="black"/>
<path d="M7.76756 129.674L8.01367 128.527L22.7209 131.683L24.6656 122.62L25.7001 122.842L23.5092 133.052L7.76756 129.674Z" fill="black"/>
<path d="M27.6048 113.795C27.0444 115.272 26.2087 116.48 25.0977 117.42C23.9723 118.354 22.6985 118.945 21.2762 119.192C19.8593 119.425 18.434 119.27 17.0005 118.725C15.5669 118.181 14.3974 117.352 13.4919 116.238C12.5918 115.109 12.0379 113.824 11.83 112.384C11.6078 110.939 11.7769 109.478 12.3373 108.001C12.8976 106.525 13.7333 105.316 14.8443 104.377C15.9553 103.437 17.2193 102.851 18.6362 102.618C20.0585 102.37 21.4936 102.521 22.9415 103.071C24.3894 103.62 25.5634 104.46 26.4635 105.588C27.3689 106.703 27.9256 107.98 28.1335 109.42C28.3414 110.86 28.1651 112.319 27.6048 113.795ZM26.5941 113.412C27.0729 112.15 27.2187 110.902 27.0315 109.666C26.8444 108.431 26.3606 107.329 25.5801 106.36C24.7854 105.386 23.7644 104.662 22.5172 104.189C21.27 103.716 20.0331 103.583 18.8065 103.79C17.5656 103.991 16.4653 104.492 15.5056 105.292C14.5459 106.092 13.8267 107.123 13.3479 108.385C12.8692 109.646 12.7206 110.902 12.9023 112.152C13.0895 113.387 13.5804 114.492 14.3752 115.466C15.1557 116.435 16.1695 117.155 17.4167 117.629C18.6639 118.102 19.9079 118.238 21.1488 118.037C22.3754 117.83 23.4685 117.326 24.4282 116.526C25.3934 115.711 26.1153 114.673 26.5941 113.412Z" fill="black"/>
<path d="M29.2557 88.4245L29.8 87.4376L35.0765 90.3483C35.3265 91.2918 35.3615 92.2917 35.1815 93.3482C35.0089 94.3912 34.6523 95.4028 34.1116 96.3829C33.3414 97.7792 32.3364 98.8709 31.0967 99.658C29.8644 100.432 28.5267 100.841 27.0837 100.885C25.6481 100.916 24.2523 100.558 22.8962 99.81C21.5402 99.062 20.4925 98.0725 19.7531 96.8415C19.0211 95.5972 18.6536 94.2475 18.6507 92.7924C18.6553 91.324 19.0463 89.8849 19.824 88.4751C20.3943 87.4413 21.0842 86.5874 21.8939 85.9132C22.6975 85.2183 23.5852 84.7361 24.5569 84.4666L24.8861 85.4887C23.9695 85.7536 23.18 86.1849 22.5175 86.7826C21.8491 87.3595 21.2705 88.091 20.7816 88.9771C20.1151 90.1855 19.78 91.4278 19.7764 92.7042C19.7802 93.9671 20.1069 95.1367 20.7565 96.213C21.3926 97.2819 22.2947 98.1385 23.4628 98.7829C24.6175 99.4198 25.8232 99.726 27.0801 99.7014C28.331 99.6559 29.4983 99.3017 30.582 98.6386C31.6523 97.9682 32.5208 97.0288 33.1873 95.8205C34.0761 94.2094 34.3833 92.6365 34.1092 91.1018L29.2557 88.4245Z" fill="black"/>
<path d="M45.1394 63.4518C46.0669 62.7388 46.9871 62.39 47.9 62.4054C48.8232 62.4093 49.6958 62.7797 50.5178 63.5167C51.5339 64.4276 51.9833 65.4998 51.866 66.7332C51.7487 67.9666 51.035 69.314 49.7249 70.7754L44.9347 76.1185L32.9469 65.3712L37.4301 60.3706C38.5969 59.0691 39.771 58.2992 40.9525 58.061C42.1327 57.8012 43.2138 58.1114 44.1956 58.9916C44.8806 59.6058 45.2934 60.3053 45.434 61.0903C45.5848 61.8639 45.4866 62.6511 45.1394 63.4518ZM34.4834 65.1734L39.2614 69.4569L42.9308 65.364C43.8725 64.3136 44.3943 63.3296 44.4963 62.4119C44.597 61.4726 44.2535 60.6498 43.4658 59.9436C42.6894 59.2475 41.8455 59.0058 40.9342 59.2184C40.0216 59.4094 39.0945 60.0301 38.1529 61.0804L34.4834 65.1734ZM48.9714 70.0998C50.0154 68.9353 50.6037 67.8771 50.7364 66.9252C50.8678 65.9516 50.5112 65.0861 49.6663 64.3287C48.8214 63.5712 47.928 63.3159 46.9859 63.5628C46.0541 63.7982 45.0661 64.4982 44.0221 65.6627L40.0149 70.1325L44.9642 74.5695L48.9714 70.0998Z" fill="black"/>
<path d="M44.8273 51.4763L45.6949 50.6869L55.8171 61.8137L62.6735 55.5763L63.3854 56.3589L55.6614 63.3856L44.8273 51.4763Z" fill="black"/>
<path d="M70.1963 50.0728C68.8828 50.9497 67.501 51.4482 66.0509 51.5683C64.5923 51.6755 63.2121 51.417 61.9104 50.7927C60.6214 50.1599 59.5512 49.2059 58.6999 47.9306C57.8485 46.6554 57.3777 45.3012 57.2874 43.8681C57.2099 42.4265 57.5046 41.0591 58.1714 39.7658C58.8297 38.4598 59.8156 37.3683 61.1292 36.4914C62.4427 35.6145 63.8245 35.116 65.2746 34.996C66.7247 34.8759 68.0942 35.1323 69.3832 35.7651C70.6849 36.3894 71.7657 37.3456 72.6256 38.6336C73.4855 39.9216 73.9542 41.2864 74.0317 42.728C74.1219 44.1611 73.8337 45.5243 73.1668 46.8176C72.5 48.1108 71.5098 49.1959 70.1963 50.0728ZM69.5961 49.1738C70.7183 48.4246 71.5619 47.4927 72.1268 46.3781C72.6916 45.2635 72.9375 44.0854 72.8644 42.8436C72.7828 41.5891 72.3716 40.4071 71.6309 39.2977C70.8902 38.1882 69.9605 37.3617 68.8416 36.818C67.7143 36.2617 66.5277 36.0307 65.2817 36.1251C64.0357 36.2194 62.8516 36.6412 61.7294 37.3905C60.6072 38.1397 59.7572 39.0758 59.1796 40.1989C58.6147 41.3135 58.3731 42.498 58.4547 43.7525C58.5278 44.9943 58.9347 46.1699 59.6754 47.2793C60.4161 48.3888 61.3502 49.2217 62.4775 49.7781C63.5963 50.3217 64.7787 50.5463 66.0247 50.4519C67.2834 50.349 68.4739 49.923 69.5961 49.1738Z" fill="black"/>
<path d="M86.8338 30.0496L87.8511 29.5646L90.4442 35.0041C90.0978 35.9167 89.5437 36.7498 88.782 37.5037C88.0341 38.2509 87.1549 38.8653 86.1445 39.347C84.7051 40.0332 83.2522 40.3351 81.7861 40.2527C80.3337 40.1636 79.0082 39.7169 77.8094 38.9125C76.6244 38.1015 75.6987 36.997 75.0323 35.599C74.3658 34.2011 74.0907 32.7865 74.2067 31.3553C74.3367 29.9174 74.8243 28.6063 75.6696 27.422C76.5287 26.231 77.6849 25.2892 79.1382 24.5964C80.204 24.0883 81.2623 23.7961 82.313 23.7199C83.3711 23.6232 84.3735 23.7484 85.3203 24.0954L84.9924 25.118C84.0931 24.7993 83.2001 24.6899 82.3135 24.7898C81.4341 24.8693 80.5377 25.1268 79.6242 25.5623C78.3785 26.1561 77.3824 26.9707 76.6359 28.006C75.9033 29.0347 75.4875 30.1757 75.3884 31.4289C75.2828 32.6683 75.5171 33.8901 76.0911 35.0943C76.6585 36.2846 77.4602 37.2359 78.4962 37.9481C79.5394 38.6398 80.6945 39.0319 81.9616 39.1243C83.2221 39.2029 84.4752 38.9452 85.7209 38.3514C87.3818 37.5596 88.5479 36.4602 89.219 35.0531L86.8338 30.0496Z" fill="black"/>
<path d="M113.668 19.1863C114.838 19.146 115.789 19.3976 116.523 19.9412C117.271 20.4815 117.765 21.2904 118.005 22.3681C118.302 23.7001 118.044 24.8337 117.231 25.7686C116.418 26.7036 115.053 27.3843 113.137 27.8107L106.133 29.3697L102.635 13.6543L109.191 12.1952C110.897 11.8154 112.3 11.8723 113.399 12.3659C114.51 12.8412 115.209 13.7224 115.496 15.0096C115.695 15.9076 115.624 16.7167 115.282 17.437C114.954 18.1539 114.417 18.737 113.668 19.1863ZM104 14.3873L105.394 20.651L110.76 19.4567C112.137 19.1502 113.134 18.6535 113.75 17.9664C114.379 17.261 114.578 16.3919 114.348 15.3592C114.122 14.3414 113.576 13.6539 112.711 13.2966C111.858 12.9211 110.742 12.8865 109.366 13.193L104 14.3873ZM112.918 26.8228C114.444 26.483 115.538 25.9646 116.2 25.2675C116.873 24.5522 117.087 23.6407 116.84 22.5331C116.594 21.4256 116.016 20.6981 115.106 20.3508C114.211 20.0002 113 19.9948 111.473 20.3346L105.614 21.6388L107.058 28.1271L112.918 26.8228Z" fill="black"/>
<path d="M120.493 9.22009L121.659 9.08476L123.394 24.0263L132.601 22.9569L132.723 24.0079L122.351 25.2126L120.493 9.22009Z" fill="black"/>
<path d="M143.004 22.8283C141.426 22.7673 140.015 22.3599 138.77 21.606C137.526 20.8368 136.561 19.8174 135.873 18.5479C135.201 17.2791 134.894 15.8785 134.954 14.3463C135.013 12.8141 135.426 11.4414 136.194 10.2281C136.978 9.01546 138.019 8.08127 139.318 7.42557C140.617 6.75454 142.056 6.4495 143.634 6.51043C145.213 6.57137 146.624 6.97879 147.868 7.73271C149.113 8.48662 150.071 9.49801 150.743 10.7669C151.431 12.0364 151.745 13.4449 151.685 14.9924C151.625 16.5399 151.204 17.92 150.42 19.1327C149.652 20.3459 148.619 21.2804 147.32 21.9361C146.021 22.5918 144.582 22.8892 143.004 22.8283ZM143.046 21.7481C144.394 21.8001 145.624 21.5407 146.736 20.9699C147.847 20.399 148.738 19.5894 149.408 18.5411C150.078 17.4775 150.439 16.2792 150.49 14.9462C150.541 13.6132 150.274 12.3983 149.687 11.3015C149.101 10.1894 148.276 9.30592 147.211 8.65104C146.147 7.99616 144.941 7.64269 143.593 7.59063C142.244 7.53857 141.007 7.79767 139.88 8.36795C138.768 8.93883 137.878 9.75606 137.207 10.8197C136.538 11.8679 136.177 13.0586 136.126 14.3916C136.074 15.7246 136.342 16.9472 136.928 18.0593C137.515 19.1561 138.34 20.0319 139.404 20.6868C140.484 21.3422 141.698 21.696 143.046 21.7481Z" fill="black"/>
<path d="M168.028 16.3632L169.136 16.5659L168.053 22.4937C167.237 23.0305 166.3 23.3814 165.242 23.5463C164.198 23.714 163.125 23.6971 162.024 23.4958C160.455 23.209 159.101 22.6029 157.961 21.6774C156.836 20.7547 156.023 19.6163 155.522 18.2622C155.037 16.9109 154.933 15.4735 155.212 13.9501C155.49 12.4266 156.096 11.1189 157.028 10.0267C157.975 8.93733 159.138 8.16015 160.517 7.6952C161.911 7.233 163.4 7.14668 164.984 7.43622C166.145 7.64856 167.174 8.03151 168.07 8.58508C168.985 9.12632 169.724 9.81482 170.288 10.6506L169.423 11.2875C168.881 10.5025 168.221 9.89085 167.444 9.4526C166.685 9.00202 165.807 8.68573 164.812 8.50373C163.454 8.25555 162.17 8.33248 160.958 8.73451C159.762 9.1393 158.757 9.82062 157.943 10.7785C157.131 11.7212 156.606 12.8488 156.366 14.161C156.129 15.4582 156.221 16.6987 156.644 17.8827C157.084 19.0544 157.791 20.0487 158.764 20.8656C159.74 21.6675 160.906 22.1926 162.264 22.4407C164.074 22.7716 165.663 22.5634 167.031 21.8159L168.028 16.3632Z" fill="black"/>
<path d="M196.382 23.386C197.352 24.0389 197.975 24.8007 198.251 25.6712C198.54 26.5478 198.466 27.4929 198.029 28.5064C197.488 29.7593 196.614 30.526 195.407 30.8066C194.2 31.0872 192.696 30.8385 190.894 30.0605L184.306 27.2158L190.688 12.4348L196.854 15.0972C198.459 15.7901 199.562 16.6589 200.163 17.7034C200.784 18.74 200.834 19.8636 200.311 21.0742C199.946 21.9188 199.414 22.5325 198.714 22.9151C198.029 23.3039 197.251 23.4608 196.382 23.386ZM191.364 13.8289L188.82 19.7202L193.867 21.8993C195.162 22.4585 196.261 22.6407 197.163 22.4458C198.086 22.243 198.757 21.6559 199.176 20.6846C199.59 19.7273 199.551 18.8504 199.06 18.0538C198.589 17.2492 197.706 16.5672 196.411 16.008L191.364 13.8289ZM191.295 29.1314C192.731 29.7514 193.921 29.9731 194.866 29.7964C195.831 29.6118 196.538 28.9987 196.988 27.957C197.438 26.9153 197.396 25.987 196.863 25.1721C196.344 24.3634 195.366 23.649 193.93 23.029L188.419 20.6493L185.784 26.7517L191.295 29.1314Z" fill="black"/>
<path d="M207.863 19.3937L208.886 19.9679L201.523 33.0849L209.606 37.6217L209.088 38.5443L199.982 33.4333L207.863 19.3937Z" fill="black"/>
<path d="M217.299 43.1138C216.053 42.1434 215.144 40.9889 214.574 39.6504C214.013 38.2998 213.823 36.9084 214.006 35.4763C214.2 34.0536 214.769 32.7375 215.711 31.5278C216.653 30.3181 217.79 29.4447 219.122 28.9077C220.466 28.3801 221.857 28.2291 223.294 28.4547C224.741 28.6682 226.087 29.2601 227.333 30.2306C228.579 31.2011 229.488 32.3556 230.058 33.6941C230.629 35.0325 230.817 36.4131 230.622 37.8358C230.44 39.2679 229.873 40.5949 228.921 41.8167C227.969 43.0385 226.822 43.9132 225.478 44.4407C224.146 44.9778 222.761 45.1335 221.324 44.9079C219.886 44.6823 218.545 44.0843 217.299 43.1138ZM217.963 42.261C219.028 43.0901 220.178 43.5973 221.413 43.7823C222.649 43.9674 223.845 43.8297 225 43.3693C226.165 42.8967 227.158 42.1342 227.977 41.0818C228.797 40.0293 229.289 38.8866 229.452 37.6535C229.625 36.4083 229.471 35.2093 228.989 34.0564C228.507 32.9036 227.734 31.9126 226.669 31.0834C225.605 30.2543 224.448 29.7425 223.2 29.548C221.965 29.3629 220.764 29.5066 219.599 29.9792C218.444 30.4397 217.456 31.1961 216.637 32.2486C215.817 33.301 215.32 34.4498 215.147 35.695C214.984 36.9281 215.143 38.121 215.625 39.2739C216.119 40.4362 216.898 41.4319 217.963 42.261Z" fill="black"/>
<path d="M241.372 52.4598L242.154 53.2711L237.816 57.454C236.841 57.4146 235.875 57.1531 234.919 56.6694C233.973 56.1968 233.112 55.5576 232.335 54.7518C231.228 53.6039 230.481 52.3216 230.095 50.9049C229.719 49.4992 229.723 48.1003 230.106 46.7084C230.5 45.3275 231.254 44.0996 232.369 43.0246C233.484 41.9496 234.738 41.2404 236.133 40.897C237.538 40.5647 238.936 40.6118 240.327 41.0383C241.729 41.4758 242.988 42.2741 244.106 43.433C244.925 44.2829 245.538 45.1941 245.943 46.1666C246.37 47.1395 246.569 48.1299 246.54 49.1378L245.466 49.1509C245.483 48.1969 245.304 47.3153 244.928 46.506C244.574 45.6971 244.046 44.9284 243.344 44.1999C242.386 43.2066 241.298 42.5199 240.079 42.1399C238.871 41.7709 237.657 41.738 236.437 42.0412C235.228 42.3337 234.144 42.943 233.183 43.8689C232.234 44.7843 231.586 45.8461 231.239 47.0543C230.913 48.2629 230.907 49.4828 231.221 50.7139C231.546 51.9343 232.187 53.0412 233.145 54.0346C234.422 55.3591 235.835 56.1167 237.382 56.3075L241.372 52.4598Z" fill="black"/>
<path d="M260.12 74.3769C260.532 75.4717 260.598 76.4536 260.318 77.3226C260.046 78.2047 259.437 78.9317 258.493 79.5037C257.326 80.2107 256.169 80.3286 255.023 79.8575C253.877 79.3863 252.796 78.3114 251.779 76.6327L248.061 70.4949L261.832 62.1536L265.312 67.8979C266.217 69.393 266.612 70.7404 266.496 71.94C266.401 73.1448 265.79 74.0888 264.662 74.772C263.875 75.2486 263.086 75.44 262.294 75.346C261.51 75.2651 260.785 74.9421 260.12 74.3769ZM261.574 63.6812L256.086 67.0058L258.934 71.7075C259.664 72.9141 260.454 73.6997 261.302 74.0642C262.172 74.434 263.059 74.3448 263.964 73.7967C264.855 73.2565 265.332 72.5195 265.394 71.5857C265.477 70.6571 265.153 69.5895 264.422 68.3829L261.574 63.6812ZM252.645 76.1084C253.455 77.4461 254.296 78.3169 255.168 78.7209C256.062 79.13 256.993 79.0406 257.964 78.4527C258.934 77.8649 259.439 77.0844 259.477 76.1112C259.523 75.1512 259.14 74.0023 258.33 72.6646L255.22 67.5301L249.535 70.9739L252.645 76.1084Z" fill="black"/>
<path d="M271.822 77.832L272.323 78.8927L258.721 85.315L262.678 93.6967L261.721 94.1484L257.263 84.706L271.822 77.832Z" fill="black"/>
<path d="M265.892 102.962C265.444 101.447 265.378 99.9799 265.694 98.5595C266.024 97.1347 266.681 95.8934 267.663 94.8356C268.65 93.7925 269.878 93.0536 271.349 92.619C272.819 92.1844 274.252 92.1367 275.648 92.4758C277.047 92.8296 278.266 93.5167 279.303 94.5373C280.355 95.5535 281.104 96.8189 281.552 98.3335C282 99.8481 282.066 101.316 281.75 102.736C281.434 104.156 280.783 105.388 279.796 106.431C278.814 107.489 277.58 108.237 276.095 108.676C274.609 109.115 273.167 109.158 271.767 108.804C270.372 108.465 269.156 107.785 268.119 106.765C267.082 105.744 266.339 104.476 265.892 102.962ZM266.928 102.656C267.311 103.95 267.95 105.032 268.847 105.902C269.744 106.772 270.796 107.356 272.003 107.655C273.226 107.949 274.476 107.908 275.756 107.529C277.035 107.151 278.1 106.509 278.951 105.602C279.817 104.69 280.39 103.626 280.669 102.408C280.949 101.19 280.898 99.9339 280.515 98.6399C280.133 97.3459 279.491 96.2564 278.59 95.3715C277.693 94.5013 276.634 93.9191 275.412 93.6248C274.204 93.3261 272.961 93.3658 271.681 93.7439C270.402 94.122 269.329 94.7668 268.464 95.6782C267.612 96.5853 267.047 97.6478 266.767 98.8657C266.492 100.098 266.546 101.362 266.928 102.656Z" fill="black"/>
<path d="M279.93 124.195L280.094 125.31L274.132 126.189C273.362 125.589 272.729 124.815 272.232 123.865C271.738 122.93 271.409 121.909 271.246 120.802C271.013 119.224 271.152 117.747 271.662 116.37C272.174 115.008 272.991 113.872 274.113 112.963C275.236 112.069 276.564 111.509 278.096 111.283C279.628 111.058 281.061 111.211 282.395 111.742C283.731 112.289 284.841 113.141 285.724 114.297C286.61 115.469 287.17 116.851 287.405 118.443C287.577 119.611 287.545 120.709 287.309 121.736C287.09 122.775 286.676 123.697 286.066 124.499L285.185 123.885C285.754 123.12 286.121 122.298 286.286 121.421C286.469 120.558 286.486 119.625 286.339 118.624C286.137 117.259 285.652 116.067 284.882 115.049C284.114 114.046 283.146 113.313 281.977 112.85C280.824 112.385 279.587 112.249 278.267 112.444C276.963 112.636 275.818 113.123 274.832 113.903C273.864 114.697 273.15 115.686 272.689 116.87C272.243 118.051 272.121 119.325 272.322 120.69C272.59 122.51 273.298 123.948 274.446 125.003L279.93 124.195Z" fill="black"/>
</svg>
