<svg width="242" height="148" viewBox="0 0 242 148" fill="none" xmlns="http://www.w3.org/2000/svg">
<path d="M228.387 31.4765C229.971 35.4759 228.668 40.5199 224.693 46.3084C220.731 52.0791 214.189 58.4749 205.55 65.0999C188.277 78.3455 162.718 92.4359 132.966 104.217C103.213 115.999 74.9366 123.227 53.2784 125.397C42.4457 126.483 33.2982 126.3 26.4595 124.806C19.5997 123.308 15.1966 120.523 13.6129 116.524C12.0292 112.524 13.3323 107.48 17.3066 101.692C21.2687 95.9212 27.8112 89.5253 36.4503 82.9004C53.723 69.6548 79.2824 55.5644 109.034 43.783C138.787 32.0016 167.063 24.7737 188.722 22.6032C199.554 21.5177 208.702 21.7004 215.541 23.1942C222.4 24.6926 226.803 27.477 228.387 31.4765Z" stroke="#6CA23E"/>
<path d="M236.5 74C236.5 78.3016 233.431 82.5115 227.605 86.4302C221.797 90.3369 213.359 93.8747 202.888 96.8536C181.952 102.81 153 106.5 121 106.5C89.0002 106.5 60.0484 102.81 39.1124 96.8536C28.641 93.8747 20.2033 90.3369 14.3949 86.4302C8.56866 82.5115 5.5 78.3016 5.5 74C5.5 69.6984 8.56866 65.4885 14.3949 61.5698C20.2033 57.6631 28.641 54.1253 39.1124 51.1464C60.0484 45.1905 89.0002 41.5 121 41.5C153 41.5 181.952 45.1905 202.888 51.1464C213.359 54.1253 221.797 57.6631 227.605 61.5698C233.431 65.4885 236.5 69.6984 236.5 74Z" fill="white" stroke="black"/>
<path d="M64.9094 73.7H66.1874V78.506C65.5994 79.022 64.9034 79.418 64.0994 79.694C63.2954 79.97 62.4494 80.108 61.5614 80.108C60.3014 80.108 59.1674 79.832 58.1594 79.28C57.1514 78.728 56.3594 77.966 55.7834 76.994C55.2074 76.01 54.9194 74.912 54.9194 73.7C54.9194 72.488 55.2074 71.396 55.7834 70.424C56.3594 69.44 57.1514 68.672 58.1594 68.12C59.1674 67.568 60.3074 67.292 61.5794 67.292C62.5394 67.292 63.4214 67.448 64.2254 67.76C65.0294 68.06 65.7074 68.51 66.2594 69.11L65.4314 69.956C64.4354 68.972 63.1694 68.48 61.6334 68.48C60.6134 68.48 59.6894 68.708 58.8614 69.164C58.0454 69.608 57.4034 70.232 56.9354 71.036C56.4674 71.828 56.2334 72.716 56.2334 73.7C56.2334 74.684 56.4674 75.572 56.9354 76.364C57.4034 77.156 58.0454 77.78 58.8614 78.236C59.6774 78.692 60.5954 78.92 61.6154 78.92C62.9114 78.92 64.0094 78.596 64.9094 77.948V73.7ZM75.4653 80.108C74.2173 80.108 73.0833 79.832 72.0633 79.28C71.0553 78.716 70.2633 77.948 69.6873 76.976C69.1233 76.004 68.8413 74.912 68.8413 73.7C68.8413 72.488 69.1233 71.396 69.6873 70.424C70.2633 69.452 71.0553 68.69 72.0633 68.138C73.0833 67.574 74.2173 67.292 75.4653 67.292C76.7133 67.292 77.8353 67.568 78.8313 68.12C79.8393 68.672 80.6313 69.44 81.2073 70.424C81.7833 71.396 82.0713 72.488 82.0713 73.7C82.0713 74.912 81.7833 76.01 81.2073 76.994C80.6313 77.966 79.8393 78.728 78.8313 79.28C77.8353 79.832 76.7133 80.108 75.4653 80.108ZM75.4653 78.92C76.4613 78.92 77.3613 78.698 78.1653 78.254C78.9693 77.798 79.5993 77.174 80.0553 76.382C80.5113 75.578 80.7393 74.684 80.7393 73.7C80.7393 72.716 80.5113 71.828 80.0553 71.036C79.5993 70.232 78.9693 69.608 78.1653 69.164C77.3613 68.708 76.4613 68.48 75.4653 68.48C74.4693 68.48 73.5633 68.708 72.7473 69.164C71.9433 69.608 71.3073 70.232 70.8393 71.036C70.3833 71.828 70.1553 72.716 70.1553 73.7C70.1553 74.684 70.3833 75.578 70.8393 76.382C71.3073 77.174 71.9433 77.798 72.7473 78.254C73.5633 78.698 74.4693 78.92 75.4653 78.92ZM93.2418 80.108C92.3058 80.108 91.4058 79.958 90.5418 79.658C89.6898 79.358 89.0298 78.962 88.5618 78.47L89.0838 77.444C89.5398 77.9 90.1458 78.272 90.9018 78.56C91.6578 78.836 92.4378 78.974 93.2418 78.974C94.3698 78.974 95.2158 78.77 95.7798 78.362C96.3438 77.942 96.6258 77.402 96.6258 76.742C96.6258 76.238 96.4698 75.836 96.1578 75.536C95.8578 75.236 95.4858 75.008 95.0418 74.852C94.5978 74.684 93.9798 74.504 93.1878 74.312C92.2398 74.072 91.4838 73.844 90.9198 73.628C90.3558 73.4 89.8698 73.058 89.4618 72.602C89.0658 72.146 88.8678 71.528 88.8678 70.748C88.8678 70.112 89.0358 69.536 89.3718 69.02C89.7078 68.492 90.2238 68.072 90.9198 67.76C91.6158 67.448 92.4798 67.292 93.5118 67.292C94.2318 67.292 94.9338 67.394 95.6178 67.598C96.3138 67.79 96.9138 68.06 97.4178 68.408L96.9678 69.47C96.4398 69.122 95.8758 68.864 95.2758 68.696C94.6758 68.516 94.0878 68.426 93.5118 68.426C92.4078 68.426 91.5738 68.642 91.0098 69.074C90.4578 69.494 90.1818 70.04 90.1818 70.712C90.1818 71.216 90.3318 71.624 90.6318 71.936C90.9438 72.236 91.3278 72.47 91.7838 72.638C92.2518 72.794 92.8758 72.968 93.6558 73.16C94.5798 73.388 95.3238 73.616 95.8878 73.844C96.4638 74.06 96.9498 74.396 97.3458 74.852C97.7418 75.296 97.9398 75.902 97.9398 76.67C97.9398 77.306 97.7658 77.888 97.4178 78.416C97.0818 78.932 96.5598 79.346 95.8518 79.658C95.1438 79.958 94.2738 80.108 93.2418 80.108ZM111.372 67.4V80H110.058V74.186H102.174V80H100.842V67.4H102.174V73.016H110.058V67.4H111.372ZM120.993 80.108C119.745 80.108 118.611 79.832 117.591 79.28C116.583 78.716 115.791 77.948 115.215 76.976C114.651 76.004 114.369 74.912 114.369 73.7C114.369 72.488 114.651 71.396 115.215 70.424C115.791 69.452 116.583 68.69 117.591 68.138C118.611 67.574 119.745 67.292 120.993 67.292C122.241 67.292 123.363 67.568 124.359 68.12C125.367 68.672 126.159 69.44 126.735 70.424C127.311 71.396 127.599 72.488 127.599 73.7C127.599 74.912 127.311 76.01 126.735 76.994C126.159 77.966 125.367 78.728 124.359 79.28C123.363 79.832 122.241 80.108 120.993 80.108ZM120.993 78.92C121.989 78.92 122.889 78.698 123.693 78.254C124.497 77.798 125.127 77.174 125.583 76.382C126.039 75.578 126.267 74.684 126.267 73.7C126.267 72.716 126.039 71.828 125.583 71.036C125.127 70.232 124.497 69.608 123.693 69.164C122.889 68.708 121.989 68.48 120.993 68.48C119.997 68.48 119.091 68.708 118.275 69.164C117.471 69.608 116.835 70.232 116.367 71.036C115.911 71.828 115.683 72.716 115.683 73.7C115.683 74.684 115.911 75.578 116.367 76.382C116.835 77.174 117.471 77.798 118.275 78.254C119.091 78.698 119.997 78.92 120.993 78.92ZM135.3 67.4C136.908 67.4 138.168 67.784 139.08 68.552C139.992 69.32 140.448 70.376 140.448 71.72C140.448 73.064 139.992 74.12 139.08 74.888C138.168 75.644 136.908 76.022 135.3 76.022H131.916V80H130.584V67.4H135.3ZM135.264 74.852C136.512 74.852 137.466 74.582 138.126 74.042C138.786 73.49 139.116 72.716 139.116 71.72C139.116 70.7 138.786 69.92 138.126 69.38C137.466 68.828 136.512 68.552 135.264 68.552H131.916V74.852H135.264ZM148.044 67.4C149.652 67.4 150.912 67.784 151.824 68.552C152.736 69.32 153.192 70.376 153.192 71.72C153.192 73.064 152.736 74.12 151.824 74.888C150.912 75.644 149.652 76.022 148.044 76.022H144.66V80H143.328V67.4H148.044ZM148.008 74.852C149.256 74.852 150.21 74.582 150.87 74.042C151.53 73.49 151.86 72.716 151.86 71.72C151.86 70.7 151.53 69.92 150.87 69.38C150.21 68.828 149.256 68.552 148.008 68.552H144.66V74.852H148.008ZM156.073 67.4H157.405V80H156.073V67.4ZM172.034 67.4V80H170.936L162.836 69.776V80H161.504V67.4H162.602L170.72 77.624V67.4H172.034ZM185.021 73.7H186.299V78.506C185.711 79.022 185.015 79.418 184.211 79.694C183.407 79.97 182.561 80.108 181.673 80.108C180.413 80.108 179.279 79.832 178.271 79.28C177.263 78.728 176.471 77.966 175.895 76.994C175.319 76.01 175.031 74.912 175.031 73.7C175.031 72.488 175.319 71.396 175.895 70.424C176.471 69.44 177.263 68.672 178.271 68.12C179.279 67.568 180.419 67.292 181.691 67.292C182.651 67.292 183.533 67.448 184.337 67.76C185.141 68.06 185.819 68.51 186.371 69.11L185.543 69.956C184.547 68.972 183.281 68.48 181.745 68.48C180.725 68.48 179.801 68.708 178.973 69.164C178.157 69.608 177.515 70.232 177.047 71.036C176.579 71.828 176.345 72.716 176.345 73.7C176.345 74.684 176.579 75.572 177.047 76.364C177.515 77.156 178.157 77.78 178.973 78.236C179.789 78.692 180.707 78.92 181.727 78.92C183.023 78.92 184.121 78.596 185.021 77.948V73.7Z" fill="black"/>
</svg>
