<svg width="639" height="639" viewBox="0 0 639 639" fill="none" xmlns="http://www.w3.org/2000/svg">
<g clip-path="url(#clip0_28_371)">
<path d="M430.125 64.2992C423.389 64.2992 416.778 63.5321 410.421 61.7472C393.144 56.8938 381.044 45.7903 369.342 35.0505C354.986 21.8718 341.425 9.42653 318.968 7.49801C287.25 4.77179 254.046 5.70702 221.94 6.59946C206.065 7.04567 189.65 7.50412 173.763 7.50412H4.91223V4.37447H173.763C189.607 4.37447 205.998 3.91603 221.851 3.47287C254.052 2.57126 287.341 1.63909 319.237 4.38059C342.755 6.39774 357.349 19.7935 371.46 32.743C382.89 43.2353 394.709 54.082 411.265 58.7337C438.664 66.4264 470.163 54.7666 497.957 44.4853C501.887 43.0305 505.71 41.6154 509.399 40.3043C516.508 37.7767 523.574 35.1758 530.628 32.581C563.358 20.5361 597.204 8.07869 633.133 4.38364L633.451 7.49494C597.916 11.1533 564.26 23.5405 531.707 35.5181C524.644 38.119 517.566 40.723 510.448 43.2505C506.771 44.5586 502.96 45.9706 499.042 47.4193C478.216 55.1273 453.439 64.2962 430.125 64.2992Z" fill="#2A4E2B"/>
<path d="M438.521 95.7882C431.922 95.7882 425.385 95.1647 418.976 93.716C401.784 89.8345 387.459 80.8123 373.608 72.0866C356.521 61.3223 340.38 51.1541 318.974 49.3875C309.882 48.6387 300.734 47.8502 291.55 47.0586C252.445 43.6906 212.007 40.2095 172.837 39.479C143.717 38.9533 114.263 41.7101 85.8062 44.3966C59.7513 46.8538 32.8162 49.3967 6.06751 49.3967C5.67936 49.3967 5.29427 49.3936 4.90918 49.3936L4.91529 46.264C31.881 46.2518 59.1523 43.7639 85.5128 41.2792C114.053 38.5866 143.524 35.7992 172.898 36.3494C212.169 37.0829 252.662 40.5701 291.819 43.9412C301 44.7328 310.144 45.5213 319.231 46.2701C341.401 48.0978 358.623 58.9476 375.277 69.4399C388.905 78.025 402.998 86.9005 419.667 90.6658C447.097 96.8456 477.431 87.3711 504.204 79.0091C507.871 77.863 511.481 76.7352 515.023 75.6655C520.995 73.8593 526.943 72.0224 532.878 70.1886C565.104 60.2282 598.426 49.9285 633.127 46.2731L633.458 49.3845C599.056 53.0092 567.362 62.8046 533.804 73.1777C527.863 75.0145 521.909 76.8544 515.928 78.6607C512.395 79.7273 508.794 80.8551 505.136 81.9951C484.148 88.5539 460.994 95.7882 438.521 95.7882Z" fill="#2A4E2B"/>
<path d="M457.427 116.88C450.303 116.88 443.188 116.543 436.079 115.795C416.781 113.762 398.083 108.67 379.996 103.747C360.353 98.4013 340.044 92.8725 318.983 91.2832C293.478 89.3547 268.646 82.6278 244.626 76.1209C220.745 69.6508 196.047 62.9605 170.921 61.1054C139.09 58.7367 107.964 67.5603 77.8323 76.0781C54.2286 82.747 29.821 89.645 5.01613 91.2832L4.80831 88.1597C29.2862 86.5429 53.5317 79.6907 76.9796 73.0646C107.374 64.4765 138.815 55.6101 171.153 57.9818C196.575 59.8615 221.42 66.5914 245.446 73.1013C269.321 79.5684 294.01 86.2587 319.221 88.1597C340.579 89.7734 361.035 95.342 380.818 100.727C398.783 105.62 417.362 110.675 436.409 112.683C474.484 116.684 513.18 108.643 550.592 100.852C577.653 95.2197 605.636 89.3975 633.222 88.1597L633.363 91.2832C606.027 92.5118 578.169 98.3096 551.231 103.918C520.518 110.309 488.95 116.88 457.427 116.88Z" fill="#2A4E2B"/>
<path d="M459.505 139.304C456.981 139.304 454.462 139.292 451.941 139.264C411.369 138.827 366.637 136.779 318.983 133.176C290.856 131.049 265.299 119.45 240.586 108.237C217.859 97.9215 194.357 87.2581 169.151 84.2018C136.593 80.2745 105.758 94.6207 75.9313 108.515C53.1589 119.126 29.6101 130.095 5.10784 133.167L4.71664 130.061C28.733 127.051 52.0556 116.186 74.611 105.678C104.835 91.6011 136.085 77.0439 169.53 81.0966C195.212 84.2079 218.935 94.9752 241.879 105.388C266.344 116.488 291.644 127.971 319.221 130.052C366.805 133.653 411.47 135.697 451.978 136.134C482.073 136.471 512.611 134.744 542.138 133.087C571.983 131.412 602.858 129.686 633.311 130.049L633.274 133.179C602.907 132.821 572.108 134.542 542.312 136.214C515.203 137.736 487.241 139.304 459.505 139.304Z" fill="#2A4E2B"/>
<path d="M417.353 178.354C384.406 178.354 351.453 177.532 318.983 175.069C290.184 172.88 264.685 159.97 240.024 147.485C217.49 136.073 194.189 124.276 168.675 120.951C135.951 116.66 107.347 131.715 77.0836 147.626C54.3539 159.576 30.854 171.933 5.65491 175.059L5.26982 171.954C29.9005 168.895 53.1467 156.676 75.6257 144.854C104.991 129.417 135.358 113.46 169.078 117.846C195.124 121.241 218.669 133.164 241.439 144.692C265.825 157.039 291.042 169.809 319.221 171.945C384.479 176.911 451.834 175.2 516.976 173.546C555.005 172.587 594.312 171.597 632.654 171.942L632.623 175.072C594.349 174.72 555.054 175.713 517.055 176.676C484.206 177.507 450.786 178.354 417.353 178.354Z" fill="#2A4E2B"/>
<path d="M470.215 228.407C467.033 228.407 463.851 228.361 460.667 228.269C433.441 227.469 405.773 224.687 379.012 221.995C359.326 220.014 338.971 217.967 318.986 216.732C291.565 215.036 265.804 205.399 240.889 196.081C216.94 187.123 192.171 177.859 166.211 175.845C137.045 173.583 109.474 185.139 82.8233 196.319C61.4781 205.271 39.4056 214.528 16.2511 216.955L15.9271 213.844C38.6201 211.466 60.4757 202.297 81.613 193.431C108.606 182.107 136.513 170.374 166.456 172.727C192.853 174.775 217.832 184.115 241.986 193.15C266.684 202.389 292.225 211.943 319.182 213.608C339.222 214.846 359.61 216.897 379.327 218.88C406.029 221.567 433.646 224.345 460.758 225.14C489.607 225.989 518.562 222.722 546.561 219.562C570.516 216.857 595.29 214.064 619.982 213.834L620.013 216.964C595.48 217.19 570.788 219.978 546.912 222.67C521.881 225.497 496.089 228.407 470.215 228.407Z" fill="#2A4E2B"/>
<path d="M470.554 286.929C465.826 286.929 461.046 286.663 456.195 286.073C435.535 283.567 415.201 278.237 395.534 273.078C370.815 266.598 345.252 259.893 319.041 258.854C293.701 257.848 268.521 253.371 244.168 249.043C220.619 244.859 196.27 240.531 171.926 239.385C145.862 238.166 120.633 243.682 96.2129 249.019C75.7663 253.487 54.6229 258.108 32.9048 258.854L32.7948 255.724C54.2317 254.987 75.2345 250.4 95.5436 245.962C120.162 240.58 145.615 235.018 172.073 236.262C196.618 237.414 221.069 241.76 244.718 245.962C268.964 250.272 294.038 254.728 319.163 255.724C345.717 256.782 371.444 263.527 396.329 270.052C415.892 275.18 436.125 280.486 456.574 282.968C485.89 286.519 511.808 278.386 539.25 269.774C558.664 263.68 578.735 257.381 599.939 255.73L600.184 258.848C579.334 260.474 559.434 266.718 540.189 272.76C517.93 279.743 495.032 286.929 470.554 286.929Z" fill="#2A4E2B"/>
<path d="M470.875 341.707C466.046 341.71 461.009 341.276 455.7 340.328C435.22 336.667 415.522 328.941 396.469 321.468C371.768 311.78 346.227 301.761 319.044 300.746C266.87 298.793 213.896 299.527 162.666 300.242C124.404 300.768 84.8374 301.315 45.9063 300.746L45.9552 297.617C84.8252 298.188 124.383 297.638 162.623 297.113C213.889 296.394 266.907 295.664 319.16 297.617C346.875 298.653 372.667 308.772 397.612 318.555C416.522 325.973 436.076 333.641 456.25 337.248C485.933 342.538 507.26 330.921 529.834 318.61C546.319 309.616 563.367 300.316 584.303 297.629L584.7 300.734C564.349 303.344 547.563 312.501 531.334 321.358C512.245 331.771 494.029 341.707 470.875 341.707Z" fill="#2A4E2B"/>
<path d="M468.983 382.71C464.075 382.71 458.974 382.276 453.628 381.322C433.502 377.728 414.126 370.194 395.39 362.908C371.026 353.434 345.833 343.638 319.044 342.639C271.143 340.851 221.555 339.069 172.186 339.13C153.127 339.179 133.769 340.069 115.049 340.924C92.4078 341.966 68.9936 343.039 45.9033 342.639L45.9583 339.509C68.9508 339.907 92.307 338.837 114.905 337.801C133.659 336.939 153.051 336.05 172.18 336.001C221.521 335.884 271.225 337.718 319.16 339.509C346.478 340.53 371.918 350.423 396.524 359.993C415.122 367.224 434.352 374.702 454.178 378.242C483.858 383.52 506.056 372.062 529.571 359.919C546.347 351.252 563.691 342.29 584.294 339.525L584.709 342.624C564.645 345.319 547.545 354.155 531.007 362.7C511.187 372.939 492.272 382.71 468.983 382.71Z" fill="#2A4E2B"/>
<path d="M459.762 406.815C454.126 406.818 448.475 406.546 442.803 405.947C424.101 403.97 405.617 399.773 387.74 395.715C365.485 390.666 342.474 385.439 319.041 384.532C291.828 383.474 264.923 378.095 238.902 372.896C214.235 367.966 188.73 362.869 163.14 361.505C138.246 360.21 115.079 366.634 92.6554 372.872C73.5871 378.178 53.871 383.667 32.914 384.532L32.7856 381.402C53.3789 380.552 72.9209 375.115 91.8179 369.858C114.48 363.55 137.91 357.01 163.305 358.382C189.124 359.754 214.739 364.874 239.513 369.825C265.415 375.002 292.198 380.357 319.163 381.402C342.886 382.325 366.041 387.582 388.431 392.664C406.222 396.702 424.615 400.877 443.133 402.836C474.484 406.158 505.594 399.159 535.677 392.402C556.607 387.695 578.248 382.832 599.957 381.405L600.165 384.529C578.698 385.941 557.175 390.776 536.362 395.455C511.432 401.057 485.802 406.815 459.762 406.815Z" fill="#2A4E2B"/>
<path d="M403.627 427.922C375.289 427.922 346.884 427.467 318.781 426.097C287.601 424.581 258.389 412.928 230.14 401.659C203.7 391.109 176.358 380.204 147.666 377.793C120.617 375.522 98.7649 388.266 75.6013 401.757C57.1871 412.481 38.1494 423.57 16.2908 426.412L15.8874 423.307C37.1195 420.547 55.882 409.621 74.0242 399.052C96.5888 385.91 119.948 372.3 147.928 374.675C177.085 377.123 204.647 388.12 231.298 398.753C259.309 409.926 288.273 421.479 318.934 422.974C375.772 425.731 433.943 424.774 490.197 423.839C532.804 423.133 576.864 422.399 620.031 423.295L619.964 426.424C576.858 425.532 532.829 426.262 490.249 426.968C461.73 427.442 432.717 427.922 403.627 427.922Z" fill="#2A4E2B"/>
<path d="M324.811 468.454C322.883 468.454 320.957 468.408 319.023 468.311C285.342 466.624 255.174 450.893 225.995 435.679C200.069 422.158 173.256 408.178 144.273 404.312C113.246 400.143 91.1028 417.255 67.6793 435.361C49.1215 449.701 29.9372 464.527 5.70381 468.295L5.22092 465.202C28.6596 461.559 47.5231 446.981 65.7661 432.885C88.6639 415.189 112.347 396.888 144.689 401.207C174.216 405.149 201.276 419.26 227.444 432.904C256.323 447.962 286.183 463.531 319.182 465.187C338.831 466.174 358.577 461.703 377.649 457.378C391.429 454.255 405.681 451.021 419.871 449.851C463.078 446.269 507.743 451.84 550.937 457.213C577.879 460.566 605.74 464.035 632.706 465.184L632.571 468.314C605.48 467.155 577.555 463.68 550.549 460.318C507.517 454.964 463.017 449.417 420.128 452.968C406.158 454.123 392.016 457.329 378.339 460.432C360.919 464.383 342.96 468.454 324.811 468.454Z" fill="#2A4E2B"/>
<path d="M324.188 510.338C322.473 510.338 320.753 510.295 319.02 510.203C285.74 508.452 255.987 493.091 227.218 478.235C201.508 464.961 174.925 451.235 146.113 447.479C115.015 443.411 92.3222 460.205 68.2937 477.969C49.2499 492.049 29.5551 506.609 5.1384 510.191L4.68607 507.092C28.3265 503.626 47.6973 489.304 66.4324 475.453C89.8986 458.1 114.147 440.159 146.516 444.374C175.872 448.203 202.703 462.058 228.651 475.456C257.13 490.157 286.577 505.362 319.185 507.08C339.567 508.119 359.021 502.364 377.811 496.765C392.111 492.501 406.897 488.094 422.194 486.633C462.788 482.761 504.072 489.677 544 496.371C573.334 501.285 603.665 506.368 633.329 507.077L633.256 510.206C603.368 509.491 572.924 504.39 543.483 499.457C503.751 492.798 462.669 485.912 422.494 489.751C407.5 491.181 392.86 495.545 378.703 499.763C361.233 504.971 343.216 510.338 324.188 510.338Z" fill="#2A4E2B"/>
<path d="M321.003 552.12C320.358 552.12 319.714 552.114 319.069 552.102C287.048 551.393 258.025 537.358 229.959 523.795C205.543 511.985 180.292 499.778 153.329 496.548C122.225 492.856 97.6157 507.816 71.5578 523.691C51.0317 536.197 29.8088 549.125 5.09866 552.09L4.7258 548.985C28.7605 546.099 49.69 533.349 69.9288 521.02C95.296 505.57 121.55 489.583 153.702 493.443C181.184 496.734 206.673 509.057 231.322 520.977C259.089 534.4 287.797 548.276 319.136 548.972C341.856 549.364 362.309 540.714 382.138 532.242C397.741 525.573 413.878 518.685 431.189 516.148C470.789 510.313 511.218 521.386 550.302 532.065C577.662 539.541 605.951 547.273 633.39 548.972L633.195 552.102C605.437 550.378 576.989 542.603 549.477 535.085C510.707 524.485 470.627 513.544 431.641 519.241C414.734 521.722 398.789 528.532 383.367 535.121C363.791 543.483 343.565 552.12 321.003 552.12Z" fill="#2A4E2B"/>
<path d="M318.005 593.998C287.861 593.998 260 581.632 233.043 569.67C209.983 559.437 186.138 548.85 161.116 546.185C129.78 542.817 103.31 555.849 75.2803 569.621C53.1864 580.477 30.3406 591.705 5.05283 593.985L4.77164 590.868C29.4818 588.643 52.0617 577.543 73.9019 566.815C101.094 553.453 129.224 539.638 161.446 543.068C186.957 545.794 211.032 556.479 234.315 566.809C261.296 578.783 289.282 591.333 319.087 590.862C344.268 590.605 366.077 578.71 387.169 567.206C404.073 557.988 421.549 548.453 440.886 544.706C479.423 537.199 518.281 552.609 555.855 567.481C581.415 577.604 607.849 588.068 633.463 590.874L633.121 593.979C607.088 591.131 580.455 580.587 554.703 570.391C517.55 555.69 479.124 540.482 441.485 547.774C422.622 551.436 405.363 560.849 388.67 569.957C367.239 581.644 345.081 593.729 319.117 593.992C318.748 593.998 318.375 593.998 318.005 593.998Z" fill="#2A4E2B"/>
<path d="M317.706 635.887C288.539 635.887 261.305 624.5 234.953 613.485C212.438 604.071 189.155 594.334 164.921 591.865C133.359 588.613 104.266 601.308 76.1422 613.546C53.4981 623.399 30.0839 633.589 5.05587 635.875L4.76859 632.758C29.2984 630.52 52.4773 620.435 74.8922 610.679C103.383 598.277 132.836 585.459 165.239 588.747C189.934 591.265 213.434 601.095 236.161 610.593C262.649 621.676 290.019 633.308 319.084 632.752C345.661 632.415 368.052 618.852 389.706 605.734C407.206 595.129 425.305 584.163 445.761 579.914C483.919 571.999 520.53 589.187 555.925 605.82C581.164 617.684 607.262 629.946 633.46 632.758L633.124 635.875C606.406 633.002 580.067 620.624 554.593 608.656C519.665 592.237 483.561 575.238 446.397 582.983C426.47 587.115 408.603 597.94 391.326 608.411C369.314 621.743 346.554 635.533 319.121 635.881C318.65 635.887 318.176 635.887 317.706 635.887Z" fill="#2A4E2B"/>
<path d="M634.857 634.316H631.727C631.727 617.134 632.357 599.144 632.965 581.748C634.319 543.012 635.719 502.963 630.643 465.679C627.473 442.411 616.611 420.764 606.11 399.828C593.588 374.867 580.641 349.057 580.446 320.138C580.25 291.204 593.46 265.235 606.235 240.118C615.752 221.408 625.594 202.058 629.68 181.774C637.336 143.769 635.334 100.675 633.402 58.9995C632.54 40.4539 631.727 22.9383 631.727 5.93921H634.857C634.857 22.865 635.667 40.347 636.529 58.8559C638.47 100.718 640.481 144.007 632.748 182.391C628.576 203.098 618.637 222.64 609.025 241.537C596.418 266.32 583.386 291.947 583.576 320.12C583.765 348.305 596.546 373.785 608.906 398.425C619.524 419.587 630.502 441.473 633.742 465.257C638.858 502.804 637.452 542.994 636.092 581.858C635.487 599.224 634.857 617.189 634.857 634.316Z" fill="#2A4E2B"/>
<path d="M590.941 624.652H587.812C587.864 576.418 587.246 519.87 582.301 466.174C580.299 444.417 572.759 423.334 565.473 402.949C556.903 378.981 548.043 354.198 548.016 328.021C547.985 298.54 558.59 270.474 568.847 243.334C576.809 222.264 585.046 200.472 588.163 178.287C592.668 146.229 589.199 112.906 585.846 80.684C583.624 59.3663 581.332 37.3274 581.369 15.863L584.499 15.8692C584.462 37.1654 586.748 59.1249 588.958 80.36C592.332 112.769 595.822 146.284 591.262 178.721C588.096 201.255 579.798 223.208 571.775 244.44C561.616 271.317 551.115 299.111 551.145 328.014C551.173 353.654 559.938 378.177 568.419 401.894C575.773 422.466 583.377 443.735 585.419 465.887C590.376 519.711 590.993 576.351 590.941 624.652Z" fill="#2A4E2B"/>
<path d="M541.601 604.077C540.739 580.868 537.352 557.652 534.079 535.201C530.366 509.745 526.53 483.427 526.325 456.926C526.215 442.69 525.867 428.197 525.531 414.184C524.98 391.317 524.412 367.67 524.864 344.418C525.457 313.885 531.05 283.539 536.46 254.193C540.696 231.225 545.072 207.477 547.01 183.84C549.419 154.454 541.799 127.161 534.427 100.767C528.749 80.4212 522.875 59.3817 521.408 37.1685L524.531 36.9607C525.977 58.8529 531.805 79.7335 537.444 99.9265C544.886 126.583 552.582 154.151 550.128 184.097C548.181 207.89 543.786 231.717 539.538 254.761C534.152 283.986 528.581 314.203 527.994 344.479C527.545 367.664 528.11 391.274 528.66 414.107C528.996 428.136 529.345 442.641 529.455 456.902C529.657 483.186 533.48 509.4 537.175 534.748C540.461 557.279 543.859 580.587 544.73 603.955L541.601 604.077Z" fill="#2A4E2B"/>
<path d="M495.716 585.061C494.338 566.699 488.849 548.055 483.537 530.029C475.985 504.39 468.176 477.88 471.761 451.183C473.855 435.578 480.065 421.574 486.071 408.031C492.764 392.942 499.683 377.337 500.723 359.662C503.926 305.08 505.753 246.525 506.154 185.628C506.306 162.455 505.38 143.002 492.302 121.262C489.555 116.696 486.908 112.543 484.399 108.606C474.09 92.4415 465.948 79.6723 462.824 56.8601L465.924 56.4384C468.955 78.569 476.935 91.0815 487.036 106.925C489.561 110.883 492.223 115.058 494.986 119.649C508.461 142.048 509.433 162.791 509.283 185.646C508.883 246.598 507.055 305.208 503.846 359.846C502.773 378.086 495.738 393.954 488.931 409.3C483.014 422.64 476.896 436.437 474.86 451.599C471.367 477.635 479.081 503.822 486.541 529.149C491.896 547.328 497.434 566.13 498.84 584.829L495.716 585.061Z" fill="#2A4E2B"/>
<path d="M452.775 580.036C451.318 561.418 445.232 543.178 439.346 525.543C431.681 502.578 423.756 478.827 425.932 453.897C427.5 435.941 436.391 422.32 444.985 409.147C453.775 395.681 462.861 381.756 463.968 363.174C466.406 322.177 465.636 279.97 464.894 239.153C464.542 219.935 464.178 200.06 464.16 180.649C464.139 159.561 463.106 142.015 450.297 124.215C446.55 119.007 443.053 114.606 439.67 110.348C428.609 96.4331 419.874 85.4426 416.528 62.0345L419.627 61.5944C422.851 84.162 430.932 94.3273 442.118 108.401C445.526 112.686 449.047 117.118 452.84 122.387C466.189 140.945 467.268 158.986 467.29 180.646C467.308 200.032 467.672 219.892 468.02 239.098C468.769 279.973 469.539 322.241 467.091 363.358C465.936 382.771 456.617 397.05 447.607 410.858C438.836 424.3 430.55 436.996 429.049 454.172C426.928 478.451 434.752 501.89 442.317 524.553C448.261 542.371 454.407 560.788 455.893 579.792L452.775 580.036Z" fill="#2A4E2B"/>
<path d="M413.725 593.588C412.579 574.23 407.992 554.602 403.557 535.629C397.591 510.112 391.42 483.727 393.41 457.342C394.798 438.949 401.384 422.219 407.75 406.039C414.404 389.131 421.283 371.649 422.105 352.388C424.003 308.075 423.365 262.647 422.747 218.715C422.567 205.885 422.387 193.073 422.267 180.298C422.05 156.786 419.936 137.944 410.091 116.678C408.933 114.172 407.784 111.721 406.653 109.309C397.212 89.1652 389.058 71.7687 386.527 48.0275L389.638 47.6974C392.114 70.916 400.164 88.0924 409.486 107.983C410.62 110.397 411.769 112.851 412.934 115.364C422.98 137.066 425.18 157.006 425.397 180.267C425.516 193.039 425.697 205.845 425.877 218.673C426.494 262.647 427.133 308.118 425.235 352.523C424.389 372.309 417.411 390.039 410.663 407.185C404.379 423.148 397.884 439.655 396.533 457.577C394.577 483.482 400.69 509.629 406.604 534.913C411.069 554.021 415.687 573.777 416.849 593.405L413.725 593.588Z" fill="#2A4E2B"/>
<path d="M376.316 614.946C375.971 592.06 373.642 568.863 371.389 546.436C368.538 518.037 365.588 488.675 366.618 459.557C367.331 439.426 370.442 419.343 373.449 399.92C376.692 378.984 380.045 357.34 380.375 335.671C380.888 302.158 380.714 268.047 380.546 235.06C380.457 217.701 380.369 200.341 380.375 182.99C380.387 155.034 376.044 127.464 371.845 100.797C368.018 76.4816 364.057 51.3344 363.388 25.8999L366.518 25.8204C367.181 51.0501 371.123 76.0934 374.938 100.311C379.155 127.097 383.517 154.79 383.505 182.99C383.498 200.335 383.587 217.688 383.676 235.045C383.844 268.047 384.018 302.174 383.505 335.72C383.171 357.603 379.8 379.36 376.542 400.4C373.55 419.731 370.451 439.722 369.748 459.668C368.724 488.574 371.661 517.829 374.504 546.124C376.762 568.618 379.097 591.877 379.446 614.897L376.316 614.946Z" fill="#2A4E2B"/>
<path d="M341.053 631.651L337.923 631.627C338.65 535.042 337.715 436.751 336.811 341.697C335.771 232.508 334.696 119.603 336.138 8.66846L339.268 8.71125C337.828 119.609 338.901 232.496 339.94 341.67C340.845 436.736 341.78 535.036 341.053 631.651Z" fill="#2A4E2B"/>
<path d="M299.291 632.146L296.162 632.122C297.25 448.115 296.972 260.966 296.7 79.9779L296.593 5.94227L299.722 5.93616L299.829 79.9749C300.101 260.969 300.379 448.124 299.291 632.146Z" fill="#2A4E2B"/>
<path d="M251.577 618.503C251.298 592.83 249.498 566.748 247.759 541.521C245.601 510.179 243.367 477.773 244.015 445.807C244.434 425.223 246.928 404.559 249.342 384.574C251.882 363.516 254.511 341.743 254.697 320.108C255.229 258.52 255.036 195.851 254.85 135.245C254.721 92.8572 254.587 49.0238 254.7 5.93616L257.83 5.94227C257.717 49.0238 257.851 92.8511 257.979 135.236C258.166 195.851 258.358 258.53 257.827 320.132C257.64 341.945 255 363.807 252.448 384.95C250.045 404.856 247.561 425.443 247.145 445.868C246.497 477.697 248.728 510.032 250.883 541.307C252.625 566.577 254.425 592.708 254.706 618.466L251.577 618.503Z" fill="#2A4E2B"/>
<path d="M206.236 601.064C205.304 576.84 201.689 551.747 198.192 527.487C192.948 491.111 187.526 453.491 190.79 417.167C192.229 401.13 197.037 385.992 201.683 371.35C206.872 355.002 212.239 338.097 212.808 320.08C213.972 283.261 212.56 245.62 211.197 209.219C210.384 187.529 209.54 165.102 209.256 143.109C208.914 116.843 209.987 90.244 211.026 64.5192C211.799 45.3226 212.603 25.4751 212.808 5.92395L215.937 5.95451C215.729 25.5545 214.929 45.4265 214.152 64.6445C213.116 90.3296 212.046 116.886 212.386 143.066C212.67 165.022 213.51 187.431 214.323 209.1C215.69 245.556 217.102 283.252 215.937 320.178C215.353 338.632 209.922 355.747 204.666 372.297C200.069 386.778 195.316 401.751 193.907 417.448C190.677 453.408 196.071 490.842 201.288 527.04C204.797 551.381 208.425 576.552 209.366 600.942L206.236 601.064Z" fill="#2A4E2B"/>
<path d="M162.159 589.988C160.603 557.487 155.6 526.49 150.303 493.675L149.084 486.107C148.356 481.569 147.546 476.914 146.721 472.18C142.595 448.469 137.916 421.598 141.88 397.768C144.175 383.975 150.27 372.85 156.162 362.095C163.351 348.978 170.139 336.584 170.768 319.564C172.253 279.597 170.414 238.691 168.635 199.134C167.544 174.827 166.413 149.695 166.068 125.067C165.756 102.805 167.149 80.3753 168.494 58.6817C169.567 41.4167 170.676 23.5618 170.915 5.91785L174.044 5.96064C173.803 23.678 172.694 41.5726 171.618 58.8773C170.276 80.5098 168.885 102.879 169.197 125.025C169.54 149.603 170.67 174.711 171.761 198.993C173.543 238.615 175.386 279.585 173.898 319.68C173.238 337.44 165.951 350.738 158.907 363.599C153.139 374.128 147.174 385.011 144.967 398.282C141.091 421.586 145.719 448.179 149.805 471.642C150.63 476.392 151.443 481.059 152.177 485.612L153.393 493.177C158.47 524.632 163.72 557.163 165.282 589.841L162.159 589.988Z" fill="#2A4E2B"/>
<path d="M121.076 594.095C119.966 570.391 115.471 545.201 111.125 520.836C104.352 482.895 97.3529 443.662 102.234 407.035C104.312 391.457 111.17 378.498 117.803 365.965C125.474 351.465 132.717 337.77 133.512 320.059C135.141 283.521 132.134 246.155 129.224 210.017C127.24 185.374 125.19 159.894 124.627 134.906C124.068 109.969 125.452 84.7763 126.788 60.4146C127.769 42.5689 128.781 24.1181 129.022 5.91785L132.152 5.96064C131.91 24.222 130.896 42.7095 129.915 60.5858C128.579 84.8894 127.198 110.018 127.757 134.835C128.316 159.732 130.364 185.166 132.344 209.767C135.26 245.999 138.277 283.466 136.635 320.2C135.813 338.611 128.063 353.259 120.569 367.425C114.065 379.718 107.341 392.426 105.336 407.451C100.519 443.591 107.475 482.581 114.205 520.286C118.57 544.749 123.084 570.042 124.199 593.949L121.076 594.095Z" fill="#2A4E2B"/>
<path d="M82.2518 609.622C81.6649 586.198 78.8134 561.986 76.0536 538.569C71.949 503.715 67.7038 467.672 70.6837 432.839C72.386 412.937 80.6014 395.357 88.5447 378.355C97.0473 360.152 105.84 341.331 106.387 319.86C107.216 287.537 101.268 254.884 95.5191 223.306C91.0814 198.935 86.4939 173.736 85.0269 148.787C83.2573 118.698 84.4706 87.9579 85.6412 58.2324C86.3197 41.0622 87.0196 23.3112 87.1327 5.93005L90.2623 5.94839C90.1492 23.3815 89.4463 41.16 88.7708 58.3547C87.6003 88.0069 86.39 118.668 88.1504 148.604C89.6052 173.36 94.1774 198.467 98.5999 222.747C104.376 254.48 110.351 287.293 109.517 319.94C108.952 342.064 100.018 361.188 91.3779 379.678C83.5507 396.433 75.4576 413.759 73.8011 433.108C70.8487 467.623 75.0756 503.504 79.1619 538.202C81.9309 561.687 84.7915 585.972 85.3814 609.548L82.2518 609.622Z" fill="#2A4E2B"/>
<path d="M46.814 626.431H43.6844C43.7058 605.459 42.3824 583.655 41.1018 562.573C38.9104 526.478 36.6457 489.158 40.8573 453.558C43.4307 431.785 52.1717 411.543 60.6224 391.967C70.43 369.25 80.5708 345.756 80.7908 320.117C81.0415 291.033 71.6709 262.289 62.6059 234.489C56.0135 214.262 49.1949 193.345 46.1233 172.44C40.732 135.737 42.3029 96.488 43.825 58.5319C44.5218 41.1171 45.2431 23.1064 45.24 5.93921H48.3697C48.3727 23.1706 47.6514 41.2119 46.9515 58.6572C45.4356 96.4727 43.8708 135.572 49.2224 171.988C52.2542 192.63 59.03 213.416 65.5827 233.517C74.7241 261.555 84.1742 290.55 83.9205 320.141C83.6974 346.416 73.4252 370.204 63.4953 393.208C55.1332 412.579 46.487 432.604 43.9625 453.925C39.7845 489.246 42.0431 526.429 44.2253 562.383C45.509 583.515 46.8354 605.367 46.814 626.431Z" fill="#2A4E2B"/>
<path d="M6.47705 634.316H3.34741C3.34741 617.011 2.80644 599.016 2.28687 581.613C1.12854 543.025 -0.0695259 503.119 4.28263 465.288C6.97828 441.867 16.2113 419.764 25.1418 398.389C35.5485 373.483 46.3067 347.731 46.4625 320.12C46.6184 292.509 35.6616 266.684 25.0685 241.708C16.9754 222.627 8.60729 202.896 5.117 182.345C-1.49682 143.378 0.223879 100.675 1.88956 59.3785C2.63835 40.7871 3.34741 23.2256 3.34741 5.93921H6.47705C6.47705 23.2867 5.76799 40.8787 5.01615 59.5038C3.35964 100.641 1.64506 143.179 8.20386 181.82C11.63 202.013 19.9247 221.57 27.9506 240.485C38.669 265.755 49.7511 291.883 49.5922 320.138C49.4333 348.366 38.5529 374.409 28.03 399.596C19.1821 420.77 10.0346 442.665 7.39395 465.648C3.06623 503.25 4.25818 543.043 5.41347 581.522C5.93609 598.949 6.47705 616.962 6.47705 634.316Z" fill="#2A4E2B"/>
</g>
<defs>
<clipPath id="clip0_28_371">
<rect width="638.448" height="638.448" fill="white" transform="translate(0.110905 0.00012207)"/>
</clipPath>
</defs>
</svg>
