<svg width="133" height="14" viewBox="0 0 133 14" fill="none" xmlns="http://www.w3.org/2000/svg">
<path d="M10.9094 6.7H12.1874V11.506C11.5994 12.022 10.9034 12.418 10.0994 12.694C9.2954 12.97 8.4494 13.108 7.5614 13.108C6.3014 13.108 5.1674 12.832 4.1594 12.28C3.1514 11.728 2.3594 10.966 1.7834 9.994C1.2074 9.01 0.919398 7.912 0.919398 6.7C0.919398 5.488 1.2074 4.396 1.7834 3.424C2.3594 2.44 3.1514 1.672 4.1594 1.12C5.1674 0.567999 6.3074 0.291999 7.5794 0.291999C8.5394 0.291999 9.4214 0.448 10.2254 0.76C11.0294 1.06 11.7074 1.51 12.2594 2.11L11.4314 2.956C10.4354 1.972 9.1694 1.48 7.6334 1.48C6.6134 1.48 5.6894 1.708 4.8614 2.164C4.0454 2.608 3.4034 3.232 2.9354 4.036C2.4674 4.828 2.2334 5.716 2.2334 6.7C2.2334 7.684 2.4674 8.572 2.9354 9.364C3.4034 10.156 4.0454 10.78 4.8614 11.236C5.6774 11.692 6.5954 11.92 7.6154 11.92C8.9114 11.92 10.0094 11.596 10.9094 10.948V6.7ZM21.4653 13.108C20.2173 13.108 19.0833 12.832 18.0633 12.28C17.0553 11.716 16.2633 10.948 15.6873 9.976C15.1233 9.004 14.8413 7.912 14.8413 6.7C14.8413 5.488 15.1233 4.396 15.6873 3.424C16.2633 2.452 17.0553 1.69 18.0633 1.138C19.0833 0.573999 20.2173 0.291999 21.4653 0.291999C22.7133 0.291999 23.8353 0.567999 24.8313 1.12C25.8393 1.672 26.6313 2.44 27.2073 3.424C27.7833 4.396 28.0713 5.488 28.0713 6.7C28.0713 7.912 27.7833 9.01 27.2073 9.994C26.6313 10.966 25.8393 11.728 24.8313 12.28C23.8353 12.832 22.7133 13.108 21.4653 13.108ZM21.4653 11.92C22.4613 11.92 23.3613 11.698 24.1653 11.254C24.9693 10.798 25.5993 10.174 26.0553 9.382C26.5113 8.578 26.7393 7.684 26.7393 6.7C26.7393 5.716 26.5113 4.828 26.0553 4.036C25.5993 3.232 24.9693 2.608 24.1653 2.164C23.3613 1.708 22.4613 1.48 21.4653 1.48C20.4693 1.48 19.5633 1.708 18.7473 2.164C17.9433 2.608 17.3073 3.232 16.8393 4.036C16.3833 4.828 16.1553 5.716 16.1553 6.7C16.1553 7.684 16.3833 8.578 16.8393 9.382C17.3073 10.174 17.9433 10.798 18.7473 11.254C19.5633 11.698 20.4693 11.92 21.4653 11.92ZM39.2418 13.108C38.3058 13.108 37.4058 12.958 36.5418 12.658C35.6898 12.358 35.0298 11.962 34.5618 11.47L35.0838 10.444C35.5398 10.9 36.1458 11.272 36.9018 11.56C37.6578 11.836 38.4378 11.974 39.2418 11.974C40.3698 11.974 41.2158 11.77 41.7798 11.362C42.3438 10.942 42.6258 10.402 42.6258 9.742C42.6258 9.238 42.4698 8.836 42.1578 8.536C41.8578 8.236 41.4858 8.008 41.0418 7.852C40.5978 7.684 39.9798 7.504 39.1878 7.312C38.2398 7.072 37.4838 6.844 36.9198 6.628C36.3558 6.4 35.8698 6.058 35.4618 5.602C35.0658 5.146 34.8678 4.528 34.8678 3.748C34.8678 3.112 35.0358 2.536 35.3718 2.02C35.7078 1.492 36.2238 1.072 36.9198 0.76C37.6158 0.448 38.4798 0.291999 39.5118 0.291999C40.2318 0.291999 40.9338 0.394 41.6178 0.598C42.3138 0.789999 42.9138 1.06 43.4178 1.408L42.9678 2.47C42.4398 2.122 41.8758 1.864 41.2758 1.696C40.6758 1.516 40.0878 1.426 39.5118 1.426C38.4078 1.426 37.5738 1.642 37.0098 2.074C36.4578 2.494 36.1818 3.04 36.1818 3.712C36.1818 4.216 36.3318 4.624 36.6318 4.936C36.9438 5.236 37.3278 5.47 37.7838 5.638C38.2518 5.794 38.8758 5.968 39.6558 6.16C40.5798 6.388 41.3238 6.616 41.8878 6.844C42.4638 7.06 42.9498 7.396 43.3458 7.852C43.7418 8.296 43.9398 8.902 43.9398 9.67C43.9398 10.306 43.7658 10.888 43.4178 11.416C43.0818 11.932 42.5598 12.346 41.8518 12.658C41.1438 12.958 40.2738 13.108 39.2418 13.108ZM57.372 0.399999V13H56.058V7.186H48.174V13H46.842V0.399999H48.174V6.016H56.058V0.399999H57.372ZM66.9926 13.108C65.7446 13.108 64.6106 12.832 63.5906 12.28C62.5826 11.716 61.7906 10.948 61.2146 9.976C60.6506 9.004 60.3686 7.912 60.3686 6.7C60.3686 5.488 60.6506 4.396 61.2146 3.424C61.7906 2.452 62.5826 1.69 63.5906 1.138C64.6106 0.573999 65.7446 0.291999 66.9926 0.291999C68.2406 0.291999 69.3626 0.567999 70.3586 1.12C71.3666 1.672 72.1586 2.44 72.7346 3.424C73.3106 4.396 73.5986 5.488 73.5986 6.7C73.5986 7.912 73.3106 9.01 72.7346 9.994C72.1586 10.966 71.3666 11.728 70.3586 12.28C69.3626 12.832 68.2406 13.108 66.9926 13.108ZM66.9926 11.92C67.9886 11.92 68.8886 11.698 69.6926 11.254C70.4966 10.798 71.1266 10.174 71.5826 9.382C72.0386 8.578 72.2666 7.684 72.2666 6.7C72.2666 5.716 72.0386 4.828 71.5826 4.036C71.1266 3.232 70.4966 2.608 69.6926 2.164C68.8886 1.708 67.9886 1.48 66.9926 1.48C65.9966 1.48 65.0906 1.708 64.2746 2.164C63.4706 2.608 62.8346 3.232 62.3666 4.036C61.9106 4.828 61.6826 5.716 61.6826 6.7C61.6826 7.684 61.9106 8.578 62.3666 9.382C62.8346 10.174 63.4706 10.798 64.2746 11.254C65.0906 11.698 65.9966 11.92 66.9926 11.92ZM81.3002 0.399999C82.9082 0.399999 84.1682 0.783999 85.0802 1.552C85.9922 2.32 86.4482 3.376 86.4482 4.72C86.4482 6.064 85.9922 7.12 85.0802 7.888C84.1682 8.644 82.9082 9.022 81.3002 9.022H77.9162V13H76.5842V0.399999H81.3002ZM81.2642 7.852C82.5122 7.852 83.4662 7.582 84.1262 7.042C84.7862 6.49 85.1162 5.716 85.1162 4.72C85.1162 3.7 84.7862 2.92 84.1262 2.38C83.4662 1.828 82.5122 1.552 81.2642 1.552H77.9162V7.852H81.2642ZM94.0444 0.399999C95.6524 0.399999 96.9124 0.783999 97.8244 1.552C98.7364 2.32 99.1924 3.376 99.1924 4.72C99.1924 6.064 98.7364 7.12 97.8244 7.888C96.9124 8.644 95.6524 9.022 94.0444 9.022H90.6604V13H89.3284V0.399999H94.0444ZM94.0084 7.852C95.2564 7.852 96.2104 7.582 96.8704 7.042C97.5304 6.49 97.8604 5.716 97.8604 4.72C97.8604 3.7 97.5304 2.92 96.8704 2.38C96.2104 1.828 95.2564 1.552 94.0084 1.552H90.6604V7.852H94.0084ZM102.073 0.399999H103.405V13H102.073V0.399999ZM118.034 0.399999V13H116.936L108.836 2.776V13H107.504V0.399999H108.602L116.72 10.624V0.399999H118.034ZM131.021 6.7H132.299V11.506C131.711 12.022 131.015 12.418 130.211 12.694C129.407 12.97 128.561 13.108 127.673 13.108C126.413 13.108 125.279 12.832 124.271 12.28C123.263 11.728 122.471 10.966 121.895 9.994C121.319 9.01 121.031 7.912 121.031 6.7C121.031 5.488 121.319 4.396 121.895 3.424C122.471 2.44 123.263 1.672 124.271 1.12C125.279 0.567999 126.419 0.291999 127.691 0.291999C128.651 0.291999 129.533 0.448 130.337 0.76C131.141 1.06 131.819 1.51 132.371 2.11L131.543 2.956C130.547 1.972 129.281 1.48 127.745 1.48C126.725 1.48 125.801 1.708 124.973 2.164C124.157 2.608 123.515 3.232 123.047 4.036C122.579 4.828 122.345 5.716 122.345 6.7C122.345 7.684 122.579 8.572 123.047 9.364C123.515 10.156 124.157 10.78 124.973 11.236C125.789 11.692 126.707 11.92 127.727 11.92C129.023 11.92 130.121 11.596 131.021 10.948V6.7Z" fill="black"/>
</svg>
