<svg width="241" height="147" viewBox="0 0 241 147" fill="none" xmlns="http://www.w3.org/2000/svg">
<path d="M227.389 30.8661C228.972 34.8655 227.669 39.9095 223.695 45.698C219.733 51.4688 213.19 57.8646 204.551 64.4895C187.279 77.7351 161.719 91.8256 131.967 103.607C102.215 115.388 73.9382 122.616 52.28 124.787C41.4473 125.872 32.2997 125.689 25.461 124.196C18.6013 122.697 14.1982 119.913 12.6145 115.913C11.0308 111.914 12.3339 106.87 16.3082 101.082C20.2702 95.3108 26.8128 88.915 35.4519 82.29C52.7245 69.0444 78.284 54.954 108.036 43.1726C137.788 31.3913 166.065 24.1633 187.723 21.9929C198.556 20.9073 207.703 21.0901 214.542 22.5839C221.402 24.0823 225.805 26.8667 227.389 30.8661Z" stroke="#6CA23E"/>
<path d="M235.502 73.3896C235.502 77.6912 232.433 81.9012 226.607 85.8199C220.798 89.7265 212.361 93.2643 201.889 96.2433C180.953 102.199 152.001 105.89 120.002 105.89C88.0018 105.89 59.05 102.199 38.114 96.2433C27.6426 93.2643 19.2049 89.7265 13.3965 85.8199C7.57024 81.9012 4.50159 77.6912 4.50159 73.3896C4.50159 69.0881 7.57024 64.8781 13.3965 60.9594C19.2049 57.0528 27.6426 53.515 38.114 50.536C59.05 44.5801 88.0018 40.8896 120.002 40.8896C152.001 40.8896 180.953 44.5801 201.889 50.536C212.361 53.515 220.798 57.0528 226.607 60.9594C232.433 64.8781 235.502 69.0881 235.502 73.3896Z" fill="white" stroke="black"/>
<path d="M72.6034 73.0896H73.8814V77.8956C73.2934 78.4116 72.5974 78.8076 71.7934 79.0836C70.9894 79.3596 70.1434 79.4976 69.2554 79.4976C67.9954 79.4976 66.8614 79.2216 65.8534 78.6696C64.8454 78.1176 64.0534 77.3556 63.4774 76.3836C62.9014 75.3996 62.6134 74.3016 62.6134 73.0896C62.6134 71.8776 62.9014 70.7856 63.4774 69.8136C64.0534 68.8296 64.8454 68.0616 65.8534 67.5096C66.8614 66.9576 68.0014 66.6816 69.2734 66.6816C70.2334 66.6816 71.1154 66.8376 71.9194 67.1496C72.7234 67.4496 73.4014 67.8996 73.9534 68.4996L73.1254 69.3456C72.1294 68.3616 70.8634 67.8696 69.3274 67.8696C68.3074 67.8696 67.3834 68.0976 66.5554 68.5536C65.7394 68.9976 65.0974 69.6216 64.6294 70.4256C64.1614 71.2176 63.9274 72.1056 63.9274 73.0896C63.9274 74.0736 64.1614 74.9616 64.6294 75.7536C65.0974 76.5456 65.7394 77.1696 66.5554 77.6256C67.3714 78.0816 68.2894 78.3096 69.3094 78.3096C70.6054 78.3096 71.7034 77.9856 72.6034 77.3376V73.0896ZM83.1592 79.4976C81.9112 79.4976 80.7772 79.2216 79.7572 78.6696C78.7492 78.1056 77.9572 77.3376 77.3812 76.3656C76.8172 75.3936 76.5352 74.3016 76.5352 73.0896C76.5352 71.8776 76.8172 70.7856 77.3812 69.8136C77.9572 68.8416 78.7492 68.0796 79.7572 67.5276C80.7772 66.9636 81.9112 66.6816 83.1592 66.6816C84.4072 66.6816 85.5292 66.9576 86.5252 67.5096C87.5332 68.0616 88.3252 68.8296 88.9012 69.8136C89.4772 70.7856 89.7652 71.8776 89.7652 73.0896C89.7652 74.3016 89.4772 75.3996 88.9012 76.3836C88.3252 77.3556 87.5332 78.1176 86.5252 78.6696C85.5292 79.2216 84.4072 79.4976 83.1592 79.4976ZM83.1592 78.3096C84.1552 78.3096 85.0552 78.0876 85.8592 77.6436C86.6632 77.1876 87.2932 76.5636 87.7492 75.7716C88.2052 74.9676 88.4332 74.0736 88.4332 73.0896C88.4332 72.1056 88.2052 71.2176 87.7492 70.4256C87.2932 69.6216 86.6632 68.9976 85.8592 68.5536C85.0552 68.0976 84.1552 67.8696 83.1592 67.8696C82.1632 67.8696 81.2572 68.0976 80.4412 68.5536C79.6372 68.9976 79.0012 69.6216 78.5332 70.4256C78.0772 71.2176 77.8492 72.1056 77.8492 73.0896C77.8492 74.0736 78.0772 74.9676 78.5332 75.7716C79.0012 76.5636 79.6372 77.1876 80.4412 77.6436C81.2572 78.0876 82.1632 78.3096 83.1592 78.3096ZM99.9098 67.9416H95.4818V66.7896H105.67V67.9416H101.242V79.3896H99.9098V67.9416ZM113.13 79.4976C111.882 79.4976 110.748 79.2216 109.728 78.6696C108.72 78.1056 107.928 77.3376 107.352 76.3656C106.788 75.3936 106.506 74.3016 106.506 73.0896C106.506 71.8776 106.788 70.7856 107.352 69.8136C107.928 68.8416 108.72 68.0796 109.728 67.5276C110.748 66.9636 111.882 66.6816 113.13 66.6816C114.378 66.6816 115.5 66.9576 116.496 67.5096C117.504 68.0616 118.296 68.8296 118.872 69.8136C119.448 70.7856 119.736 71.8776 119.736 73.0896C119.736 74.3016 119.448 75.3996 118.872 76.3836C118.296 77.3556 117.504 78.1176 116.496 78.6696C115.5 79.2216 114.378 79.4976 113.13 79.4976ZM113.13 78.3096C114.126 78.3096 115.026 78.0876 115.83 77.6436C116.634 77.1876 117.264 76.5636 117.72 75.7716C118.176 74.9676 118.404 74.0736 118.404 73.0896C118.404 72.1056 118.176 71.2176 117.72 70.4256C117.264 69.6216 116.634 68.9976 115.83 68.5536C115.026 68.0976 114.126 67.8696 113.13 67.8696C112.134 67.8696 111.228 68.0976 110.412 68.5536C109.608 68.9976 108.972 69.6216 108.504 70.4256C108.048 71.2176 107.82 72.1056 107.82 73.0896C107.82 74.0736 108.048 74.9676 108.504 75.7716C108.972 76.5636 109.608 77.1876 110.412 77.6436C111.228 78.0876 112.134 78.3096 113.13 78.3096ZM135.37 72.8916C136.198 73.0716 136.834 73.4316 137.278 73.9716C137.734 74.4996 137.962 75.1836 137.962 76.0236C137.962 77.1036 137.56 77.9376 136.756 78.5256C135.964 79.1016 134.788 79.3896 133.228 79.3896H127.432V66.7896H132.868C134.272 66.7896 135.358 67.0716 136.126 67.6356C136.906 68.1996 137.296 68.9976 137.296 70.0296C137.296 70.7256 137.122 71.3196 136.774 71.8116C136.438 72.2916 135.97 72.6516 135.37 72.8916ZM128.764 67.8876V72.4596H132.778C133.798 72.4596 134.584 72.2676 135.136 71.8836C135.688 71.4876 135.964 70.9176 135.964 70.1736C135.964 69.4296 135.688 68.8656 135.136 68.4816C134.584 68.0856 133.798 67.8876 132.778 67.8876H128.764ZM133.21 78.2916C134.338 78.2916 135.19 78.0996 135.766 77.7156C136.342 77.3316 136.63 76.7316 136.63 75.9156C136.63 74.3436 135.49 73.5576 133.21 73.5576H128.764V78.2916H133.21ZM141.003 66.7896H142.335V78.2376H149.391V79.3896H141.003V66.7896ZM156.864 79.4976C155.616 79.4976 154.482 79.2216 153.462 78.6696C152.454 78.1056 151.662 77.3376 151.086 76.3656C150.522 75.3936 150.24 74.3016 150.24 73.0896C150.24 71.8776 150.522 70.7856 151.086 69.8136C151.662 68.8416 152.454 68.0796 153.462 67.5276C154.482 66.9636 155.616 66.6816 156.864 66.6816C158.112 66.6816 159.234 66.9576 160.23 67.5096C161.238 68.0616 162.03 68.8296 162.606 69.8136C163.182 70.7856 163.47 71.8776 163.47 73.0896C163.47 74.3016 163.182 75.3996 162.606 76.3836C162.03 77.3556 161.238 78.1176 160.23 78.6696C159.234 79.2216 158.112 79.4976 156.864 79.4976ZM156.864 78.3096C157.86 78.3096 158.76 78.0876 159.564 77.6436C160.368 77.1876 160.998 76.5636 161.454 75.7716C161.91 74.9676 162.138 74.0736 162.138 73.0896C162.138 72.1056 161.91 71.2176 161.454 70.4256C160.998 69.6216 160.368 68.9976 159.564 68.5536C158.76 68.0976 157.86 67.8696 156.864 67.8696C155.868 67.8696 154.962 68.0976 154.146 68.5536C153.342 68.9976 152.706 69.6216 152.238 70.4256C151.782 71.2176 151.554 72.1056 151.554 73.0896C151.554 74.0736 151.782 74.9676 152.238 75.7716C152.706 76.5636 153.342 77.1876 154.146 77.6436C154.962 78.0876 155.868 78.3096 156.864 78.3096ZM175.33 73.0896H176.608V77.8956C176.02 78.4116 175.324 78.8076 174.52 79.0836C173.716 79.3596 172.87 79.4976 171.982 79.4976C170.722 79.4976 169.588 79.2216 168.58 78.6696C167.572 78.1176 166.78 77.3556 166.204 76.3836C165.628 75.3996 165.34 74.3016 165.34 73.0896C165.34 71.8776 165.628 70.7856 166.204 69.8136C166.78 68.8296 167.572 68.0616 168.58 67.5096C169.588 66.9576 170.728 66.6816 172 66.6816C172.96 66.6816 173.842 66.8376 174.646 67.1496C175.45 67.4496 176.128 67.8996 176.68 68.4996L175.852 69.3456C174.856 68.3616 173.59 67.8696 172.054 67.8696C171.034 67.8696 170.11 68.0976 169.282 68.5536C168.466 68.9976 167.824 69.6216 167.356 70.4256C166.888 71.2176 166.654 72.1056 166.654 73.0896C166.654 74.0736 166.888 74.9616 167.356 75.7536C167.824 76.5456 168.466 77.1696 169.282 77.6256C170.098 78.0816 171.016 78.3096 172.036 78.3096C173.332 78.3096 174.43 77.9856 175.33 77.3376V73.0896Z" fill="black"/>
</svg>
