<svg width="321" height="322" viewBox="0 0 321 322" fill="none" xmlns="http://www.w3.org/2000/svg">
<path d="M72.0231 195.664C72.296 196.584 72.349 197.495 72.1821 198.395C72.0152 199.296 71.6363 200.101 71.0455 200.81L69.5949 200.139C70.6504 198.858 70.9666 197.504 70.5437 196.078C69.9525 194.083 68.4757 193.436 66.1133 194.137L56.357 197.029L58.1034 202.92L56.6307 203.356L54.3864 195.786L65.5463 192.478C67.2337 191.977 68.6252 191.999 69.7207 192.542C70.7963 193.074 71.5638 194.115 72.0231 195.664Z" fill="black"/>
<path d="M66.5574 176.935C66.6845 179.108 66.1607 180.837 64.9859 182.124C63.8111 183.411 62.0337 184.124 59.6538 184.263L50.0462 184.826L49.9425 183.053L59.4781 182.495C61.4268 182.381 62.8546 181.856 63.7615 180.922C64.6685 179.987 65.0733 178.689 64.9761 177.028C64.8779 175.351 64.324 174.101 63.3142 173.279C62.3044 172.456 60.8252 172.102 58.8765 172.216L49.3408 172.774L49.2398 171.049L58.8474 170.487C61.2273 170.348 63.0758 170.849 64.3927 171.99C65.7087 173.115 66.4302 174.763 66.5574 176.935Z" fill="black"/>
<path d="M49.9105 145.457L66.47 148.29L66.2231 149.733L50.9652 158.079L64.4021 160.378L64.1026 162.129L47.5431 159.296L47.79 157.853L63.0519 149.482L49.6151 147.184L49.9105 145.457Z" fill="black"/>
<path d="M63.1293 126.581L63.7676 125.001L69.709 127.401C70.0532 128.386 70.1951 129.444 70.1348 130.576C70.0744 131.708 69.8224 132.822 69.3789 133.92C68.7496 135.478 67.842 136.742 66.6561 137.712C65.4702 138.683 64.1326 139.281 62.6433 139.508C61.1391 139.728 59.6379 139.536 58.1395 138.931C56.6412 138.325 55.4351 137.424 54.5211 136.226C53.5924 135.023 53.0385 133.66 52.8596 132.138C52.6806 130.616 52.9088 129.069 53.5442 127.497C54.0236 126.31 54.657 125.297 55.4443 124.459C56.2168 123.615 57.1117 123.002 58.1292 122.619L58.7615 124.065C57.0475 124.805 55.807 126.124 55.0398 128.023C54.5303 129.284 54.3507 130.54 54.5008 131.792C54.6422 133.022 55.0929 134.128 55.8531 135.108C56.5985 136.082 57.5794 136.815 58.7958 137.306C60.0123 137.798 61.227 137.952 62.4398 137.769C63.6527 137.586 64.7448 137.104 65.7161 136.323C66.6874 135.542 67.4277 134.521 67.9372 133.26C68.5845 131.658 68.7324 130.139 68.3808 128.702L63.1293 126.581Z" fill="black"/>
<path d="M59.1164 112.86L60.0538 111.351L73.0183 119.408L77.9841 111.417L79.2887 112.228L73.3855 121.727L59.1164 112.86Z" fill="black"/>
<path d="M88.1294 97.6069L89.2534 98.6537L81.1569 107.347L68.8627 95.8978L76.7139 87.4675L77.8379 88.5144L71.1971 95.645L75.5704 99.7178L81.4914 93.3599L82.5979 94.3904L76.6768 100.748L81.2432 105.001L88.1294 97.6069Z" fill="black"/>
<path d="M104.412 84.6862C103.588 85.1783 102.719 85.4548 101.805 85.5159C100.891 85.577 100.017 85.409 99.1839 85.012L99.4755 83.4404C100.978 84.1462 102.368 84.1177 103.645 83.355C105.431 82.2888 105.693 80.6979 104.43 78.5822L99.2136 69.8447L93.9381 72.994L93.1508 71.6752L99.9306 67.6278L105.897 77.6224C106.799 79.1336 107.123 80.4871 106.868 81.6829C106.618 82.8568 105.799 83.8579 104.412 84.6862Z" fill="black"/>
<path d="M121.428 74.6598C119.354 75.318 117.549 75.2363 116.012 74.4146C114.476 73.5928 113.347 72.0458 112.626 69.7735L109.715 60.6004L111.407 60.0631L114.297 69.1677C114.887 71.0282 115.747 72.2829 116.876 72.9318C118.005 73.5806 119.363 73.6534 120.949 73.15C122.55 72.6418 123.625 71.7971 124.173 70.6159C124.722 69.4347 124.701 67.9138 124.11 66.0533L121.221 56.9487L122.868 56.4261L125.779 65.5992C126.5 67.8715 126.47 69.7864 125.689 71.3437C124.922 72.8962 123.502 74.0016 121.428 74.6598Z" fill="black"/>
<path d="M147.717 50.7953L149.072 67.5405L147.613 67.6586L135.748 54.9428L136.848 68.5303L135.078 68.6736L133.722 51.9284L135.182 51.8103L147.07 64.5242L145.97 50.9367L147.717 50.7953Z" fill="black"/>
<path d="M169.286 58.9664L170.974 59.1984L170.101 65.5467C169.231 66.1215 168.239 66.5183 167.127 66.7368C166.015 66.9554 164.873 66.9841 163.7 66.8229C162.035 66.5941 160.587 66.0236 159.356 65.1115C158.125 64.1993 157.217 63.049 156.633 61.6605C156.051 60.2561 155.87 58.7534 156.09 57.1525C156.31 55.5516 156.888 54.1614 157.826 52.9821C158.765 51.7869 159.951 50.9162 161.383 50.3701C162.814 49.824 164.37 49.6664 166.05 49.8973C167.318 50.0716 168.455 50.4378 169.461 50.996C170.468 51.5382 171.282 52.2557 171.902 53.1485L170.655 54.1156C169.518 52.635 167.935 51.7553 165.906 51.4764C164.559 51.2912 163.297 51.4246 162.12 51.8766C160.962 52.3149 160 53.0226 159.236 53.9996C158.474 54.9608 158.004 56.0913 157.825 57.3911C157.647 58.6909 157.795 59.9063 158.269 61.0375C158.743 62.1686 159.478 63.1094 160.473 63.8599C161.468 64.6104 162.639 65.0782 163.987 65.2634C165.699 65.4988 167.208 65.2701 168.514 64.5776L169.286 58.9664Z" fill="black"/>
<path d="M181.561 51.712L183.254 52.2497L178.632 66.7973L187.599 69.6458L187.134 71.1097L176.475 67.7234L181.561 51.712Z" fill="black"/>
<path d="M203.349 76.0111L202.617 77.3611L192.175 71.6947L200.188 56.9289L210.313 62.4235L209.581 63.7736L201.016 59.126L198.166 64.3784L205.802 68.5223L205.081 69.8512L197.445 65.7073L194.469 71.1918L203.349 76.0111Z" fill="black"/>
<path d="M219.956 88.5594C219.276 87.8816 218.794 87.1074 218.51 86.2367C218.226 85.3659 218.173 84.4779 218.353 83.5725L219.948 83.4682C219.634 85.0979 220.003 86.438 221.057 87.4885C222.53 88.957 224.137 88.8187 225.876 87.0736L233.061 79.8669L228.709 75.5292L229.794 74.4414L235.386 80.016L227.168 88.2596C225.925 89.506 224.693 90.1528 223.471 90.2C222.272 90.2471 221.1 89.7003 219.956 88.5594Z" fill="black"/>
<path d="M233.716 102.383C232.565 100.536 232.197 98.7668 232.613 97.0747C233.029 95.3825 234.248 93.9058 236.271 92.6446L244.438 87.5531L245.377 89.0602L237.272 94.1136C235.615 95.1463 234.612 96.29 234.263 97.5446C233.914 98.7993 234.18 100.133 235.06 101.545C235.949 102.97 237.033 103.803 238.314 104.041C239.594 104.28 241.062 103.883 242.719 102.851L250.824 97.7974L251.739 99.2637L243.572 104.355C241.549 105.616 239.686 106.061 237.984 105.69C236.29 105.332 234.867 104.229 233.716 102.383Z" fill="black"/>
<path d="M263.467 122.097L247.575 127.545L247.1 126.16L256.493 111.523L243.598 115.943L243.022 114.263L258.914 108.815L259.389 110.2L250.003 124.86L262.899 120.439L263.467 122.097Z" fill="black"/>
<path d="M260.893 144.767L261.088 146.46L254.722 147.191C253.949 146.491 253.318 145.629 252.83 144.606C252.342 143.583 252.031 142.484 251.896 141.307C251.704 139.638 251.897 138.094 252.475 136.675C253.052 135.256 253.941 134.091 255.141 133.18C256.357 132.267 257.767 131.718 259.373 131.534C260.978 131.349 262.469 131.565 263.844 132.18C265.235 132.793 266.373 133.725 267.257 134.976C268.142 136.228 268.681 137.696 268.875 139.381C269.021 140.652 268.948 141.844 268.657 142.957C268.382 144.067 267.89 145.034 267.179 145.856L265.932 144.888C267.084 143.419 267.543 141.667 267.309 139.633C267.154 138.282 266.711 137.093 265.981 136.065C265.269 135.052 264.345 134.296 263.209 133.799C262.088 133.299 260.876 133.125 259.573 133.274C258.269 133.424 257.129 133.869 256.151 134.61C255.173 135.35 254.444 136.296 253.964 137.446C253.485 138.596 253.322 139.847 253.478 141.198C253.675 142.915 254.271 144.32 255.266 145.413L260.893 144.767Z" fill="black"/>
<path d="M271.015 155.274L270.909 157.047L255.673 156.136L255.111 165.527L253.578 165.436L254.245 154.272L271.015 155.274Z" fill="black"/>
<path d="M252.884 182.079L251.395 181.7L254.328 170.188L270.608 174.336L267.764 185.499L266.276 185.12L268.681 175.677L262.89 174.202L260.745 182.621L259.28 182.248L261.425 173.829L255.378 172.288L252.884 182.079Z" fill="black"/>
<path d="M244.797 201.46C245.286 200.633 245.917 199.975 246.69 199.484C247.464 198.993 248.311 198.723 249.233 198.673L249.729 200.193C248.072 200.291 246.865 200.981 246.107 202.262C245.049 204.052 245.58 205.575 247.701 206.829L256.461 212.007L259.588 206.719L260.91 207.5L256.891 214.297L246.872 208.373C245.356 207.478 244.425 206.444 244.077 205.272C243.735 204.121 243.975 202.851 244.797 201.46Z" fill="black"/>
<path d="M235.056 217.977C236.557 216.401 238.179 215.604 239.921 215.584C241.664 215.565 243.398 216.377 245.124 218.022L252.092 224.66L250.867 225.946L243.951 219.357C242.538 218.011 241.18 217.325 239.878 217.3C238.576 217.275 237.351 217.865 236.203 219.07C235.044 220.286 234.509 221.544 234.597 222.843C234.685 224.142 235.436 225.465 236.849 226.812L243.765 233.4L242.573 234.651L235.605 228.013C233.879 226.369 232.984 224.676 232.919 222.935C232.843 221.205 233.555 219.553 235.056 217.977Z" fill="black"/>
<path d="M223.361 251.745L214.146 237.698L215.37 236.895L231.878 242.369L224.4 230.971L225.885 229.997L235.1 244.044L233.876 244.847L217.348 239.386L224.826 250.784L223.361 251.745Z" fill="black"/>
<path d="M200.524 255.033L198.932 255.64L196.646 249.654C197.133 248.732 197.812 247.907 198.682 247.181C199.552 246.455 200.54 245.881 201.646 245.458C203.216 244.859 204.76 244.663 206.278 244.872C207.796 245.08 209.145 245.652 210.325 246.589C211.51 247.541 212.391 248.771 212.968 250.281C213.544 251.791 213.705 253.288 213.45 254.773C213.2 256.272 212.579 257.606 211.586 258.773C210.593 259.94 209.304 260.826 207.72 261.431C206.524 261.887 205.351 262.112 204.201 262.106C203.057 262.115 201.998 261.877 201.026 261.392L201.654 259.944C203.363 260.696 205.174 260.707 207.087 259.977C208.358 259.491 209.4 258.768 210.215 257.806C211.02 256.865 211.523 255.782 211.724 254.558C211.93 253.349 211.799 252.132 211.331 250.906C210.863 249.68 210.149 248.686 209.189 247.922C208.23 247.158 207.133 246.686 205.9 246.506C204.667 246.326 203.415 246.479 202.144 246.964C200.53 247.58 199.316 248.506 198.503 249.741L200.524 255.033Z" fill="black"/>
<path d="M193.261 267.363L191.518 267.704L188.585 252.724L179.353 254.532L179.058 253.024L190.033 250.876L193.261 267.363Z" fill="black"/>
<path d="M161.699 256.574L161.706 255.038L173.586 255.092L173.51 271.892L161.99 271.84L161.997 270.304L171.741 270.348L171.768 264.372L163.08 264.333L163.087 262.821L171.775 262.86L171.803 256.62L161.699 256.574Z" fill="black"/>
<path d="M141.437 253.481C142.358 253.751 143.151 254.201 143.817 254.831C144.482 255.46 144.952 256.215 145.227 257.096L143.876 257.95C143.373 256.368 142.408 255.367 140.981 254.948C138.985 254.361 137.64 255.25 136.945 257.614L134.076 267.377L139.971 269.11L139.538 270.583L131.962 268.357L135.244 257.189C135.74 255.501 136.514 254.344 137.564 253.719C138.595 253.105 139.886 253.025 141.437 253.481Z" fill="black"/>
<path d="M122.849 247.998C124.746 249.063 125.919 250.438 126.368 252.122C126.817 253.805 126.458 255.687 125.29 257.765L120.576 266.155L119.028 265.285L123.706 256.958C124.662 255.256 124.992 253.771 124.695 252.503C124.398 251.235 123.524 250.194 122.074 249.379C120.609 248.556 119.258 248.347 118.02 248.753C116.783 249.159 115.686 250.213 114.73 251.915L110.051 260.242L108.545 259.396L113.259 251.005C114.427 248.927 115.846 247.642 117.518 247.149C119.175 246.649 120.952 246.932 122.849 247.998Z" fill="black"/>
<path d="M87.5206 245.206L98.8306 232.784L99.9131 233.769L98.722 251.12L107.899 241.04L109.212 242.235L97.9025 254.658L96.8199 253.673L97.9934 236.306L88.8161 246.386L87.5206 245.206Z" fill="black"/>
<path d="M78.6745 223.856L77.691 222.464L82.9241 218.766C83.9384 219.009 84.9052 219.462 85.8244 220.126C86.7436 220.789 87.5449 221.604 88.2283 222.57C89.1979 223.942 89.77 225.39 89.9446 226.912C90.1192 228.434 89.899 229.883 89.2839 231.258C88.6557 232.643 87.6817 233.801 86.362 234.734C85.0423 235.666 83.6317 236.193 82.1301 236.314C80.6154 236.444 79.1697 236.173 77.7929 235.5C76.4162 234.827 75.2384 233.798 74.2596 232.413C73.5209 231.368 73.012 230.287 72.733 229.172C72.441 228.066 72.4092 226.981 72.6378 225.918L74.1961 226.169C73.8911 228.01 74.3296 229.768 75.5116 231.44C76.2965 232.551 77.2558 233.381 78.3895 233.932C79.5009 234.479 80.6744 234.698 81.9099 234.589C83.1325 234.489 84.2794 234.06 85.3509 233.303C86.4223 232.546 87.2091 231.608 87.7114 230.489C88.2136 229.37 88.399 228.19 88.2676 226.951C88.1362 225.712 87.678 224.536 86.8931 223.426C85.8958 222.015 84.6981 221.068 83.3 220.587L78.6745 223.856Z" fill="black"/>
</svg>
