<svg width="288" height="306" viewBox="0 0 288 306" fill="none" xmlns="http://www.w3.org/2000/svg">
<path d="M42.7408 45.0305C68.7936 17.5656 106.777 1.89817 144.004 1.02157C181.762 0.132371 218.891 19.1927 245.571 45.0305C272.422 71.0334 287.52 109.752 287.428 146.299C287.315 190.785 276.925 278.676 240.24 300.925C207.462 320.804 165.256 261.682 129.046 260.787C104.007 260.168 68.7497 274.759 46.6641 254.413C19.5671 229.451 1.00695 184.062 0.579422 146.299C0.157051 108.99 17.4181 71.7256 42.7408 45.0305ZM4.71772 153.809C3.6803 150.969 2.88572 148.224 2.3392 145.621C2.33803 145.855 2.33622 146.085 2.33677 146.317C2.3546 153.762 3.21983 161.727 4.83929 169.927C4.32264 164.466 4.27615 159.069 4.71772 153.809ZM62.9792 261.908C65.0728 262.632 67.1891 263.171 69.3239 263.54C69.3103 263.451 69.2994 263.356 69.2901 263.259C67.163 262.951 65.0594 262.507 62.9792 261.908ZM214.729 298.524C210.279 298.847 205.56 297.883 200.648 295.981C208.621 300.191 216.298 302.808 223.511 302.762C220.76 301.838 217.826 300.409 214.729 298.524ZM53.5734 237.435C47.5857 233.705 41.6766 228.841 36.0946 223.25C36.5092 228.521 37.4197 233.442 38.7474 237.767C43.3481 242.135 48.2493 245.862 53.2665 248.698C53.013 245.375 53.1019 241.555 53.5734 237.435ZM227.933 40.3091C227.004 39.01 225.953 37.7108 224.792 36.4234C219.895 35.372 214.524 35.0039 208.827 35.3727C208.745 35.378 208.663 35.3833 208.58 35.3887C208.65 35.4939 208.719 35.5967 208.785 35.702C215.542 36.6129 221.971 38.1702 227.933 40.3091ZM252.825 66.6582C252.572 64.5429 252.355 63.6964 251.483 61.039C246.178 56.5779 240.304 52.5781 234.001 49.1204C234.26 50.0951 234.345 50.7283 234.48 52.1324C241.11 56.5342 247.271 61.4009 252.825 66.6582ZM257.808 143.154C259.089 151.399 259.823 161.157 259.671 172.946C264.805 169.449 269.28 165.389 272.975 161.124C272.545 150.391 271.254 142.57 269.337 134.654C266.087 137.639 262.211 140.447 257.808 143.154ZM188.823 30.9865C180.532 27.0988 171.955 23.8796 163.311 21.4769C162.89 22.5512 162.637 23.7388 162.559 25.0224C171.447 26.3027 180.273 28.3155 188.823 30.9865ZM77.257 187.443C81.5488 182.604 86.4311 178.057 91.3528 172.251C83.2725 163.091 75.7779 153.467 69.1124 144.163C63.7927 149.936 58.805 155.215 54.5802 161.072C61.5122 170.359 69.2209 179.492 77.257 187.443ZM229.189 96.1997C228.546 96.393 227.891 96.5798 227.227 96.7567C224.29 97.5399 221.17 98.1333 217.937 98.4884C219.139 107.764 219.941 117.418 220.31 127.089C224.793 126.181 229.11 124.962 233.157 123.548C233.996 123.255 234.824 122.953 235.639 122.644C234.009 113.74 231.84 104.838 229.189 96.1997ZM92.891 173.982C87.9589 179.784 83.0341 184.153 78.745 188.9C86.8175 196.704 95.1658 203.224 103.618 208.1C108.198 204.603 113.13 201.005 118.031 196.427C109.44 190.468 101.059 183.092 92.891 173.982ZM129.253 82.4766C133.458 88.2467 138.147 93.9861 143.189 99.3587C148.615 91.0424 154.046 82.8734 159.398 75.544C155.755 71.9328 152.367 68.041 149.322 64.0477C142.626 69.5472 135.908 75.9951 129.253 82.4766ZM133.75 175.181C138.091 167.286 142.423 158.368 146.662 148.877C139.525 143.305 132.594 136.514 126.101 129.244C120.717 137.317 115.365 145.034 110.171 152.09C117.617 160.627 125.572 168.664 133.75 175.181ZM147.541 146.898C151.74 137.096 155.861 126.833 159.863 116.934C154.149 112.928 148.618 108.089 143.411 102.642C138.001 111.039 132.567 119.504 127.215 127.568C133.643 134.734 140.495 141.417 147.541 146.898ZM179.161 127.04C173.141 124.907 167.157 121.864 161.351 117.957C157.351 127.929 153.252 138.231 149.094 148.015C156.225 153.005 163.535 156.656 170.85 158.968C173.805 148.58 176.581 137.678 179.161 127.04ZM148.224 150.051C144.032 159.818 139.695 168.546 135.367 176.447C143.676 182.836 152.193 187.485 160.544 189.509C164.151 181.856 167.243 171.464 170.229 161.133C162.821 158.809 155.427 155.109 148.224 150.051ZM144.583 100.824C149.701 106.136 155.133 110.842 160.743 114.764C164.765 104.83 168.709 95.2128 172.511 86.4363C168.404 83.6305 164.443 80.3875 160.728 76.8358C155.399 84.2121 149.989 92.4404 144.583 100.824ZM179.722 124.715C182.284 114.063 184.655 103.703 186.802 94.1414C182.441 92.3865 178.114 90.1169 173.92 87.3787C170.136 96.198 166.215 105.84 162.226 115.778C167.941 119.61 173.818 122.601 179.722 124.715ZM172.447 159.452C179.938 161.625 187.442 162.421 194.809 162.187C196.561 152.038 197.996 141.422 199.118 130.966C193.036 130.664 186.854 129.586 180.7 127.564C178.141 138.185 175.385 149.071 172.447 159.452ZM171.828 161.613C168.84 172.005 165.768 182.342 162.172 189.877C170.723 191.684 179.187 191.59 187.555 191.109C190.486 183.503 192.631 174.439 194.44 164.293C186.996 164.568 179.408 163.798 171.828 161.613ZM134.475 178.062C130.094 185.918 125.443 191.998 120.61 196.577C129.335 202.472 138.458 207.968 147.214 209.07C151.788 204.515 156.078 198.575 159.797 191.053C151.417 189.094 142.846 184.492 134.475 178.062ZM119.615 197.505C114.69 202.021 109.733 205.538 105.129 208.955C113.7 213.703 122.384 216.786 131.36 218.775C136.348 216.436 141.574 214.445 146.265 209.992C137.486 208.949 128.339 203.341 119.615 197.505ZM119.023 195.487C123.833 190.846 128.456 184.651 132.856 176.795C124.62 170.235 116.606 162.138 109.103 153.536C103.853 160.619 98.7357 167.06 93.8926 172.802C102.021 181.904 110.429 189.468 119.023 195.487ZM125.758 125.925C131.138 117.893 136.592 109.484 142.014 101.163C136.878 95.6453 132.107 89.7609 127.836 83.8615C121.222 90.3391 114.644 97.0006 108.248 103.523C113.512 111.059 119.41 118.7 125.758 125.925ZM199.357 128.697C200.435 118.239 201.206 107.916 201.671 98.1904C197.254 97.5425 192.754 96.3987 188.271 94.717C186.14 104.301 183.792 114.646 181.257 125.243C187.305 127.254 193.38 128.353 199.357 128.697ZM203.208 98.3957C202.758 108.094 202.003 118.37 200.94 128.771C203.853 128.875 206.794 128.805 209.682 128.582C212.759 128.346 215.792 127.934 218.706 127.398C218.346 117.665 217.551 107.958 216.356 98.6401C214.111 98.8299 211.789 98.9028 209.452 98.848C207.407 98.8 205.308 98.6534 203.208 98.3957ZM218.776 129.473C215.745 130.06 212.596 130.508 209.407 130.775C206.548 131.015 203.623 131.108 200.705 131.025C199.6 141.429 198.18 152 196.441 162.117C200.053 161.929 203.651 161.498 207.149 160.898C210.956 160.243 214.722 159.372 218.359 158.365C218.941 148.969 219.074 139.188 218.776 129.473ZM206.82 162.938C203.297 163.561 199.687 164.006 196.073 164.215C194.281 174.324 192.136 183.333 189.212 191.007C193.288 190.74 197.382 190.364 201.4 189.932C205.8 189.459 210.166 188.908 214.388 188.28C216.384 178.991 217.588 169.703 218.234 160.301C214.536 161.345 210.701 162.252 206.82 162.938ZM161.423 191.41C157.689 198.873 153.391 204.76 148.813 209.261C157.798 210.286 166.896 210.704 176.043 211.762C180.162 206.682 183.879 200.235 186.941 192.66C178.512 193.075 170.001 193.159 161.423 191.41ZM108.664 150.351C113.872 143.305 119.238 135.618 124.64 127.592C118.217 120.256 112.254 112.506 106.931 104.867C100.54 111.394 94.2974 117.813 88.3596 123.941C94.4427 132.716 101.283 141.741 108.664 150.351ZM128.007 80.7478C134.66 74.3318 141.389 67.8967 148.119 62.4419C145.155 58.4096 142.551 54.4028 140.366 50.4934C132.618 54.3668 124.839 58.7814 117.211 63.5153C120.235 69.1024 123.864 74.9208 128.007 80.7478ZM164.716 39.3567C163.638 37.3338 162.765 35.3349 162.118 33.4062C153.55 33.7555 144.842 34.7692 136.262 36.8695C137.433 40.3865 139.061 44.0913 141.106 47.8869C148.956 44.0787 156.914 41.456 164.716 39.3567ZM142.079 49.6415C144.215 53.3986 146.765 57.3239 149.658 61.204C156.44 55.8034 163.22 51.0567 169.843 47.1607C168.262 45.1427 166.859 43.0858 165.663 41.0461C157.887 43.167 149.931 45.7903 142.079 49.6415ZM150.865 62.7921C153.828 66.6208 157.121 70.3549 160.662 73.8238C166.053 66.5451 171.393 60.022 176.559 54.4619C174.563 52.6017 172.702 50.6326 171.013 48.6081C164.404 52.5344 157.633 57.3319 150.865 62.7921ZM173.421 84.3446C177.222 75.6421 180.926 67.6932 184.443 60.7272C182.135 59.1751 179.915 57.4542 177.83 55.6138C172.686 61.2021 167.362 67.7666 161.989 75.1013C165.602 78.5183 169.444 81.637 173.421 84.3446ZM187.315 91.8498C189.455 82.2898 191.394 73.4321 193.093 65.5294C190.613 64.4235 188.155 63.1015 185.769 61.5919C182.286 68.5642 178.609 76.5346 174.826 85.2794C178.897 87.924 183.091 90.129 187.315 91.8498ZM201.775 95.8934C202.196 86.1631 202.312 76.9609 202.125 68.5792C199.592 67.9887 197.027 67.1709 194.482 66.1225C192.812 74.0215 190.898 82.874 188.781 92.4255C193.121 94.0768 197.484 95.222 201.775 95.8934ZM203.613 68.8994C203.815 77.2677 203.714 86.4319 203.308 96.113C205.445 96.3941 207.589 96.563 209.684 96.627C211.831 96.6925 213.978 96.6483 216.074 96.4985C214.804 87.1389 213.116 78.116 211.06 69.7236C209.744 69.6958 208.381 69.6001 207.004 69.4358C205.876 69.3035 204.744 69.1227 203.613 68.8994ZM217.654 96.3676C220.944 96.0496 224.111 95.4796 227.079 94.7091C227.59 94.5764 228.096 94.4375 228.595 94.2932C225.837 85.5797 222.565 77.0715 218.868 69.0437C218.519 69.1168 218.165 69.1826 217.805 69.2439C216.172 69.5227 214.437 69.687 212.635 69.7227C214.691 78.0864 216.381 87.0654 217.654 96.3676ZM230.147 93.8222C233.328 92.7992 236.259 91.5461 238.883 90.1028C234.892 82.1183 230.314 74.3101 225.264 66.8902C223.796 67.615 222.177 68.2167 220.433 68.6758C224.127 76.6875 227.394 85.156 230.147 93.8222ZM246.635 84.4115C241.718 77.1881 236.158 70.1885 230.093 63.5557C229.106 64.5057 227.965 65.3628 226.686 66.1211C231.737 73.5306 236.317 81.3193 240.309 89.2795C242.734 87.8158 244.857 86.1849 246.635 84.4115ZM239.703 91.7642C237.002 93.2871 233.994 94.617 230.738 95.7042C233.391 104.305 235.564 113.167 237.201 122.036C241.713 120.236 245.864 118.199 249.561 115.992C246.87 107.792 243.557 99.6599 239.703 91.7642ZM233.241 125.509C229.179 126.95 224.86 128.202 220.383 129.147C220.69 138.815 220.568 148.544 220 157.902C225.466 156.315 230.744 154.414 235.707 152.381C236.822 151.924 237.92 151.46 239.001 150.993C238.54 142.302 237.519 133.376 235.97 124.498C235.075 124.844 234.165 125.181 233.241 125.509ZM147.861 210.173C143.122 214.612 137.916 216.845 132.946 219.114C142.184 221.03 151.673 221.313 161.323 224.124C166.193 221.461 170.913 217.811 175.183 212.796C166.005 211.616 156.875 211.149 147.861 210.173ZM104.156 209.679C101.981 211.301 99.8685 212.917 97.8366 214.581C95.5645 216.443 93.4482 218.322 91.4939 220.249C99.5227 223.563 107.608 225.33 116.018 226.376C118.321 225.029 120.76 223.764 123.322 222.527C125.613 221.422 127.951 220.36 130.31 219.264C121.369 217.335 112.713 214.34 104.156 209.679ZM77.8285 189.919C75.8085 192.194 73.886 194.495 72.1162 196.805C70.1061 199.428 68.2501 202.12 66.5938 204.831C74.3013 211.218 82.1641 216.205 90.0773 219.649C92.0043 217.696 94.0887 215.788 96.3286 213.895C98.3586 212.179 100.474 210.514 102.651 208.841C94.2244 204.056 85.8945 197.634 77.8285 189.919ZM92.3548 171.065C97.2026 165.302 102.329 158.861 107.594 151.794C100.159 143.119 93.2688 134.033 87.14 125.203C81.1748 131.369 75.4775 137.298 70.2089 142.978C76.8339 152.271 84.2973 161.893 92.3548 171.065ZM106.958 101.657C113.361 95.1709 119.955 88.5524 126.591 82.116C122.386 76.1643 118.699 70.2202 115.627 64.5026C108.055 69.2566 100.594 74.3357 93.4256 79.5252C97.1939 86.5898 101.744 94.0551 106.958 101.657ZM139.402 48.7219C137.322 44.7995 135.669 40.9631 134.48 37.3128C126.018 39.4692 117.561 42.2328 109.318 45.4915C110.952 50.5676 113.271 55.9937 116.217 61.6455C123.839 56.9481 131.628 52.5695 139.402 48.7219ZM241.126 90.9273C244.989 98.8112 248.311 106.923 251.011 115.103C254.49 112.909 257.528 110.556 260.052 108.041C256.557 100.444 252.383 93.023 247.625 85.8792C245.78 87.7144 243.6 89.4052 241.126 90.9273ZM237.533 123.878C239.089 132.718 240.12 141.615 240.594 150.29C246.219 147.784 251.406 145.124 256.03 142.36C254.686 134.129 252.693 125.836 250.102 117.667C246.32 119.933 242.1 122.025 237.533 123.878ZM200.897 191.637C196.839 192.014 192.708 192.343 188.601 192.572C185.547 200.218 181.845 206.772 177.739 211.964C182.186 212.507 186.684 213.174 191.12 213.918C196.013 214.738 200.902 215.662 205.651 216.529C209.012 208.647 211.845 199.573 213.965 190.195C209.715 190.749 205.323 191.224 200.897 191.637ZM160.278 224.68C150.589 221.772 141.083 221.451 131.89 219.594C129.506 220.673 127.139 221.717 124.82 222.805C122.258 224.008 119.816 225.24 117.508 226.554C126.17 227.549 135.382 227.14 145.128 230.483C147.755 229.662 150.469 228.803 153.181 227.79C155.559 226.901 157.949 225.884 160.278 224.68ZM76.3438 188.482C68.3231 180.626 60.6149 171.582 53.6638 162.36C51.7199 165.122 49.8906 167.963 48.2285 170.842C46.3239 174.145 44.6194 177.536 43.1607 180.946C50.0006 189.213 57.4773 197.073 65.1549 203.622C66.7682 200.93 68.576 198.25 70.5368 195.629C72.3361 193.225 74.2914 190.837 76.3438 188.482ZM53.1818 159.18C57.4252 153.253 62.4368 148.026 67.7519 142.252C61.1401 132.899 55.3953 123.903 50.6625 115.526C45.0677 121.26 40.0094 127.136 35.6321 133.17C40.464 141.332 46.275 149.762 53.1818 159.18ZM68.8511 141.062C74.1256 135.364 79.8301 129.433 85.8093 123.272C79.7228 114.378 74.424 105.763 70.0488 97.7032C63.5329 103.174 57.4107 108.712 51.8523 114.316C56.5473 122.693 62.2622 131.696 68.8511 141.062ZM87.0323 122.012C92.973 115.896 99.2269 109.501 105.639 102.995C100.367 95.2907 95.7669 87.7339 91.9577 80.5906C84.7982 85.8187 77.8853 91.1856 71.3953 96.5796C75.7247 104.587 80.9832 113.158 87.0323 122.012ZM135.68 35.0103C144.268 32.9361 152.982 31.9209 161.565 31.5862C161.088 29.8164 160.815 28.1271 160.75 26.5434C154.946 25.7833 149.019 25.0815 143.2 25.2191C140.176 25.2906 137.115 25.4447 134.09 25.6776C134.167 28.5355 134.701 31.6635 135.68 35.0103ZM189.273 32.9694C189.269 32.9344 189.265 32.8994 189.261 32.8644C180.571 30.1311 171.592 28.0809 162.558 26.7926C162.641 28.2696 162.927 29.857 163.411 31.5276C164.19 31.5064 164.971 31.4923 165.75 31.4824C173.701 31.3803 181.61 31.88 189.273 32.9694ZM164.001 33.342C164.649 35.1357 165.505 36.9959 166.55 38.8745C174.474 36.8535 182.315 35.5836 189.883 35.0875C189.833 34.973 189.786 34.8585 189.741 34.7438C182.075 33.6598 174.15 33.1698 166.176 33.2927C165.451 33.3039 164.727 33.3193 164.001 33.342ZM167.529 40.5509C168.683 42.4338 170.022 44.3288 171.521 46.1915C178.205 42.3878 184.803 39.4079 191.154 37.2818C191.023 37.1034 190.897 36.922 190.778 36.7375C183.239 37.2307 175.424 38.5078 167.529 40.5509ZM172.709 47.6163C174.307 49.4797 176.059 51.2893 177.932 53.0002C183.124 47.5489 188.194 43.0068 193.011 39.3945C192.764 39.1581 192.527 38.9154 192.297 38.6693C185.979 40.7857 179.393 43.7762 172.709 47.6163ZM179.205 54.1362C181.173 55.8397 183.251 57.4268 185.395 58.8571C188.901 52.0228 192.229 46.1485 195.291 41.2613C194.927 41.0073 194.574 40.7437 194.234 40.468C189.449 44.0731 184.396 48.6323 179.205 54.1362ZM193.55 63.3889C195.222 55.5691 196.655 48.6642 197.807 42.7499C197.372 42.5368 196.945 42.306 196.527 42.0573C193.503 46.9484 190.202 52.8404 186.715 59.7117C188.931 61.1077 191.225 62.3407 193.55 63.3889ZM202.066 66.3486C201.821 58.0043 201.264 50.434 200.401 43.7905C199.974 43.6589 199.543 43.5053 199.113 43.3345C197.982 49.2738 196.575 56.1844 194.933 63.9896C197.312 64.9804 199.705 65.766 202.066 66.3486ZM201.864 44.1627C202.729 50.8242 203.296 58.3822 203.553 66.6891C204.77 66.9458 205.985 67.1511 207.199 67.3015C208.32 67.4413 209.434 67.5332 210.523 67.5793C208.372 59.1674 205.822 51.3414 202.942 44.338C202.651 44.3031 202.353 44.2577 202.049 44.1989C201.987 44.1877 201.925 44.1767 201.864 44.1627ZM212.105 67.6161C214.026 67.6157 215.869 67.4696 217.591 67.1877C217.719 67.1667 217.846 67.1432 217.972 67.1224C214.135 59.0147 209.824 51.3414 205.157 44.3756C205.157 44.3756 204.737 44.4093 204.548 44.412C207.417 51.4301 209.958 59.2431 212.105 67.6161ZM219.556 66.7965C221.206 66.4093 222.742 65.8915 224.139 65.2532C218.911 57.7287 213.143 50.5478 206.993 43.9747C206.916 44.0028 206.84 44.0282 206.761 44.0538C211.427 51.0422 215.729 58.7125 219.556 66.7965ZM225.588 64.5258C226.813 63.8442 227.902 63.0636 228.84 62.1975C222.555 55.4534 215.69 49.044 208.421 43.1916C208.416 43.1973 208.409 43.2032 208.403 43.2064C214.571 49.801 220.35 56.9965 225.588 64.5258ZM251.554 116.776C254.159 124.926 256.167 133.21 257.534 141.443C261.912 138.723 265.736 135.899 268.9 132.896C266.88 124.999 264.15 117.199 260.773 109.63C258.168 112.173 255.073 114.554 251.554 116.776ZM239.087 152.775C237.982 153.254 236.86 153.732 235.721 154.202C230.721 156.262 225.399 158.198 219.876 159.83C219.241 169.194 218.054 178.593 216.081 188.025C222.387 187.04 228.506 185.839 234.269 184.261C235.625 183.889 236.961 183.497 238.274 183.087C239.302 171.954 239.474 161.477 239.087 152.775ZM234.12 186.497C228.266 187.996 222.055 189.092 215.664 189.967C213.57 199.488 210.767 208.756 207.433 216.85C214.46 218.117 221.317 219.223 227.785 219.623C229.36 219.721 230.909 219.777 232.434 219.785C234.991 208.694 236.903 196.77 238.049 185.413C236.76 185.796 235.45 186.156 234.12 186.497ZM190.458 215.237C185.974 214.395 181.41 213.636 176.882 213.022C172.626 218.147 167.923 221.908 163.066 224.648C167.74 226.099 172.507 227.949 177.244 230.053C182.494 232.386 187.765 235.054 192.898 237.742C197.335 232.717 201.422 226.063 204.939 218.163C200.194 217.182 195.324 216.153 190.458 215.237ZM176.484 230.936C171.648 228.702 166.783 226.745 162.022 225.221C159.64 226.493 157.204 227.553 154.795 228.467C152.166 229.465 149.509 230.314 146.907 231.121C151.596 232.876 156.409 235.266 161.213 238.109C166.563 241.273 171.97 245.027 177.266 248.975C179.986 247.913 182.693 246.489 185.302 244.643C187.578 243.031 189.806 241.081 191.918 238.822C186.844 236.055 181.65 233.325 176.484 230.936ZM116.502 227.136C112.29 229.619 108.47 232.467 105.109 235.595C112.946 235.828 121.166 235.693 130.12 236.329C134.389 233.662 139.153 232.35 143.97 230.844C134.256 227.541 125.118 228.068 116.502 227.136ZM90.6501 221.095C87.127 224.675 84.0898 228.503 81.5556 232.411C88.8243 234.518 96.1181 235.271 103.714 235.548C107.053 232.383 110.843 229.494 115.02 226.968C106.666 225.987 98.6337 224.308 90.6501 221.095ZM65.8798 206.02C62.9547 210.989 60.6278 216.13 58.8829 221.189C65.9372 226.18 73.0707 229.777 80.2273 232.011C82.7392 228.046 85.7489 224.158 89.2398 220.511C81.3768 217.169 73.558 212.298 65.8798 206.02ZM52.2606 160.482C45.3558 151.158 39.504 142.682 34.6346 134.565C32.6358 137.403 30.7684 140.298 29.0791 143.195C27.0788 146.622 25.2848 150.168 23.8543 154.015C28.8025 162.104 34.9147 170.799 41.7284 179.196C43.1514 175.87 44.7944 172.576 46.617 169.375C48.3285 166.37 50.2293 163.392 52.2606 160.482ZM83.8736 57.6436C85.8778 63.8358 88.7431 70.5149 92.4044 77.5833C99.584 72.4063 107.053 67.3479 114.634 62.6238C111.651 56.8677 109.299 51.3372 107.638 46.1636C99.4676 49.4723 91.4576 53.2793 83.8082 57.438C83.8343 57.5203 83.8474 57.5613 83.8736 57.6436ZM142.876 23.4244C148.806 23.2909 154.846 23.9896 160.766 24.7733C160.85 23.4197 161.102 22.1534 161.52 20.989C152.947 18.7171 144.237 17.2279 135.641 16.8717C134.735 18.9429 134.219 21.2774 134.105 23.8477C137.017 23.6324 139.964 23.4901 142.876 23.4244ZM229.966 61.0289C230.744 60.1187 231.371 59.1324 231.837 58.0821C225.075 52.4422 217.733 47.1712 209.993 42.4204C217.098 48.1735 223.812 54.4447 229.966 61.0289ZM233.223 59.25C232.7 60.3599 232.026 61.4008 231.208 62.3666C237.277 68.9815 242.849 75.9694 247.787 83.1874C249.374 81.3869 250.621 79.4513 251.5 77.4028C246.023 71.0024 239.881 64.9198 233.223 59.25ZM239.942 182.542C246.553 180.334 252.651 177.485 258.069 174.006C258.263 162.211 257.559 152.312 256.299 144.063C251.608 146.845 246.36 149.527 240.684 152.069C241.084 160.749 240.939 171.292 239.942 182.542ZM227.508 221.894C220.909 221.32 213.905 220.001 206.727 218.532C203.25 226.628 199.2 233.506 194.789 238.736C202.331 242.71 209.721 246.713 216.699 249.839C218.434 250.616 220.141 251.341 221.82 252C225.769 243.682 229.167 233.369 231.872 222.165C230.44 222.114 228.985 222.022 227.508 221.894ZM160.436 238.715C155.531 235.767 150.588 233.28 145.75 231.478C140.952 232.956 136.263 234.411 131.853 236.471C136.332 237.587 140.9 239.46 145.433 241.886C150.607 244.657 155.834 248.203 160.947 252.117C166.003 251.815 171.091 251.165 176.035 249.431C170.88 245.532 165.629 241.838 160.436 238.715ZM104.21 236.446C101.055 239.494 98.2933 242.783 95.9013 245.987C102.772 245.797 109.955 245.343 117.71 245.527C121.147 242.617 124.896 239.697 128.942 237.077C120.091 236.469 111.964 236.634 104.21 236.446ZM80.8821 233.471C78.5354 237.23 76.6247 241.059 75.1185 244.657C81.5025 245.96 87.9207 246.166 94.5871 246.02C96.9614 242.793 99.6996 239.483 102.823 236.41C95.303 236.179 88.0804 235.489 80.8821 233.471ZM42.5164 182.49C39.9969 188.692 38.2118 195.103 37.1344 201.432C43.5602 208.552 50.4664 215.031 57.4863 220.184C59.2242 215.059 61.539 209.858 64.4444 204.831C56.8108 198.407 49.3613 190.666 42.5164 182.49ZM40.327 89.4091C42.761 96.4779 46.2656 104.134 50.7715 112.363C56.3537 106.741 62.483 101.195 68.995 95.7356C64.6959 87.6218 61.3439 80.0382 59.0119 73.0389C52.1994 77.9948 45.8482 83.2677 40.127 88.8169C40.207 89.0538 40.247 89.1722 40.327 89.4091ZM60.6261 72.4123C62.8991 79.2587 66.1631 86.6752 70.3455 94.6112C76.8507 89.216 83.7714 83.8532 90.9354 78.6466C87.2007 71.4381 84.2742 64.6271 82.2275 58.3104L82.2275 58.3076C74.6053 62.5246 67.2947 67.1185 60.4839 71.9776C60.5408 72.1514 60.5692 72.2383 60.6261 72.4123ZM108.725 43.5611C116.974 40.3185 125.438 37.5763 133.91 35.4472C132.925 32.0088 132.383 28.7886 132.295 25.8295C123.6 26.5962 114.926 28.0604 106.493 30.1838C106.555 34.225 107.303 38.698 108.725 43.5611ZM132.299 23.9939C132.393 21.3667 132.87 18.9644 133.718 16.8055C132.174 16.7624 130.633 16.7415 129.096 16.7485C122.26 16.7793 115.421 17.3212 108.762 18.3601C107.421 21.2722 106.667 24.5794 106.517 28.2572C114.955 26.1668 123.621 24.73 132.299 23.9939ZM232.417 56.4565C232.719 55.3595 232.862 54.2011 232.846 52.9978C225.966 48.4954 218.516 44.4462 210.678 40.9523C218.368 45.6526 225.673 50.8684 232.417 56.4565ZM248.783 84.6597C253.554 91.7877 257.747 99.1933 261.265 106.778C263.571 104.262 265.371 101.587 266.62 98.7485C262.646 91.799 257.968 85.1267 252.693 78.8123C251.724 80.882 250.412 82.8354 248.783 84.6597ZM239.723 184.903C238.61 196.37 236.739 208.464 234.223 219.778C241.683 219.642 248.573 218.257 254.686 215.355C256.564 202.147 257.701 188.688 258.016 176.581C252.525 180.03 246.373 182.799 239.723 184.903ZM233.669 222.21C231.013 233.607 227.671 244.164 223.776 252.744C231.845 255.709 239.292 257.046 245.885 256.162C249.394 244.926 252.208 231.82 254.238 218.418C248.075 221.124 241.152 222.291 233.669 222.21ZM58.4118 222.595C56.832 227.451 55.7642 232.245 55.1591 236.676C61.3366 240.435 67.5819 242.965 73.8628 244.388C75.3485 240.762 77.2361 236.896 79.5597 233.086C72.4716 230.938 65.4054 227.457 58.4118 222.595ZM23.1801 155.884C20.7766 162.802 19.2307 169.981 18.5506 177.203C23.4145 184.716 29.2552 192.502 35.6424 199.758C36.7497 193.394 38.5538 186.968 41.0775 180.753C34.2941 172.487 28.1778 163.902 23.1801 155.884ZM12.1674 131.051C14.5873 137.562 17.9656 144.14 22.61 151.955C23.9933 148.334 25.7151 145.104 27.5842 141.872C29.385 138.758 31.3753 135.664 33.5012 132.654C28.7498 124.541 25.0465 116.944 22.468 109.873C20.5411 112.784 18.7472 115.793 17.1263 118.843C15.1405 122.576 13.3818 126.432 11.8964 130.309C12.0049 130.606 12.059 130.754 12.1674 131.051ZM23.8379 108.895C26.3206 115.822 29.9011 123.276 34.5089 131.251C38.9077 125.199 43.9765 119.315 49.5746 113.578C44.9314 105.17 41.3159 97.3467 38.8052 90.1164C33.082 95.8096 27.9653 101.851 23.5947 108.202C23.692 108.479 23.7405 108.617 23.8379 108.895ZM83.1983 55.4664C90.8631 51.3146 98.877 47.5192 107.044 44.2307C105.606 39.3168 104.829 34.773 104.724 30.6378C96.3777 32.8364 88.2268 35.6787 80.4714 39.0538C80.5069 43.9853 81.4187 49.457 83.1983 55.4664ZM189.059 29.301C181.623 24.6206 173.925 20.638 166.157 17.5191C165.321 18.2268 164.622 19.0371 164.068 19.9466C172.53 22.3263 180.926 25.4902 189.059 29.301ZM190.562 28.3694C184.212 23.0969 177.601 18.5914 170.891 15.0143C169.725 15.381 168.665 15.8449 167.722 16.4089C175.485 19.5974 183.16 23.6426 190.562 28.3694ZM192.53 27.9964C192.563 27.9873 192.596 27.9807 192.629 27.9716C187.742 22.4505 182.58 17.759 177.267 14.0192C175.814 14.0624 174.438 14.2069 173.154 14.4494C179.78 18.1239 186.291 22.6941 192.53 27.9964ZM194.429 27.7365C194.588 27.733 194.75 27.7319 194.914 27.7386C191.868 22.49 188.555 18.0961 185.046 14.61C183.285 14.3142 181.574 14.125 179.936 14.046C184.951 17.7973 189.816 22.3958 194.429 27.7365ZM211.771 39.6594C219.125 42.9599 226.134 46.7481 232.653 50.9385C232.518 49.9074 232.378 49.3704 231.955 48.0316C231.242 47.6576 230.533 47.2917 229.842 46.9495C222.981 43.5499 216.576 41.1806 211.771 39.6594ZM234.512 54.104C234.443 55.3327 234.223 56.5224 233.855 57.6588C240.504 63.2853 246.649 69.3228 252.146 75.6757C252.811 73.5916 253.12 71.3901 253.063 69.0929C247.479 63.667 241.244 58.6436 234.512 54.104ZM262 108.384C265.396 115.929 268.154 123.711 270.213 131.6C273.124 128.608 275.393 125.43 276.954 122.021C274.538 114.591 271.39 107.364 267.581 100.459C266.217 103.256 264.343 105.892 262 108.384ZM273.062 163.808C269.279 168.083 264.764 172.108 259.626 175.539C259.353 187.641 258.272 201.145 256.457 214.464C262.234 211.375 267.253 206.897 271.395 201.455C272.775 187.941 273.353 174.917 273.062 163.808ZM216.315 251.818C209.15 248.428 201.556 244.113 193.815 239.859C191.636 242.302 189.333 244.402 186.981 246.128C184.481 247.961 181.887 249.397 179.272 250.481C186.951 256.294 194.502 262.479 201.646 267.922C203.464 269.306 205.253 270.643 207.012 271.919C209.755 269.88 212.407 267.164 214.888 263.817C216.998 260.969 219.019 257.624 220.9 253.885C219.394 253.242 217.865 252.552 216.315 251.818ZM201.233 269.44L201.232 269.44C193.834 263.656 186.003 257.083 178.046 250.965C173.158 252.79 168.114 253.491 163.084 253.777C170.407 259.552 177.623 266.075 184.47 272.25C186.266 273.869 188.034 275.461 189.776 277.018C195.356 277.302 200.711 276.112 205.675 272.853C204.214 271.753 202.732 270.612 201.233 269.44ZM159.456 252.196C154.581 248.49 149.622 245.162 144.722 242.543C139.987 240.013 135.119 237.558 130.668 237.205C126.624 239.79 122.861 242.676 119.397 245.575C123.077 245.706 126.872 245.515 130.91 246.639C135.583 247.941 140.328 250.086 144.989 252.766C149.739 252.431 154.599 252.426 159.456 252.196ZM116.472 246.585C108.867 246.432 101.82 246.897 95.0762 247.108C92.884 250.129 90.9914 253.063 89.3695 255.621C95.1587 255.289 101.178 254.71 107.565 254.467C110.284 252.095 113.248 249.363 116.472 246.585ZM88.1121 255.69C89.7073 253.15 91.583 250.201 93.7711 247.145C87.2055 247.313 80.887 247.14 74.6062 245.91C73.2597 249.284 72.2644 252.436 71.5906 255.119C76.9878 255.957 82.456 255.976 88.1121 255.69ZM53.7776 235.815C54.3924 231.321 55.4558 226.487 57.0172 221.607C50.0786 216.601 43.236 210.281 36.8367 203.299C35.9336 209.367 35.6628 215.378 35.9493 221.003C41.6181 226.817 47.6523 231.906 53.7776 235.815ZM6.57962 154.498C9.00614 160.784 12.5754 167.688 17.0779 174.89C17.856 167.733 19.473 160.652 21.9154 153.83C17.124 145.93 13.5994 139.166 11.0619 132.571C8.65156 139.364 6.94544 146.315 6.2748 153.694C6.3964 154.015 6.45734 154.176 6.57962 154.498ZM39.4609 86.7737C45.198 81.2391 51.5551 75.9808 58.3673 71.042C56.3083 64.4074 55.2161 58.3554 55.0958 52.8587C48.2878 57.4128 41.9632 62.4388 36.2817 67.8561C36.2299 73.5414 37.2926 79.8379 39.4609 86.7737ZM59.851 69.9738C66.6705 65.1212 73.9848 60.5404 81.6089 56.3332C79.8068 50.3214 78.844 44.8152 78.7285 39.824C71.0217 43.2841 63.6533 47.2908 56.8082 51.7321C56.8026 57.2017 57.8195 63.2763 59.851 69.9738ZM104.723 28.7126C104.82 25.0268 105.485 21.6837 106.699 18.697C98.6932 20.0763 90.8589 22.1873 83.3845 24.9478C81.6731 28.4983 80.7045 32.5262 80.5087 37.0197C88.2716 33.6784 96.4083 30.8717 104.723 28.7126ZM128.944 15.0415C130.785 15.0329 132.629 15.0586 134.48 15.1229C135.445 13.2531 136.721 11.6027 138.284 10.176C133.835 9.66639 129.363 9.41221 124.965 9.42243C121.868 9.42971 118.75 9.56799 115.694 9.83813C113.234 11.7008 111.238 13.9169 109.746 16.4705C116.042 15.5497 122.492 15.0712 128.944 15.0415ZM136.486 15.2045C145.037 15.6166 153.694 17.154 162.21 19.4342C162.739 18.4433 163.407 17.5483 164.205 16.757C156.42 13.7808 148.485 11.526 140.643 10.4706C138.936 11.809 137.541 13.3903 136.486 15.2045ZM187.641 15.1117C190.864 18.624 193.905 22.9124 196.705 27.9292C196.903 27.9631 197.105 28.0019 197.308 28.0483C197.451 28.0791 197.592 28.1124 197.735 28.1483C196.671 23.5101 195.344 19.7251 193.771 16.7954C192.035 16.2229 190.276 15.727 188.541 15.3176C188.238 15.2467 187.938 15.1781 187.641 15.1117ZM199.282 28.6099C199.724 28.7655 200.17 28.9386 200.615 29.1322C201.434 25.3699 201.992 22.4004 202.267 20.1989C200.122 19.1856 197.951 18.2779 195.79 17.494C197.177 20.4853 198.346 24.1916 199.282 28.6099ZM216.772 29.0622C215.069 27.7446 213.272 26.4757 211.406 25.2741C209.436 26.5249 207.115 28.5308 204.501 31.3399C204.842 31.5851 205.172 31.8383 205.49 32.0971C209.534 30.4227 213.322 29.424 216.772 29.0622ZM211.976 37.8476C216.881 39.3987 223.45 41.817 230.51 45.3416C230.677 45.4242 230.843 45.5119 231.006 45.5997C230.521 44.4745 230.241 43.9646 229.438 42.5995C224.01 40.4957 218.151 38.8972 211.976 37.8476ZM267.36 96.8635C268.343 94.0235 268.798 91.0175 268.71 87.8694C264.677 81.7782 259.961 76.0226 254.671 70.6868C254.577 72.9254 254.148 75.0814 253.392 77.1349C258.661 83.3807 263.351 89.983 267.36 96.8635ZM270.667 133.388C272.614 141.267 273.944 148.864 274.444 159.368C277.826 155.178 280.451 150.882 282.239 146.886C281.409 138.807 279.887 131.573 277.633 124.175C275.928 127.449 273.587 130.503 270.667 133.388ZM256.02 217.581C254.06 231.07 251.334 244.336 247.923 255.813C254.099 254.531 259.461 251.208 263.891 246.179C267.044 233.256 269.428 219.071 270.981 205.317C266.758 210.528 261.736 214.737 256.02 217.581ZM222.864 254.699C220.889 258.805 218.757 262.471 216.527 265.564C214.202 268.786 211.739 271.435 209.196 273.477C217.453 279.292 225.089 283.58 231.857 285.454C234.59 282.036 237.181 277.737 239.554 272.716C241.493 268.615 243.307 263.995 244.957 259.038C238.332 259.566 230.893 257.917 222.864 254.699ZM184.07 273.384C176.883 266.818 169.291 259.886 161.6 253.852C156.829 254.054 152.045 253.978 147.356 254.175C153.815 258.146 160.196 263.097 166.278 268.156C167.939 269.538 169.575 270.925 171.187 272.305C176.894 274.507 182.512 276.303 187.891 276.869C186.631 275.724 185.357 274.559 184.07 273.384ZM130.293 247.657C126.019 246.522 122.028 246.751 118.152 246.629C114.978 249.336 112.038 252.023 109.323 254.41C112.221 254.329 115.233 254.323 118.313 254.426C122.053 254.552 125.908 254.594 129.858 255.344C134.142 254.084 138.572 253.32 143.081 252.918C138.85 250.617 134.55 248.785 130.293 247.657ZM88.5501 256.917C87.2204 259.022 86.0745 260.832 85.102 262.217C89.6778 261.887 94.396 261.315 99.2889 260.795C101.345 259.581 103.6 257.85 106.053 255.769C99.9284 256.031 94.1363 256.59 88.5501 256.917ZM54.9592 238.279C54.4869 242.435 54.428 246.249 54.7377 249.504C59.8718 252.217 65.0976 253.979 70.383 254.921C71.0531 252.203 72.0348 249.034 73.3566 245.651C67.1859 244.305 61.0452 241.892 54.9592 238.279ZM18.3542 179.633C17.8872 186.537 18.1901 193.51 19.1776 200.239C23.5853 206.822 28.748 213.381 34.3225 219.306C34.0992 213.652 34.4128 207.662 35.3356 201.639C29.0404 194.592 23.2444 187.003 18.3542 179.633ZM11.0559 127.862C12.4274 124.421 14.007 121.005 15.7632 117.681C17.5563 114.289 19.5585 110.947 21.7171 107.733C19.5396 101.28 18.3516 95.3168 18.1599 89.8308C16.4388 92.5607 14.8322 95.3791 13.3704 98.2426C11.3635 102.173 9.59411 106.254 8.15185 110.177C8.02029 115.584 8.99351 121.5 11.0559 127.862ZM22.871 106.046C27.2741 99.7358 32.4019 93.7345 38.122 88.0804C35.9306 81.3056 34.7641 75.11 34.6292 69.4627C29.0106 75.0189 24.0024 81.0298 19.7326 87.4106C19.6404 93.0468 20.6895 99.2565 22.871 106.046ZM55.1009 50.6933C55.2233 45.9902 56.0959 41.7042 57.6956 37.843C51.3611 41.983 45.4713 46.6464 40.2452 51.6314C38.0272 55.6877 36.7258 60.2833 36.3752 65.3851C42.0563 60.0763 48.3483 55.1532 55.1009 50.6933ZM78.7297 37.7975C78.8376 33.3823 79.6429 29.3819 81.1253 25.8044C73.8051 28.6661 66.8024 32.1676 60.2801 36.2028C58.2757 40.1326 57.1276 44.5863 56.8658 49.5443C63.7142 45.1554 71.0618 41.201 78.7297 37.7975ZM107.566 16.8088C108.858 14.2897 110.579 12.0661 112.697 10.1458C105.574 10.9751 98.5991 12.5227 92.0553 14.6762C88.9843 16.93 86.4868 19.6102 84.6111 22.6902C91.9911 20.0753 99.7004 18.0901 107.566 16.8088ZM124.965 7.82193C129.932 7.81059 134.991 8.13559 140.01 8.77649C141.623 7.6138 143.47 6.63852 145.528 5.8911C140.361 4.88853 135.18 4.49019 130.067 4.50391C128.954 4.50685 127.844 4.53302 126.88 4.55864C123.733 5.4239 120.896 6.58492 118.412 8.03076C120.588 7.89723 122.781 7.82683 124.965 7.82193ZM165.608 15.5641C166.517 14.8991 167.543 14.3355 168.677 13.8694C162.134 10.5897 155.444 8.15435 148.759 6.58352C146.461 7.21378 144.388 8.03958 142.582 9.13299C150.261 10.2806 158.013 12.6006 165.608 15.5641ZM170.757 13.1616C172.037 12.8076 173.421 12.5596 174.89 12.4178C169.917 9.21052 164.784 6.79262 159.599 5.17168C156.937 5.20976 154.423 5.43538 152.085 5.84646C158.366 7.53178 164.631 9.97809 170.757 13.1616ZM177.476 12.2819C177.577 12.2814 177.628 12.2811 177.729 12.2805C179.365 12.2709 181.091 12.3761 182.883 12.5973C179.656 9.78858 176.268 7.68868 172.856 6.3124C169.963 5.80755 167.157 5.46925 164.474 5.29597C168.892 7.04736 173.248 9.37946 177.476 12.2819ZM203.239 30.5005C205.726 27.7645 207.97 25.7231 209.926 24.3443C207.899 23.0993 205.804 21.938 203.675 20.8799C203.344 23.1242 202.75 26.073 201.914 29.7523C202.365 29.9861 202.808 30.2381 203.239 30.5005ZM218.282 30.5814C214.823 30.7709 210.967 31.6556 206.812 33.2839C207 33.4711 207.18 33.6587 207.353 33.8465C207.922 33.7992 208.487 33.7572 209.047 33.7232C213.917 33.4279 218.555 33.6641 222.866 34.3992C221.56 33.0949 220.147 31.8106 218.645 30.5641C218.5 30.5711 218.427 30.5744 218.282 30.5814ZM244.661 48.6369C243.089 46.53 241.325 44.4341 239.421 42.392C235.877 40.0786 231.879 38.2924 227.51 37.0871C228.664 38.4886 229.689 39.9006 230.573 41.3096C235.622 43.3181 240.343 45.7765 244.661 48.6369ZM233.313 46.8238C233.318 46.8425 233.321 46.8515 233.327 46.8702C239.436 50.1182 245.116 53.8165 250.251 57.8958C249.414 56.0456 248.416 54.1948 247.323 52.4259C242.694 48.957 237.509 45.988 231.884 43.5937C232.448 44.6783 232.925 45.7559 233.313 46.8238ZM253.758 63.0168C254.257 64.882 254.557 66.6887 254.655 68.4257C259.803 73.5026 264.432 78.9648 268.448 84.7431C268.111 82.2913 267.467 79.7524 266.552 77.2128C262.885 72.1091 258.589 67.3482 253.758 63.0168ZM268.384 98.6537C272.191 105.437 275.367 112.538 277.843 119.844C279.07 116.445 279.633 112.835 279.541 109.18C277.106 102.587 273.978 96.2313 270.228 90.2296C270.076 93.1661 269.457 95.978 268.384 98.6537ZM282.505 149.972C280.539 153.907 277.866 158.058 274.553 162.065C274.911 172.883 274.426 185.642 273.163 198.996C276.892 193.516 279.803 187.254 281.831 180.799C282.868 169.055 283.112 158.471 282.505 149.972ZM247.006 258.802C245.221 264.445 243.238 269.681 241.109 274.275C239.013 278.798 236.747 282.764 234.357 286.044C240.576 287.262 245.98 286.281 250.461 283.224C253.199 278.325 255.744 272.51 258.03 266.086C259.729 261.306 261.305 256.135 262.728 250.755C258.266 255.141 252.992 257.901 247.006 258.802ZM207.87 274.484C203.025 277.952 197.79 279.372 192.319 279.281C200.203 286.25 207.514 292.232 214.016 296.189C219.903 295.631 225.365 292.757 230.26 287.334C223.518 285.016 215.978 280.439 207.87 274.484ZM190.45 279.192C185.317 278.809 179.948 277.217 174.475 275.14C181.337 281.081 187.72 286.695 193.309 290.967C199.597 294.153 205.639 296.182 211.28 296.289C204.941 291.958 197.931 285.953 190.45 279.192ZM165.906 269.149C159.347 263.678 152.444 258.358 145.47 254.268C141.204 254.517 136.986 255.042 132.877 256.028C137.96 257.361 142.979 259.576 147.785 262.171C149.248 262.961 150.689 263.789 151.924 264.54C157.394 266.575 162.893 268.984 168.299 271.164C167.507 270.492 165.906 269.149 165.906 269.149ZM117.801 255.705C114.381 255.583 111.04 255.599 107.837 255.703C105.662 257.576 103.619 259.226 101.708 260.544C103.6 260.354 105.527 260.175 107.463 260.018C110.344 259.787 113.294 259.609 116.125 259.497C119.547 258.755 123.177 257.673 126.97 256.342C123.857 256.021 120.785 255.811 117.801 255.705ZM87.2998 256.985C81.8118 257.267 76.5044 257.257 71.267 256.485C70.751 258.803 70.5045 260.687 70.5101 262.009C74.8492 262.578 79.2795 262.583 83.8314 262.302C84.7676 261.013 85.9197 259.189 87.2998 256.985ZM70.0612 256.296C64.9574 255.428 59.9134 253.802 54.9544 251.295C55.3743 254.125 56.1086 256.451 57.1268 258.167C61.0635 259.987 65.1211 261.178 69.2597 261.83C69.311 260.389 69.574 258.512 70.0612 256.296ZM39.7228 240.649C41.1047 244.352 42.8156 247.542 44.7628 250.061C48.0036 252.873 51.4636 255.269 55.0464 257.143C54.2974 255.313 53.7554 253.075 53.4432 250.501C48.7345 247.945 44.1145 244.601 39.7228 240.649ZM19.7324 203.604C20.8716 209.853 22.5898 215.86 24.7113 221.242C28.2457 226.377 32.3169 231.345 36.7053 235.771C35.5541 231.45 34.7773 226.647 34.4417 221.567C29.1005 216.02 24.1002 209.86 19.7324 203.604ZM7.78974 179.257C10.1351 185.027 13.3554 191.146 17.262 197.303C16.459 190.732 16.2964 183.983 16.8452 177.321C12.3105 170.254 8.63472 163.424 6.03138 157.166C5.68504 164.122 6.18021 171.285 7.41458 178.319C7.56451 178.694 7.63947 178.882 7.78974 179.257ZM5.09258 150.265C5.98359 143.264 7.76706 136.664 10.1754 130.16C8.23384 124.615 7.08772 119.38 6.74556 114.486C5.40855 118.799 4.34744 123.264 3.58076 127.786C3.18894 130.786 2.89171 133.787 2.69792 136.641C2.8167 140.96 3.56604 145.406 5.09258 150.265ZM12.1451 97.206C13.9446 93.6673 15.9671 90.1896 18.1562 86.8555C18.2326 84.5623 18.507 82.3398 18.9775 80.1942C14.8814 87.7377 11.4998 95.6083 8.90921 103.704C8.84578 104.007 8.78573 104.308 8.73011 104.61C9.77174 102.104 10.9126 99.6276 12.1451 97.206ZM34.6346 67.0414C34.7642 62.6752 35.5453 58.6447 36.958 54.967C34.5594 57.4767 32.1246 60.1888 29.9462 63.0268C27.3504 66.4085 24.9856 70.0046 22.9139 73.3634C21.3116 76.7304 20.3055 80.379 19.914 84.2587C24.1903 78.139 29.1343 72.376 34.6346 67.0414ZM62.047 33.202C68.382 29.4697 75.133 26.2358 82.1577 23.5892C83.5684 20.8786 85.4019 18.4436 87.632 16.2919C83.8158 17.763 80.028 19.4925 76.3363 21.4439C73.6035 23.0374 70.7564 24.849 67.6875 26.9264C65.4762 28.8197 63.5865 30.9199 62.047 33.202ZM114.987 8.29823C116.739 7.03868 118.696 5.94779 120.842 5.02528C120.185 5.10912 119.533 5.20234 118.895 5.29317C111.774 6.67897 104.71 8.67768 97.9492 11.206C97.7873 11.2827 97.6264 11.3596 97.4667 11.4388C103.169 9.90783 109.038 8.85501 114.987 8.29823ZM185.586 13.005C186.591 13.184 187.62 13.3965 188.67 13.6449C189.932 13.943 191.209 14.2865 192.483 14.6706C191.218 12.8311 189.809 11.4441 188.33 10.5349C185.738 9.61026 183.187 8.78489 180.766 8.08156C180.449 7.99646 180.29 7.95405 179.973 7.86882C179.482 7.73487 178.99 7.60092 178.497 7.48391C180.942 8.97048 183.313 10.8099 185.586 13.005ZM202.37 16.4231C199.097 14.8356 195.747 13.3697 192.37 12.0459C193.209 13.0055 193.989 14.1171 194.707 15.3819C197.275 16.2498 199.869 17.2934 202.434 18.4871C202.501 17.3932 202.445 16.7724 202.37 16.4231ZM213.523 22.4354C210.423 20.5875 207.227 18.8393 203.987 17.2161C204 17.7673 203.967 18.4155 203.89 19.181C206.467 20.4453 209 21.8571 211.43 23.3798C212.168 22.9602 212.868 22.6445 213.523 22.4354ZM224.119 29.3542C221.422 27.4307 218.611 25.5604 215.72 23.7686C215.595 23.7587 215.465 23.7561 215.331 23.7612C214.651 23.7872 213.872 23.998 213.005 24.3947C215.173 25.8243 217.244 27.3394 219.176 28.9126C220.907 28.8825 222.558 29.031 224.119 29.3542ZM235.242 38.2567C234.508 37.569 233.746 36.8561 232.966 36.187C231.491 34.9227 229.915 33.6779 228.441 32.5318C226.278 31.4236 223.837 30.7677 221.16 30.5918C222.784 32.0189 224.287 33.4763 225.646 34.9506C229.059 35.7268 232.269 36.8359 235.242 38.2567ZM252.732 59.7761C252.762 59.862 252.777 59.9051 252.806 59.9912C253.119 60.2514 253.276 60.3813 253.589 60.6411C254.116 61.0692 254.641 61.4971 255.141 61.9499C258.187 64.7117 261.046 67.683 263.678 70.827C263.618 70.7098 263.556 70.5901 263.494 70.4752C261.458 67.3177 259.57 64.5786 257.749 62.1447C255.558 59.6072 253.156 57.2241 250.58 55.032C251.424 56.6255 252.144 58.2103 252.732 59.7761ZM278.856 103.496C278.748 102.829 278.629 102.224 278.482 101.617C276.939 96.9944 275.129 92.4107 273.109 88.0039C271.953 85.7257 270.693 83.5045 269.344 81.359C269.842 83.4333 270.139 85.4496 270.233 87.3914C273.574 92.515 276.464 97.9075 278.856 103.496ZM285.112 133.911C284.927 131.752 284.691 129.611 284.417 127.51C283.57 122.553 282.381 117.696 280.873 113.027C280.595 116.221 279.833 119.262 278.596 122.142C280.858 129.274 282.471 136.638 283.398 144.044C284.493 140.909 285.069 137.504 285.112 133.911ZM272.763 202.99C271.35 216.397 269.156 230.331 266.239 243.236C269.705 238.447 272.509 232.456 274.583 225.816C274.765 225.07 274.856 224.697 275.038 223.951C275.361 222.633 275.697 221.306 275.976 220.016C278.373 208.922 280.046 197.607 281.182 187.315C279.002 192.935 276.183 198.292 272.763 202.99ZM265.058 248.239C263.407 254.939 261.529 261.389 259.473 267.259C257.914 271.708 256.231 275.884 254.445 279.677C255.105 278.938 255.743 278.142 256.354 277.296C262.139 266.749 267.122 253.26 271.253 238.607C269.441 242.25 267.372 245.497 265.058 248.239ZM232.768 288.106C228.161 293.742 223.027 297.048 217.486 298.151C222.575 300.785 227.142 302.005 231.063 301.692C232.421 301.299 233.763 300.803 235.059 300.203C239.738 297.596 244.011 293.311 247.807 287.587C243.457 289.455 238.419 289.632 232.768 288.106ZM171.644 274.032C167.117 272.206 162.502 270.137 157.874 268.215C159.811 269.465 161.741 270.753 163.638 272.039C169.586 275.773 175.359 279.852 180.728 283.525C183.056 285.035 185.331 286.469 187.534 287.774C182.578 283.629 177.245 278.87 171.644 274.032ZM84.0865 263.585C83.9859 263.712 83.8856 263.834 83.7882 263.948C86.8901 263.671 90.1639 263.208 93.5863 262.688C90.3481 263.041 87.186 263.372 84.0865 263.585ZM27.4321 227.314C27.9215 228.303 28.4279 229.276 28.9497 230.229C32.6599 236.088 36.5271 241.305 40.417 245.671C39.3262 243.536 38.3614 241.173 37.5407 238.618C33.9514 235.168 30.5455 231.339 27.4321 227.314ZM8.88177 185.206C9.28271 186.846 9.71992 188.484 10.191 190.101C12.5046 197.092 15.2925 204.092 18.3504 210.671C19.3314 212.545 20.371 214.392 21.4558 216.191C19.8341 211.247 18.5701 206.018 17.7313 200.665C14.281 195.467 11.2896 190.242 8.88177 185.206ZM59.0256 35.0403C59.6731 33.8364 60.4053 32.674 61.2179 31.5612C56.4004 35.1991 51.8006 39.112 47.4629 43.2449C51.1314 40.3121 54.997 37.5669 59.0256 35.0403ZM148.525 4.97027C150.45 4.47536 152.518 4.11816 154.704 3.89492C152.777 3.48874 150.802 3.1748 148.804 2.95925C148.451 2.94526 148.274 2.9384 147.92 2.9244C146.619 2.87457 145.318 2.82237 144.006 2.81803C141.286 2.80879 138.421 2.93812 135.326 3.15716C139.718 3.41302 144.136 3.99094 148.525 4.97027ZM248.283 51.2008C248.725 51.5363 249.163 51.8762 249.597 52.223C248.853 51.3923 248.098 50.5669 247.332 49.7491C247.664 50.2363 247.981 50.7219 248.283 51.2008ZM283.838 172.935C283.882 172.713 283.925 172.492 283.968 172.273C285.099 162.083 285.682 153.221 285.674 146.317C285.672 144.842 285.648 143.38 285.593 141.843C285.144 143.725 284.529 145.467 283.757 147.272C284.431 154.344 284.444 163.076 283.838 172.935ZM130.122 256.758C127.519 257.513 125.002 258.477 122.561 259.192C124.858 259.093 126.972 259.016 129.055 259.043C133.129 259.097 137.393 259.8 142.059 261.311C143.325 261.652 144.581 262.024 145.819 262.418C140.736 259.839 135.449 257.77 130.122 256.758ZM70.6847 263.441C70.7268 263.568 70.7768 263.679 70.833 263.773C74.6601 264.299 78.4847 264.33 82.3065 264.061C82.4358 263.96 82.5754 263.829 82.7272 263.67C78.6263 263.904 74.6204 263.897 70.6847 263.441Z" fill="#2A4E2B"/>
</svg>
