<?xml version="1.0" standalone="no"?>
<!DOCTYPE svg PUBLIC "-//W3C//DTD SVG 1.1//EN" "http://www.w3.org/Graphics/SVG/1.1/DTD/svg11.dtd" >
<svg xmlns="http://www.w3.org/2000/svg" xmlns:xlink="http://www.w3.org/1999/xlink" version="1.1">
<metadata>
Created by FontForge 20191125 at Sat Apr 17 16:36:14 2021
 By convertio
Copyright  (c) 2021, Free for personal and comercial use
Creator: Christian Shalom Guevara


</metadata>
<defs>
<font id="GarciaMarquez" horiz-adv-x="512" >
  <font-face 
    font-family="GarciaMarquez"
    font-weight="400"
    font-stretch="normal"
    units-per-em="1000"
    panose-1="2 0 5 3 0 0 0 0 0 0"
    ascent="800"
    descent="-200"
    x-height="499.887"
    cap-height="780.779"
    bbox="-1 -242 1144 813"
    underline-thickness="50"
    underline-position="-100"
    stemh="16"
    stemv="163"
    unicode-range="U+0020-1E41"
  />
<missing-glyph horiz-adv-x="500" 
d="M50 0v533h400v-533h-400zM100 50h300v433h-300v-433z" />
    <glyph glyph-name=".notdef" horiz-adv-x="500" 
d="M50 0v533h400v-533h-400zM100 50h300v433h-300v-433z" />
    <glyph glyph-name="uni0000" horiz-adv-x="1271" 
 />
    <glyph glyph-name="uni0000" horiz-adv-x="1271" 
 />
    <glyph glyph-name="space" unicode=" " horiz-adv-x="181" 
 />
    <glyph glyph-name="exclam" unicode="!" horiz-adv-x="306" 
d="M261 781c-48 -16 -55 -21 -56 -60l-32 -443c1 -39 5 -44 32 -60h-149c26 15 31 18 32 49l-32 465c-2 31 -11 34 -56 49h261zM117 53c-31 31 -52 62 -52 74c0 2 0 3 1 4s2 1 4 1c13 0 43 -20 74 -52c31 -30 53 -61 53 -73c0 -2 -1 -4 -2 -5s-2 -1 -4 -1
c-13 0 -42 20 -74 52z" />
    <glyph glyph-name="quotedbl" unicode="&#x22;" horiz-adv-x="515" 
d="M503 755c-2 4 -46 20 -49 20c-14 0 -37 -30 -48 -45c-12 -17 -21 -37 -28 -57c-4 -11 -6 -24 -6 -36c1 -17 8 -33 19 -46l73 -64l-113 -116c-27 16 -52 37 -75 63c-24 25 -36 49 -36 70c0 84 158 218 204 247c21 -13 52 -21 59 -36zM263 755c-2 4 -46 20 -49 20
c-14 0 -37 -30 -48 -45c-12 -17 -21 -37 -28 -57c-4 -11 -6 -24 -6 -36c1 -17 8 -33 19 -46l73 -64l-113 -116c-27 16 -52 37 -75 63c-24 25 -36 49 -36 70c0 84 158 218 204 247c21 -13 52 -21 59 -36zM103 0z" />
    <glyph glyph-name="numbersign" unicode="#" horiz-adv-x="941" 
d="M911 487h-206l-60 -192h220v-11h-223l-74 -238c-2 -8 -3 -13 -3 -18c0 -12 8 -18 37 -28h-240c42 14 58 14 69 46c0 0 33 107 74 238h-164l-74 -238c-2 -8 -3 -13 -3 -18c0 -12 8 -18 37 -28h-240c42 14 58 14 69 46c0 0 33 107 74 238h-204v11h207c20 61 41 128 61 192
h-222v13h225c48 152 89 280 89 280h189c-45 -15 -57 -23 -71 -57l-71 -223h165c48 152 89 280 89 280h189c-46 -15 -57 -23 -71 -57l-71 -223h203v-13zM508 295c20 61 41 128 61 192h-165l-59 -192h163z" />
    <glyph glyph-name="dollar" unicode="$" horiz-adv-x="611" 
d="M565 404c16 -20 22 -42 22 -65c0 -24 -8 -49 -18 -73c-26 -62 -74 -104 -135 -129c-49 -21 -97 -32 -145 -36v-51c1 -39 8 -45 58 -61h-134c50 16 57 22 58 61v50h-10c-81 0 -159 23 -237 66c-14 8 -20 17 -20 30c0 4 0 8 1 12c10 45 18 91 28 144
c24 -68 58 -121 104 -164c19 -18 40 -36 62 -50c32 -20 64 -29 94 -29c73 0 132 54 143 144c1 8 1 15 1 23c0 16 -2 32 -5 48c-11 51 -45 80 -90 80c-12 0 -26 -2 -40 -7l-13 -4v-192l-18 81v105c-34 -10 -68 -20 -103 -29c-10 -3 -21 -4 -32 -4c-9 0 -18 1 -27 2
c-69 7 -109 52 -109 112c0 17 3 35 10 54c21 55 62 92 113 117c50 25 99 39 148 44v48c-1 39 -8 45 -58 61h134c-50 -16 -57 -22 -58 -61v-46h19c78 0 154 -21 229 -62c7 -3 14 -17 13 -25c-7 -45 -17 -89 -27 -140c-8 11 -13 19 -19 26c-39 45 -75 92 -117 133
c-36 35 -82 55 -134 55c-46 0 -79 -21 -97 -63c-10 -23 -15 -46 -15 -69c0 -17 3 -34 8 -51c17 -59 59 -90 112 -90h10v203l18 -81v-119c6 1 12 2 18 4c43 14 87 27 132 34c13 2 26 3 38 3c33 0 65 -9 88 -39zM523 458z" />
    <glyph glyph-name="percent" unicode="%" horiz-adv-x="1000" 
d="M393 625c6.5957 -23.4727 9.72949 -47.0205 9.72949 -69.9502c0 -95.2715 -54.0977 -179.87 -138.729 -204.051c-16.4883 -4.82227 -33.1709 -7.12793 -49.7158 -7.12793c-89.8154 0 -175.574 67.9502 -204.285 170.128
c-6.65234 23.4775 -9.82129 47.0703 -9.82129 70.0664c0 94.542 53.5596 179 138.821 203.935c16.4883 4.82227 33.1709 7.12793 49.7158 7.12793c89.8154 0 175.574 -67.9502 204.285 -170.128zM102 541c29.8525 -104.938 83.4365 -183.687 140.766 -183.687
c6.04395 0 12.1289 0.875 18.2324 2.68652c39.9033 11.2227 58.0371 55.877 58.0371 116.027c0 36.3232 -6.6123 78.2969 -19.0371 121.972c-29.8525 104.938 -82.6191 183.688 -139.792 183.688c-6.02734 0 -12.1035 -0.875 -18.207 -2.68652
c-40.2236 -11.9414 -58.7217 -57.459 -58.7217 -118.182c0 -35.8916 6.46289 -77.0957 18.7227 -119.818zM948.999 275.001c6.5957 -23.4727 9.73145 -46.9834 9.73145 -69.8594c0 -95.0498 -54.0977 -179.155 -138.729 -204.142
c-16.4883 -4.82227 -33.1709 -7.12793 -49.7158 -7.12793c-89.8154 0 -175.574 67.9502 -204.285 170.128c-6.91699 23.9121 -10.2021 47.8633 -10.2021 71.1436c0 94.5225 54.1494 177.983 139.201 202.857c16.4883 4.82227 33.1465 7.12793 49.6543 7.12793
c89.6133 0 174.79 -67.9502 204.346 -170.128zM817.001 10c39.9033 11.8467 58.0371 56.7344 58.0371 116.731c0 36.2305 -6.6123 77.9697 -19.0371 121.269c-29.8525 104.938 -82.6191 183.688 -139.792 183.688c-6.02734 0 -12.1035 -0.875 -18.207 -2.68652
c-40.625 -11.875 -58.9844 -56.9531 -58.9844 -117.168c0 -36.1289 6.60938 -77.707 18.9844 -120.832c29.8525 -104.938 83.4375 -183.688 140.767 -183.688c6.04395 0 12.1289 0.875 18.2324 2.68652zM455.001 54.998
c-1.69336 -8.46582 -3.06738 -15.1787 -3.06738 -20.8145c0 -14.3369 8.89453 -21.7002 44.0674 -33.1855h-284c49 16 68 17 81 54c0 3 224 715 224 715h223c-54 -17 -68 -28 -84 -68z" />
    <glyph glyph-name="ampersand" unicode="&#x26;" horiz-adv-x="900" 
 />
    <glyph glyph-name="quotesingle" unicode="'" horiz-adv-x="291" 
d="M263 755c-2 4 -46 20 -49 20c-14 0 -37 -30 -48 -45c-12 -17 -21 -37 -28 -57c-4 -11 -6 -24 -6 -36c1 -17 8 -33 19 -46l73 -64l-113 -116c-27 16 -52 37 -75 63c-24 25 -36 49 -36 70c0 84 158 218 204 247c21 -13 52 -21 59 -36zM263 755z" />
    <glyph glyph-name="parenleft" unicode="(" horiz-adv-x="334" 
d="M291 789v-17c-94 -4 -147 -171 -150 -377v-23c0 -200 51 -360 144 -363c2 0 4 0 6 1v-17h-6c-159 4 -285 182 -285 398v8c3 217 133 390 291 390z" />
    <glyph glyph-name="parenright" unicode=")" horiz-adv-x="332" 
d="M0 789c158 0 287 -173 291 -390v-8c0 -205 -116 -399 -265 -399c-7 0 -13 0 -20 1h-6v17c2 -1 4 -1 6 -1c94 3 144 165 144 368v18c-3 206 -56 373 -150 377v17z" />
    <glyph glyph-name="asterisk" unicode="*" horiz-adv-x="564" 
d="M546 430l-103 -147c7 22 11 37 11 48c0 18 -9 27 -30 43l-125 87v-153c1 -43 9 -49 64 -67h-180c55 18 63 24 64 67v153l-125 -87c-22 -16 -30 -25 -30 -43c0 -11 4 -26 10 -48l-102 147c26 -20 41 -30 55 -30c11 0 22 6 37 16l136 95l-136 94c-15 10 -26 16 -37 16
c-14 0 -29 -10 -55 -30l102 148c-6 -22 -10 -37 -10 -49c0 -17 8 -27 30 -42l125 -88v153c-1 44 -9 50 -64 68h180c-55 -18 -63 -24 -64 -68v-153l125 87c21 16 30 25 30 43c0 11 -4 27 -11 49l103 -148c-26 20 -41 30 -55 30c-11 0 -22 -6 -37 -16l-136 -94l136 -95
c15 -10 26 -16 37 -16c14 0 29 10 55 30z" />
    <glyph glyph-name="plus" unicode="+" horiz-adv-x="530" 
d="M436.355 274.271c40.2734 1.0459 46.083 8.30078 62.5918 59.0205v-0.273438v-82.6113v-82.6113v-0.273438c-16.502 50.7197 -22.3115 57.9746 -62.5918 59.0205l-94.7031 0.046875l-68.3408 -0.0136719l0.0263672 -163.051
c1.0459 -40.2734 8.30078 -46.083 59.0205 -62.5918h-0.273438h-82.6113h-82.6113h-0.273438c50.7197 16.502 57.9746 22.3115 59.0205 62.5918l0.046875 94.7031l-0.0136719 68.3418l-163.051 -0.0273438c-40.2734 -1.0459 -46.083 -8.30078 -62.5918 -59.0205v0.273438
v82.6113v82.6113v0.273438c16.502 -50.7197 22.3115 -57.9746 62.585 -59.0205l81.0322 -0.046875l82.0195 0.0136719l-0.0273438 163.051c-1.0459 40.2734 -8.30078 46.083 -59.0205 62.5918h0.273438h82.6113h82.6113h0.273438
c-50.7197 -16.502 -57.9746 -22.3115 -59.0205 -62.5918l-0.046875 -81.0322l0.0136719 -82.0117z" />
    <glyph glyph-name="comma" unicode="," horiz-adv-x="128" 
d="M91 13c11 -10 14 -20 14 -28c0 -33 -63 -87 -81 -98l-22 15c3 -2 10 -5 12 -5c11 -2 21 7 26 15c5 7 9 14 11 22c2 5 3 10 2 14c0 7 -3 14 -7 19l-29 25c-6 6 -9 14 -9 23c0 17 14 31 31 31c9 0 16 -4 23 -9c0 0 19 -15 29 -24zM38 63z" />
    <glyph glyph-name="hyphen" unicode="-" horiz-adv-x="448" 
d="M379.787 250.334c32.9453 0.853516 37.6953 6.78906 51.2129 48.2812v-0.219727v-48.5811v-67.582v-0.219727c-13.5049 41.4922 -18.2549 47.4287 -51.2061 48.2812l-100.786 0.0332031l-228.294 -0.0332031c-32.9453 -0.852539 -37.7021 -6.78906 -51.2061 -48.2812
v0.219727v67.582v48.5811v0.219727c13.5039 -41.4922 18.2539 -47.4277 51.2061 -48.2812l66.2891 -0.0332031z" />
    <glyph glyph-name="period" unicode="." horiz-adv-x="74" 
d="M0 31.6592c0 17.3008 14.0254 31.3252 31.3262 31.3252s31.3252 -14.0244 31.3252 -31.3252s-14.0244 -31.3262 -31.3252 -31.3262s-31.3262 14.0254 -31.3262 31.3262z" />
    <glyph glyph-name="slash" unicode="/" horiz-adv-x="571" 
d="M251 56c-2.05762 -9.40625 -3.68359 -16.6523 -3.68359 -22.627c0 -14.3525 9.37988 -21.3701 44.6836 -33.373h-292c51 17 70 17 83 56c0 3 231 736 231 736h230c-56 -18 -70 -29 -87 -70z" />
    <glyph glyph-name="zero" unicode="0" horiz-adv-x="734" 
d="M344.924 792c2.69336 0.0693359 5.38086 0.103516 8.06152 0.103516c190.379 0 346.994 -174.186 350.938 -393.104c0.0507812 -2.82324 0.0761719 -5.64062 0.0761719 -8.45117c0 -218.175 -152.557 -396.612 -345.076 -401.549
c-2.69336 -0.0693359 -5.38086 -0.103516 -8.06152 -0.103516c-190.379 0 -346.994 174.186 -350.938 393.104c-0.0507812 2.82324 -0.0761719 5.64062 -0.0761719 8.45117c0 218.175 152.557 396.612 345.076 401.549zM356.924 6
c81.3535 2.94043 177.118 169.204 177.118 376.375c0 4.19141 -0.0390625 8.40039 -0.118164 12.625c-3.96582 210.166 -102.277 380.039 -184.843 380.039c-0.719727 0 -1.43945 -0.0126953 -2.15723 -0.0390625c-81.3535 -1.95996 -177.118 -169.166 -177.118 -376.373
c0 -4.19336 0.0390625 -8.40234 0.118164 -12.627c3.96582 -210.166 102.277 -380.039 184.843 -380.039c0.719727 0 1.43945 0.0126953 2.15723 0.0390625z" />
    <glyph glyph-name="one" unicode="1" horiz-adv-x="447" 
d="M348 55c2 -35 12.001 -38 62.001 -55h-288c50 17 60 20 61 55c0 2 0.444336 82.667 0.444336 187.186c0 52.2588 -0.111328 110.481 -0.444336 167.814v362l-76 -101c-23.0352 -33.0166 -35.458 -72.5186 -35.458 -112.62c0 -12.126 1.13574 -24.3066 3.45703 -36.3799
l-75 75l184 183c108 1 207 1 226 1c-54 -18 -61 -24 -62 -69v-657z" />
    <glyph glyph-name="two" unicode="2" horiz-adv-x="716" 
d="M340 386c-110.374 -3.87305 -169.191 -82.7373 -169.191 -181.23c0 -3.23633 0.0634766 -6.49316 0.19043 -9.76953c4 -102 69 -184 183 -186h195c41 1 47 8 63 59v-68h-258c-192 0 -350 86 -354 193c-0.0546875 1.43164 -0.0820312 2.86035 -0.0820312 4.28516
c0 102.096 140.602 186.853 321.082 196.715l14 1c110.374 3.87305 169.191 82.7373 169.191 181.23c0 3.23633 -0.0634766 6.49316 -0.19043 9.76953c-4 102 -69 184 -183 186h-196c-40 -1 -46 -8 -62 -59v68h258c192 0 350 -86 354 -193
c0.0546875 -1.43164 0.0820312 -2.86035 0.0820312 -4.28516c0 -102.096 -140.602 -186.853 -321.082 -196.715z" />
    <glyph glyph-name="three" unicode="3" horiz-adv-x="501" 
d="M191 391c163 -20 280 -101 280 -198c0 -107 -162 -193 -354 -193h-117v9v59c17 -51 22 -59 63 -59h19h35c114 0 183 84 183 186c0 82 -34 152 -106 179c-24 9 -50 11 -75 11h-96v12h96h17c19.6982 0 39.6006 3.97656 58.29 10.9854c72 27 105.71 96.0146 105.71 178.015
c0 102 -69 186 -183 186h-35h-19c-41 0 -46 -8 -63 -59v59v8.7793h117c192 0 354 -85.7793 354 -192.779c0 -97 -117 -178 -280 -197z" />
    <glyph glyph-name="four" unicode="4" horiz-adv-x="626" 
d="M518 259c41 0 47 9 64 61v-1v-60v-8h-87v-197c0 -34 12 -38 61 -54h-284c49 16 61 20 61 54v197h-333v8l333 521.779h223c-53 -18 -61 -23.7793 -61 -67.7793v-454h23zM112 259h221v145v372l-61 -126c-29 -42 -160 -329 -160 -391z" />
    <glyph glyph-name="five" unicode="5" horiz-adv-x="558" 
d="M519 243c0 -131 -153 -243 -351 -243h-158v11v59c16 -50 22 -60 60 -60h98c120 0 178 105 178 230c0 123 -69 225 -184 225h-162v307v8.7793h447v-8.7793v-59v-1c-17 52 -23 60 -64 60h-177h-8c-31 -12 -36 -22 -36 -59v-238c194 0 357 -103 357 -232z" />
    <glyph glyph-name="six" unicode="6" horiz-adv-x="628" 
d="M19.0879 -4c-6 0 -13 1 -19 0v4c26 0 51 18 58 45c3 12 4 25 4 37c0 0 -7 119 -7 229c0 46 4 92 14 137c7 30 16 58 27 87c28 70 74 138 133 186c55 45 126 71 198 71c51 0 131 -16 131 -82c0 -53 1 -104 1 -160c-5 7 -10 14 -16 21c-20 28 -47 50 -80 61
c-18.4531 6.15137 -36.8271 9.01855 -54.8398 9.01855c-46.4121 0 -90.4189 -19.041 -127.16 -50.0186c-26 -23 -48 -52 -60 -83c-13.0664 -33.1338 -16.5508 -74.542 -16.5508 -109.287c0 -39.708 4.55078 -70.7129 4.55078 -70.7129s15 41 23 58
c34.1211 79.3682 100.153 125.173 171.978 125.173c25.0059 0 50.7139 -5.55176 76.0225 -17.1729c62 -29 88 -83 101 -146c3.99023 -20.0742 5.91211 -40.0703 5.91211 -59.7646c0 -138.256 -94.7373 -261.6 -233.912 -292.235
c-21.1719 -4.70508 -42.083 -6.81543 -62.7617 -6.81543c-49.6436 0 -97.9395 12.167 -145.238 29.8154c-7 3 -14.5 4.5 -22.125 4.5s-15.375 -1.5 -22.875 -4.5c-26 -10 -53 -23 -81 -23zM220.088 323c-10 -48 -13 -97 -13 -129c0 -55 0 -93 7 -131
c6.87695 -44.0117 37.3994 -69.1074 73.6807 -69.1074c16.4766 0 34.1416 5.17676 51.3193 16.1074c35 22 56 55 70 92c15.9248 43.4863 24.3467 88.0986 24.3467 133.146c0 28.501 -3.37109 57.1777 -10.3467 85.8535c-6 28 -20 57 -38 80
c-16.6152 20.7686 -39.4307 31.293 -62.2881 31.293c-21.165 0 -42.3652 -9.02344 -58.7119 -27.293c-20 -23 -38 -53 -44 -82z" />
    <glyph glyph-name="seven" unicode="7" horiz-adv-x="613" 
d="M556 780.779h27c-53 -18 -68 -29.7793 -87 -71.7793l-235 -655c-2.05371 -5.30566 -3.05273 -9.9082 -3.05273 -13.9727c0 -19.6865 23.4385 -26.7656 64.0527 -40.0273h-284c49 16 56 26 71 54c0 0 221 639 248 718h-141h-152c-41 0 -47 -8 -64 -60v60v8.7793h556z" />
    <glyph glyph-name="eight" unicode="8" horiz-adv-x="679" 
d="M645 202c0.0556641 -1.59473 0.0830078 -3.18652 0.0830078 -4.77344c0 -112.872 -139.564 -206.256 -316.083 -208.229c-1.92188 -0.0214844 -3.83984 -0.0322266 -5.75391 -0.0322266c-175.403 0 -319.289 90.2734 -323.246 204.032
c-0.0585938 1.64355 -0.0878906 3.2832 -0.0878906 4.91895c0 109.793 131.598 200.199 300.088 208.082c-149 4 -270 86 -273 189c-0.0625 1.66895 -0.09375 3.33301 -0.09375 4.99219c0 104.731 123.542 190.039 278.094 192.008
c1.83301 0.0234375 3.66309 0.0351562 5.48926 0.0351562c154.53 0 281.558 -83.2842 285.511 -189.034c0.0380859 -1.29297 0.0566406 -2.58398 0.0566406 -3.87207c0 -101.275 -115.928 -185.229 -263.057 -193.128c170 -3 309 -92 312 -204zM164 596.999
c2.98145 -101.384 57.3369 -183.01 151.283 -183.01c0.570312 0 1.14258 0.00292969 1.71582 0.00878906c92.2549 0.970703 141.13 80.2148 141.13 178.205c0 2.91602 -0.0429688 5.84863 -0.129883 8.7959c-2.98145 101.384 -56.3496 183.009 -150.283 183.009
c-0.570312 0 -1.14258 -0.00292969 -1.71582 -0.00878906c-93.2266 -0.970703 -142.13 -80.2158 -142.13 -178.207c0 -2.91504 0.0429688 -5.84668 0.129883 -8.79297zM329 -2.00195c104.392 0.966797 160.199 85.0859 160.199 190.948
c0 3.65918 -0.0664062 7.34375 -0.200195 11.0518c-2.9834 109.388 -64.3115 198.009 -171.2 198.009c-0.598633 0 -1.19824 -0.00292969 -1.7998 -0.00878906c-104.392 -1.93359 -160.2 -86.085 -160.2 -191.948c0 -3.65918 0.0664062 -7.34375 0.200195 -11.0518
c3.95605 -108.786 63.6611 -197.033 169.442 -197.033c1.18066 0 2.36719 0.0107422 3.55859 0.0332031z" />
    <glyph glyph-name="nine" unicode="9" horiz-adv-x="622" 
d="M568 784c6 0 12.001 -0.00292969 19.001 0.99707v-3c-26 -1 -51 -19 -58 -46c-3 -12 -5 -25 -5 -37c0 0 6 -119 8 -229c0.0839844 -3.86035 0.125977 -7.7207 0.125977 -11.5801c0 -42.1328 -4.96484 -84.1953 -14.126 -125.419c-7 -29 -16 -58 -27 -86
c-28 -71 -75 -138 -133 -187c-51.71 -42.3076 -117.562 -71.3564 -185.092 -71.3564c-4.29688 0 -8.60059 0.117188 -12.9082 0.356445c-51 3 -132 16 -132 82c0.333008 17.667 0.444336 35.2227 0.444336 52.8525c0 35.2588 -0.444336 70.8145 -0.444336 108.147
c5 -8 10 -15 16 -22c20 -27 47 -50 79 -61c18.6611 -6.12793 37.167 -8.99707 55.2588 -8.99707c46.8633 0 90.9453 19.252 127.74 50.9971c25 22 48 51 60 82c12.6455 32.0645 16.1123 71.8789 16.1123 105.904c0 41.3164 -5.1123 74.0957 -5.1123 74.0957s-15 -41 -22 -58
c-34.708 -79.0166 -100.501 -124.768 -171.604 -124.768c-25.1807 0 -51.0273 5.7373 -76.3955 17.7676c-62 28 -88 82 -101 146c-3.99023 19.9492 -5.91211 39.8369 -5.91211 59.4375c0 137.599 94.7373 261.052 233.912 292.563
c20.418 4.25391 40.5137 6.17578 60.3789 6.17578c50.1875 0 98.9043 -12.2646 147.621 -30.1748c7 -3 14.5 -4.5 22 -4.5s15 1.5 22 4.5c26 10 54 21 82 22zM367.001 457.997c10 48 9.99902 97.001 12.999 129.001c-3 55 -1 94 -7 131
c-6.87695 44.0117 -37.8721 69.1074 -74.4482 69.1074c-16.6113 0 -34.374 -5.17578 -51.5518 -16.1064c-34 -22 -55 -54 -69 -92c-16.5684 -43.5684 -24.8525 -88.2666 -24.8525 -133.401c0 -28.418 3.28418 -57.0088 9.85254 -85.5996c7 -28 20 -57 38 -79
c16.709 -21.4082 39.6885 -32.1836 62.8174 -32.1836c21.167 0 42.459 9.02441 59.1836 27.1826c20 23 37 53 44 82z" />
    <glyph glyph-name="colon" unicode=":" horiz-adv-x="79" 
d="M-0.383789 468.325c0 17.3008 14.0254 31.3262 31.3262 31.3262s31.3252 -14.0254 31.3252 -31.3262s-14.0244 -31.3252 -31.3252 -31.3252s-31.3262 14.0244 -31.3262 31.3252zM-0.383789 32.0449c0 17.3008 14.0254 31.3262 31.3262 31.3262
s31.3252 -14.0254 31.3252 -31.3262s-14.0244 -31.3252 -31.3252 -31.3252s-31.3262 14.0244 -31.3262 31.3252z" />
    <glyph glyph-name="semicolon" unicode=";" horiz-adv-x="0" 
d="M89 13c11 -10 14 -20 14 -28c0 -33 -63 -87 -81 -98l-22 15c3 -2 10 -5 12 -5c11 -2 21 7 26 15c5 7 11 14 13 22c2 5 1 10 0 14c0 7 -3 14 -7 19l-29 25c-6 6 -9 14 -9 23c0 17 14 31 31 31c9 0 16 -4 23 -9c0 0 19 -15 29 -24zM6 161c0 17 14 31 31 31s31 -14 31 -31
c0 -18 -14 -32 -31 -32s-31 14 -31 32z" />
    <glyph glyph-name="equal" unicode="=" horiz-adv-x="460" 
d="M380 379c33 1 38 7 52 48v-116c-14 41 -19 47 -52 48h-329c-33 -1 -37 -7 -51 -48v116c14 -41 18 -47 51 -48h329zM380 216c33 1 38 7 52 48v-116c-14 41 -19 47 -52 48h-329c-33 -1 -37 -7 -51 -48v116c14 -41 18 -47 51 -48h329z" />
    <glyph glyph-name="question" unicode="?" horiz-adv-x="446" 
d="M160.541 43c-32.1895 33.0596 -54.54 64.6045 -54.54 77.5166c0 1.92969 0.499023 3.44336 1.54004 4.4834c1.04004 1.04004 2.57031 1.53906 4.52734 1.53906c13.0938 0 45.2832 -22.3496 77.4727 -54.5391c32.1885 -32.1895 54.5391 -65.1602 54.5391 -78.457
c0 -1.9873 -0.499023 -3.53516 -1.53906 -4.5752c-1.00977 -1.00977 -2.48047 -1.49316 -4.35547 -1.49316c-12.9814 0 -45.3135 23.1934 -77.6445 55.5254zM402.541 683c10.0381 -17.7158 14.459 -35.082 14.459 -52.0312c0 -69.1592 -73.6006 -131.369 -139.459 -181.969
l-77 -59c-11.1748 -7.98145 -24.8965 -17.2373 -24.8965 -31.834c0 -3.69141 0.87793 -7.72559 2.89648 -12.166c0 0 64 -135 94 -135h-223c21 0 29 7 37 24c7 15 10 32 10 49v28c0 98 30 127 82 166l158 118c14.0098 10.1885 21.5303 26.4609 21.5303 43.1338
c0 9.50977 -2.44629 19.1494 -7.53027 27.8662c-9.49219 17.2578 -28.6641 27.8145 -48.5205 27.8145c-3.15527 0 -6.32715 -0.265625 -9.47949 -0.814453l-255 -93l-29 149l-9 48c6 -20 12 -26 32 -30c8.36328 -2.20117 17.1143 -3.0459 25.9971 -3.0459
c11.2969 0 22.8066 1.36621 34.0029 3.0459l90 16c14 3 27 4 40 4c74 0 144 -39 181 -105z" />
    <glyph glyph-name="at" unicode="@" horiz-adv-x="867" 
d="M841 397c0 -182 -208 -191 -208 -191h-165c20 10 24 26 24 45c0 32 -3 65 -3 98c-4 -12 -8 -24 -13 -35c-23 -54 -68 -85 -117 -85c-17 0 -34 3 -51 11c-42 20 -59 57 -68 99c-3 14 -4 27 -4 41c0 93 64 178 158 199c14 3 28 4 42 4c34 0 67 -9 99 -21c10 -4 21 -4 30 0
c18 7 37 13 55 13h13c-17 0 -34 -12 -39 -31c-2 -8 -3 -17 -3 -25v-290c0 -11 9 -16 19 -16c5 0 11 3 15 8c30 41 62 141 62 271c0 124 -54 213 -169 262c-9 1 -16 3 -26 3c-118 0 -269 -72 -326 -151c-15 -21 -28 -45 -37 -69c-13 -35 -19 -73 -19 -110
c0 -76 26 -153 70 -215c66 -92 178 -142 291 -142c17 0 35 2 52 4c96 14 186 66 245 143c-5 -10 -11 -20 -17 -30c-63 -98 -167 -168 -283 -183c-16 -2 -33 -3 -49 -3c-216 0 -419 189 -419 407c0 23 2 46 7 69c24 118 111 212 218 263c57 26 115 41 173 41
c41 0 82 -9 124 -24c186 -46 319 -199 319 -360zM484 356c7 32 8 66 8 88v34c0 20 0 37 -3 54c-5 30 -26 47 -51 47c-11 0 -23 -4 -35 -11c-23 -15 -37 -37 -46 -62c-11 -30 -17 -62 -17 -93c0 -19 2 -37 6 -56c5 -19 14 -38 26 -53c11 -15 27 -22 42 -22s29 6 40 19
c14 15 26 35 30 55z" />
    <glyph glyph-name="A" unicode="A" horiz-adv-x="791" 
d="M765 8h4v-8h-237h-18l3 7c20 6 37 22 39 35c0 3 1 6 1 8c0 15 -6 29 -11 42l-146 356h-181l-109 -368c-1 -5 -2 -10 -2 -15c0 -12 4 -24 11 -34c7 -9 16 -16 27 -21l24 -10h-170c31 14 62 40 77 70l197 665c-21 20 -48 35 -81 35c-4 0 -16 9 -16 9h249c7 0 22 -17 26 -26
c66 -158 285 -702 292 -725c5 -15 12 -20 21 -20zM222 459h174l-100 250z" />
    <glyph glyph-name="B" unicode="B" horiz-adv-x="671" 
d="M634 312v-34v-89c0 -15 -1 -31 -1 -46c0 -20 -9 -39 -19 -56c-19 -31 -49 -54 -83 -68c-37 -14 -77 -19 -116 -19h-115h-300c31 10 62 35 62 62v66v259v119c0 55 -5 257 -62 275h219v-26c0 -123 1 -179 1 -212c1 4 1 7 2 11c5 20 13 39 24 57c2 3 4 7 6 10
c21 32 50 59 84 79c35 21 77 34 119 34c20 0 39 -3 58 -9c36 -11 64 -40 72 -76c2 -8 3 -15 3 -22c0 -43 -29 -81 -63 -106c-38 -26 -80 -39 -123 -52c-16 -4 -34 -10 -50 -12c60 0 119 -1 127 -1c29 0 59 -7 85 -22c43 -25 70 -72 70 -122zM220 530c0 -26 1 -38 1 -72
c5 0 30 -1 62 -1c16 2 34 5 51 9c3 1 6 2 8 3c39 11 70 40 80 79c2 9 4 19 4 28c0 19 -5 37 -18 52c-15 17 -36 27 -58 27h-9c-9 -1 -17 -5 -25 -8c-14 -7 -27 -18 -39 -29c-19 -17 -34 -38 -45 -61c-3 -6 -5 -12 -8 -18c-1 -3 -2 -6 -4 -9zM467 302v9c0 9 1 17 0 26
c-5 32 -25 60 -53 76c-30 18 -67 24 -102 24h-74h-17c0 -108 2 -278 2 -326c0 -20 7 -41 24 -54c7 -5 16 -9 25 -12c16 -5 33 -7 49 -7c14 0 27 1 40 4c44 10 88 39 102 84c4 12 4 24 4 36v25v52v49v14z" />
    <glyph glyph-name="C" unicode="C" horiz-adv-x="842" 
d="M216 716c-61 -52 -78 -112 -78 -179c0 -35 5 -71 12 -107c31 -169 174 -281 335 -281c31 0 62 5 94 13c125 33 209 149 209 279c0 9 0 19 -1 29c-2 18 -4 36 -4 54c15 -45 22 -90 22 -135c0 -208 -153 -400 -403 -400c-10 0 -20 0 -30 1c-83 5 -161 27 -229 76
c-92 67 -143 172 -143 288c-0 44 7.56348 90.1445 23 136c34 101 94 180 191 230zM216 721c76 48 160 71 241 71c94 0 182 -31 245 -91c13 -11 19 -22 19 -37c0 -5 -1 -11 -3 -18c-20 -74 -36 -149 -61 -224c-3 9 -7 19 -10 28c-24 80 -60 152 -121 210
c-58 56 -121 84 -190 84c-38 0 -76 -9 -117 -26z" />
    <glyph glyph-name="D" unicode="D" horiz-adv-x="763" 
d="M520 740c142 -68 221 -195 221 -337c0 -57 -13 -117 -40 -177c-67 -145 -191 -225 -329 -225h-153h-2c-72 0 -145 -1 -217 -1c54 8 58 48 58 92v191v421c0 53 -5 60 -58 77h217h2h95c36 0 72 -1 108 -8c34 -7 67 -19 98 -33zM517 171c25 81 41 169 41 256
c0 63 -8 126 -29 185c-2 7 -5 14 -7 21l-12 27c-17 36 -40 67 -76 87c-32 19 -70 22 -107 22h-108v-756h153c14 3 28 7 42 15c48 27 79 75 97 126c2 6 4 12 6 17zM901 -3z" />
    <glyph glyph-name="E" unicode="E" 
d="M395 755h-176v-228h256v-166s-13 152 -80 152h-176v-9v-27v-390v-7v-54h176c67 0 80 141 80 141v-167h-256h-52h-167c54 9 58 47 58 92v190v422c0 53 -5 60 -58 77h167h52h256v-167s-13 141 -80 141z" />
    <glyph glyph-name="F" unicode="F" horiz-adv-x="655" 
d="M593 749c16 -12 25 -26 25 -45c0 -5 -1 -10 -2 -16c-12 -51 -19 -103 -34 -156c-3 9 -7 17 -11 25c-30 65 -81 100 -152 100h-3c-68 0 -112 -38 -139 -99c-24 -57 -25 -117 -25 -180h126c4 0 8 1 13 1c15 0 34 18 42 33c21 37 37 78 53 112v-315c-12 33 -22 67 -36 98
c-13 26 -30 46 -54 55h-162c0 -27 -1 -105 -1 -177c0 -60 3 -116 3 -134c0 -14 20 -30 35 -37c17 -8 39 -7 58 -14h-329c1 2 2 5 3 5c63 9 72 20 72 85v278h-55c44 13 55 49 55 88v5v247c0 49 -10 60 -60 66c-5 1 -11 2 -15 7h234v-403h9v41c0 95 18 187 66 271
c38 67 97 102 162 102c27 0 54 -6 81 -18c14 -6 28 -15 41 -25z" />
    <glyph glyph-name="G" unicode="G" horiz-adv-x="832" 
d="M778 679c7 -8 15 -17 17 -28v-5c0 -11 -5 -22 -10 -32c-28 -58 -56 -117 -85 -175h80c-1 -140 -1 -280 -2 -419c-12 63 -24 127 -36 191c-3 12 -5 25 -13 35c-7 9 -19 15 -31 15c-4 0 -7 0 -10 -1c-18 -4 -26 -19 -32 -35c-6 -15 -11 -31 -17 -46
c-18 -41 -44 -79 -77 -110c-59 -53 -139 -80 -219 -80h-12c-66 2 -134 22 -188 61c-60 43 -99 106 -122 176c-14 45 -21 92 -21 139c0 11 0 21 1 32c4 54 14 119 57 157c48 42 96 85 143 127c-54 -54 -70 -119 -70 -188c0 -18 1 -36 3 -54c2 -27 7 -54 16 -80
c13 -42 34 -82 65 -115c28 -31 65 -56 104 -71c21 -8 43 -13 65 -16c11 -2 23 -3 34 -3c6 -1 12 -1 18 -1s11 2 17 2c29 1 57 3 85 13c27 10 51 25 72 44c42 39 67 98 67 156v3c0 5 0 10 -3 14c-3 5 -8 8 -13 10c-23 11 -48 15 -74 18c-16 2 -33 4 -49 5
c-70 7 -140 10 -209 13c-4 1 -9 5 -6 7h367c-15 105 -83 200 -177 249c-47 24 -99 36 -152 36s-106 -12 -153 -37c78 70 182 106 287 106c57 0 115 -11 168 -34c43 -19 83 -45 115 -79z" />
    <glyph glyph-name="H" unicode="H" horiz-adv-x="780" 
d="M457 0c50 16 59 20 61 54v491h-294v-491c2 -34 12 -38 62 -54h-134h-152c49 16 59 20 61 54v661c-1 45 -7 48 -61 65h285c-54 -17 -60 -20 -61 -65v-141h294l1 141c-1 45 -8 48 -62 65h286c-54 -17 -61 -20 -62 -65l1 -661c2 -34 12 -38 61 -54h-286z" />
    <glyph glyph-name="I" unicode="I" horiz-adv-x="295" 
d="M208.947 50.4668c1.79199 -32.1924 10.873 -35.1768 56.8223 -50.1406h-265.503h-0.259766c49.0537 15.9629 56.0693 21.5859 57.082 60.54l0.0400391 212.411l-0.0400391 446.956c-1.0127 38.9541 -8.02832 44.5771 -57.082 60.5391h0.259766h265.503
c-45.9424 -14.9492 -55.0234 -17.9346 -56.8223 -50.126c0 -0.34668 -0.00683594 -2.09863 -0.00683594 -4.9834l0.506836 -1.41211c-0.366211 -6.89551 -0.5 -345.736 -0.533203 -450.967c0.0332031 -105.229 0.166992 -209.526 0.533203 -216.422l-0.506836 -1.41309
c0.00683594 -2.88379 0.00683594 -4.63672 0.00683594 -4.98242z" />
    <glyph glyph-name="J" unicode="J" horiz-adv-x="467" 
d="M374 733v-2v-5v-1v-140v-306v-71v-53v-1v-5v-2v-47h1c-1 -32 -1 -54 -1 -54c-7 -126 -112 -226 -239 -226h-135v60v1v58c14 -43 18 -55 44 -58h91c48 0 88 39 89 88v42v695v14c-1 39 -8 44 -56 60h262c-44 -14 -54 -18 -56 -47z" />
    <glyph glyph-name="K" unicode="K" horiz-adv-x="792" 
d="M715 20c12 -12 26 -16 40 -16v-4c-63 0 -127 -3 -191 -3c-23 0 -41 6 -41 29c-4 22 -8 44 -13 66c-13 57 -27 113 -54 166c-4 8 -8 17 -13 25c-11 17 -23 40 -35 56c-18 25 -91 103 -112 127c-15 17 -48 37 -48 37h-29v-26v-391c0 -59 13 -73 72 -80c9 -1 17 -2 26 -6
h-317c54 8 58 47 58 91v191v421c0 54 -5 61 -58 78h219v-268c15 0 29 -1 43 -1c45 0 86 5 126 28c49 28 80 80 80 133c0 13 -2 27 -6 40c-8 24 -27 45 -41 68h154c8 0 18 -10 23 -17c16 -20 24 -44 24 -68c0 -29 -11 -58 -34 -83c-49 -53 -114 -74 -182 -90
c-25 -6 -51 -9 -77 -16h3c9 0 26 -8 33 -11c14 -6 28 -11 41 -19c45 -27 86 -65 123 -102c35 -35 64 -76 86 -121c28 -62 30 -134 67 -192c9 -15 20 -30 33 -42z" />
    <glyph glyph-name="L" unicode="L" horiz-adv-x="571" 
d="M0 0c54 18 61 24 61 68v659c0 35 -11 38 -61 54h285c-49 -16 -61 -19 -61 -54c0 -6 1 -651 1 -666c0 -13 3 -26 14 -35c9 -8 64 -9 77 -9h5c203 0 213 180 213 180v-197h-534z" />
    <glyph glyph-name="M" unicode="M" horiz-adv-x="1153" 
d="M62 729c0 34 -11 37 -59 52h276c-51 -16 -59 -22 -59 -62v-166c8 19 15 34 23 50l3 6c31 63 76 126 140 157c21 10 44 15 66 15c52 0 103 -25 136 -65c25 -32 40 -71 47 -111c1 -8 3 -17 4 -25s0 -15 0 -23c7 17 15 31 22 46l3 6c31 63 76 126 140 157c21 10 44 15 66 15
c51 0 102 -25 135 -65c25 -32 40 -71 47 -111c2 -8 5 -17 5 -25v-35v-484v-6c0 -34 11 -39 59 -54h-59h-163h-59c48 15 59 20 59 54v6v482c0 70 -26 136 -77 149c-7 2 -15 3 -23 3c-14 0 -29 -4 -42 -11c-33 -16 -57 -49 -75 -81c-17 -28 -29 -59 -38 -91v-470
c5 -21 18 -28 58 -41h-1h-275c36 12 50 17 56 33v509c0 70 -26 136 -77 149c-7 2 -15 3 -23 3c-14 0 -29 -4 -43 -11c-33 -16 -56 -49 -74 -81c-18 -30 -31 -64 -40 -98v-441c0 -40 8 -46 59 -63h-276c48 16 59 19 59 52v5v2v476v187v1v5z" />
    <glyph glyph-name="N" unicode="N" horiz-adv-x="584" 
d="M529 781v-806l-499 565c0 -62 -1 -392 -1 -453c0 -81 115 -81 164 -87h-193v781l499 -555v270v198c0 81 -115 81 -163 87h193z" />
    <glyph glyph-name="O" unicode="O" horiz-adv-x="839" 
d="M203 740c62 35 130 52 197 52c140 0 276 -73 350 -203c35 -62 52 -130 52 -198c0 -139 -72 -275 -202 -349c-63 -35 -131 -52 -198 -52c-140 0 -275 73 -349 203c-36 63 -53 131 -53 198c0 139 73 275 203 349zM591 57c54 31 79 87 79 157c0 81 -33 180 -89 279
c-84 149 -196 251 -298 251c-25 0 -49 -6 -72 -19c-54 -31 -79 -87 -79 -157c0 -81 33 -181 89 -280c84 -148 197 -250 298 -250c25 0 49 6 72 19z" />
    <glyph glyph-name="P" unicode="P" horiz-adv-x="663" 
d="M626 640c6 -26 9 -51 9 -76c0 -162 -119 -310 -286 -332c-10 -1 -21 -2 -32 -2c-32 0 -66 5 -106 6v-185c2 -33 11 -36 57 -51h-127h-12h-127c46 15 55 18 57 51v214s-3 289 -3 433c0 57 -3 62 -56 78h218v-218c1 -1 2 -1 3 -1c9 27 16 55 28 81c27 66 67 122 138 144
c21 7 42 10 62 10c84 0 154 -57 177 -152zM427 347c26 52 38 103 38 157c0 25 -2 50 -7 76c-5 30 -16 60 -32 86c-17 26 -42 40 -69 40c-19 0 -39 -8 -56 -23c-22 -19 -40 -45 -52 -71c-27 -56 -32 -115 -32 -168c0 -15 1 -29 1 -42v-70v-30c1 -10 5 -22 12 -28
c21 -19 47 -29 72 -29c21 0 42 7 60 21c27 22 50 50 65 81z" />
    <glyph glyph-name="Q" unicode="Q" horiz-adv-x="841" 
d="M752 589c35 -63 52 -131 52 -198c0 -140 -73 -276 -203 -350c-23 -14 -47 -24 -71 -32c29 -46 67 -104 92 -142c11 -17 26 -31 39 -45h-218c-1 0 -1 -1 -1 0c8 2 16 6 24 8c21 6 32 16 32 30c0 7 -3 16 -8 25c-12 21 -44 66 -74 104c-144 0 -287 68 -363 202
c-36 63 -53 131 -53 199c0 140 73 276 203 350c63 35 131 52 198 52c140 0 277 -73 351 -203zM377 96c47 -38 97 -59 145 -59c25 0 48 5 71 18c54 31 79 88 79 158c0 81 -33 181 -89 280c-85 149 -197 251 -299 251c-25 0 -49 -6 -72 -19c-55 -31 -79 -88 -79 -158
c0 -82 32 -181 89 -280c45 -80 99 -146 155 -191z" />
    <glyph glyph-name="R" unicode="R" horiz-adv-x="717" 
d="M652 206c0 17 -6 33 -10 53c18 -26 27 -62 27 -101c0 -49 -14 -101 -41 -134c-6 -7 -13 -14 -20 -20c-27 -22 -64 -36 -100 -36c-30 0 -59 9 -80 32c-19 20 -29 47 -36 74c-16 71 -28 144 -38 217c-6 40 -7 90 -37 121c-10 10 -21 17 -34 21c-4 2 -45 11 -49 11v-192
v-166c0 -52 18 -75 68 -75c12 0 24 -4 36 -11h-338v7c45 0 65 21 65 71v244v393c0 16 -8 37 -19 46c-13 12 -30 15 -46 15v4h234v-318h2c1 6 5 52 12 80c3 15 10 33 15 48c38 120 141 201 255 201c15 0 31 -1 46 -4c67 -13 105 -62 105 -121c0 -24 -6 -50 -20 -75
c-65 -121 -245 -147 -263 -147h-1c3 -2 11 -2 18 -5c18 -7 35 -16 50 -28c14 -11 26 -25 35 -41c8 -14 12 -32 17 -48l15 -51c14 -50 27 -106 56 -150c7 -11 17 -21 29 -21c24 0 38 35 43 54c3 17 4 35 4 52zM248 460c0 -3 24 -4 49 -4c26 0 53 1 58 2c33 5 66 17 89 42
c25 25 36 60 36 95c0 8 1 17 0 25c-6 48 -39 77 -80 77c-9 0 -19 -2 -29 -5c-41 -13 -69 -41 -88 -79c-1 -4 -18 -46 -25 -74c-6 -22 -10 -58 -10 -79z" />
    <glyph glyph-name="S" unicode="S" horiz-adv-x="799" 
d="M65 309c30 -86 73 -153 132 -209c25 -23 51 -45 79 -62c36 -23 79 -38 120 -38c46 0 91 18 126 55c36 39 50 91 50 143c0 16 -2 33 -4 49c-4 33 -13 64 -22 95c-7 24 -16 45 -34 63c-22 20 -51 29 -79 29c-17 0 -33 -3 -49 -8c-56 -18 -113 -36 -170 -50
c-14 -3 -28 -5 -43 -5h-33c-86 0 -138 68 -138 144c0 22 4 45 13 69c27 70 79 117 144 150c80 40 159 58 238 58c97 0 193 -28 288 -79c8 -4 16 -19 16 -28v-3c-9 -58 -21 -114 -34 -179c-11 14 -17 24 -24 33c-50 57 -96 117 -149 169c-46 45 -105 70 -170 70h-3
c-56 0 -97 -27 -120 -80c-13 -29 -19 -59 -19 -89c0 -21 3 -43 9 -64c22 -74 76 -114 143 -114c19 0 38 3 58 9c56 17 112 31 169 40c16 2 32 7 48 7c42 0 82 -11 111 -49c30 -39 44 -90 44 -141c0 -57 -18 -114 -50 -156c-3 -4 -7 -8 -10 -13c-35 -39 -79 -69 -127 -90
c-75 -31 -149 -46 -221 -46c-102 0 -202 29 -301 84c-17 10 -25 21 -25 38c0 5 1 10 2 16c12 57 22 114 35 182zM901 -3z" />
    <glyph glyph-name="T" unicode="T" horiz-adv-x="759" 
d="M666 744c38 1 44 8 59 56v-79v-136c-15 48 -21 55 -59 56h-209h-397c-39 -1 -44 -8 -60 -56v136v79c16 -48 21 -55 60 -56h209h397zM438 50c1 -32 10 -35 55 -50h-261c48 16 55 22 56 60v209v359c0 5 0 9 -1 13h151v-3v-4v-2v-363v-213v-1v-5z" />
    <glyph glyph-name="U" unicode="U" horiz-adv-x="704" 
d="M598 51c0 -34 11 -38 58 -53h-274c51 16 59 23 59 63v163c-9 -16 -16 -33 -24 -50c-1 -2 -2 -3 -3 -5c-30 -62 -93 -125 -157 -157c-20 -9 -43 -14 -65 -14c-7 0 -13 -1 -20 0c-53 6 -100 38 -127 84c-26 44 -35 94 -41 144c-3 26 -4 53 -4 81c0 98 18 204 64 286
c40 72 100 132 169 177h-188v11h265c-36 -49 -73 -101 -100 -156c0 0 0 -1 -1 -1c-3 -6 -6 -13 -9 -20c-32 -75 -41 -158 -41 -240c0 -23 2 -46 2 -69c0 -39 6 -78 16 -116c5 -19 12 -37 22 -53c12 -18 28 -33 49 -40c10 -4 21 -5 32 -5c16 0 32 4 47 11c33 17 57 50 75 81
c17 30 30 63 39 97v11v436c0 40 -8 48 -59 64h274c-47 -15 -58 -20 -58 -54v-676z" />
    <glyph glyph-name="V" unicode="V" horiz-adv-x="1009" 
d="M972 740c-51 -34 -83 -77 -113 -123l-328 -628l-16 24c-104 164 -341 527 -447 690c-19 29 -45 52 -68 78h290c1 -1 1 -3 2 -4c-14 -4 -29 -7 -43 -11c-35 -10 -54 -27 -54 -52c0 -12 5 -26 14 -42c54 -95 335 -452 390 -522l246 466c7 14 10 27 10 39
c0 29 -21 50 -62 64c-23 7 -48 11 -71 21h250z" />
    <glyph glyph-name="W" unicode="W" horiz-adv-x="1150" 
d="M1054 53c0 -34 11 -37 59 -52h-276c51 16 59 22 59 62v166c-8 -19 -15 -34 -23 -50l-3 -6c-31 -63 -76 -126 -140 -157c-21 -10 -44 -15 -66 -15c-52 0 -103 25 -136 65c-25 32 -40 71 -47 111c-1 8 -3 17 -4 25s0 15 0 23c-7 -17 -15 -31 -22 -46l-3 -6
c-31 -63 -76 -126 -140 -157c-21 -10 -44 -15 -66 -15c-51 0 -102 25 -135 65c-25 32 -40 71 -47 111c-2 8 -5 17 -5 25v35v484v6c0 34 -11 39 -59 54h59h163h59c-48 -15 -59 -20 -59 -54v-6v-482c0 -70 26 -136 77 -149c7 -2 15 -3 23 -3c14 0 29 4 42 11
c33 16 57 49 75 81c17 28 29 59 38 91v470c-5 21 -18 28 -58 41h1h275c-36 -12 -50 -17 -56 -33v-509c0 -70 26 -136 77 -149c7 -2 15 -3 23 -3c14 0 29 4 43 11c33 16 56 49 74 81c18 30 31 64 40 98v441c0 40 -8 46 -59 63h276c-48 -16 -59 -19 -59 -52v-5v-2v-476v-187
v-1v-5z" />
    <glyph glyph-name="X" unicode="X" horiz-adv-x="852" 
d="M757 58l58 -58h-196c22 0 119 2 119 28c0 5 -3 10 -10 16l-283 280l-359 -302v213c67 56 158 131 253 210l-272 269l-10 9l-57 58h196c-22 0 -119 -2 -119 -28c0 -4 2 -9 9 -15l276 -274c133 110 271 225 364 303v-141v-66l-257 -217l279 -276z" />
    <glyph glyph-name="Y" unicode="Y" horiz-adv-x="656" 
d="M411 734h216c-42 -28 -69 -63 -94 -100l-125 -243v-342c0 -30 9 -35 52 -49h-247c46 15 53 22 53 59v332c-68 108 -138 216 -207 323c-16 25 -39 45 -59 67h251v-4s-23 -6 -36 -9c-31 -9 -46 -24 -46 -45c0 -10 3 -22 11 -36c45 -79 187 -240 222 -280l108 206
c11 18 16 34 16 47c0 26 -18 44 -54 56c-20 6 -41 9 -61 18z" />
    <glyph glyph-name="Z" unicode="Z" horiz-adv-x="919" 
d="M0.000976562 417.935v-28.7012v28.7012zM24.998 -2.11816h-24.9971c141.279 169.033 487.935 583.504 629.646 753.051l-272.838 0.207031v-0.0205078c-81.3252 -2.35156 -81.8516 -115.729 -87.6416 -164.684v194.344h84.251
c0.413086 -0.0263672 0.758789 -0.146484 1.17188 -0.172852h188.682c0.00585938 0.0595703 0.00585938 0.113281 0.00585938 0.172852h16.9756h18.3018h81.4053h45.3301h145.143v-0.0126953c9.24805 0 19.4004 0.00585938 31.5664 0.00585938
c-125.63 -146.389 -563.585 -664.163 -639.594 -753.15h24.7764h78.1348h18.1016l10.373 -0.173828h420.566v0.0205078c81.3252 2.34473 81.8516 115.729 87.6416 164.677v-194.344h-84.251c-0.413086 0.0263672 -0.759766 0.146484 -1.17285 0.172852h-422.784
c-0.00683594 -0.0595703 -0.00683594 -0.113281 -0.00683594 -0.172852h-16.9756h-18.3008h-81.4062h-45.3291h-186.996zM614.245 750.966h28.9209h-28.9209z" />
    <glyph glyph-name="backslash" unicode="\" horiz-adv-x="580" 
d="M299 56l-206 666c-17 41 -31 52 -87 70h230s231 -733 231 -736c13 -39 32 -39 83 -56h-292c35 12 45 19 45 33c0 6 -2 14 -4 23z" />
    <glyph glyph-name="a" unicode="a" horiz-adv-x="592" 
d="M544 24c5 -14 12 -18 22 -17v-7h-207h-15l2 7c18 5 33 19 35 29v6c0 13 -5 27 -9 38c-19 48 -60 142 -78 183c0 -47 -6 -90 -20 -126c-12 -35 -31 -64 -54 -87c-41 -39 -85 -48 -85 -49l-135 -1c2 7 75 157 110 230c10 21 28 44 49 54c12 6 50 8 81 8c24 0 44 -1 44 -2
c-2 7 -41 118 -42 119c-19 46 -53 75 -104 80c-4 1 -14 10 -14 10h216c6 0 19 -16 23 -24c57 -138 174 -430 181 -451zM211 60c46 44 70 112 70 198c0 8 -1 17 -1 25c-43 -20 -126 -176 -143 -267c11 3 43 14 74 44z" />
    <glyph glyph-name="b" unicode="b" horiz-adv-x="602" 
d="M317 495c152 -21 260 -154 260 -301c0 -23 -2 -47 -8 -70c-20 -86 -85 -139 -162 -139c-18 0 -36 3 -55 9c-65 21 -101 72 -126 131c-10 24 -17 50 -25 74h-3v-199h-198c48 15 51 19 51 71c0 131 2 394 2 394v195c-1 29 -10 32 -52 45h116h11h116
c-42 -13 -51 -16 -52 -45v-169c36 1 67 6 96 6c10 0 20 -1 29 -2zM417 179c4 23 6 46 6 67c0 50 -11 96 -35 145c-13 27 -35 53 -59 73c-16 13 -35 19 -54 19c-23 0 -46 -9 -66 -26c-6 -6 -10 -17 -11 -26v-27v-64v-31c0 -50 3 -106 28 -159c12 -24 28 -48 48 -65
c15 -14 33 -21 51 -21c24 0 47 13 62 37c15 23 25 51 30 78z" />
    <glyph glyph-name="c" unicode="c" horiz-adv-x="533" 
d="M143 463c-40 -34 -53 -75 -53 -118c0 -23 3 -46 7 -69c20 -110 113 -183 219 -183c19 0 40 3 60 8c80 22 136 97 136 180v21c0 11 -3 23 -3 35c10 -29 14 -58 14 -88c0 -135 -100 -261 -262 -261h-19c-54 0 -105 19 -149 51c-60 43 -93 111 -93 186c0 29 5 59 15 89
c22 67 61 117 124 150zM140 465c49 31 104 46 157 46c61 0 118 -20 159 -59c9 -8 13 -15 13 -24c0 -4 -1 -8 -2 -12c-13 -48 -24 -97 -40 -146c-2 7 -4 13 -6 19c-16 51 -40 98 -79 136c-38 36 -79 55 -124 55c-24 0 -48 -5 -74 -16z" />
    <glyph glyph-name="d" unicode="d" horiz-adv-x="609" 
d="M8 126c-5 23 -8 47 -8 70c0 150 110 306 263 306h31c30 0 62 -3 97 -4v171c0 30 -11 33 -53 46h245c-42 -13 -52 -16 -52 -46v-198s2 -265 2 -398c0 -53 3 -57 52 -73h-201v202c-1 0 -2 0 -3 1c-8 -25 -15 -51 -25 -75c-26 -61 -62 -112 -128 -133c-19 -6 -38 -9 -56 -9
c-78 0 -143 53 -164 140zM191 396c-24 -48 -35 -94 -35 -143c0 -23 3 -47 7 -71c4 -28 15 -56 29 -79c16 -24 39 -37 64 -37c18 0 35 7 51 20c20 18 37 42 49 66c24 52 29 107 29 156c0 13 -1 25 -1 37v65v28c-1 9 -5 20 -11 25c-20 18 -43 27 -67 27c-19 0 -38 -6 -55 -20
c-24 -19 -46 -46 -60 -74z" />
    <glyph glyph-name="e" unicode="e" horiz-adv-x="557" 
d="M515 334c8 -13 13 -38 13 -69c0 -95 -49 -244 -216 -271c-24 -4 -46 -6 -66 -6c-166 0 -214 121 -231 157c-9 19 -15 52 -15 88c0 39 7 82 27 117c67 119 165 161 251 161c5 0 10 1 15 1c93 0 169 -61 169 -118h-367s-19 -40 -19 -92c0 -58 23 -129 116 -176
c47 -24 91 -34 131 -34c82 0 145 46 175 111c16 37 21 70 21 94c0 23 -4 37 -4 37zM221 478c-67 -8 -120 -66 -120 -68h232s-15 68 -93 68c-6 0 -13 1 -19 0z" />
    <glyph glyph-name="f" unicode="f" horiz-adv-x="491" 
d="M453 489c12 -8 18 -19 18 -32c0 -5 -1 -9 -2 -14c-8 -39 -14 -79 -25 -119c-3 6 -5 13 -8 19c-23 50 -62 76 -116 76h-3c-52 0 -85 -29 -106 -75c-18 -44 -19 -89 -19 -137h94h12c11 0 26 14 32 25c16 29 28 60 40 86v-240c-9 25 -16 50 -27 74c-10 20 -23 35 -41 42
h-124v-80c0 -31 2 -60 2 -75c0 -11 15 -23 27 -29c13 -6 29 -5 44 -10h-251c1 1 -1 3 0 4c48 6 57 15 57 65v130h-42c35 10 42 36 42 68v188c0 37 -7 46 -46 51c-3 0 -8 1 -11 5h178v-305h7v32c0 72 14 143 50 207c29 50 75 77 125 77c20 0 40 -4 61 -13
c11 -5 22 -12 32 -20z" />
    <glyph glyph-name="g" unicode="g" horiz-adv-x="540" 
d="M521 498c-39 -12 -46 -15 -48 -42v-4l1 -2c-1 -6 -1 -138 -1 -228v-244c-7 -108 -96 -194 -206 -194h-229v43h229c42 0 76 33 77 75v273c-8 -13 -13 -27 -20 -40c-1 -2 -1 -3 -2 -5c-25 -51 -62 -104 -115 -130c-17 -9 -36 -13 -54 -13c-42 0 -84 21 -110 54
c-21 26 -33 58 -39 91l-3 21c-1 8 -1 16 -1 24c0 61 19 121 52 172c4 7 8 14 13 21c24 38 51 78 92 101c28 17 60 24 93 26c12 1 24 2 36 2c28 1 56 1 85 1c28 0 57 0 85 -1c22 0 44 -1 65 -1zM311 134c15 25 25 52 33 80v8v225c0 3 -1 7 -2 10c-7 16 -28 20 -44 22
c-5 0 -11 1 -16 1c-29 0 -57 -8 -78 -30c-13 -13 -21 -29 -28 -46c-3 -7 -6 -15 -9 -22c-9 -25 -18 -50 -24 -76s-10 -53 -11 -80c0 -35 2 -70 12 -103c8 -27 24 -55 52 -62c6 -2 13 -2 19 -2c12 0 24 3 35 8c27 14 47 41 61 67z" />
    <glyph glyph-name="h" unicode="h" horiz-adv-x="631" 
d="M611 0h-52h-143h-52c42 13 52 18 52 47v6v249c0 61 -23 119 -67 131c-7 2 -14 3 -21 3c-13 0 -25 -3 -37 -10c-29 -14 -50 -43 -66 -71c-15 -27 -27 -56 -35 -86v-214c0 -35 8 -40 52 -55h-242c42 14 52 17 52 46v4v2v45v199v316v85v1v5c0 29 -10 32 -52 46h242
c-44 -15 -52 -20 -52 -56v-382c7 16 14 30 21 44c1 2 2 4 3 5c27 55 66 111 123 138c18 9 38 13 58 13c45 0 90 -22 119 -57c22 -28 35 -62 41 -97c1 -8 3 -15 3 -23c0 -10 1 -20 1 -31v-250v-6c0 -29 10 -34 52 -47z" />
    <glyph glyph-name="i" unicode="i" horiz-adv-x="257" 
d="M182 44c0 -28 10 -31 50 -44h-232c43 14 50 19 50 53v394c0 34 -7 39 -50 52h232c-40 -13 -50 -15 -50 -43v-412zM55 566c0 1 -1 2 -1 3c0 10 23 34 56 59c30 22 58 36 70 36c2 0 4 -1 5 -2s1 -2 1 -3c0 -11 -24 -36 -56 -59c-30 -21 -57 -36 -69 -36c-3 0 -5 1 -6 2z
" />
    <glyph glyph-name="j" unicode="j" horiz-adv-x="341" 
d="M197 591c-25 -16 -45 -25 -55 -25c-4 0 -6 2 -6 5v2c3 14 36 44 72 68c25 16 44 25 54 25c4 0 6 -2 6 -5v-2c-3 -14 -35 -44 -71 -68zM313 499c-38 -12 -48 -15 -48 -40v-467c0 -108 -96 -195 -206 -195h-59v53v50c13 -39 16 -50 42 -50h17c42 0 77 34 77 75v523
c0 33 -7 38 -48 51h225z" />
    <glyph glyph-name="k" unicode="k" horiz-adv-x="550" 
d="M526 4v-4h-157c-19 0 -27 4 -34 21c-22 55 -45 110 -69 164c-9 20 -19 41 -32 58c-12 14 -30 27 -30 27h-24v-199c0 -48 11 -60 60 -66c7 -1 14 -1 21 -5h-261c44 7 48 39 48 75v536c0 44 -4 51 -48 65h180v-398h30c38 0 75 2 109 21c40 24 66 66 66 109
c0 12 -1 23 -5 34c-7 20 -22 37 -34 56c39 0 83 -1 127 -1c7 0 15 -7 19 -13c13 -17 20 -36 20 -56c0 -23 -10 -47 -28 -68c-40 -44 -94 -61 -150 -74c-21 -5 -42 -8 -63 -13c58 -11 90 -51 118 -97c26 -42 51 -83 76 -125c8 -12 17 -24 28 -34c10 -10 21 -13 33 -13z" />
    <glyph glyph-name="l" unicode="l" horiz-adv-x="260" 
d="M181 44c2 -28 10 -31 50 -44h-230h-1c43 14 49 19 50 53v184v387c-1 34 -7 39 -50 52h1h230c-40 -13 -48 -15 -50 -43v-4v-392c0 -91 0 -182 1 -188l-1 -1v-4z" />
    <glyph glyph-name="m" unicode="m" horiz-adv-x="1000" 
d="M190 311c26 60 90 160 147 187c19 9 39 13 58 13c46 0 91 -22 119 -57c22 -28 35 -62 41 -97c1 -8 2 -15 3 -23c1 -6 1 -13 1 -19c7 14 21 44 22 45c27 55 67 111 123 138c19 9 39 13 58 13c46 0 91 -22 119 -57c22 -28 35 -62 41 -97v-310c0 -30 15 -33 57 -47h-52h-143
h-52c41 14 52 17 52 47v6v249c0 42 -23 119 -68 131c-7 2 -13 2 -19 2c-14 0 -27 -3 -39 -9c-29 -15 -50 -44 -66 -71c-14 -25 -25 -52 -33 -80v-239c4 -19 16 -25 51 -36h-243c32 10 45 14 49 29v273c0 61 -22 119 -67 131c-7 2 -13 2 -19 2c-14 0 -27 -3 -39 -9
c-29 -15 -50 -44 -66 -71c-15 -27 -27 -56 -35 -87v-213c0 -35 8 -41 53 -55h-1h-242c42 14 52 16 52 46v420c0 29 -10 32 -52 46h242h1c-45 -15 -53 -20 -53 -56v-145zM52 296z" />
    <glyph glyph-name="n" unicode="n" horiz-adv-x="609" 
d="M596 0h-65h-125h-51c41 14 51 15 51 44v249c0 59 -22 116 -66 127c-7 2 -14 3 -21 3c-12 0 -24 -3 -35 -9c-29 -14 -49 -43 -64 -70c-16 -26 -26 -55 -34 -84v-208c0 -35 7 -38 51 -52h-1h-236c41 13 51 14 51 43v409c0 29 -10 32 -51 45h236h1c-44 -14 -51 -19 -51 -54
v-142l22 49c27 53 65 107 120 134c18 9 38 13 57 13c45 0 88 -21 116 -56c8 -10 14 -21 20 -32c13 -27 21 -56 21 -86v-279c0 -29 13 -30 54 -44zM901 -3z" />
    <glyph glyph-name="o" unicode="o" horiz-adv-x="555" 
d="M132 477c41 24 85 35 129 35c91 0 179 -48 227 -133c23 -41 35 -85 35 -129c0 -90 -48 -178 -133 -227c-41 -23 -85 -34 -128 -34c-91 0 -179 48 -228 132c-23 41 -34 85 -34 128c0 92 48 180 132 228zM385 33c35 20 51 57 51 103c0 52 -21 117 -57 181
c-56 97 -129 163 -195 163c-16 0 -32 -4 -47 -12c-35 -20 -51 -57 -51 -102c0 -53 21 -118 58 -183c55 -96 128 -163 194 -163c16 0 32 4 47 13zM902 -3z" />
    <glyph glyph-name="p" unicode="p" horiz-adv-x="640" 
d="M572 375c6 -23 8 -47 8 -70c0 -148 -109 -282 -261 -303c-10 -1 -19 -2 -29 -2c-29 0 -60 5 -97 6v-170c1 -29 10 -32 52 -46h-116h-11h-117c43 14 51 17 52 46l1 196s-3 264 -3 396c0 52 -3 56 -51 72h199v-201h3c8 25 15 50 25 74c25 60 61 111 127 132c19 6 38 9 57 9
c77 0 141 -52 161 -139zM390 107c24 49 35 96 35 145c0 22 -2 45 -6 68c-5 27 -15 55 -30 78c-15 24 -38 37 -62 37c-18 0 -36 -7 -52 -21c-20 -17 -36 -41 -48 -65c-25 -53 -28 -110 -28 -160v-31v-51c0 -14 0 -27 1 -41c0 -9 4 -20 11 -26c19 -17 43 -26 66 -26
c19 0 38 6 54 19c24 20 46 46 59 74zM901 -3z" />
    <glyph glyph-name="q" unicode="q" horiz-adv-x="616" 
d="M261 0c-152 0 -261 157 -261 305c0 23 2 47 8 70c20 87 85 139 162 139c18 0 37 -3 56 -9c66 -21 102 -72 127 -132c10 -24 17 -49 25 -74h3v201h199c-48 -16 -51 -20 -51 -72c0 -132 -2 -396 -2 -396v-196c0 -29 10 -32 52 -46h-116h-12h-116c42 14 53 17 53 46v170
c-37 0 -68 -6 -98 -6h-29zM161 320c-4 -23 -6 -46 -6 -68c0 -49 11 -96 35 -145c14 -28 35 -54 59 -74c17 -13 36 -19 55 -19c23 0 46 9 66 26c6 6 10 17 11 26v27v65v36c0 49 -4 103 -28 155c-11 24 -28 48 -48 65c-16 14 -34 21 -52 21c-24 0 -47 -13 -62 -37
c-15 -23 -25 -51 -30 -78zM901 -3z" />
    <glyph glyph-name="r" unicode="r" horiz-adv-x="558" 
d="M533 444v-7c0 -7 -1 -13 -3 -19c-3 -12 -9 -23 -16 -33c-16 -25 -37 -47 -63 -62c-20 -11 -43 -18 -66 -18c7 14 10 30 10 48c0 6 0 12 -1 18c-5 36 -29 57 -60 57c-7 0 -15 -1 -23 -4c-31 -10 -52 -30 -67 -59c-9 -16 -15 -34 -23 -51v-59v-60v-130c0 -39 14 -57 53 -57
c9 0 18 -2 27 -7h-260c34 0 50 21 50 58v200v183c0 7 -2 13 -4 19c-7 15 -20 26 -36 29l-51 10h221v-180c21 105 107 177 204 177c11 0 23 -1 35 -3c35 -6 60 -25 73 -50zM901 -3z" />
    <glyph glyph-name="s" unicode="s" horiz-adv-x="553" 
d="M29 214c22 -61 52 -108 94 -147c17 -16 35 -32 55 -44c28 -18 58 -26 86 -26c68 0 125 48 125 129v21c0 14 0 28 -3 42c-10 45 -41 71 -81 71c-11 0 -23 -2 -35 -6c-40 -12 -79 -25 -120 -35c-8 -2 -17 -3 -26 -3s-18 1 -27 1c-61 0 -97 44 -97 99c0 16 3 32 9 49
c19 49 55 83 101 105c57 28 113 41 168 41c68 0 135 -19 202 -55c6 -3 12 -15 11 -22c-7 -40 -15 -80 -24 -126c-8 10 -12 17 -17 24c-35 39 -67 82 -105 118c-32 32 -73 50 -119 50c-41 0 -70 -19 -87 -57c-9 -20 -13 -41 -13 -61c0 -16 2 -31 7 -46c15 -52 53 -80 100 -80
c13 0 27 2 41 6c39 12 78 24 118 30c12 2 23 3 35 3c29 0 57 -8 77 -35c14 -19 20 -38 20 -58c0 -22 -7 -44 -16 -65c-23 -56 -66 -93 -120 -116c-53 -22 -105 -32 -156 -32c-72 0 -142 20 -211 59c-12 7 -18 15 -18 27c0 3 1 7 2 10c9 41 15 81 24 129zM901 0z" />
    <glyph glyph-name="t" unicode="t" horiz-adv-x="400" 
d="M0 539v-29v29zM123 612c1 0 1 8 1 18c0 21 -1 52 -1 52c-2 26 -9 29 -46 41h45h125h46c-35 -12 -44 -17 -46 -39v-72h73c31 1 36 7 49 47v-1v-53v-105c-13 39 -18 45 -49 46h-51h-22c0 -72 -1 -276 -1 -324c1 -85 1 -170 1 -176v-1v-4c1 -26 8 -29 46 -41h-46h-124h-46
c34 12 43 17 45 39c0 74 1 349 1 422v85h-73c-32 -1 -37 -7 -50 -46v105v53v1c13 -40 18 -46 50 -47h63h10z" />
    <glyph glyph-name="u" unicode="u" horiz-adv-x="533" 
d="M465 42c0 -27 10 -30 48 -42h-222c41 13 47 18 47 51v131c-7 -13 -13 -27 -19 -40c-1 -1 -1 -3 -2 -5c-25 -50 -61 -102 -113 -127c-17 -9 -35 -13 -53 -13c-42 0 -83 20 -109 53c-20 26 -32 57 -38 89c-1 7 -4 14 -4 21c0 68 15 136 51 193c34 55 81 104 135 139h-152v8
h199c-3 -5 -6 -9 -9 -14c-35 -55 -70 -115 -85 -179c-5 -21 -9 -53 -9 -87c0 -65 14 -138 63 -150c6 -2 13 -3 19 -3c12 0 24 3 34 9c27 13 46 40 60 65c15 25 25 51 32 79v8v221c0 33 -6 38 -47 51h222c-38 -13 -48 -15 -48 -42v-4l1 -1c0 -1 1 -21 1 -53
c0 -96 -2 -292 -2 -358zM901 -3z" />
    <glyph glyph-name="v" unicode="v" horiz-adv-x="672" 
d="M647 470c-43 -29 -70 -65 -96 -104l-198 -378l-14 21c-87 138 -192 300 -282 437c-15 24 -38 44 -57 65h244c1 -1 1 -2 2 -3c-12 -3 -24 -5 -36 -8c-30 -9 -47 -25 -47 -45c0 -11 4 -22 13 -35c46 -67 201 -248 235 -294l130 242c5 11 7 21 7 30c0 25 -17 43 -52 54
c-20 6 -40 10 -60 18h211z" />
    <glyph glyph-name="w" unicode="w" horiz-adv-x="990" 
d="M903 46c0 -29 10 -32 51 -45h-236h-1c44 14 51 19 51 54v142c-6 -16 -13 -29 -20 -43c-1 -2 -1 -4 -2 -5c-27 -54 -65 -108 -120 -135c-18 -9 -38 -13 -57 -13c-45 0 -88 21 -116 56c-22 27 -34 61 -40 95c-2 7 -4 15 -4 22c-1 6 0 13 0 19c-6 -14 -12 -26 -19 -39
c-1 -2 -1 -4 -2 -5c-27 -54 -65 -108 -120 -135c-18 -9 -37 -13 -57 -13c-44 0 -88 21 -116 56c-22 27 -34 61 -40 95c-2 7 -4 15 -4 22v30v244v6c0 29 -10 32 -51 46h51h139h51c-41 -14 -51 -17 -51 -46v-6v-243c0 -59 22 -116 66 -127c7 -2 14 -3 21 -3c12 0 24 3 36 9
c28 15 48 43 63 70c15 24 25 51 33 78v233c-4 18 -15 24 -49 35h236c-31 -10 -43 -14 -48 -29v-266c0 -59 22 -116 66 -127c7 -2 14 -3 21 -3c12 0 24 3 35 9c29 15 49 43 64 70c16 26 26 55 34 84v208c0 35 -7 40 -50 54h236c-41 -13 -51 -16 -51 -45v-409z" />
    <glyph glyph-name="x" unicode="x" horiz-adv-x="542" 
d="M477 46l46 -46h-156c18 0 95 2 95 23c0 3 -3 7 -8 12l-162 161l-229 -196v172c48 40 97 80 145 120l-155 153l-8 8l-45 47h155c-17 0 -94 -3 -94 -24c0 -3 3 -7 8 -12l157 -156l231 192v-164l-144 -122l-3 -3l160 -158z" />
    <glyph glyph-name="y" unicode="y" horiz-adv-x="697" 
d="M640 484h33c-1 -1 -2 -1 -3 -2c-8 -3 -16 -6 -23 -9c-32 -15 -50 -44 -67 -72l-335 -545c-16 -25 -36 -52 -65 -64c-4 -2 -8 -2 -13 -2c-38 0 -83 57 -83 57s1 0 1 -1c13 -1 26 -2 39 -2h9c20 0 40 3 59 8c9 2 17 6 25 10c9 5 17 11 24 19l83 134
c-85 136 -305 464 -324 485h321c0 -1 1 -2 1 -3c-12 -3 -23 -6 -35 -9c-29 -9 -44 -23 -44 -43c0 -10 3 -22 11 -35c47 -83 144 -252 151 -264l144 232c5 9 11 18 12 28c0 2 1 5 1 7c0 14 -8 26 -19 35c-26 23 -57 28 -92 36h93h54h28h14z" />
    <glyph glyph-name="z" unicode="z" horiz-adv-x="650" 
d="M21.2588 -0.65332h-21.2588c120.153 143.758 276.069 330.96 396.589 475.157l-232.032 0.172852v-0.0195312c-69.167 -1.99902 -69.6133 -98.4209 -74.5371 -140.054v165.283h71.6523c0.353516 -0.0263672 0.646484 -0.126953 1 -0.146484h160.466
c0 0.046875 0.00683594 0.0996094 0.00683594 0.146484h14.4375h15.5625h69.2334h38.5547h123.438v-0.0136719c7.86816 0 16.5029 0.00683594 26.8428 0.00683594c-106.843 -124.497 -340.407 -399.561 -405.051 -475.236h21.0732h66.4492h15.3896l8.82031 -0.146484
h221.639v0.0195312c69.168 1.99902 69.6143 98.4219 74.5371 140.054v-165.283h-71.6455c-0.352539 0.0263672 -0.645508 0.126953 -0.999023 0.146484h-223.531c0 -0.046875 -0.00683594 -0.0996094 -0.00683594 -0.146484h-14.4365h-15.5635h-69.2334h-38.5547h-159.027z
M281.066 474.53h24.5967h-24.5967z" />
    <glyph glyph-name="cdotaccent" unicode="&#x10b;" horiz-adv-x="446" 
d="M259.459 695c32.1895 -33.0596 54.54 -64.6045 54.54 -77.5166c0 -1.92969 -0.499023 -3.44336 -1.54004 -4.4834c-1.04004 -1.04004 -2.57031 -1.53906 -4.52734 -1.53906c-13.0938 0 -45.2832 22.3496 -77.4727 54.5391
c-32.1885 32.1895 -54.5391 65.1602 -54.5391 78.457c0 1.9873 0.499023 3.53516 1.53906 4.5752c1.00977 1.00977 2.48047 1.49316 4.35547 1.49316c12.9814 0 45.3135 -23.1934 77.6445 -55.5254zM17.459 55c-10.0381 17.7158 -14.459 35.082 -14.459 52.0312
c0 69.1592 73.6006 131.369 139.459 181.969l77 59c11.1748 7.98145 24.8965 17.2373 24.8965 31.834c0 3.69141 -0.87793 7.72559 -2.89648 12.166c0 0 -64 135 -94 135h223c-21 0 -29 -7 -37 -24c-7 -15 -10 -32 -10 -49v-28c0 -98 -30 -127 -82 -166l-158 -118
c-14.0098 -10.1885 -21.5303 -26.4609 -21.5303 -43.1338c0 -9.50977 2.44629 -19.1494 7.53027 -27.8662c9.49219 -17.2578 28.6641 -27.8145 48.5205 -27.8145c3.15527 0 6.32715 0.265625 9.47949 0.814453l255 93l29 -149l9 -48c-6 20 -12 26 -32 30
c-8.36328 2.20117 -17.1143 3.0459 -25.9971 3.0459c-11.2969 0 -22.8066 -1.36621 -34.0029 -3.0459l-90 -16c-14 -3 -27 -4 -40 -4c-74 0 -144 39 -181 105z" />
    <glyph glyph-name="uni1E41" unicode="&#x1e41;" horiz-adv-x="464" 
d="M160.541 43c-32.1895 33.0596 -54.54 64.6045 -54.54 77.5166c0 1.92969 0.499023 3.44336 1.54004 4.4834c1.04004 1.04004 2.57031 1.53906 4.52734 1.53906c13.0938 0 45.2832 -22.3496 77.4727 -54.5391c32.1885 -32.1895 54.5391 -65.1602 54.5391 -78.457
c0 -1.9873 -0.499023 -3.53516 -1.53906 -4.5752c-1.00977 -1.00977 -2.48047 -1.49316 -4.35547 -1.49316c-12.9814 0 -45.3135 23.1934 -77.6445 55.5254zM402.541 683c10.0381 -17.7158 14.459 -35.082 14.459 -52.0312c0 -69.1592 -73.6006 -131.369 -139.459 -181.969
l-77 -59c-11.1748 -7.98145 -24.8965 -17.2373 -24.8965 -31.834c0 -3.69141 0.87793 -7.72559 2.89648 -12.166c0 0 64 -135 94 -135h-223c21 0 29 7 37 24c7 15 10 32 10 49v28c0 98 30 127 82 166l158 118c14.0098 10.1885 21.5303 26.4609 21.5303 43.1338
c0 9.50977 -2.44629 19.1494 -7.53027 27.8662c-9.49219 17.2578 -28.6641 27.8145 -48.5205 27.8145c-3.15527 0 -6.32715 -0.265625 -9.47949 -0.814453l-255 -93l-29 149l-9 48c6 -20 12 -26 32 -30c8.36328 -2.20117 17.1143 -3.0459 25.9971 -3.0459
c11.2969 0 22.8066 1.36621 34.0029 3.0459l90 16c14 3 27 4 40 4c74 0 144 -39 181 -105z" />
    <glyph glyph-name="Eacute" unicode="&#xc9;" 
d="M123.979 789.063l2.82031 -2.5498c53.0586 -46.8086 129.694 -55.5312 191.868 -21.7539l66.0273 35.8818l-126.342 -91.1787c-27.9541 -20.0557 -66.915 -13.8828 -87.082 14.1465zM395 655h-176v-178h256v-166s-13 152 -80 152h-176v-9v-27v-340v-7v-54h176
c67 0 80 141 80 141v-167h-256h-52h-167c54 9 58 47 58 92v270v242c0 53 -5 60 -58 77h167h52h256v-167s-13 141 -80 141z" />
    <glyph glyph-name="Iacute" unicode="&#xcd;" horiz-adv-x="295" 
d="M13.9795 769.063l2.82031 -2.5498c53.0586 -46.8086 129.694 -55.5312 191.868 -21.7539l66.0273 35.8818l-126.342 -91.1787c-27.9541 -20.0557 -66.915 -13.8828 -87.082 14.1465zM208.947 50.4668c1.79199 -32.1924 10.873 -35.1768 56.8223 -50.1406h-265.503
h-0.259766c49.0537 15.9629 56.0693 21.5859 57.082 60.54l0.0400391 212.411l-0.0400391 326.956c-1.0127 38.9541 -8.02832 44.5771 -57.082 60.5391h0.259766h265.503c-45.9424 -14.9492 -55.0234 -17.9346 -56.8223 -50.126
c0 -0.34668 -0.00683594 -2.09863 -0.00683594 -4.9834l0.506836 -1.41211c-0.366211 -6.89551 -0.5 -225.736 -0.533203 -330.967c0.0332031 -105.229 0.166992 -209.526 0.533203 -216.422l-0.506836 -1.41309
c0.00683594 -2.88379 0.00683594 -4.63672 0.00683594 -4.98242z" />
    <glyph glyph-name="Ntilde" unicode="&#xd1;" horiz-adv-x="584" 
d="M107 707c3 8 7 16 12 24c4 8 9 16 16 23c12 15 29 26 47 33c19 7 39 8 60 8c20 0 40 -6 57 -16l11 -8c3 -2 6 -5 9 -7c4 -2 9 -4 12 -5c4 -1 7 -3 11 -4c14 -4 27 -3 42 -3s30 5 45 12c14 7 28 18 44 27c-4 -8 -9 -16 -14 -23s-11 -15 -18 -22c-14 -13 -32 -22 -51 -28
c-11 -3 -22 -4 -34 -4c-8 0 -17 0 -25 2c-5 0 -10 2 -15 3l-15 6c-4 2 -9 4 -13 7l-12 6c-18 12 -40 18 -63 18c-7 0 -14 -1 -21 -2c-15 -3 -30 -8 -44 -16c-3 -3 -7 -4 -10 -7s-7 -5 -10 -8c-7 -5 -14 -11 -21 -16zM529 666v-691l-499 450c0 -62 -1 -277 -1 -338
c0 -81 115 -81 164 -87h-193v666l499 -440v155v198c0 81 -115 81 -163 87h193z" />
    <glyph glyph-name="Oacute" unicode="&#xd3;" horiz-adv-x="715" 
d="M244.438 789.187l2.4209 -2.1875c45.5391 -40.1758 111.316 -47.6621 164.679 -18.6719l56.6709 30.7979l-108.438 -78.2588c-23.9932 -17.2129 -57.4326 -11.915 -74.7422 12.1426zM174.935 635.498c53.2139 30.041 111.579 44.6309 169.084 44.6309
c120.16 0 236.889 -62.6553 300.402 -174.233c30.04 -53.2129 44.6318 -111.577 44.6318 -169.94c0 -119.302 -61.7979 -236.03 -173.375 -299.545c-54.0723 -30.04 -112.438 -44.6299 -169.942 -44.6299c-120.161 0 -236.03 62.6543 -299.544 174.233
c-30.8994 54.0723 -45.4902 112.436 -45.4902 169.941c0 119.303 62.6543 236.029 174.233 299.543zM507.952 49.2852c46.3477 26.6064 67.8047 74.6719 67.8047 134.752c0 69.5215 -28.3223 154.492 -76.3877 239.464c-72.0967 127.884 -168.225 215.43 -255.77 215.43
c-21.458 0 -42.0576 -5.14844 -61.7988 -16.3057c-46.3477 -26.6084 -67.8047 -74.6719 -67.8047 -134.752c0 -69.5225 28.3232 -155.352 76.3887 -240.323c72.0967 -127.026 169.083 -214.572 255.77 -214.572c21.458 0 42.0576 5.15039 61.7979 16.3076z" />
    <glyph glyph-name="Uacute" unicode="&#xda;" horiz-adv-x="704" 
d="M233.979 789.063l2.82031 -2.5498c53.0586 -46.8086 129.694 -55.5312 191.868 -21.7539l66.0273 35.8818l-126.342 -91.1787c-27.9541 -20.0557 -66.915 -13.8828 -87.082 14.1465zM159 321c3.63086 63.8965 8.87891 85.0518 41 160c3 7 6 14 9 20c1 0 1 1 1 1
c27 55 64 107 100 156h-265v-11h188c-69 -45 -125 -91 -170 -157c-52.9658 -77.6826 -63 -119 -63 -183c0 -28 1 -55 4 -81c6 -50 15 -100 41 -144c27 -46 74 -78 127 -84c7 -1 13 0 20 0c22 0 45 5 65 14c64 32 127 95 157 157c1 2 2 3 3 5c8 17 15 34 24 50v-163
c0 -40 -8 -47 -59 -63h274c-47 15 -58 19 -58 53v553c0 34 11 39 58 54h-274c51 -16 59 -24 59 -64v-313v-11c-9 -34 -22 -67 -39 -97c-18 -31 -42 -64 -75 -81c-15 -7 -31 -11 -47 -11c-11 0 -22 1 -32 5c-21 7 -37 22 -49 40c-10.4658 15.6992 -45 107 -40 195z" />
    <glyph glyph-name="agrave" unicode="&#xe0;" horiz-adv-x="585" 
d="M543 23c5 -14 12 -18 22 -17v-7h-207h-15l2 7c18 5 33 19 35 29v6c0 13 -5 27 -9 38c-19 48 -60 142 -78 183c0 -47 -6 -90 -20 -126c-12 -35 -31 -64 -54 -87c-41 -39 -85 -48 -85 -49l-135 -1c2 7 75 157 110 230c10 21 28 44 49 54c12 6 50 8 81 8c24 0 44 -1 44 -2
c-2 7 -41 118 -42 119c-19 46 -53 75 -104 80c-4 1 -14 10 -14 10h216c6 0 19 -16 23 -24c57 -138 174 -430 181 -451zM210 59c46 44 70 112 70 198c0 8 -1 17 -1 25c-43 -20 -126 -176 -143 -267c11 3 43 14 74 44z" />
    <glyph glyph-name="aacute" unicode="&#xe1;" horiz-adv-x="585" 
d="M543 23c5 -14 12 -18 22 -17v-7h-207h-15l2 7c18 5 33 19 35 29v6c0 13 -5 27 -9 38c-19 48 -60 142 -78 183c0 -47 -6 -90 -20 -126c-12 -35 -31 -64 -54 -87c-41 -39 -85 -48 -85 -49l-135 -1c2 7 75 157 110 230c10 21 28 44 49 54c12 6 50 8 81 8c24 0 44 -1 44 -2
c-2 7 -41 118 -42 119c-19 46 -53 75 -104 80c-4 1 -14 10 -14 10h216c6 0 19 -16 23 -24c57 -138 174 -430 181 -451zM210 59c46 44 70 112 70 198c0 8 -1 17 -1 25c-43 -20 -126 -176 -143 -267c11 3 43 14 74 44zM135.809 554.398l3.76367 -0.538086
c70.1621 -9.13965 138.576 26.4785 171.236 89.2471l34.6777 66.667l-53.7637 -146.237c-11.9619 -32.2578 -47.7148 -48.9238 -80.1074 -36.9619zM120.75 554.25z" />
    <glyph glyph-name="eacute" unicode="&#xe9;" horiz-adv-x="557" 
d="M225.809 574.398l3.76367 -0.538086c70.1621 -9.13965 138.576 26.4785 171.236 89.2471l34.6777 66.667l-53.7637 -146.237c-11.9619 -32.2578 -47.7148 -48.9238 -80.1074 -36.9619zM515 334c8 -13 13 -38 13 -69c0 -95 -49 -244 -216 -271c-24 -4 -46 -6 -66 -6
c-166 0 -214 121 -231 157c-9 19 -15 52 -15 88c0 39 7 82 27 117c67 119 165 161 251 161c5 0 10 1 15 1c93 0 169 -61 169 -118h-367s-19 -40 -19 -92c0 -58 23 -129 116 -176c47 -24 91 -34 131 -34c82 0 145 46 175 111c16 37 21 70 21 94c0 23 -4 37 -4 37zM221 478
c-67 -8 -120 -66 -120 -68h232s-15 68 -93 68c-6 0 -13 1 -19 0z" />
    <glyph glyph-name="iacute" unicode="&#xed;" horiz-adv-x="257" 
d="M23.8086 574.398l3.76367 -0.538086c70.1621 -9.13965 138.576 26.4785 171.236 89.2471l34.6777 66.667l-53.7637 -146.237c-11.9619 -32.2578 -47.7148 -48.9238 -80.1074 -36.9619zM182 44c0 -28 10 -31 50 -44h-232c43 14 50 19 50 53v394c0 34 -7 39 -50 52h232
c-40 -13 -50 -15 -50 -43v-412z" />
    <glyph glyph-name="ntilde" unicode="&#xf1;" horiz-adv-x="609" 
d="M107 579c3 8 7 16 12 24c4 8 9 16 16 23c12 15 29 26 47 33c19 7 39 8 60 8c20 0 40 -6 57 -16l11 -8c3 -2 6 -5 9 -7c4 -2 9 -4 12 -5c4 -1 7 -3 11 -4c14 -4 27 -3 42 -3s30 5 45 12c14 7 28 18 44 27c-4 -8 -9 -16 -14 -23s-11 -15 -18 -22c-14 -13 -32 -22 -51 -28
c-11 -3 -22 -4 -34 -4c-8 0 -17 0 -25 2c-5 0 -10 2 -15 3l-15 6c-4 2 -9 4 -13 7l-12 6c-18 12 -40 18 -63 18c-7 0 -14 -1 -21 -2c-15 -3 -30 -8 -44 -16c-3 -3 -7 -4 -10 -7s-7 -5 -10 -8c-7 -5 -14 -11 -21 -16zM596 0h-65h-125h-51c41 14 51 15 51 44v249
c0 59 -22 116 -66 127c-7 2 -14 3 -21 3c-12 0 -24 -3 -35 -9c-29 -14 -49 -43 -64 -70c-16 -26 -26 -55 -34 -84v-208c0 -35 7 -38 51 -52h-1h-236c41 13 51 14 51 43v409c0 29 -10 32 -51 45h236h1c-44 -14 -51 -19 -51 -54v-142l22 49c27 53 65 107 120 134
c18 9 38 13 57 13c45 0 88 -21 116 -56c8 -10 14 -21 20 -32c13 -27 21 -56 21 -86v-279c0 -29 13 -30 54 -44zM901 -3z" />
    <glyph glyph-name="oacute" unicode="&#xf3;" horiz-adv-x="555" 
d="M175.809 574.398l3.76367 -0.538086c70.1621 -9.13965 138.576 26.4785 171.236 89.2471l34.6777 66.667l-53.7637 -146.237c-11.9619 -32.2578 -47.7148 -48.9238 -80.1074 -36.9619zM132 477c41 24 85 35 129 35c91 0 179 -48 227 -133c23 -41 35 -85 35 -129
c0 -90 -48 -178 -133 -227c-41 -23 -85 -34 -128 -34c-91 0 -179 48 -228 132c-23 41 -34 85 -34 128c0 92 48 180 132 228zM385 33c35 20 51 57 51 103c0 52 -21 117 -57 181c-56 97 -129 163 -195 163c-16 0 -32 -4 -47 -12c-35 -20 -51 -57 -51 -102
c0 -53 21 -118 58 -183c55 -96 128 -163 194 -163c16 0 32 4 47 13z" />
    <glyph glyph-name="uacute" unicode="&#xfa;" horiz-adv-x="533" 
d="M165.809 574.398l3.76367 -0.538086c70.1621 -9.13965 138.576 26.4785 171.236 89.2471l34.6777 66.667l-53.7637 -146.237c-11.9619 -32.2578 -47.7148 -48.9238 -80.1074 -36.9619zM465 42c0 -27 10 -30 48 -42h-222c41 13 47 18 47 51v131c-7 -13 -13 -27 -19 -40
c-1 -1 -1 -3 -2 -5c-25 -50 -61 -102 -113 -127c-17 -9 -35 -13 -53 -13c-42 0 -83 20 -109 53c-20 26 -32 57 -38 89c-1 7 -4 14 -4 21c0 68 15 136 51 193c34 55 81 104 135 139h-152v8h199c-3 -5 -6 -9 -9 -14c-35 -55 -70 -115 -85 -179c-5 -21 -9 -53 -9 -87
c0 -65 14 -138 63 -150c6 -2 13 -3 19 -3c12 0 24 3 34 9c27 13 46 40 60 65c15 25 25 51 32 79v8v221c0 33 -6 38 -47 51h222c-38 -13 -48 -15 -48 -42v-4l1 -1c0 -1 1 -21 1 -53c0 -96 -2 -292 -2 -358z" />
    <glyph glyph-name="uni0401" unicode="&#x401;" horiz-adv-x="507" 
d="M395 686h-176v-192h256v-166s-13 152 -80 152h-176v-9v-29v-355v-7v-54h176c67 0 80 141 80 141v-167h-256h-219c54 9 58 47 58 92v173v370c0 54 -5 60 -58 77h219h256v-166s-13 140 -80 140zM332 728c-2 2 -3 4 -3 8c0 10 9 25 23 39s29 23 39 23c4 0 6 -1 8 -3
s3 -4 3 -8c0 -10 -9 -25 -23 -39s-29 -23 -39 -23c-3 0 -6 1 -8 3zM133 728c-2 2 -2 4 -2 7c0 11 8 26 22 40s30 23 40 23c3 0 6 -1 8 -3s3 -4 3 -8c0 -10 -9 -25 -23 -39s-30 -23 -40 -23c-3 0 -6 1 -8 3z" />
    <glyph glyph-name="uni044E" unicode="&#x44e;" horiz-adv-x="770" 
d="M711 378c23 -41 34 -85 34 -129c0 -91 -48 -180 -132 -228c-41 -23 -86 -34 -130 -34c-91 0 -179 47 -227 132c-24 41 -34 86 -34 130c0 12 2 23 2 35h-43v-240c0 -28 10 -31 49 -44h-109h-11h-110c40 13 50 16 50 44v404c0 36 -6 38 -50 52h110h10h110
c-43 -14 -49 -16 -49 -52v-148h46c14 72 58 137 127 176c41 23 85 34 129 34c91 0 179 -48 228 -132zM607 31c35 20 51 57 51 103c0 52 -21 117 -57 181c-55 97 -128 165 -194 165c-17 0 -33 -5 -48 -14c-35 -20 -51 -57 -51 -102c0 -53 21 -118 58 -182
c55 -97 128 -164 194 -164c16 0 32 4 47 13z" />
    <glyph glyph-name="uni0445" unicode="&#x445;" horiz-adv-x="547" 
d="M477 46l45 -46h-155c19 0 95 2 95 23c0 3 -3 7 -8 12l-163 161l-228 -196v171c48 41 96 81 145 121l-155 153l-8 8l-45 47h155c-18 0 -94 -3 -94 -24c0 -3 3 -7 8 -12l157 -156l231 192v-111v-53l-145 -122l-2 -3l159 -158z" />
    <glyph glyph-name="uni0416" unicode="&#x416;" horiz-adv-x="898" 
d="M860 7l1 -6h-195c-52 0 -60 83 -85 163c-52 168 -50 334 -144 334v-108v-302c0 -81 115 -81 164 -87h-170h-1h-170c49 6 164 6 164 87v302v108c-94 0 -92 -167 -144 -334c-25 -80 -33 -163 -85 -163h-195v6h4c51 0 102 115 102 115l126 261c44 109 77 115 84 115h1
c-248 49 -302 131 -302 191c0 45 30 79 30 79c12 14 28 13 28 13h152s-50 -52 -50 -112c0 -11 1 -22 5 -33c43 -122 154 -129 219 -129h25v185c0 81 -115 83 -164 89h170h1h170c-49 -6 -164 -8 -164 -89v-185h25c65 0 176 7 219 129c4 11 5 22 5 33c0 60 -50 112 -50 112
h152s16 1 28 -13c0 0 30 -34 30 -79c0 -60 -54 -142 -302 -191h1c7 0 40 -6 84 -115l126 -261s50 -115 101 -115h4z" />
    <glyph glyph-name="uni042D" unicode="&#x42d;" horiz-adv-x="723" 
d="M676 515c7 -30 10 -59 10 -89c0 -53 -10 -104 -28 -155c-66 -190 -221 -282 -379 -282c-99 0 -199 36 -279 105c17 -7 33 -15 49 -24c45 -24 93 -36 141 -36c87 0 172 38 227 110c56 73 85 162 85 249c-77 -108 -197 -172 -312 -172c-27 0 -53 4 -79 11
c-22 6 -33 16 -38 40c-16 70 -35 140 -48 213c7 -6 14 -12 21 -19c55 -56 117 -100 193 -122c30 -8 59 -13 87 -13c67 0 125 25 176 77c-4 105 -50 204 -143 264c-54 35 -119 58 -187 58c-44 0 -90 -10 -134 -33l-1 4c75 63 160 91 254 91c12 0 24 0 36 -1
c176 -13 312 -121 349 -276z" />
    <glyph glyph-name="uni042A" unicode="&#x42a;" horiz-adv-x="775" 
d="M69 761c-32 -10 -52 -39 -60 -70l-9 -37v112v15h313v-31v-60c0 -59 0 -283 1 -342v-51c-1 -41 -1 -82 -1 -123c0 -30 0 -59 1 -89c0 -21 5 -44 23 -57c19 -14 46 -15 68 -15c32 1 64 5 92 24c33 21 55 58 55 96c0 14 -3 28 -10 42c-7 13 -17 24 -30 32c-14 7 -29 9 -45 9
c-26 -1 -53 -14 -75 -28s-42 -32 -58 -54c-7 -9 -17 -22 -20 -34c12 47 40 88 77 118c38 30 83 50 130 59c19 4 38 6 58 6c14 0 29 -1 43 -4c19 -4 38 -11 55 -22c37 -22 61 -60 61 -102c0 -5 0 -11 -1 -16s-2 -10 -4 -14c-16 -57 -74 -89 -127 -105
c-62 -20 -129 -20 -193 -20h-40h-81h-125h-58c1 2 3 4 3 4c29 11 36 34 36 61v360v244v97h-18c-19 0 -47 -1 -61 -5z" />
    <glyph glyph-name="uni0443" unicode="&#x443;" horiz-adv-x="716" 
d="M689 483c-1 0 -2 -1 -3 -1c-8 -3 -16 -6 -24 -10c-32 -15 -50 -44 -68 -74c-4 -6 -8 -12 -11 -18c-8 -12 -8 -12 -23 -37c-9 -16 -35 -57 -44 -72c-11 -17 -21 -34 -31 -51c-11 -17 -22 -35 -33 -53c-11 -19 -22 -37 -33 -55l-33 -54c-11 -17 -21 -34 -31 -51
c-10 -15 -19 -31 -28 -46l-24 -39c-8 -10 -23 -35 -30 -46c-7 -12 -14 -24 -22 -36c-17 -26 -37 -53 -66 -65c-4 -2 -8 -2 -13 -2c-39 0 -86 58 -86 58h1c13 -2 27 -3 40 -3c24 0 47 2 70 8c9 3 17 6 25 10c10 6 18 12 25 20c10 12 26 39 35 52c11 18 22 37 33 55
c6 10 12 19 18 29c-87 138 -314 476 -333 498h328c1 -1 1 -2 2 -3c-12 -3 -24 -6 -36 -10c-30 -8 -45 -22 -45 -43c0 -10 3 -22 11 -36c50 -89 155 -271 155 -271l2 2c6 10 11 19 17 29c11 17 21 33 31 50c12 20 24 39 36 58c11 18 38 62 49 80c4 6 8 13 12 19
c6 9 11 18 13 29v5c0 15 -7 28 -19 38c-27 23 -58 28 -95 36h96h56h28h15h33z" />
    <glyph glyph-name="uni0423" unicode="&#x423;" horiz-adv-x="749" 
d="M712 764c-1 -1 -2 -1 -3 -2c-8 -3 -16 -6 -24 -10c-34 -15 -52 -46 -71 -76c-4 -6 -8 -13 -12 -19c-7 -13 -7 -12 -23 -39c-9 -16 -36 -59 -46 -74c-10 -17 -21 -35 -32 -52c-11 -19 -22 -37 -33 -56c-12 -19 -23 -38 -35 -56c-11 -19 -23 -38 -34 -56s-22 -35 -32 -53
c-10 -16 -20 -32 -29 -47c-8 -14 -42 -67 -50 -80c-8 -11 -24 -37 -31 -48c-7 -13 -15 -25 -23 -37c-17 -27 -38 -55 -68 -68c-4 -2 -9 -2 -13 -2c-41 0 -89 60 -89 60h1c13 -2 27 -3 41 -3h9c21 0 43 3 63 8c9 3 18 7 26 11c10 5 19 12 26 21c10 12 27 39 36 53
c11 19 48 78 60 97l18 30c-89 142 -324 493 -344 515h339c1 -1 2 -2 2 -4c-12 -3 -25 -6 -37 -9c-31 -9 -47 -23 -47 -45c0 -11 4 -23 12 -37c52 -92 160 -281 160 -281c1 1 1 2 2 3l18 30c11 17 21 34 32 52c12 20 25 40 37 60c11 18 40 63 51 82c4 6 8 13 12 20
c6 9 12 18 13 29c0 3 1 5 1 7c0 15 -8 29 -20 38c-28 24 -60 29 -98 38h99h58h29h15h34z" />
    <glyph glyph-name="uni0430" unicode="&#x430;" horiz-adv-x="585" 
d="M543 23c5 -14 12 -18 22 -17v-7h-207h-15l2 7c18 5 33 19 35 29v6c0 13 -5 27 -9 38c-19 48 -60 142 -78 183c0 -47 -6 -90 -20 -126c-12 -35 -31 -64 -54 -87c-41 -39 -85 -48 -85 -49l-135 -1c2 7 75 157 110 230c10 21 28 44 49 54c12 6 50 8 81 8c24 0 44 -1 44 -2
c-2 7 -41 118 -42 119c-19 46 -53 75 -104 80c-4 1 -14 10 -14 10h216c6 0 19 -16 23 -24c57 -138 174 -430 181 -451zM210 59c46 44 70 112 70 198c0 8 -1 17 -1 25c-43 -20 -126 -176 -143 -267c11 3 43 14 74 44z" />
    <glyph glyph-name="uni0431" unicode="&#x431;" horiz-adv-x="564" 
d="M478 240c37 -21 60 -62 60 -104c0 -7 -1 -14 -2 -21c-7 -47 -42 -83 -85 -100c-32 -13 -66 -16 -100 -17c-19 0 -340 1 -351 1c26 8 52 29 52 52c1 32 1 74 1 120c0 92 -1 197 -1 260v101c0 47 -2 50 -51 65h184h300v-142s-12 120 -69 120h-230c0 -154 1 -251 1 -315
c15 -1 206 -1 219 -2c25 -2 51 -6 72 -18zM395 114c2 8 3 16 3 24c0 16 -4 31 -11 46c-24 48 -74 55 -123 57c-4 1 -41 1 -62 1h-15c1 -91 1 -109 2 -150c0 -17 6 -34 20 -45c6 -5 14 -8 21 -11c13 -4 27 -6 41 -6c54 0 110 29 124 84z" />
    <glyph glyph-name="uni0446" unicode="&#x446;" horiz-adv-x="650" 
d="M568.728 53.8838c0.666992 -37.4609 6.13574 -39.2598 51.2725 -53.9639v-0.0332031v-140.227s-33.084 130.833 -130.826 140.267h-488.554c45.1367 14.6904 50.6064 16.4824 51.2725 53.9502l-0.546875 401.04c-1.6123 28.8672 -9.75977 31.5449 -50.959 44.9561
h113.551h11.0195h113.551c-41.2061 -13.4043 -49.3535 -16.0889 -50.959 -44.9561l3.86426 -411.652c0.15918 -16.7959 13.8242 -30.3262 30.6191 -30.3262h176.529c16.8086 0 30.4727 13.5508 30.6191 30.3594l3.43164 411.626
c-1.61914 28.8672 -9.76074 31.5449 -50.96 44.9561h113.545h11.0186h113.552c-41.2061 -13.4043 -49.3545 -16.0889 -50.96 -44.9561z" />
    <glyph glyph-name="uni0434" unicode="&#x434;" horiz-adv-x="589" 
d="M512 46c2 -29 11 -41 53 -46h-2v-200c-4 3 -5 6 -6 9c-21 99 -88 160 -182 171c-9 1 -18 1 -26 1h-133c-13 0 -27 -1 -40 -3c-88 -15 -150 -74 -170 -169c-1 -3 -2 -6 -6 -9v181v1v18h21c32 3 58 30 75 79c22 61 23 128 24 194v7c0 42 0 84 -1 125v52
c-2 26 -19 31 -57 43h50h13h440c-47 -15 -53 -20 -53 -64v-390zM371 282v154c0 28 0 45 -22 45h-210c0 -28 0 -47 1 -74v-2v-83v-43v-7c-1 -67 -2 -136 -25 -200c-11 -33 -26 -57 -45 -72h186h104h11v282z" />
    <glyph glyph-name="uni0435" unicode="&#x435;" horiz-adv-x="561" 
d="M517 335c3 -10 7 -20 9 -30c3 -16 5 -32 5 -48c0 -21 -3 -42 -8 -62c-21 -91 -91 -169 -182 -195c-24 -7 -49 -12 -74 -12c-57 0 -115 12 -163 44c-44 30 -73 71 -92 120c-10 27 -11 58 -11 87v14c0 34 11 67 26 98c24 50 63 92 110 120c10 6 20 11 30 15
c23 11 48 18 74 22c13 2 25 2 38 2h39c27 0 54 -9 78 -21c11 -6 22 -12 32 -21c18 -15 32 -37 36 -61v-12h-346c-23 0 -31 -8 -34 -28c-2 -15 -3 -30 -3 -44c0 -42 9 -83 30 -120c1 0 1 -1 1 -1c35 -57 95 -93 160 -104c5 -1 11 -2 17 -2c53 0 106 5 149 37c6 3 10 8 14 12
c25 23 42 52 54 83c9 23 15 49 15 73c0 12 -1 23 -4 34zM131 440c-3 -3 -7 -6 -11 -10c-1 -1 -20 -17 -19 -18h234c-2 8 -6 16 -10 23c0 2 -1 3 -2 4c-10 17 -27 30 -46 37c-5 2 -10 3 -15 4c-7 1 -13 2 -20 2c-21 0 -41 -5 -61 -13c-18 -7 -34 -17 -50 -29z" />
    <glyph glyph-name="uni0444" unicode="&#x444;" horiz-adv-x="565" 
d="M356 5c-28 -11 -56 -16 -84 -16v-112c0 -67 94 -67 134 -72h-140h-1h-152c40 5 134 5 134 72v112c-100 0 -192 67 -230 167c-12 31 -17 62 -17 93c0 105 64 205 169 245c26 10 51 17 78 17v126c0 65 -94 65 -134 70h152h1h140c-40 -5 -134 -5 -134 -71v-125
c101 0 196 -67 235 -168c12 -31 17 -62 17 -94c0 -105 -64 -205 -168 -244zM492 340c-17 44 -71 68 -140 68c-25 0 -53 -4 -81 -10v-288c12 4 25 8 37 12c112 43 189 123 189 189c0 10 -2 20 -5 29zM25 162c17 -44 72 -68 141 -68c26 0 53 4 81 10v288
c-12 -3 -25 -8 -38 -12c-112 -44 -189 -123 -189 -189c0 -10 2 -20 5 -29z" />
    <glyph glyph-name="uni0433" unicode="&#x433;" horiz-adv-x="456" 
d="M0 500h421v-169h-1s-8 153 -186 153c-11 0 -22 -1 -31 -8s-12 -18 -12 -29v-401c0 -29 10 -32 52 -46h-243c42 14 52 17 52 46v395c0 38 -6 45 -52 59z" />
    <glyph glyph-name="uni0438" unicode="&#x438;" horiz-adv-x="481" 
d="M432 505v-152v-37v-66v-14v-14v-153v-1v-68h-158c40 5 134 5 134 71v151v8v15v63v20c-72 -61 -289 -247 -408 -349v26v118v36v66v15v14v153v1v68h158c-40 0 -134 -5 -134 -71v-221c138 115 271 226 408 341v-20z" />
    <glyph glyph-name="uni0439" unicode="&#x439;" horiz-adv-x="466" 
d="M84 560c-3 -3 -6 -5 -9 -7c-7 -6 -13 -11 -20 -16c3 8 7 16 11 23s9 15 15 22c12 13 28 24 45 31c18 6 37 8 56 8s38 -9 55 -19l10 -6c3 -2 6 -3 9 -5c3 -1 6 -3 10 -4l9 -3c14 -4 28 -4 42 -4s29 5 43 11c13 7 27 17 42 25c-4 -7 -9 -14 -14 -21c-4 -7 -10 -14 -17 -20
c-13 -13 -30 -22 -48 -27c-11 -3 -23 -5 -35 -5c-7 0 -14 1 -21 2c-5 1 -10 3 -14 4c-5 1 -9 3 -14 5c-4 2 -9 4 -13 6l-11 7c-17 10 -37 16 -58 16c-7 0 -14 0 -22 -2c-14 -2 -28 -7 -41 -15c-3 -2 -7 -4 -10 -6zM432 505v-152v-37v-66v-14v-14v-153v-1v-68h-158
c40 5 134 5 134 71v151v8v15v63v20c-72 -61 -289 -247 -408 -349v26v118v36v66v15v14v153v1v68h158c-40 0 -134 -5 -134 -71v-221c138 115 271 226 408 341v-20z" />
    <glyph glyph-name="uni043A" unicode="&#x43a;" horiz-adv-x="565" 
d="M529 3v-4h-158c-19 0 -27 5 -34 22c-22 55 -45 110 -69 164c-9 21 -19 42 -33 58c-12 14 -30 27 -30 27h-24v-23v-176c0 -49 11 -61 60 -67c7 -1 14 -1 21 -5h-262c45 7 48 39 48 76v360c0 45 -4 51 -48 65h181v-221h30c39 0 76 2 110 21c41 24 67 67 67 111
c0 11 -2 22 -5 33c-7 20 -23 38 -35 56h128c7 0 15 -8 20 -14c13 -17 20 -36 20 -56c0 -23 -10 -47 -29 -68c-40 -45 -95 -62 -151 -75c-20 -5 -42 -8 -63 -14c58 -11 91 -51 119 -97c25 -42 50 -84 76 -125c8 -13 17 -25 28 -35c10 -10 21 -13 33 -13z" />
    <glyph glyph-name="uni043B" unicode="&#x43b;" horiz-adv-x="623" 
d="M547 46c2 -29 10 -32 52 -46h-116h-11h-116c42 14 51 17 52 46v385c0 29 -1 45 -25 45h-181c0 -26 1 -29 1 -56c1 -41 1 -83 1 -124l-1 -7c-1 -66 -1 -135 -24 -197c-1 -3 -2 -5 -2 -7c-3 -6 -5 -11 -8 -17c-2 -5 -5 -10 -8 -15c-2 -4 -5 -8 -8 -12s-6 -8 -9 -11
c-4 -4 -7 -7 -11 -9c-3 -3 -7 -6 -10 -8c-1 0 -3 -1 -4 -1c-6 -4 -12 -6 -19 -7c-3 -1 -6 -1 -8 -1c-7 -1 -14 0 -21 2c-4 2 -8 3 -12 6c-6 3 -12 6 -17 11c-4 2 -8 5 -12 8c-3 3 -6 6 -10 9c-2 3 -5 6 -8 9c-2 2 -4 4 -6 7c-2 1 -3 3 -5 4c0 1 -1 1 -1 2c1 0 3 0 4 -1
c4 0 8 -1 12 -1c6 -1 12 -1 18 -2h21c9 0 17 0 25 1c9 1 17 2 26 4c8 2 16 4 24 7s16 7 23 12c0 0 1 1 2 1c8 6 16 13 20 23c3 6 4 12 6 18c3 13 5 27 7 40c2 14 4 28 5 42s1 28 2 41c0 14 1 28 1 42v7c0 41 0 83 -1 124c0 20 0 17 -1 38c-2 19 -16 34 -49 42
c37 0 367 -2 367 -2h87c-40 -9 -52 -18 -52 -67v-385z" />
    <glyph glyph-name="uni043C" unicode="&#x43c;" horiz-adv-x="731" 
d="M642 39c3 -17 15 -26 32 -31c9 -3 18 -3 27 -8h-59h-195c59 14 61 15 61 76v66v311l-158 -260l-157 260v-311v-66c0 -61 2 -62 61 -76h-195h-59c9 5 18 6 27 8c17 5 29 14 32 31v7v408c0 22 -13 33 -32 38c-9 3 -18 3 -27 8h165h28l157 -260l158 260h28h165
c-9 -5 -18 -5 -27 -8c-19 -5 -32 -16 -32 -38v-408v-7z" />
    <glyph glyph-name="uni043D" unicode="&#x43d;" horiz-adv-x="646" 
d="M382.898 0.0878906c41.3584 13.458 49.5332 16.1494 51.1523 45.123l0.0527344 272.885h-246.382l0.366211 -272.885c1.6123 -28.9736 9.78711 -31.665 51.1455 -45.123h-111.559h-127.441c41.3584 13.458 49.5332 16.1494 51.1455 45.123l0.0800781 402.525
c-0.666016 37.6016 -6.15625 39.4072 -51.459 54.1504h239.008c-45.3037 -14.7432 -50.793 -16.5488 -51.46 -54.1504l0.140625 -105.443h246.415l0.0205078 105.443c-0.666016 37.6016 -6.15625 39.4072 -51.459 54.1504h239.007
c-45.3027 -14.7432 -50.792 -16.5488 -51.459 -54.1504l0.546875 -402.525c1.6123 -28.9736 9.78613 -31.665 51.1455 -45.123h-239.007z" />
    <glyph glyph-name="uni043E" unicode="&#x43e;" horiz-adv-x="545" 
d="M132 476c41 23 85 34 128 34c91 0 179 -48 227 -132c23 -41 34 -85 34 -129c0 -90 -47 -178 -132 -226c-41 -23 -85 -34 -128 -34c-91 0 -179 48 -227 132c-23 41 -34 85 -34 128c0 91 48 179 132 227zM384 33c35 20 51 57 51 102c0 53 -21 117 -57 181
c-55 96 -128 163 -194 163c-16 0 -32 -4 -47 -13c-35 -20 -51 -56 -51 -102c0 -52 21 -117 58 -181c55 -96 127 -163 193 -163c16 0 32 4 47 13z" />
    <glyph glyph-name="uni043F" unicode="&#x43f;" horiz-adv-x="641" 
d="M566.28 44.9951c1.59863 -28.7344 9.70703 -31.4053 50.7197 -44.75h-113.024h-10.9668h-113.024c41.0059 13.3447 49.1211 16.0156 50.7197 44.75l-3.84375 397.662c-0.160156 16.7148 -13.7578 30.1865 -30.4805 30.1865h-175.696
c-16.7285 0 -30.333 -13.4912 -30.4795 -30.2197l-3.41797 -397.629c1.60645 -28.7344 9.70703 -31.3984 50.7197 -44.75h-113.024h-10.9727h-113.024c41.0127 13.3447 49.1201 16.0156 50.7197 44.75l0.0791016 399.188
c-0.666016 37.2949 -6.1084 39.0801 -51.0322 53.7041h616.522c-44.9238 -14.624 -50.3662 -16.4092 -51.0332 -53.7041z" />
    <glyph glyph-name="uni044F" unicode="&#x44f;" 
d="M273 229c-13 -15 -22 -35 -30 -53c-23 -51 -44 -102 -65 -153c-6 -16 -14 -23 -31 -23h-147v6c11 0 22 4 31 13c10 9 18 20 26 32c24 38 47 77 70 116c27 43 57 85 111 95h85v115c-1 -3 -2 -6 -3 -8c-10 -29 -26 -54 -46 -73c-34 -33 -69 -40 -72 -41h-113
c1 5 63 131 92 193c9 17 24 37 42 45c12 6 50 7 77 7h27h164c-41 -13 -44 -19 -44 -61c0 -111 -1 -254 -1 -366c0 -34 4 -66 45 -73h-243c6 4 13 4 19 5c46 5 56 19 56 64v164v22s-29 -1 -50 -26zM267 304c30 29 49 72 56 124v63c-38 -22 -104 -149 -119 -224
c10 2 37 12 63 37z" />
    <glyph glyph-name="uni0440" unicode="&#x440;" horiz-adv-x="613" 
d="M581 370c6 -24 8 -48 8 -71c0 -151 -110 -288 -265 -310c-7 -1 -14 -1 -21 -1c-32 0 -66 7 -107 7v-172c0 -30 10 -33 53 -47h-118h-12h-119c43 14 54 17 54 47v199v402c0 53 -5 60 -54 76h202v-207h3c9 25 16 51 26 75c26 61 62 111 129 132c20 6 40 10 59 10
c77 0 142 -52 162 -140zM397 98c24 49 35 97 35 147c0 23 -2 45 -6 69c-5 28 -15 56 -30 80c-16 24 -39 37 -64 37c-18 0 -36 -7 -52 -21c-20 -18 -37 -42 -49 -66c-27 -58 -29 -121 -29 -175v-20c0 -43 1 -63 1 -93c0 -9 5 -20 11 -26c20 -18 43 -27 67 -27
c19 0 39 6 56 20c24 20 46 47 60 75z" />
    <glyph glyph-name="uni0441" unicode="&#x441;" horiz-adv-x="568" 
d="M509 337c10 -29 14 -58 14 -87c0 -138 -108 -261 -281 -261c-54 0 -105 19 -150 51c-60 43 -92 111 -92 185c0 29 5 60 15 90c22 66 62 118 125 150c49 31 105 46 158 46c60 0 117 -20 158 -58c8 -8 12 -15 12 -25c0 -4 -1 -8 -2 -12c-13 -48 -23 -96 -39 -145
c-2 6 -5 12 -7 18c-15 52 -39 99 -78 137c-38 36 -79 55 -123 55c-25 0 -51 -6 -78 -18c-40 -33 -51 -74 -51 -117c0 -23 3 -46 7 -70c20 -109 113 -182 218 -182c20 0 40 2 61 8c87 24 135 109 135 200c0 12 -2 24 -2 35z" />
    <glyph glyph-name="uni0442" unicode="&#x442;" horiz-adv-x="783" 
d="M693 36c3 -17 15 -26 32 -30c9 -3 18 -1 27 -6h-59h-190c50 15 55 21 55 71v59v316c0 21 -17 38 -38 38h-45c-21 0 -38 -17 -38 -38v-457c-66 0 -119 -19 -188 -19c7 5 11 8 15 11c33 23 51 55 51 95v370c0 21 -16 38 -37 38h-46c-20 0 -37 -17 -37 -38v-254
c0 -39 -1 -77 -1 -118c0 -61 1 -60 61 -74h-196h-59c9 5 18 3 27 6c17 5 29 14 32 32v6v410c0 22 -13 33 -32 38c-9 3 -18 3 -27 8h691h1h60c-9 -5 -18 -5 -27 -8c-19 -5 -33 -16 -33 -38v-26s1 -322 1 -363v-1v-28z" />
    <glyph glyph-name="uni0436" unicode="&#x436;" horiz-adv-x="728" 
d="M671 18c10 -9 21 -13 33 -13v-5h-157c-19 0 -28 6 -34 23c-22 55 -45 110 -69 164c-9 20 -19 41 -33 58c-11 13 -30 26 -30 26h-23v-23v-177c0 -66 93 -66 132 -71h-137h-1h-138c40 5 132 5 132 71v177v23h-24s-18 -13 -29 -26c-14 -17 -24 -38 -33 -58
c-24 -54 -47 -109 -69 -164c-7 -17 -15 -23 -34 -23h-157v5c12 0 23 4 33 13c11 10 20 23 28 35c26 41 51 83 76 124c28 47 61 87 118 98c-21 5 -42 8 -63 13c-55 13 -110 30 -150 74c-18 21 -28 45 -28 68c0 20 7 39 20 56c4 6 12 14 19 14h127c-11 -18 -27 -36 -34 -56
c-3 -11 -5 -22 -5 -33c0 -43 25 -86 66 -110c34 -19 71 -21 109 -21h30v151c0 64 -93 64 -132 69h138h1h137c-39 -5 -132 -5 -132 -71v-149h30c38 0 75 2 109 21c40 24 66 67 66 110c0 11 -1 22 -5 33c-7 20 -22 38 -34 56h127c7 0 15 -8 19 -14c14 -17 21 -36 21 -56
c0 -24 -10 -47 -29 -68c-40 -44 -94 -61 -150 -74c-21 -5 -42 -8 -63 -13c57 -11 90 -51 118 -98c26 -41 51 -83 76 -124c8 -12 17 -25 28 -35z" />
    <glyph glyph-name="uni0432" unicode="&#x432;" horiz-adv-x="578" 
d="M486 249c38 -22 62 -66 62 -110c0 -6 -1 -13 -2 -19c-8 -47 -44 -84 -88 -102c-32 -12 -66 -17 -101 -17h-357c27 8 53 31 53 54v281v103c0 47 -4 51 -53 66h189v-20v-145c1 4 2 8 2 11c4 17 12 34 21 49c1 3 3 6 5 9c18 28 43 51 72 68c32 19 68 31 105 31
c16 0 33 -3 49 -8c30 -10 55 -35 62 -67c1 -6 2 -13 2 -19c0 -37 -24 -70 -55 -91c-32 -22 -69 -34 -106 -45c-15 -4 -32 -11 -48 -11c54 0 108 -2 115 -2c25 0 51 -3 73 -16zM189 329c0 -32 1 -23 1 -62h49c16 2 32 4 49 8c2 1 5 2 7 2c33 10 60 35 69 69c2 8 3 16 3 24
c0 16 -4 32 -15 45c-13 15 -31 23 -49 23c-3 0 -6 -1 -9 -1c-8 0 -15 -3 -21 -6c-13 -6 -24 -15 -34 -24c-16 -15 -30 -33 -39 -53c-3 -5 -5 -10 -7 -16c-1 -2 -3 -5 -4 -9zM401 119c2 8 3 17 3 26c0 16 -3 31 -10 45c-25 49 -75 59 -125 59h-60h-19c0 -93 2 -110 2 -152
c0 -17 6 -35 20 -46c7 -5 15 -8 22 -11c13 -4 28 -6 42 -6c55 0 112 30 125 85z" />
    <glyph glyph-name="uni044C" unicode="&#x44c;" 
d="M460 208c29 -18 50 -48 50 -83c0 -4 0 -9 -1 -13l-3 -12c-14 -45 -60 -71 -103 -84c-50 -16 -105 -16 -157 -16h-97h-102h-47l3 3c23 9 28 27 28 49v292v64v41c0 20 -3 45 -31 51h168v-26v-48v-145v-41v-99v-73c0 -17 2 -35 17 -46s37 -12 55 -12c26 0 52 4 75 19
c26 18 44 48 44 79c0 11 -2 22 -8 33s-14 20 -25 26c-9 5 -19 7 -30 7h-6c-21 0 -42 -12 -60 -22c-19 -11 -28 -27 -41 -45c-5 -8 -13 -18 -16 -27c10 37 26 69 56 94s67 42 105 50c15 3 30 5 46 5c12 0 24 -1 36 -4c15 -3 31 -9 44 -17z" />
    <glyph glyph-name="uni044B" unicode="&#x44b;" horiz-adv-x="762" 
d="M460 208c29 -18 50 -48 50 -83c0 -4 0 -9 -1 -13l-3 -12c-14 -45 -60 -71 -103 -84c-50 -16 -105 -16 -157 -16h-97h-102h-47l3 3c23 9 28 27 28 49v292v64v41c0 20 -3 45 -31 51h168v-26v-48v-145v-41v-99v-73c0 -17 2 -35 17 -46s37 -12 55 -12c26 0 52 4 75 19
c26 18 44 48 44 79c0 11 -2 22 -8 33s-14 20 -25 26c-9 5 -19 7 -30 7h-6c-21 0 -42 -12 -60 -22c-19 -11 -28 -27 -41 -45c-5 -8 -13 -18 -16 -27c10 37 26 69 56 94s67 42 105 50c15 3 30 5 46 5c12 0 24 -1 36 -4c15 -3 31 -9 44 -17zM548 448c0 36 -6 38 -50 52h230
c-44 -14 -50 -16 -50 -52v-403c0 -28 10 -32 50 -45h-109h-11h-110c40 13 50 17 50 45v403zM401 14z" />
    <glyph glyph-name="uni0437" unicode="&#x437;" horiz-adv-x="408" 
d="M345 195c17 -16 30 -36 30 -59c0 -19 -2 -39 -11 -56c-22 -41 -68 -63 -113 -72c-21 -5 -44 -8 -66 -8h-81h-39h-64v8v91l6 -31c7 -32 33 -58 66 -58l18 -2c30 0 56 1 61 2c16 2 31 8 43 17c35 25 47 72 47 113c0 43 -36 75 -76 88c-1 0 -2 0 -3 1c-33 10 -68 15 -103 15
h-59v7h17h43c18 0 36 0 54 2c17 3 34 8 51 13c16 6 33 14 46 26c12 12 21 27 26 43c3 10 4 21 4 31c0 18 -4 35 -11 51c-20 38 -59 69 -103 69c-9 0 -19 -1 -28 -4c-8 -3 -15 -9 -20 -16c-15 -19 -12 -42 -17 -65c-2 -11 -7 -22 -17 -29c-5 -4 -12 -7 -18 -8
c-3 -1 -27 -4 -27 -3v139h185c50 0 104 -17 146 -49c30 -22 44 -52 44 -82c0 -35 -19 -69 -57 -89c-18 -9 -37 -16 -56 -20c-22 -6 -46 -9 -67 -12v-1c21 -4 45 -7 67 -12c19 -5 38 -12 56 -21c9 -5 18 -12 26 -19z" />
    <glyph glyph-name="uni0448" unicode="&#x448;" horiz-adv-x="785" 
d="M59 462c-3 17 -16 25 -32 30c-9 2 -18 3 -27 8h59h188c-49 -16 -54 -23 -54 -73v-58v-315c0 -21 17 -38 37 -38h45c21 0 38 17 38 38v457c66 0 119 16 187 16c-6 0 -8 -7 -15 -11c-36 -19 -50 -54 -50 -94c0 -12 -1 -368 -1 -368c0 -21 17 -38 38 -38h45
c21 0 37 17 37 38v253v117c0 61 -1 62 -60 76h196h58c-9 -5 -18 -6 -26 -8c-17 -5 -30 -14 -33 -31v-7v-408c0 -22 13 -33 33 -38c8 -3 17 -3 26 -8h-689h-59c9 5 18 5 27 8c19 5 32 16 32 38v26v361v2v27z" />
    <glyph glyph-name="uni044D" unicode="&#x44d;" horiz-adv-x="470" 
d="M439 330c5 -20 7 -40 7 -59c0 -34 -7 -67 -18 -100c-43 -123 -144 -183 -247 -183c-64 0 -129 23 -181 68c11 -4 21 -10 32 -15c29 -16 60 -24 91 -24c57 0 112 25 148 72c37 47 55 105 55 162c-50 -71 -128 -112 -202 -112c-18 0 -35 2 -52 7c-14 4 -21 11 -25 26
c-10 46 -23 91 -31 139c5 -4 9 -9 14 -13c35 -36 76 -65 126 -79c19 -6 38 -9 56 -9c43 0 81 17 114 51c-2 67 -33 132 -92 171c-36 23 -78 38 -123 38c-28 0 -58 -7 -86 -22l-1 3c48 41 104 59 165 59c8 0 16 0 24 -1c114 -8 203 -78 226 -179z" />
    <glyph glyph-name="uni0449" unicode="&#x449;" horiz-adv-x="791" 
d="M689 46v-1c0 -40 69 -43 69 -43v-139s-45 114 -130 134c-6 2 -23 2 -24 3h-2h-10c-30 0 -42 1 -3 1h-529h-1h-59c9 4 18 5 27 7c19 5 32 16 32 38v26v361v2v27c-3 17 -16 26 -32 30c-9 3 -18 3 -27 8h59h188c-49 -15 -54 -23 -54 -72v-59v-315c0 -20 16 -37 37 -37h45
c21 0 38 17 38 37v457c66 6 119 11 187 16c-7 -4 -11 -7 -15 -10c-33 -23 -50 -55 -50 -95c0 -12 -1 -368 -1 -368c0 -20 17 -37 38 -37h45c20 0 37 17 37 37v253c1 38 1 77 1 117c0 61 -1 63 -61 76h195h59c-9 -5 -18 -5 -27 -8c-17 -4 -29 -13 -32 -31v-7
c0 -91 1 -181 1 -272c0 -45 0 -91 -1 -136z" />
    <glyph glyph-name="uni0447" unicode="&#x447;" horiz-adv-x="532" 
d="M17 486c4 5 9 9 15 12c6 2 13 2 19 2h113c-14 -19 -28 -38 -35 -60c-3 -10 -4 -20 -4 -30c0 -24 8 -48 22 -69c30 -42 82 -61 132 -63h27c13 0 25 0 25 1v220h180c-43 -14 -47 -19 -47 -64v-239v-120v-9c0 -33 7 -61 48 -67h-262c29 5 81 23 81 72v169v24
c0 -1 -4 -1 -10 -1c-17 0 -53 2 -57 2c-27 1 -54 3 -80 10c-21 4 -41 11 -60 19c-24 12 -48 26 -69 42c-17 13 -33 30 -43 49c-8 15 -12 31 -12 48s5 35 15 49c0 1 1 2 2 3z" />
    <glyph glyph-name="uni044A" unicode="&#x44a;" horiz-adv-x="623" 
d="M598 140c1 -4 1 -8 1 -12c0 -31 -16 -59 -39 -78c-2 -2 -4 -3 -6 -4c-35 -28 -83 -38 -127 -43c-27 -3 -54 -3 -81 -3h-65h-145h-47c0 1 2 3 2 3c23 9 29 27 29 50v435h-18c-15 0 -36 0 -46 -4c-26 -8 -42 -31 -48 -57l-8 -30v91v12h254v-432c0 -17 5 -35 20 -46
s37 -12 55 -12c25 0 51 5 73 19c27 17 45 47 45 79c0 10 -2 20 -6 29c-12 26 -36 37 -62 37c-13 0 -27 -3 -39 -9c-26 -12 -47 -34 -68 -55c33 70 109 119 186 119c27 0 56 -3 80 -15c30 -14 54 -41 60 -74z" />
    <glyph glyph-name="uni042E" unicode="&#x42e;" horiz-adv-x="1181" 
d="M1091 589c36 -63 53 -131 53 -198c0 -140 -73 -275 -203 -349c-63 -36 -131 -53 -199 -53c-139 0 -275 73 -349 203c-35 63 -53 131 -53 198c0 19 1 37 4 55h-66v-379c0 -43 14 -46 76 -66h-169h-16h-169c61 20 76 23 76 66v635c0 55 -9 58 -76 80h168h17h168
c-67 -22 -76 -25 -76 -80v-231h71c22 110 90 210 195 270c63 35 131 52 198 52c140 0 276 -73 350 -203zM932 56c54 31 79 88 79 158c0 81 -33 180 -89 279c-84 149 -197 251 -299 251c-25 0 -49 -6 -72 -19c-54 -31 -78 -88 -78 -158c0 -81 32 -180 88 -279
c85 -149 198 -251 299 -251c25 0 49 6 72 19z" />
    <glyph glyph-name="uni0410" unicode="&#x410;" horiz-adv-x="760" 
d="M698 28c5 -15 12 -20 21 -20h4v-8h-237h-18l3 7c20 6 37 22 39 35c0 3 1 6 1 8c0 15 -6 29 -11 42c-22 55 -100 242 -121 290l-4 10c0 -122 -23 -240 -92 -318c-39 -44 -86 -70 -129 -70h-154c2 7 127 256 167 340c11 23 32 50 56 62c14 6 55 8 89 8c30 0 55 -1 55 -2
c-2 9 -99 263 -100 264c-22 54 -61 88 -120 94c-4 0 -16 11 -16 11h249c7 0 22 -19 26 -28c66 -158 285 -702 292 -725zM272 84c60 66 80 142 90 262c0 5 1 9 1 14c0 15 -2 27 -4 42c-53 -34 -182 -278 -202 -380v-3c38 0 79 26 115 65zM723 0z" />
    <glyph glyph-name="uni0411" unicode="&#x411;" horiz-adv-x="679" 
d="M642 248v-57v-16c0 -18 -1 -36 -6 -54c-14 -47 -53 -83 -98 -101c-38 -15 -78 -20 -118 -20h-420c32 10 62 36 62 64v518v121c0 55 -4 60 -62 78h221h358v-169s-14 143 -82 143h-276c0 -185 2 -292 2 -369c18 0 247 -2 262 -2c30 0 60 -4 86 -20c41 -24 71 -70 71 -116z
M471 138c3 14 3 101 3 115c0 15 -5 29 -12 42c-29 58 -88 69 -146 69h-71h-22c0 -109 3 -202 3 -251c0 -20 7 -41 23 -54c8 -6 17 -10 26 -13c16 -5 32 -7 49 -7c65 0 131 34 147 99z" />
    <glyph glyph-name="uni0426" unicode="&#x426;" horiz-adv-x="784" 
d="M685.208 65.1494c0.805664 -45.1631 7.40137 -47.3281 61.792 -65.0293v-0.0400391v-169.027s-39.8799 157.701 -157.694 169.067h-588.881c54.4033 17.7012 60.9922 19.8662 61.7988 65.0293l-0.65332 661.173c-1.93848 34.7969 -11.7588 38.0283 -61.4189 54.1904
h136.869h13.2773h136.869c-49.6602 -16.1621 -59.4805 -19.3936 -61.4189 -54.1904l4.65625 -673.971c0.193359 -20.2461 16.6621 -36.5557 36.9092 -36.5557h212.765c20.2598 0 36.7354 16.3359 36.9082 36.5957l4.1377 673.931
c-1.94531 34.7969 -11.7588 38.0283 -61.4189 54.1904h136.862h13.2842h136.869c-49.667 -16.1621 -59.4805 -19.3936 -61.4199 -54.1904z" />
    <glyph glyph-name="uni0414" unicode="&#x414;" horiz-adv-x="720" 
d="M618 56c0 -36 14 -50 65 -56h-3v-242c-4 4 -6 7 -7 11c-25 120 -107 195 -220 208c-4 1 -7 1 -11 1c-7 0 -14 -1 -21 -1h-160c-16 0 -33 -1 -49 -4c-105 -18 -181 -89 -205 -204c-1 -4 -2 -7 -7 -11v219v23h25c39 4 70 36 91 95c26 74 29 155 29 234v9v328v63
c0 32 -24 37 -70 52h60h16h531c-56 -19 -64 -25 -64 -78v-647zM449 341v362c0 34 0 55 -28 55h-253c0 -33 1 -57 1 -90v-2v-329v-8c0 -81 -2 -165 -30 -242c-14 -40 -32 -69 -54 -87h224h127h13v341z" />
    <glyph glyph-name="uni0415" unicode="&#x415;" 
d="M395 755h-176v-228h256v-166s-13 152 -80 152h-176v-9v-29v-388v-7v-54h176c67 0 80 141 80 141v-167h-256h-2h-217c54 9 58 47 58 92v611c0 54 -5 61 -58 78h219h256v-167s-13 141 -80 141z" />
    <glyph glyph-name="uni0424" unicode="&#x424;" horiz-adv-x="746" 
d="M694 500c16 -36 23 -75 23 -112c0 -124 -87 -242 -230 -289c-39 -13 -78 -20 -117 -20v-5c0 -79 111 -79 159 -85h-166h-1h-179c47 6 158 7 158 85v5c-138 0 -265 80 -317 198c-16 36 -24 74 -24 111c0 124 88 242 231 288c36 13 73 21 110 21v11c0 77 -111 77 -158 83
h179h2h165c-48 -6 -159 -6 -159 -85v-9c140 0 271 -77 324 -197zM35 284c22 -51 96 -79 191 -79c36 0 75 4 115 12v340c-18 -4 -36 -9 -55 -16c-153 -50 -258 -144 -258 -223c0 -11 2 -23 7 -34zM370 223c17 4 34 9 51 15c154 51 259 144 259 223c0 12 -2 23 -7 34
c-23 51 -97 79 -193 79c-34 0 -71 -4 -110 -11v-340z" />
    <glyph glyph-name="uni0413" unicode="&#x413;" horiz-adv-x="534" 
d="M0 781c46 0 497 -1 497 -1v-197h-2s-10 181 -214 181h-5c-13 0 -27 -1 -36 -9c-11 -9 -14 -22 -15 -35v-665c2 -34 12 -38 61 -54h-286c50 16 59 20 61 54l1 657c-1 45 -8 51 -62 69z" />
    <glyph glyph-name="uni0418" unicode="&#x418;" horiz-adv-x="563" 
d="M525.927 756.109l0.0732422 0.212891v-184.577v-44.7432v-80.3535v-18.0674v-16.749c-0.0595703 0 -0.113281 0 -0.172852 -0.00683594v-323.564c0.0263672 -0.413086 0.146484 -0.751953 0.172852 -1.15918v-83.1572h-191.832
c48.3213 5.71582 160.233 6.23535 162.552 86.5088h0.0195312v321.372l-0.172852 10.2402v17.8613v77.1221v24.457l-496.476 -562.032s0.00683594 22.0322 0.00683594 31.1592h-0.0136719v143.265v44.7432v276.749v18.0684v16.7549
c0.0595703 0 0.113281 0 0.172852 0.00683594v186.242c-0.0263672 0.413086 -0.146484 0.75293 -0.172852 1.16016v83.1572h191.832c-48.3213 -5.71582 -160.233 -6.23535 -162.552 -86.502l-0.0195312 -196.396l0.199219 -269.308l496.383 552.205v-24.6699z" />
    <glyph glyph-name="uni0425" unicode="&#x425;" horiz-adv-x="852" 
d="M757 58l58 -58h-196c23 0 119 2 119 28c0 5 -3 10 -10 16l-283 280l-359 -302v213c67 56 158 131 253 210l-272 269l-10 9l-57 58h196c-23 0 -120 -2 -120 -28c0 -4 3 -9 10 -15l276 -274c133 110 271 225 364 302v-206l-257 -217l279 -276z" />
    <glyph glyph-name="uni0419" unicode="&#x419;" horiz-adv-x="518" 
d="M69 709c3 8 7 16 12 24c4 8 9 16 16 23c12 15 29 26 47 33c19 7 39 8 60 8c20 0 40 -6 57 -16l11 -8c3 -2 6 -5 9 -7c4 -2 7 -3 10 -4c4 -1 7 -3 11 -4c14 -4 29 -4 44 -4s30 5 45 12c14 7 28 18 44 27c-4 -8 -9 -16 -14 -23s-11 -15 -18 -22c-14 -13 -32 -22 -51 -28
c-11 -3 -22 -4 -34 -4c-8 0 -17 0 -25 2c-5 0 -10 2 -15 3l-15 6c-4 2 -9 4 -13 7l-12 6c-18 12 -40 18 -63 18c-7 0 -14 -1 -21 -2c-15 -3 -30 -8 -44 -16c-3 -3 -7 -4 -10 -7s-7 -5 -10 -8c-7 -5 -14 -11 -21 -16zM473 676v-164v-40v-72v-17v-15v-291v-1v-75h-173
c44 6 146 6 146 78v289v9v16v70v22l-446 -506v28v129v40v249v17v15v167v1v75h172c-43 -5 -146 -6 -146 -78v-176v-243l447 497v-24z" />
    <glyph glyph-name="uni041A" unicode="&#x41a;" horiz-adv-x="789" 
d="M712 23c12 -12 26 -16 40 -16v-7h-190c-23 0 -41 6 -41 28c-4 22 -8 44 -13 66c-13 57 -28 113 -54 166c-4 8 -8 16 -13 24c-11 18 -22 40 -34 57c-18 25 -91 102 -113 126c-14 16 -47 36 -47 36h-29v-27v-387c0 -59 13 -73 72 -80c8 -1 17 -2 26 -6h-316
c54 8 58 46 58 91v609c0 54 -5 61 -58 78h218v-267c16 0 31 -1 46 -1c43 0 84 5 122 27c49 29 80 80 80 133c0 13 -2 27 -6 40c-8 24 -27 46 -41 68h75h79c8 0 17 -10 23 -17c16 -21 24 -44 24 -68c0 -29 -12 -57 -34 -82c-49 -54 -115 -74 -182 -90c-25 -6 -50 -10 -76 -16
h3c9 0 25 -5 33 -8c14 -6 27 -16 40 -24c45 -27 86 -62 123 -99c35 -35 64 -76 85 -121c29 -62 30 -133 67 -191c9 -15 20 -30 33 -42z" />
    <glyph glyph-name="uni041B" unicode="&#x41b;" horiz-adv-x="740" 
d="M641 54c0 -34 13 -38 62 -54h-136h-13h-136c49 16 61 19 61 54v646c0 33 -2 53 -29 53h-213c0 -32 1 -35 1 -66c0 -48 1 -292 1 -340v-9c0 -77 -3 -157 -29 -231c-1 -2 -2 -5 -3 -8c-2 -6 -5 -13 -8 -19s-6 -12 -10 -18c-3 -5 -6 -10 -10 -15c-3 -4 -7 -9 -11 -13
c-3 -3 -7 -7 -12 -10l-12 -9c-1 0 -3 -1 -4 -2c-7 -3 -15 -8 -23 -9c-3 -1 -6 0 -9 0c-8 -1 -17 1 -24 3l-15 6c-7 4 -14 8 -20 13c-5 3 -9 7 -13 11c-4 3 -8 7 -12 10l-10 10c-2 2 -5 5 -7 8c-2 2 -6 4 -7 5s0 2 0 3c2 -1 3 -1 5 -1c4 -1 9 -1 14 -2c7 -1 13 -1 20 -2h26
c10 0 19 1 29 1s20 3 30 5s19 5 29 8c9 4 18 8 26 14c1 1 2 1 2 2c11 7 20 15 24 26c3 7 5 14 7 21c4 16 7 32 9 48s5 32 5 48s4 33 4 49v49v8v340v44c-3 23 -21 40 -60 50h431h102c-47 -11 -62 -24 -62 -81v-646z" />
    <glyph glyph-name="uni041C" unicode="&#x41c;" horiz-adv-x="1153" 
d="M62 729c0 34 -11 37 -59 52h276c-51 -16 -59 -22 -59 -62v-166c8 19 15 34 23 50l3 6c31 63 76 126 140 157c21 10 44 15 66 15c52 0 103 -25 136 -65c25 -32 40 -71 47 -111c1 -8 3 -17 4 -25s0 -15 0 -23c7 17 15 31 22 46l3 6c31 63 76 126 140 157c21 10 44 15 66 15
c51 0 102 -25 135 -65c25 -32 40 -71 47 -111c2 -8 5 -17 5 -25v-35v-484v-6c0 -34 11 -37 59 -52c-12 0 -33 -2 -59 -2h-163h-59c48 15 59 20 59 54v6v482c0 70 -26 136 -77 149c-7 2 -15 3 -23 3c-14 0 -29 -4 -42 -11c-33 -16 -57 -49 -75 -81c-17 -28 -29 -59 -38 -91
v-470c5 -21 18 -28 58 -41h-1h-275c36 12 50 17 56 33v509c0 70 -26 136 -77 149c-7 2 -15 3 -23 3c-14 0 -29 -4 -43 -11c-33 -16 -56 -49 -74 -81c-18 -30 -31 -64 -40 -98v-441c0 -40 8 -46 59 -63h-276c48 16 59 19 59 52v5v2v476v187v1v5z" />
    <glyph glyph-name="uni041D" unicode="&#x41d;" horiz-adv-x="781" 
d="M458.063 0.333008c49.4805 16.1094 59.2607 19.3203 61.1924 53.9844l0.0664062 491.532h-294.81l0.486328 -491.532c1.93848 -34.6641 11.7119 -37.8818 61.1924 -53.9844h-133.464h-152.472c49.4795 16.1025 59.2598 19.3203 61.1924 53.9844l0.0927734 661.672
c-0.798828 44.9902 -7.36816 47.1484 -61.5654 64.7832h285.937c-54.1973 -17.6348 -60.7734 -19.793 -61.5664 -64.7832l0.140625 -141.192h294.843l0.0205078 141.192c-0.799805 44.9902 -7.36914 47.1484 -61.5654 64.7832h285.936
c-54.1973 -17.6348 -60.7725 -19.793 -61.5654 -64.7832l0.652344 -661.672c1.93945 -34.6641 11.7129 -37.8818 61.1934 -53.9844h-285.937zM103.34 0.333008z" />
    <glyph glyph-name="uni041E" unicode="&#x41e;" horiz-adv-x="839" 
d="M203 740c62 35 130 52 197 52c140 0 275 -72 349 -202c36 -63 53 -131 53 -199c0 -139 -73 -275 -203 -348c-62 -36 -130 -53 -198 -53c-139 0 -275 73 -349 203c-35 62 -52 130 -52 197c0 140 73 276 203 350zM591 57c54 31 79 88 79 158c0 81 -33 180 -89 279
c-84 148 -196 250 -298 250c-25 0 -49 -6 -72 -19c-54 -31 -79 -87 -79 -157c0 -81 33 -180 89 -279c84 -149 197 -251 298 -251c25 0 49 6 72 19z" />
    <glyph glyph-name="uni041F" unicode="&#x41f;" horiz-adv-x="792" 
d="M692.915 55.123c1.96484 -35.1768 11.8916 -38.4473 62.085 -54.79h-138.374h-13.4248h-138.374c50.2061 16.3428 60.1396 19.6074 62.0986 54.79l-4.71094 658.035c-0.192383 20.4658 -16.8486 36.9551 -37.3145 36.9551h-215.104
c-20.4863 0 -37.1416 -16.5088 -37.3154 -36.9951l-4.18359 -657.995c1.97168 -35.1826 11.8916 -38.4473 62.0986 -54.79h-138.368h-13.4307h-138.374c50.2129 16.3428 60.1396 19.6074 62.0977 54.79l0.09375 659.907c-0.805664 45.6562 -7.47461 47.8477 -62.4717 65.749
h754.783c-55.0029 -17.9014 -61.665 -20.0928 -62.4785 -65.749z" />
    <glyph glyph-name="uni042F" unicode="&#x42f;" horiz-adv-x="692" 
d="M447 84v371v26s-35 -1 -62 -31c-16 -18 -27 -43 -37 -66c-28 -63 -102 -294 -127 -357c-8 -20 -17 -27 -39 -27h-182v6c14 0 27 4 39 15c12 12 22 26 31 40c30 48 106 264 135 312c32 53 70 99 137 112l105 6v140c-1 -4 -2 -7 -3 -11c-13 -36 -32 -66 -57 -90
c-43 -41 -86 -50 -89 -50l-141 -2c2 7 79 164 115 240c10 22 29 46 51 57c12 6 50 8 82 8c22 0 41 -1 47 -2h203c-50 -16 -55 -22 -55 -73v-428v-191c0 -42 4 -81 55 -89h-301c8 4 16 5 24 6c56 7 69 22 69 78zM378 540c37 37 61 89 69 154v77c-46 -26 -129 -183 -147 -277
c12 4 46 15 78 46z" />
    <glyph glyph-name="uni0420" unicode="&#x420;" horiz-adv-x="672" 
d="M626 640c6 -26 9 -51 9 -76c0 -162 -119 -310 -286 -332c-10 -1 -21 -2 -32 -2c-32 0 -66 5 -106 6v-185c2 -33 11 -36 57 -51h-127h-12h-127c46 15 55 18 57 51v214s-3 289 -3 433c0 57 -3 62 -56 78h218v-218c1 -1 2 -1 3 -1c9 27 16 55 28 81c27 66 67 122 138 144
c21 7 42 10 62 10c84 0 154 -57 177 -152zM427 347c26 52 38 103 38 157c0 25 -2 50 -7 76c-5 30 -16 60 -32 86c-17 26 -42 40 -69 40c-19 0 -39 -8 -56 -23c-22 -19 -40 -45 -52 -71c-27 -56 -32 -115 -32 -168c0 -15 1 -29 1 -42v-70v-30c1 -10 5 -22 12 -28
c21 -19 47 -29 72 -29c21 0 42 7 60 21c27 22 50 50 65 81z" />
    <glyph glyph-name="uni0421" unicode="&#x421;" horiz-adv-x="841" 
d="M782 524c15 -45 22 -90 22 -135c0 -208 -153 -399 -403 -399c-10 0 -20 0 -30 1c-83 4 -161 27 -229 76c-92 66 -142 170 -142 286c0 44 8 91 23 137c34 102 95 181 192 231c76 48 161 71 241 71c94 0 182 -31 245 -91c12 -12 18 -23 18 -37c0 -6 0 -12 -2 -18
c-20 -74 -36 -149 -61 -224c-3 10 -7 19 -10 29c-24 79 -60 151 -121 209c-58 56 -121 84 -190 84c-37 0 -76 -9 -117 -26c-62 -52 -81 -114 -81 -181c0 -35 5 -71 12 -107c31 -168 174 -280 335 -280c31 0 62 4 94 13c125 33 209 148 209 278c0 9 0 19 -1 29
c-2 18 -4 36 -4 54z" />
    <glyph glyph-name="uni0422" unicode="&#x422;" horiz-adv-x="971" 
d="M861 48c3 -21 19 -32 40 -38c10 -3 22 -3 33 -9h-73v-1h-236c62 20 68 29 68 91v73v550c0 26 -21 47 -46 47h-57c-26 0 -47 -21 -47 -47v-728c-82 -6 -148 -13 -233 -20c8 6 13 10 18 14c41 29 63 68 63 118c0 15 1 616 1 616c0 26 -21 47 -47 47h-56
c-26 0 -47 -21 -47 -47v-473c0 -47 -1 -96 -1 -146c0 -76 2 -78 76 -94h-244h-73c11 6 23 6 33 9c22 6 37 17 40 40c1 2 1 5 1 8v666c0 28 -17 41 -41 47c-11 3 -22 4 -33 10h859h1h74c-11 -6 -23 -7 -33 -10c-24 -6 -41 -19 -41 -47v-33s0 -556 1 -607v-2v-34z" />
    <glyph glyph-name="uni0412" unicode="&#x412;" horiz-adv-x="680" 
d="M643 317v-36c0 -30 0 -60 -1 -90v-31v-15c-2 -20 -9 -40 -20 -57c-19 -32 -50 -55 -83 -69c-38 -15 -79 -19 -119 -20c-23 0 -407 1 -420 1c32 10 62 35 63 63v110v219v121c-1 56 -4 261 -62 279h221v-26v-216l3 12c5 20 13 40 24 58c2 3 4 7 6 10c22 33 51 60 85 80
c37 22 79 35 122 35c19 0 39 -3 58 -9c36 -12 65 -41 73 -78c2 -8 3 -15 3 -22c0 -43 -29 -82 -64 -107c-38 -27 -81 -41 -125 -53c-16 -5 -34 -10 -51 -13c61 0 122 -1 129 -1c30 -2 61 -6 87 -22c43 -25 70 -73 71 -123zM223 537v-73h64c16 2 34 5 51 9c3 1 6 1 9 2
c39 12 70 41 81 81c2 9 4 19 4 28c0 19 -6 38 -19 53c-14 17 -36 27 -58 27c-3 0 -7 -1 -10 -1c-9 -1 -17 -3 -25 -7c-15 -7 -28 -18 -40 -29c-18 -17 -34 -39 -45 -62c-3 -6 -6 -12 -8 -18c-1 -3 -3 -7 -4 -10zM475 306c0 12 -1 24 -3 36c-5 32 -24 61 -52 77
c-31 18 -69 22 -104 23c-6 1 -49 1 -74 1h-18c0 -109 1 -282 2 -331c0 -20 7 -42 23 -54c8 -6 17 -10 26 -13c16 -5 32 -7 48 -7c15 0 29 2 43 5c44 10 89 39 103 84c4 12 4 24 4 37v25c0 18 0 36 1 54v32v17c0 4 1 9 1 14z" />
    <glyph glyph-name="uni042C" unicode="&#x42c;" horiz-adv-x="547" 
d="M460 208c29 -18 50 -48 50 -83c0 -4 0 -9 -1 -13l-3 -12c-14 -45 -60 -71 -103 -84c-50 -16 -105 -16 -157 -16h-97h-102h-47l3 3c23 9 28 27 28 49v292v344v41c0 20 -3 46 -31 52h168v-27v-48v-425v-41v-99v-73c0 -17 2 -35 17 -46s37 -12 55 -12c26 0 52 4 75 19
c26 18 44 48 44 79c0 11 -2 22 -8 33s-14 20 -25 26c-9 5 -19 7 -30 7h-6c-21 0 -42 -12 -60 -22c-19 -11 -28 -27 -41 -45c-5 -8 -13 -18 -16 -27c10 37 26 69 56 94s67 42 105 50c15 3 30 5 46 5c12 0 24 -1 36 -4c15 -3 31 -9 44 -17z" />
    <glyph glyph-name="uni042B" unicode="&#x42b;" horiz-adv-x="944" 
d="M681 716c-1 45 -8 47 -62 65h286c-54 -18 -60 -20 -61 -65v-661c2 -35 12 -38 62 -54h-137h-13h-137c50 16 60 19 62 54v661zM571 260c37 -22 61 -60 61 -102c0 -5 0 -11 -1 -16s-2 -10 -4 -15c-17 -57 -75 -88 -127 -105c-63 -20 -130 -20 -195 -20h-40h-81h-125h-59
c1 2 3 4 3 4c29 11 36 34 36 62v520v81v51c0 24 -4 54 -39 61h1h204v-30v-61c0 -59 0 -279 1 -338v-52c-1 -41 -1 -82 -1 -123c0 -30 0 -60 1 -90c0 -21 5 -44 23 -57c19 -14 46 -15 68 -15c33 1 65 5 93 24c33 21 55 58 55 97c0 14 -3 28 -10 42c-7 13 -18 24 -31 32
c-13 7 -29 9 -44 9c-26 -1 -54 -14 -75 -28c-23 -14 -43 -33 -59 -54c-7 -10 -17 -23 -20 -34c12 47 40 88 78 118c37 31 83 50 130 59c19 4 38 6 58 6c14 0 29 -1 43 -4c20 -4 39 -11 56 -22z" />
    <glyph glyph-name="uni0417" unicode="&#x417;" horiz-adv-x="497" 
d="M422 408c20 -19 34 -45 37 -72c1 -7 1 -14 1 -22v-21c0 -56 0 -113 -3 -169c-1 -16 -4 -31 -13 -44c-10 -14 -23 -25 -37 -34c-53 -34 -119 -41 -180 -44c-33 -2 -67 -2 -100 -2h-47h-79v10v111l8 -38c8 -39 40 -67 80 -71l23 -2c35 1 67 1 74 2c24 3 50 5 72 14
c17 7 27 23 32 40s7 35 9 53c2 25 3 50 3 75c0 17 0 35 -1 53c-1 31 -2 63 -6 94c-6 52 -43 91 -92 107c-1 0 -2 0 -3 1c-41 13 -83 19 -126 19h-73v8h21h53c22 0 44 0 65 3c22 4 42 9 63 16c20 7 41 17 56 32c15 14 26 33 32 52c4 13 6 26 6 39c0 21 -5 43 -15 61
c-24 46 -71 82 -125 85c-12 0 -24 -1 -35 -5c-10 -3 -18 -11 -24 -19c-19 -25 -14 -52 -21 -81c-3 -13 -9 -26 -20 -34c-7 -5 -15 -9 -23 -11c-2 0 -24 -3 -32 -3h-2l1 168c5 0 73 2 139 2c33 0 65 -1 88 -2c61 -3 127 -19 178 -57c36 -27 54 -65 54 -101
c0 -43 -24 -84 -70 -109c-21 -11 -44 -20 -68 -25c-28 -7 -56 -11 -82 -15v-1c26 -4 54 -9 82 -15c24 -5 47 -14 68 -25c12 -6 23 -14 32 -23z" />
    <glyph glyph-name="uni0428" unicode="&#x428;" horiz-adv-x="956" 
d="M72 733c-4 21 -19 31 -39 37c-11 3 -22 4 -33 9h72v1h232c-61 -19 -67 -28 -67 -89v-238v-387c0 -25 20 -46 46 -46h55c26 0 46 21 46 46l1 728c81 6 145 13 230 19c-9 -6 -14 -9 -19 -13c-40 -28 -62 -67 -62 -116c0 -15 -1 -618 -1 -618c0 -25 21 -46 47 -46h55
c26 0 46 21 46 46v311c1 47 1 260 1 309c0 75 -2 77 -75 93h240h72c-11 -5 -22 -6 -32 -9c-21 -6 -37 -17 -40 -39v-8v-667c0 -27 16 -40 40 -46c10 -3 21 -4 32 -10h-845h-1h-73c11 6 22 7 33 10c23 6 40 19 40 46v33s-1 558 -1 609v1v34z" />
    <glyph glyph-name="uni0429" unicode="&#x429;" horiz-adv-x="951" 
d="M831 55c0 -49 83 -55 83 -55v-166s-54 138 -156 163h-758c11 6 22 9 32 12c23 7 39 20 39 46v32v633c-4 20 -19 30 -39 36c-10 3 -21 3 -32 9h298c-60 -19 -66 -29 -66 -89v-611c0 -25 21 -45 46 -45h54c25 0 45 20 45 45v734h226c-8 -6 -13 -10 -18 -13
c-39 -28 -61 -66 -61 -115v-606c0 -25 20 -45 45 -45h54c26 0 46 20 46 45v611c0 73 -1 73 -73 89h307c-11 -6 -22 -6 -33 -9c-20 -6 -35 -16 -38 -38c-1 -2 -1 -5 -1 -8v-655z" />
    <glyph glyph-name="uni0427" unicode="&#x427;" horiz-adv-x="658" 
d="M21 764c5 6 11 11 18 14s16 3 23 3h138c-17 -23 -35 -46 -43 -73c-4 -12 -5 -24 -5 -37c0 -29 9 -58 26 -82c37 -53 99 -75 161 -77c3 0 23 -1 39 -1c13 0 23 1 23 2v267h220c-53 -18 -58 -24 -58 -78v-420v-190v-9c0 -41 8 -75 58 -83h-318c36 5 98 28 98 87v380v29
c0 -1 -5 -1 -13 -1c-22 0 -62 2 -68 2c-33 1 -65 4 -97 12c-25 5 -49 13 -72 24c-30 13 -58 30 -84 50c-21 16 -40 37 -52 60c-9 18 -15 39 -15 59c0 21 6 41 18 58c1 1 2 3 3 4z" />
    <glyph glyph-name="uni0451" unicode="&#x451;" horiz-adv-x="554" 
d="M173 604c-1 1 -2 3 -2 5c0 8 10 23 24 36c15 14 30 22 38 22c2 0 4 0 5 -1s1 -2 1 -4c0 -9 -9 -24 -23 -38c-14 -13 -29 -22 -38 -22c-2 0 -4 1 -5 2zM292 604c-1 1 -2 3 -2 5c0 8 10 23 24 36c15 14 30 22 38 22c2 0 4 0 5 -1s1 -2 1 -4c0 -9 -9 -24 -24 -38
c-14 -13 -29 -22 -37 -22c-2 0 -4 1 -5 2zM525 305c3 -16 5 -33 5 -49c0 -20 -3 -40 -7 -60c-22 -92 -91 -170 -182 -196c-24 -7 -49 -11 -75 -11c-56 0 -114 11 -162 44c-44 29 -73 71 -92 119c-12 31 -12 68 -12 101c0 34 12 67 27 98c24 50 63 92 110 120
c9 5 19 10 29 15c24 11 49 18 74 22c16 2 31 4 47 4l31 -2c26 -3 53 -9 77 -21c12 -6 23 -13 32 -21c19 -15 33 -37 36 -61c0 -1 1 -12 1 -12h-347c-22 0 -30 -8 -33 -28c-2 -16 -4 -31 -4 -47c0 -40 9 -81 31 -116c1 -1 1 -2 1 -2c35 -56 95 -92 159 -103c6 -1 12 -3 18 -3
c53 0 106 5 149 38c5 2 10 8 14 12c24 23 42 51 53 82c9 23 16 48 16 73c0 12 -2 23 -5 34c3 -10 7 -20 9 -30zM120 430c-1 -1 -20 -18 -19 -19h233c-2 9 -5 17 -9 24c-1 1 -2 2 -2 4c-11 17 -27 30 -46 37c-5 2 -10 3 -16 4c-7 1 -13 2 -20 2c-21 0 -41 -5 -60 -13
c-18 -7 -35 -17 -50 -29c-4 -3 -7 -7 -11 -10z" />
    <glyph glyph-name="NameMe.256" horiz-adv-x="457" 
 />
    <glyph glyph-name="glyph155" unicode="&#xa1;" horiz-adv-x="306" 
d="M261 0c-48 16 -55 21 -56 60l-32 443c1 39 5 44 32 60h-149c26 -15 31 -18 32 -49l-32 -465c-2 -31 -11 -34 -56 -49h261zM117 728c-31 -31 -52 -62 -52 -74c0 -2 0 -3 1 -4s2 -1 4 -1c13 0 43 20 74 52c31 30 53 61 53 73c0 2 -1 4 -2 5s-2 1 -4 1
c-13 0 -42 -20 -74 -52z" />
    <glyph glyph-name="glyph156" unicode="&#xbf;" horiz-adv-x="446" 
d="M259.459 746c32.1895 -33.0596 54.54 -64.6045 54.54 -77.5166c0 -1.92969 -0.499023 -3.44336 -1.54004 -4.4834c-1.04004 -1.04004 -2.57031 -1.53906 -4.52734 -1.53906c-13.0938 0 -45.2832 22.3496 -77.4727 54.5391
c-32.1885 32.1895 -54.5391 65.1602 -54.5391 78.457c0 1.9873 0.499023 3.53516 1.53906 4.5752c1.00977 1.00977 2.48047 1.49316 4.35547 1.49316c12.9814 0 45.3135 -23.1934 77.6445 -55.5254zM17.459 106c-10.0381 17.7158 -14.459 35.082 -14.459 52.0312
c0 69.1592 73.6006 131.369 139.459 181.969l77 59c11.1748 7.98145 24.8965 17.2373 24.8965 31.834c0 3.69141 -0.87793 7.72559 -2.89648 12.166c0 0 -64 135 -94 135h223c-21 0 -29 -7 -37 -24c-7 -15 -10 -32 -10 -49v-28c0 -98 -30 -127 -82 -166l-158 -118
c-14.0098 -10.1885 -21.5303 -26.4609 -21.5303 -43.1338c0 -9.50977 2.44629 -19.1494 7.53027 -27.8662c9.49219 -17.2578 28.6641 -27.8145 48.5205 -27.8145c3.15527 0 6.32715 0.265625 9.47949 0.814453l255 93l29 -149l9 -49c-6 20 -12 27 -32 31
c-8.36328 2.20117 -17.1143 3.0459 -25.9971 3.0459c-11.2969 0 -22.8066 -1.36621 -34.0029 -3.0459l-90 -16c-14 -3 -27 -4 -40 -4c-74 0 -144 39 -181 105z" />
  </font>
</defs>
</svg>
