<svg width="743" height="392" viewBox="0 0 743 392" fill="none" xmlns="http://www.w3.org/2000/svg">
<path d="M51.5577 382.46L371.43 70.6521L691.302 382.46C697.017 388.042 704.689 391.167 712.678 391.167C720.667 391.167 728.339 388.042 734.054 382.46C736.821 379.749 739.019 376.513 740.52 372.941C742.021 369.369 742.794 365.534 742.794 361.66C742.794 357.786 742.021 353.951 740.52 350.379C739.019 346.808 736.821 343.571 734.054 340.86L393.766 9.08408C387.79 3.25919 379.775 -0.000823975 371.43 -0.000823975C363.085 -0.000823975 355.07 3.25919 349.094 9.08408L8.80566 340.796C6.01888 343.509 3.80391 346.754 2.2915 350.337C0.779094 353.92 -6.10352e-05 357.771 -6.10352e-05 361.66C-6.10352e-05 365.55 0.779094 369.4 2.2915 372.983C3.80391 376.567 6.01888 379.811 8.80566 382.524C14.5207 388.106 22.1928 391.231 30.1817 391.231C38.1706 391.231 45.8426 388.106 51.5577 382.524V382.46Z" fill="#2A4E2B"/>
</svg>
